<svg height="250" viewBox="0 0 250 250" width="250" xmlns="http://www.w3.org/2000/svg"><g fill="none"><path d="m0 0v250h250v-250z" fill="#e17000"/><g transform="translate(24 29)"><path d="m92.2 133.2h6v42.86h-6z" fill="#706f6f"/><path d="m83.2 181.1c0 1.932997-1.5670034 3.5-3.5 3.5s-3.5-1.567003-3.5-3.5 1.5670034-3.5 3.5-3.5c.936554-.027976 1.8431398.331782 2.5056789.994321s1.0222968 1.569125.9943211 2.505679" fill="#313131"/><path d="m115 181.1c0 1.932997-1.567003 3.5-3.5 3.5s-3.5-1.567003-3.5-3.5 1.567003-3.5 3.5-3.5c.936554-.027976 1.84314.331782 2.505679.994321s1.022297 1.569125.994321 2.505679" fill="#3c3c3b"/><path d="m116.2 179h-41.9c0-1.601626 1.2983742-2.9 2.9-2.9h36c1.618575-.000899 2.946048 1.282325 3 2.9" fill="#706f6f"/><g fill="#3c3c3b"><path d="m115 137h-39.5c-1.8393989.000796-3.3459002-1.461397-3.4-3.3v-1.9c0-1.877768 1.5222319-3.4 3.4-3.4h39.5c1.838603.0541 3.300796 1.560601 3.3 3.4v1.9c0 .875214-.347678 1.714582-.966548 2.333452s-1.458238.966548-2.333452.966548"/><path d="m92.2 124.4h19.6c4.528735 0 8.2-3.671265 8.2-8.2v-27.1c0-9.9411255-8.058875-18-18-18-9.9411255 0-18 8.0588745-18 18v27.1c0 4.528735 3.6712651 8.2 8.2 8.2"/><path d="m92 121.3h15.3c3.495509-.054624 6.300427-2.904065 6.3-6.4v-26.6c0-7.7319865-6.268014-14-14-14-7.7319865 0-14 6.2680135-14 14v26.6c0 3.534622 2.8653776 6.4 6.4 6.4"/></g><path d="m91.5 65.2h13.8v4.83h-13.8z" fill="#bacfed"/><path d="m89.1 176.7-8.3-.8c-2.4691757 1.768662-4.8394077 3.671524-7.1 5.7-1.406324 1.339798-2.0770641 3.277491-1.8 5.2 0 0 7 1.8 10 0 2.3158547-1.390627 4.7210978-2.626655 7.2-3.7z" fill="#212121"/><path d="m112.1 95.4c2.5-7.5 8.9-20.5 5.1-22.8s-18.8-4.7-18.8-4.7v.2s-14.1 1.2-19 4.2 2.8 15.8 5.2 23.4c.6 1.8.5 9.9.3 17.2 0 1.7-1.5 9.9-1.2 13.3 0 1 11.5 3.8 14.7 4s14.6-3.2 14.7-4.2c.2-3.4-1.2-11.6-1.3-13.4-.2-7.2-.3-15.3.3-17.2" fill="#f8bc95"/><path d="m81.6 71.9c-2.7-1.1-5.4 1.7-7.3 6.7s-3.6 8.7-4 10.1-3.2 8.8-3.8 11c-.6354475 2.145339.4403126 4.425951 2.5 5.3 1.8.7 5.2-1.7 7.2-5s12.5-25.3 5.4-28.1" fill="#45ac34"/><path d="m104.2 65.6c-.3-1.4-1.1-8.5-1.1-8.5h-4.7v.2h-4.7s-.8 7.1-1.2 8.6-4.2 3.6-4.2 3.6h10.1v-.2h10s-3.9-2.2-4.2-3.7" fill="#f8bc95"/><path d="m103.9 63.6c-.3-2.1-.7-5.3-.8-6.2l-.3-.3h-4.4v.2h-4.7s-.8 7.1-1.2 8.6-4.2 3.6-4.2 3.6h.5l9.5-2.6c1.3-.3 5.6-3.3 5.6-3.3" fill="#edb293"/><path d="m84.6 115.8-7 12.1-.4 5.3h20.6l15.5-.5 2.8-4.8-4-12.1z" fill="#0068b3"/><path d="m76.4 129 2.1 48.6h12.9l1.2-48.6s-1.9-6.4-8.6-6.4-7.6 6.4-7.6 6.4" fill="#0068b3"/><path d="m84 122.6c-5.7 0-7.6 6.4-7.6 6.4l2.1 48.6h5.5z" fill="#0068b3"/><path d="m113.4 72.5c2.6-1.1 5.9-1.4 8.1 3.6s4.6 11.6 5.2 12.9 3.1 8.6 3.8 10.8.2 4.6-1.8 5.5-5.2-1.5-7.5-4.8-14.7-24.8-7.8-28" fill="#45ac34"/><path d="m118.3 72.8c-.5-1.1-4-1.9-7.1-2.9-1.767158-.5366174-3.503162-1.1709267-5.2-1.9l-7.6 4.4-7.6-4.4c-1.6888855.7489274-3.4261209 1.3836866-5.2 1.9-3.1 1-6.5 1.8-7.1 2.9s5 22.4 5.6 24.2-1 14.5.6 18.3l13.6.5h.1l13.6-.4c1.2-4.4 0-16.7.6-18.6s6.3-22.9 5.7-24" fill="#d3e1f4"/><path d="m97.8 69.8.6 2.6-4.6-1.8 2.6-1.2z" fill="#bacfed"/><path d="m118.7 72.7c-.6-1.2-4.1-2-7.3-3-1.767158-.5366174-3.503162-1.1709267-5.2-1.9l-7.8 26.7-7.7-26.8s-2.5 1.1-5.3 2-6.7 1.8-7.2 2.9 5 22.9 5.7 24.7-1 14.8.6 18.6l13.8.5h.1l13.8-.4c1.3-4.4 0-17 .7-18.9s6.3-23.3 5.8-24.4" fill="#45ac34"/><path d="m100.6 114.6c-1.3-.9-3.3-1.7-4.5-2.5s0-3.3-.1-4.6 3.7-3.9 6.2-4.8 6.9-.5 7.9-2.3-1.7-3.4-2.9-3.4-8.6-2.2-9.8-2-10 1-11.4 0-7.8-22.4-7.8-22.4c1.5 6.8 5.3 23.5 5.7 24.7s-1 14.8.6 18.6l13.8.5h.1l13.8-.4c-1.415193-.179577-2.817886-.446757-4.2-.8-1.3-.4-6 .2-7.4-.6" fill="#45ac34"/><path d="m99 69.8-.6 2.6 4.6-1.8-2.7-1.2z" fill="#bacfed"/><path d="m88.8 68.4 2.7-3.2 6.3 4.6-2.3 4.3z" fill="#e2f2fd"/><path d="m108 113s6 6.1 7.5 9.7 1.6 9.7-2.2 10-7.1.3-7.9-.2-7.3-11.6-7.2-12.9 7.2-7.7 9.8-6.6" fill="#0068b3"/><path d="m60.5 138.9 5.2 6.6c-.1544306 3.022147-.5220109 6.029622-1.1 9-.3442845 1.935007-1.6144247 3.578718-3.4 4.4 0 0-5.3-5-5.3-8.5-.0656346-2.711876-.2994168-5.41707-.7-8.1z" fill="#212121"/><path d="m107.7 124.3-42.2 24.1-6.9-10.9 40.5-26.9s6.5-1.8 10 3.8-1.4 9.9-1.4 9.9" fill="#0068b3"/><path d="m115.5 123.3c-.2-.3-7.1-9.9-7.4-10.1-3.6-4.1-9-2.6-9-2.6l-40.5 26.9 3.7 5.8s26.9-25.6 38.2-30c4.4-1.7 15 10 15 10" fill="#0068b3"/><path d="m108 68.4-2.7-3.2-6.3 4.6 2.3 4.3z" fill="#e2f2fd"/><path d="m88.8 50.4c-.2 6.1 2.1 12.2 5.9 12.7s10.8-4.5 11.5-10.5-2.3-11.2-7.8-12-9.4 3.6-9.6 9.8" fill="#f8b999"/><path d="m88.9 47.6s6-4.3 11.3.5c1.1 1-.3 5.6 0 6s1.7-3.6 1.9-3.1c1.5 3.6.3 8.1.7 8.1s5.6-7.4 3.4-13.2c-.172244-.4947909-.407514-.9653304-.7-1.4-.207176-.467241-.476255-.9044941-.8-1.3l-.7-.7c-.38286-.3942602-.820725-.7310795-1.3-1-.557452-.3784641-1.162757-.6811168-1.8-.9-.566856-.2883222-1.1735216-.4905439-1.8-.6l-1.2-.2h-1.6l-1.9.8-.8.5-.8.5-.8.7c-.578167.4925855-1.0832376 1.0649988-1.5 1.7-.2661816.3090903-.5006887.6441005-.7 1l-.3.6-.6 1.9" fill="#878787"/><path d="m101.1 52.8c-.5 1.6-.7 3.9.2 4.1s1.9-.9 2.4-2.6.1-3.2-.7-3.4-1.5.2-1.9 1.9" fill="#f8bc95"/><path d="m69.5 97.9c2.2-.7 5.3.3 7.4 6.2 1.7535382 5.487104 3.2221657 11.061213 4.4 16.7l-5.3 2.3s-5.5-8.9-6.7-12-5.7-11.5.2-13.2" fill="#45ac34"/><path d="m76.5 122.2.3 1.9c.0766613 1.702866.6695799 3.342111 1.7 4.7.9 1.3 3.3 3.7 3.7 3.5s.1-1 .1-1 1.7 1.6 2.2 1.4.2-1 .2-1 1.5.8 2.1.5-1.2-2.2-1.2-2.2 1.4.9 1.8.3-2.2-2.2-3.1-4.2-.7-1.8-.5-1.9 2.4.2 3 0 1-1 .9-1.1-1 0-2.9-.6c-.4-.1-2-1.9-4.3-1.6-1.3614841.341382-2.697953.775734-4 1.3" fill="#f8b999"/><path d="m73.9 119.5 6.3-3.5 2.3 4.8-6 3.4z" fill="#45ac34"/><path d="m131 101.8c-.2 2.3-1.6 4.1-8.1 4.1-5.659404-.267793-11.300644-.835256-16.9-1.7v-5.5s8.2-2.3 11.7-2.4 13.5-.6 13.2 5.5" fill="#45ac34"/><path d="m103.9 99.3c-3.465872.621018-6.1335578 3.409962-6.6 6.9 0 .5 1.2.9 2.2.4s5.6-2.8 5.7-4.1-.3-3.4-1.3-3.2" fill="#f8b999"/><path d="m102.9 100.7c-1.017921.618769-1.957966 1.357375-2.8 2.2l-.6.5-.4.5-.4.3-.3.6-.6.4c-.4.3-.1.6-.3.8s-.5.5-.5.6c-.1893512 1.06736-.1207785 2.164523.2 3.2.1628627.895265.4314077 1.768036.8 2.6.2 0 .9-.6.8-1.8-.1288299-.794813-.1288299-1.605187 0-2.4.416041.66912.8841563 1.304419 1.4 1.9.3.3.7 0 .8-.3v-1.2h.9c.4-.5-.1-1.3-.1-1.5s.7.2.8 0-1.1-2.6-.3-3.1 1.5-2.1.7-3.3" fill="#f8b999"/><path d="m108.9 97.9.2 7-5.2.1-.1-6.6z" fill="#45ac34"/><g fill="#a17458" transform="translate(0 44)"><path d="m21.9 28c-2.4-7.7-8.8-20.7-5.1-23s18.9-4.8 18.9-4.8v.2s14.1 1.2 19 4.1-2.8 16-5.2 23.7c-.6 1.8-.5 10-.3 17.3.1 1.8 1.5 10 1.3 13.5-.1 1-11.5 7.3-14.7 7.5v-.3c-3.2-.1-14.7-6.4-14.8-7.4-.2-3.5 1.2-11.7 1.3-13.5.2-7.3.2-15.5-.4-17.3"/><path d="m20.2 4.3c2.6 1.3 3 6 .4 10.7-1.6643259 3.0678405-3.500583 6.0392383-5.5 8.9-.7 1.3-4.3 8.8-5.6 10.7s-4.1 3.5-6.1 2.4-3.6-1.7-2.4-5.4 11-31.3 19.2-27.3"/></g><path d="m29.7 41.9c.4-1.4 1.2-8.6 1.2-8.6h4.7v.2h4.8s.8 7.2 1.1 8.6 4.3 3.7 4.3 3.7h-10.2v-.2h-10.1s3.9-2.2 4.2-3.7" fill="#a17458"/><path d="m30.1 39.9c.3-2.2.6-5.3.7-6.3l.3-.3h4.5v.2h4.8s.8 7.2 1.1 8.6 4.3 3.7 4.3 3.7h-.5l-9.6-2.6c-1.3-.3-5.6-3.3-5.6-3.3" fill="#956856"/><g fill="#f8bc95"><path d="m43.3 95c5.8-.1 8.1 4 7.9 16.4s-1.9 25.9-2.7 27.9-9.1 2-9.9.8-2.9-26.9-2.9-30.9 1.3-14.2 7.6-14.2"/><path d="m43 149.2h1.5c2.296376-.106923 4.1024879-2.001137 4.1-4.3l-.2-5.2c-.0262082-1.114014-.4940453-2.17195-1.3005218-2.940916s-1.8854797-1.185924-2.9994782-1.159084h-1.5c-1.1140135.026208-2.1719502.494045-2.9409162 1.300522-.7689659.806476-1.1859235 1.885479-1.1590838 2.999478v5.1c.1080581 2.335624 2.0625694 4.156873 4.4 4.1"/><path d="m43.8 141.6c1.8 0 6.1.6 5.9 12.2s-5.1 27.5-5.1 27.5h-4.2s-2.1-21.5-2.1-25.6c-.1-9.4-.1-14.1 5.5-14.1"/><path d="m28 95.1c-5.8-.7-8.5 3.1-9.6 15.5s-1.7 26-1.1 28 8.8 2.9 9.7 1.9 6.6-26.5 7-30.5.3-14.3-6-14.9"/><path d="m21.8 149.1-1.5-.2c-2.299479-.311669-3.9368863-2.391618-3.7-4.7l.7-5.2c.3596452-2.259163 2.4251462-3.841249 4.7-3.6l1.5.2c2.2878953.310807 3.8958851 2.410127 3.6 4.7l-.6 5.2c-.3108071 2.287895-2.4101271 3.895885-4.7 3.6"/><path d="m21.7 141.4c-1.7-.2-6.1 0-7.1 11.5s.9 27.9.9 27.9l4.2.4s5.6-21.1 6.1-25.2c1-9.3 1.5-14-4.1-14.6"/><path d="m53.2 48.8c-2.8.9-3.8 5.5-1.9 10.5 1.2711091 3.2702221 2.7062637 6.474288 4.3 9.6.5 1.3 3.1 9.3 4.1 11.3s3.6 4 5.7 3.2 3.8-1.2 3.1-5-6.7-32.5-15.3-29.6"/></g><path d="m49.6 92.5c1.0882569 5.2188287 1.8894602 10.493417 2.4 15.8.4 5.5-2.3 29.9-2.3 32.6s.2 10.9 0 19-2.2 23.9-2.2 23.9l-10.3-.2s-.1-34.1-.1-39.5-1.4-33.6-1.4-33.6v-17.6z" fill="#333332"/><path d="m15.4 49.1c.6-1 4.1-1.9 7.2-2.9 1.7386263-.5636298 3.4417123-1.2315067 5.1-2l1.7.9c3.8782537 2.1924605 8.6217463 2.1924605 12.5 0l1.5-.9s2.5 1.1 5.3 2 6.7 1.8 7.2 2.9-5.1 22.9-5.7 24.7 1 14.8-.6 18.7l-13.9.4-13.9-.4c-1.2-4.4.1-17.1-.6-18.9s-6.9-22.7-5.8-24.5" fill="#6296d0"/><g transform="translate(12 92)"><path d="m10 .2s-3.2 9.9-4.1 15.4-1.7 30.1-2 32.7-1.3 10.9-1.9 18.9-1.6 24.1-1.6 24.1l10.3.8s4.9-33.9 5.4-39.3 7.7-33.5 7.7-33.5v-18.4z" fill="#333332"/><path d="m34.4 91.8s3.5 4.1 3.4 5.2c-.7415463 1.7555822-2.4000444 2.9512436-4.3 3.1-2.1.1-5.5-1.8-6-1.8s-1.2-6.7-1.2-6.7z" fill="#212121"/></g><path d="m13.8 183.4s-3.9 3.7-3.8 4.9c.5469205 1.783244 2.0588387 3.101326 3.9 3.4 2.1.3 5.6-1.2 6.1-1.2s1.9-6.4 1.9-6.4z" fill="#212121"/><path d="m23.2 113c-.6 3.7-2.2 28.2-2.3 29.6s-5 39.2-5.1 41l-3.4-.3s.9-16 1.6-24.1 1.7-16.2 1.9-18.9 1.1-27.2 2-32.7 4.1-15.4 4.1-15.4l8.2.5s-6.4 16.7-7 20.3" fill="#212121"/><path d="m37.4 103.7c.8357892-1.507533 2.5620987-2.287593 4.2458471-1.918552 1.6837483.369041 2.9255296 1.799641 3.0541529 3.518552.4 4 .5 6.7.1 8.6-.9 4.6-2.1 27.1-1.9 27.7s0 42 0 42h-5.7s-.1-34.1-.1-39.5-1.4-33.6-1.4-33.6v-3.8z" fill="#212121"/><path d="m55.9 48.6s3.6.9 6.7 7.4 5.9 19.8 5.9 19.8c-1.6511334 1.2314881-3.5158439 2.1468914-5.5 2.7-3.6 1.1-5.2.8-5.2.8l-4.6-13.8s-1.8-16.4 2.7-16.9" fill="#6296d0"/><path d="m17.7 47.8s-3.7.4-7.4 6.5-9.1 19-9.1 19c1.51231859 1.4147255 3.27599988 2.5339848 5.2 3.3 1.60584507.759171 3.33162186 1.2329137 5.1 1.4l7.2-13.1s3.4-16.2-1-17.1" fill="#6296d0"/><path d="m46.7 28.7c-1.1 6-4.7 11.7-8.6 11.3s-9.7-6.8-9.2-12.8 4.8-10.7 10.4-10.3 8.5 5.6 7.4 11.8" fill="#ab795b"/><path d="m45.2 22s-3-1.6-9.3 2c-1.4.7-.9 5.6-1.3 5.9s-.9-3.9-1.2-3.4c-2.3 3.2-2.1 7.9-2.5 7.8s-1.3-1.6-1.7-3.7c-.2040644-.8514717-.3047903-1.7244297-.3-2.6-.1002513-.9974874-.1002513-2.0025126 0-3l.3-1.8c.1-.4 1-1 1-2.4s2.4-3.3 4.6-3.9c.6209152-.2657489 1.255086-.4993907 1.9-.7 1.6335085-.2972465 3.3194169-.0513848 4.8.7l.9.4c.2.1.1.3.6.2s1.4.5 1.8.8.4.9.9 1.8 1 1.4 1.1 4.2" fill="#55210e"/><path d="m34 28.4c.1 1.7-.2 4-1.1 4.1s-1.7-1.4-1.8-3.1.5-3.2 1.4-3.3 1.4.5 1.5 2.3" fill="#ab795b"/><path d="m32.7 88.8c-1.9-3.2 3.3-8.2 5.7-9.1s6.7-.4 7.3-2.2-10.7-5.4-11.8-5.3-9.3 1-10.7 0-7.8-20.7-7.8-20.7c1.5 6.6 5.5 21.8 5.9 23s-1 14.2.5 18l12.9.4h.1l12.9-.4s-13.8-1.6-15-3.7" fill="#4288c8"/><g fill="#ab795b" transform="translate(0 70)"><path d="m68.3 9.3c-.7-2.2-1.8-3.8-4.7-3.1s-8.9 4.4-8.9 4.4l1.1 3.6s6.6 1.4 8.2 1.2 6.2-.2 4.3-6.1"/><path d="m.8 8.2c-.3-2.4.7-4.4 7.2-5.5s21.8-1.8 21.8-1.8l.4 3.8s-12.3 5.2-15.8 5.9-12.9 3.7-13.6-2.4"/></g><path d="m26.7 75.2c1.4497923.6652129 2.9556821 1.2006404 4.5 1.6 1.1.2 5.1-.3 6-.3s4.6 3 4.8 2-2.8-5-2.8-5-4.1-3.2-5.9-3.1-4.9.6-4.9.6z" fill="#ab795b"/><path d="m61 80c-1.5493201-.3601114-3.1187878-.6272549-4.7-.8-1.1.1-4.9 1.3-5.8 1.5s-6.1-.2-6 .7 5.1 2.9 5.1 2.9c1.8709991.4161204 3.7833648.6174221 5.7.6l4.9-.5z" fill="#ab795b"/><path d="m43.6 80.2h29.5l-15.2-1.6h-25.9z" fill="#5b5a5a"/><path d="m43.6 80.2h30.3l3.4-22.8h-30.3z" fill="#d2d6d9"/><path d="m43.6 82-11.6-1.7v-1.7l11.6 1.6z" fill="#c4c8cd"/><path d="m43.6 80.2h30.3v1.75h-30.3z" fill="#767676"/><path d="m54.9 83.7s-3.3-.9-3.4-1.5-3.5-2.4-3.6-2.8 1.5-.7 2.8-.2c.7560129.3250072 1.5794449.4622458 2.4.4.5 0 2.4-.7 4 0 1.0553589.4657869 1.6982181 1.5506119 1.6 2.7 0 .5-2.8 2.3-3.8 1.4" fill="#ab795b"/><path d="m116.9 107.3h4.3v78.05h-4.3z" fill="#646363"/><path d="m192 107.7h4.3v78.05h-4.3z" fill="#646363"/><path d="m117.7 107.3h77.7v11.38h-77.7z" fill="#646363"/><path d="m116.9 112.4h1v3.78h-1z" fill="#121212"/><path d="m116.9 112.4v3.8l.8-.1v-3.7z" fill="#575756"/><path d="m195.4 115h.9v-2.6h-.9z" fill="#575756"/><path d="m117.7 112.4v3.7l77.7-1.1v-2.6z" fill="#575756"/><path d="m111.9 105.7h89.6v7.04h-89.6z" fill="#b2b2b2"/><path d="m145.5 69.1-3.3 36.5 8.8.3 3.9-41.9z" fill="#f5bfd9"/><path d="m157.5 51.5c2 1.6 1.2 5.1-1.7 8.1s-21 15.2-22.3 15.1-4.2-2.1-3.5-3.9 14.4-14.4 17.2-16.4 7.8-4.9 10.3-2.9" fill="#f5bfd9"/><path d="m133 75.4c-2.5-.3-5.1-6.2-6.5-10.6s-4.5-17.8-4.5-17.8l3.8-1.1 10.3 23.2c.4 1.2 1 6.8-3.1 6.3" fill="#f8b999"/><path d="m169.4 97.1c.441086 2.2381007.608979 4.521453.5 6.8-.4 5.7-19.5 7.4-20.2 7.2s-6.9-6.8-7.5-8.9 2.1-5.7 3.7-10.4z" fill="#44195e"/><path d="m132.5 176.6c.626873 1.969675.897773 4.03529.8 6.1-.196331 1.174643-.992952 2.160936-2.1 2.6-2 .3-3.7-.3-5.8-.3s-5.9.8-8.7.6c-1.3-.1-4.1-.6-3.9-1.3s4.1-1.6 6.2-2.5c3.040281-1.24224 5.982039-2.713119 8.8-4.4 0 0 4.5-1 4.7-.8" fill="#f4a17f"/><path d="m153.4 98.2c3 3.6 5.6 11.2-.1 18.8s-13.1 19.9-14.1 20.2-7.6-2.6-8.2-3.6 11.6-33.5 12.3-35.1 6.6-4.5 10.1-.3" fill="#44195e"/><path d="m139.5 134.5c3.3 4.4 1.6 16.2.8 20s-7.4 21.7-7.4 23.1-5 .6-5.1-.2 2.6-29.6 2.6-31.6.4-11.5.5-12.4c.7-4.7 6.7-1.5 8.6 1.1" fill="#44195e"/><path d="m158.5 51.8c-1.7-.1-1.6-2.1-1.5-3.7v-.2c.2-.7.4-10.5.4-10.5l10.1-3.1s-1 9.8-.6 11.7c-2.6 2.6-4.8 6-8.5 5.8" fill="#f4a17f"/><path d="m148.8 83.5c.365323-3.9795282-.217249-7.9889953-1.7-11.7-.5-.7-2.5-3.6-2.4-6s3.9-8 4.2-9.2-.1-2.9.5-3.7 6.7-3.8 7.6-4.8c.9 1.2 7.4.5 10-2.1v.2c2.1 2 8.5 3.9 9.8 7.2s-7.2 13-7.6 26.7c-.2 4.1-.1 11.6.1 17-8.3-.4-15.3-3-23.5-5.3 1.489115-2.5554965 2.47361-5.3731897 2.9-8.3" fill="#92d2f4"/><path d="m169.7 101.3c1.6 6.3-5.9 13.8-12.3 20.8-8.6 9.4-15.2 17.3-16.2 17.4s-6.3-3.2-6.8-4.3 11.3-24.3 15.6-32.2c6.6-12 16.9-12.3 19.7-1.7" fill="#542c6a"/><path d="m119.8 177.2c.2 1.3 1.4 3.4 1.5 4.4.000688 1.072484-.571201 2.063758-1.5 2.6-1.9.7-2.6.5-5.7 1.3s-7.2 2.2-8.7 2-4.7-1-4.6-1.7 4.3-1.2 6.2-2.4c3.279576-2.259012 6.239576-4.949921 8.8-8 0 0 4 1.5 4 1.8" fill="#f8bc95"/><path d="m141.9 139.4c1.5 5.4-4.3 15.7-6.4 19s-14.8 17.6-15.3 18.9-4.9-1.3-4.7-2.1 13.1-26.6 13.9-28.5 4.4-10.6 4.9-11.4c2.3-4.2 6.7 1.1 7.6 4.1" fill="#542c6a"/><path d="m133.3 180.1c.100936.863728.100936 1.736272 0 2.6-.196331 1.174643-.992952 2.160936-2.1 2.6-1.864878.166858-3.742269.133334-5.6-.1-2.1 0-6.4.5-8 .5s-5.4-.7-5.2-1.4 4.5-1.6 6.6-2.5c.874711.55647 1.868211.899056 2.9 1 1 0 11.3-2.7 11.4-2.7" fill="#282727"/><path d="m152.3 24.3c2.2-2.7 9.2-5.7 13.4-1.2s3.1 9.5 1.5 12.8c-1.090688 2.4318569-2.953784 4.4355642-5.3 5.7-.5.3-5.8 1.9-6.9 1.7s-1.9-5.6-2.2-5.5c-.398771-.0668092-.737087-.329944-.9-.7-.1-.6.1-4.7-.1-5.1s-2-4.7.5-7.7" fill="#f8b999"/><path d="m120.4 179c.372739.839753.673811 1.709518.9 2.6-.037299 1.061961-.599325 2.03614-1.5 2.6-1.9.7-2.6.6-5.7 1.3s-7.2 2.2-8.7 2-4.7-1-4.6-1.7 4.3-1.2 6.2-2.4l1.7.8z" fill="#3c3c3b"/><path d="m150.4 27.8 8.5.7c1.7.3 5.4 15.7 5.8 16.6 4.6 7 7.3-1.7 6.8 0 0 0 2.2-2.8-1.1-18.2-2-5.2-8-7.1-12-6.6s-8.2 3.2-8 7.5" fill="#40245d"/><path d="m145.5 69.1c1.980694.9768233 4.109501 1.6188444 6.3 1.9 8.8 1.4 10.4-3.6 12.4-5.5s4.1-11.1 4.1-11.1l8 3.4s-6.4 12.9-6.8 19.5c-.2 3.7-.1 19.8-.1 19.8-4.405934-.2762291-8.766746-1.0477574-13-2.3-2-.7 1.6-5.4 1.5-9.4s-9.4-11-10-11.8-2.4-4.5-2.4-4.5" fill="#5bc5f2"/><path d="m126.5 44.6s-1-3.6-1.6-4.2-3.7-5.8-4.1-5.1 1.9 5.1 1.8 5.2c-1.171326.5257916-2.251504 1.2346582-3.2 2.1-.7.8 2.7 5.4 2.7 5.4l3.6.4z" fill="#f8b999"/><path d="m168.9 46c-2.79414 1.6914216-4.586166 4.640798-4.8 7.9-.5 5.7 4.3 39.5 4.5 45.7s.3 9.6.3 9.6l7.4-3.3s-.7-54.3-1.8-56.3-5.6-3.6-5.6-3.6" fill="#f5bfd9"/><path d="m154.9 49.5-7.4 9.6 1.1-5.7s3.6-3.7 6.3-3.9" fill="#f5bfd9"/><path d="m182.5 80.1c.6 1.2 9.5 23.9 9.5 23.9l-3.9 1s-7.1-11-9.3-15.1-4.4-10.2-2.9-12.1c2.7-3.4 6.1 1.2 6.6 2.3" fill="#f8b999"/><path d="m171.4 49.2c2.3-1.1 5 1.2 6.4 5.1s4.3 25.6 3.6 26.8-4.1 2-5.4.5-6.1-18.4-6.7-21.8-.9-9.2 2.1-10.6" fill="#f5bfd9"/><g transform="translate(174 77)"><path d="m9.1 2.1c.27989662 1.12414373-.3199594 2.2810089-1.4 2.7l-4.5 1.3c-.53022617.18548569-1.11401374.13943959-1.60860402-.12687825-.49459027-.26631784-.85438339-.72835365-.99139598-1.27312175-.32434423-1.10384561.29990271-2.26316136 1.4-2.6l4.4-1.4c1.1296002-.33073395 2.31941401.28620655 2.7 1.4" fill="#f5bfd9"/><path d="m13.1 26.4c1 1.6 2.1 3.9 4.2 4.2s3.7-.6 5-.6 2.1.3 2.2.1-.6-1.2-.6-1.2c.9756491-.1622801 1.9765129.0521907 2.8.6 1 .8 1.6 1.4 2.1 1.1s-2.2-3-3.1-3.3l-9.1-1.7z" fill="#f8b999"/></g><path d="m164.5 35.5s.3-3.7 4.3-2.2.6 6.5-.2 8.8c1.1 3.3 4.9 5.5 4.5 5.9-2.1 2.4-14.6.6-15.8.7-3.1.5.5-6.7.5-5.6 2.938517-.7662917 5.715805-2.0533277 8.2-3.8z" fill="#40245d"/><path d="m114.4 17.7c-1.526483-.3331598-3.107225.2529644-4.047499 1.5007747s-1.06795 2.9288766-.326915 4.3043813 2.215124 2.1936412 3.774414 2.094844c1.035045.0826999 2.060337-.2507649 2.848706-.9265098.788369-.6757448 1.27472-1.6379743 1.351294-2.6734902.111133-1.0513904-.209353-2.1028494-.888039-2.913502s-1.657411-1.3110284-2.711961-1.386498" fill="#87cac0"/><g fill="#87cac0" transform="translate(97)"><path d="m18.1 8.9c-4.4364666-.2816563-8.73055774 1.6226797-11.5 5.1-.66274164.8284271-.52842704 2.0372583.30000006 2.6999999.82842709.6627417 2.03725822.5284272 2.69999994-.2999999 1.9028345-2.5767385 5.0089302-3.9782695 8.2-3.7 2.9684117.2239852 5.6649691 1.8123683 7.3 4.3.5567995.8773017 1.7150705 1.1445951 2.6.6.8773017-.5567995 1.1445951-1.7150705.6-2.6-2.2846256-3.4899586-6.0444462-5.73847877-10.2-6.1"/><path d="m18.7.8c-6.7111355-.20957823-13.2031866 2.40174957-17.9 7.2-.34742509.37001753-.53236031.86366089-.51357467 1.37087314s.23973027.98582306.61357467 1.32912686c.35298357.341825.83036522.5244884 1.32136937.5056037.49100415-.0188848.95294524-.2376761 1.27863063-.6056037 4-4 9.8-6.4 14.9-6 5.0064282.17844366 9.6527355 2.64909912 12.6 6.7.36674.450319.9192948.7081779 1.5.7.4178255-.0057936.828604-.1084883 1.2-.3.4027031-.3149081.6615179-.7788076.7179717-1.286892.0564539-.5080845-.0942168-1.01748238-.4179717-1.413108-3.6152324-4.8860044-9.2295864-7.89500458-15.3-8.2"/></g></g></g></svg>