<svg height="167" viewBox="0 0 173 167" width="173" xmlns="http://www.w3.org/2000/svg"><g fill="none" transform=""><path d="m0 0v167h173v-167z" fill="#007bc7"/><g transform="translate(8 7)"><path d="m68.5 112.6c-4.1 5.8-5.5 6.6-11.4 7.3-1.8.3-2.4.7-2.3 2.6 5.6.4 10.4.4 16 .3.8-1.3 1.1-2.2 2.6-2.3v2.3h5l.3-4.7-1.2-5z" fill="#221b14"/><path d="m95.9 22.2-6.9 7.8-.8-.2c-2.3-5.6-2.3-6.5-3.6-12.6l8.1-4.9c.3 2.2.9 3.2 1.3 5.6.3769759 1.5334229 1.0200575 2.9888181 1.9 4.3" fill="#f8d7ae"/><g transform="translate(73)"><path d="m5.4 19.6c.23822628.3774877.19742112.8671496-.1 1.2 0 .3865993.31340068.7.7.7 1.5-.5 1.2.6 1.1.7s-.8.7-.5 1 .5.1.5.3-.3 1.6.6 2.3 5-2.6 6.9-4.2.6-2.3-.1-4.2c1.1-.1 1.7-.6 1.4-2.1.6393737-1.9445858 1.0422735-3.9590848 1.2-6 0 0-5.4-7.4-5.6-7.4l-6.4 2.4c-.4 1.5-1.4 2.9-1.8 4.6-.38705348 1.4665513-.52230867 2.9881721-.4 4.5-.05917342.548896.12332366 1.0963873.5 1.5l.4.6c.4 1.6-.8 3.3-.6 3.8.60538646.5352633 1.47340096.653629 2.2.3" fill="#fedea9"/><path d="m10.5 13.3.7 1.7c.2.5.3.8.6.9.4536924-.6972777.7599692-1.4799852.9-2.3.6-1.1 1.5-2.4 2.5-2.4s1.1 2 .8 3.4c-.1823518.6467488-.0727492 1.3408987.3 1.9.7.9 1.4.1 2.7.8.9431777.5995848 1.8154043 1.3040756 2.6 2.1-.2-2.7-.5-3.6 0-5.5s-.1-6.9-2.1-8.9h.2c-1.7-1.5-2.1-2.2-4.4-2.6-1.7764635-1.57447986-4.2784536-2.03638573-6.5-1.2.76564683-.12068514 1.547717-.08668209 2.3.1-8.2.6-8.4 7.1-10.8 7.1 2.4 2.4 4.4 1.6 7 .3 1.68452911 1.16408099 2.7220603 3.0538699 2.8 5.1l.3-.7z" fill="#55210e"/></g><path d="m90.8 70.4c.1-5.8-2.9-15-5.6-22.2-1.2928697-3.832996-2.1974111-7.7861771-2.7-11.8-.5-3.7-1-5.3 1.3-8.1.9617483-1.2312265 1.7058106-2.6178882 2.2-4.1.1476092.3750338.3144984.74219.5 1.1-.1 7.8.3 14.7 2.9 20.8 5.9 13.7 9.6 19.7 11.7 24-1.7-.1-9.3 1.2-10.3.3" fill="#3a4953"/><path d="m75.8 50.3c-2.9 1.4-15.5 5.9-19.8 7.1l1.5 4.8c4.3-.8 14.5-2.4 20.3-3.9 1.8-.5 4-3.5 2.5-5.2s.6-5.1-4.5-2.8" fill="#3a4953"/><path d="m25.5 152.3c12.0398075 0 21.8-9.760192 21.8-21.8s-9.7601925-21.8-21.8-21.8-21.8 9.760192-21.8 21.8c.05474826 12.017057 9.782943 21.745252 21.8 21.8" fill="#1d160f"/><path d="m25.5 144c7.4558441 0 13.5-6.044156 13.5-13.5s-6.0441559-13.5-13.5-13.5-13.5 6.044156-13.5 13.5 6.0441559 13.5 13.5 13.5" fill="#e0e0e0"/><g transform="translate(0 57)"><path d="m24.5 85.6c6.1303607 0 11.1-4.9696393 11.1-11.1s-4.9696393-11.1-11.1-11.1-11.1 4.9696393-11.1 11.1c.0542941 6.10773 4.99227 11.0457059 11.1 11.1" fill="#323231"/><path d="m53.9.7c-.6.9-2.4 8.2-3.1 9-9.9 12.2-23.7 22.8-21.4 38.6 11.8 4.2 14.5 8.3 19.6 18.5 4.2 8 7.6 11 12.2 12.2h38.8c10.9-30.5 6.7-19.3 53.4-13.9 3.3-16-23.5-23-26.1-30.7h-42.5c-.2 2.2 5.9 5.1 9.9 9.4s-10.3 5.3-11.1 21l-24.1-.7c-6.5036816-5.466836-10.1504335-13.6075649-9.9-22.1.4-9.9 7.7-20.4 9-29.3 1.3-8.9-.1-11.2-4.7-12" fill="#323231"/><path d="m86.4 21.8h37.9c1.166953 0 2.28611.4635701 3.11127 1.2887302.82516.82516 1.28873 1.9443172 1.28873 3.1112698v6.5c0 2.4300529-1.969947 4.4-4.4 4.4h-37.9c-2.4300529 0-4.4-1.9699471-4.4-4.4v-6.5c0-1.1669526.4635701-2.2861098 1.2887302-3.1112698.82516-.8251601 1.9443172-1.2887302 3.1112698-1.2887302" fill="#1d160f"/><path d="m24.5 47.2c7.2404102 0 14.184272 2.8762417 19.3040151 7.9959849 5.1197432 5.1197431 7.9959849 12.0636049 7.9959849 19.3040151.0052005 3.2102455-.5707514 6.3949209-1.7 9.4-21.3-6.5-18.3-16.4-49.5-22.5 4.74707439-8.7702934 13.9274301-14.2247307 23.9-14.2" fill="#455561"/></g><path d="m129.7 152.3c12.039808 0 21.8-9.760192 21.8-21.8s-9.760192-21.8-21.8-21.8-21.8 9.760192-21.8 21.8c.054748 12.017057 9.782943 21.745252 21.8 21.8" fill="#1d160f"/><path d="m129.7 144c7.455844 0 13.5-6.044156 13.5-13.5s-6.044156-13.5-13.5-13.5-13.5 6.044156-13.5 13.5 6.044156 13.5 13.5 13.5" fill="#e0e0e0"/><path d="m129.7 141.6c6.130361 0 11.1-4.969639 11.1-11.1s-4.969639-11.1-11.1-11.1-11.1 4.969639-11.1 11.1 4.969639 11.1 11.1 11.1" fill="#323231"/><path d="m92.8 130.2c-1.4710919-1.11654-1.7818757-3.203231-.7-4.7.5013364-.723753 1.2787207-1.208976 2.1491303-1.341429.8704097-.132454 1.7569393.099564 2.4508697.641429l8.2 6.2h.1l.5.4c.564778.450467 1.166962.851923 1.8 1.2h27.4c.875214 0 1.714582.347678 2.333452.966548s.966548 1.458238.966548 2.333452c0 1.82254-1.47746 3.3-3.3 3.3h-24.1c-2.6 0-3.8.1-5.2-.4-1.402788-.467971-2.695683-1.216489-3.8-2.2l-.5-.3h-.2z" fill="#455561"/><path d="m58.8 121.5h26.3c.9941125 0 1.8.805887 1.8 1.8s-.8058875 1.8-1.8 1.8h-26.3c-.9941125 0-1.8-.805887-1.8-1.8s.8058875-1.8 1.8-1.8" fill="#585d62"/><path d="m43.5 51.8h7.3c3.5898509 0 6.5 2.9101491 6.5 6.5v3.4c0 3.5898509-2.9101491 6.5-6.5 6.5h-7.3c-3.5 0-3.8-2.9-3.8-6.5v-3.4c0-3.6.3-6.5 3.8-6.5" fill="#1d160f"/><path d="m43.5 51.8 3.2 1.5-.2 13.5-3 1.4c-3.5 0-3.8-2.9-3.8-6.5v-3.4c0-3.6.3-6.5 3.8-6.5" fill="#dfe0e2"/><path d="m43.5 51.8h4v16.4h-4.5v-16.4z" fill="#455561"/><path d="m56.3 59 18.1 5.1c1.3357866.4557831 2.2510827 1.6894429 2.3 3.1.0575659.5952149-.1842246 1.1801586-.6452537 1.5610087s-1.0810983.5078775-1.6547463.3389913l-18.1-5.1c-1.3737585-.4025572-2.3130316-1.6685341-2.3-3.1-.0575659-.5952149.1842246-1.1801586.6452537-1.5610087s1.0810983-.5078775 1.6547463-.3389913" fill="#1d160f"/><path d="m66.2 81.6 1.3 31.6 10.4-.5-1.2-17.3-1-18.2c-7-2.5-9.9.5-9.5 4.4" fill="#3a4953"/><path d="m89.2 86c5.1.1 17.4-2 21.6-5.3l-5.5-14.1-17.4 4.6-17.4 4.9c-5.4 1.7-4.1 5.4-2.6 8.3l2.9 3.3c6.0780316-1.0575935 12.2310854-1.6260822 18.4-1.7" fill="#1f3059"/><path d="m115.1 65-11-5.5-7.4 6.1-1.4 2.4-2.6 2.6-21.2 4.9c-1.7.5-2.4.5-3.6 2-2.5 3-.2 5.9 4 10.3 6.2-.1 18.7 0 23.9-.6 13.1-1.6 24.1-5.8 19.3-22.2" fill="#455561"/><path d="m87.6 45.6c-2.1 4-5.9 11.2-10 12.5-1.3.3-4.5-2.3-2.6-6.6.5-1.4 1.6-1.9 4.3-11.8s4.5-13.5 10.5-10.5-.2 13.2-2.2 16.4" fill="#3a4953"/><path d="m95.8 20.7c.7.3 1.5 1.4 3.2 1.6 5 .7 4.7 1.4 6.6 3.2s5.3 14.9 6.5 27.3c.3 3.4 2.8 9.3 3.3 12.5-1.9 3.1-18 3-19.8 1.3-4.1-7.4-6.5-11.6-9.1-18.8-1.5064914-3.6703638-2.6128844-7.4924485-3.3-11.4-.5-3.7-1.7-5.3.6-8.1.9617483-1.2312265 1.7058106-2.6178882 2.2-4.1 2.6 8.4 8.6-4 9.8-3.5" fill="#92d2f4"/><path d="m96.7 20.9c6.4 2.1 7.1 1.3 10 4.1s4.9 15.2 6.1 27.6c.4 3.4 4.3 17 6.4 20.2-1.4 1.2-8.2 2.3-11.9 2.5-7.9-11.6-12.9-22.4-13.8-32.1s1.8-17.4 3.2-22.3" fill="#3a4953"/><path d="m90.2 57.4c-1.8692473-3.0279202-3.4112482-6.246009-4.6-9.6-1.452578-3.6733864-2.4922964-7.4968671-3.1-11.4-.5-3.7-1-5.3 1.3-8.1l.9-1.4c3 11.1 4.1 19.1 5.5 30.5" fill="#3a4953"/><path d="m105.5 39.5c-.9 2.7-3.6 10.8-5.2 13.7-.1.2-7.8 5.7-7.8-2.9-.4-.8 1.9-7.7 3.2-18.3 1.1-8.7 6.8-9.1 9.6-7.2s2.8 7 .2 14.7" fill="#455561"/><path d="m67.1 61.5c-.7585529.2136877-1.4260304.6703829-1.9 1.3l-1.8 1.5c-.3506668.7115697-.6513931 1.4466785-.9 2.2.1 1.5-.1 2.4.6 2.4s.8-.7 1.1-2.2l.4-.7c-.2585817.5981927-.3283589 1.2610767-.2 1.9.0395408.365999.2448865.6935978.557059.8887056s.6966263.2361337 1.042941.1112944c.3-.1.2-.3.1-.6v-.8c.6-.5 1.1-1.1 1.7-1.7-.4890935.5933233-.9241589 1.2291881-1.3 1.9-.1.7.4.9.9 1.1s1-.9 2.3-2.1c-.4910512.4757435-.8672403 1.0571266-1.1 1.7-.1.7.7.6 1.1.5 2.0042513-.8692996 3.9142139-1.9415593 5.7-3.2.7-.5 1.1-1 1.6-1.3l4.1-2.2-2.5-4.7-4.8 2.4c-.7 0-6.1 1.4-6.7 1.6" fill="#fedea9"/><path d="m94.9 19.6c-1.2261837 3.0900005-3.3957787 5.7145106-6.2 7.5 0 .1 0 .1.1.2 1.4063159.8143333 2.6044214 1.9439756 3.5 3.3 1.5-2.8 4-6.4 3.6-9.9z" fill="#b8e0f8"/><g transform="translate(85 24)"><path d="m1 .1c.3113911 1.40441475 1.33603191 2.54290454 2.7 3 0 0 .1.1 0 .1-1.09115553.9807671-1.77007964 2.33861532-1.9 3.8-.89980055-1.59865134-1.44545808-3.37203831-1.6-5.2z" fill="#b8e0f8"/><path d="m51.6 80.7c-6.9088351-2.1532247-14.390907-1.4645698-20.7906305 1.9135833-6.3997235 3.3781532-11.1894608 9.1672862-13.3093695 16.0864167-.9801885 3.066063-1.386981 6.286505-1.2 9.5 22.3.1 22.4-10.3 54-6.9-1.9434045-9.7968483-9.1363158-17.7205902-18.7-20.6" fill="#455561"/></g><path d="m99.1 54.3c-7 4.8-14.2 6.6-21.9 10.5-.9562467-1.8352144-2.1314899-3.5477115-3.5-5.1 0 0 14.4-8.2 20-12.7s10.1 4 5.4 7.3" fill="#455561"/><path d="m72.9 113c-4 5.8-5.5 6.6-11.3 7.4-1.8.2-2.4.6-2.4 2.5 5.6.4 10.4.4 16 .3.9-1.3 1.2-2.1 2.6-2.3l.2 2.3h5l.2-4.7-1.2-5z" fill="#1d160f"/><path d="m66.8 82.2 5.2 32.8 10.4-.5-1.4-23.4-4.6-13.3c-7.1-2.4-9.9.5-9.6 4.4" fill="#455561"/></g></g></svg>