<svg height="250" viewBox="0 0 250 250" width="250" xmlns="http://www.w3.org/2000/svg"><g fill="none"><path d="m0 0v250h250v-250z" fill="#007bc7"/><g transform="translate(29 31)"><path d="m84.2022959 139c-5.1441752 6.786566-6.9007228 7.722644-14.3033164 8.541712-2.2584184.351029-3.0112245.819068-2.8857568 3.042253 7.0261905.468039 13.0486395.468039 20.07483.35103 1.0037415-1.521127 1.3801445-2.574215 3.2621599-2.691225v2.691225h6.2733843l.3764031-5.499459-1.5056123-5.850487z" fill="#221b14"/><path d="m117 27.3050847-8.548673 9.6949153-.99115-.2485876c-2.849558-6.9604519-2.849558-8.079096-4.460177-15.6610169l10.035398-6.0903955c.371682 2.7344633 1.115044 3.9774011 1.61062 6.960452.46705 1.9059494 1.263788 3.7149151 2.353982 5.3446327" fill="#f8d7ae"/><g transform="translate(89)"><path d="m6.62727273 24.1230769c.29236862.4646002.24228956 1.0672611-.12272728 1.4769231 0 .4758146.38462811.8615385.85909091.8615385 1.84090909-.6153847 1.47272728.7384615 1.35.8615384-.12272727.1230769-.98181818.8615385-.61363636 1.2307693.36818182.3692307.61363636.1230769.61363636.3692307 0 .2461539-.36818181 1.9692308.73636364 2.8307693 1.1045455.8615384 6.1363636-3.2 8.4681818-5.1692308s.7363637-2.8307692-.1227273-5.1692308c1.35-.1230769 2.0863637-.7384615 1.7181819-2.5846154.7846859-2.3933363 1.2791538-4.8727197 1.4727272-7.3846154 0 0-6.6272727-9.10769226-6.8727272-9.10769226l-7.85454549 2.95384615c-.49090909 1.84615385-1.71818182 3.56923077-2.20909091 5.66153851-.47502019 1.8049861-.64101518 3.6777502-.49090909 5.5384615-.07262193.6755643.15135177 1.3493997.61363636 1.8461538l.49090909.7384616c.49090909 1.9692307-.98181818 4.0615384-.73636363 4.6769231.74297428.6587856 1.80826481.8044664 2.7.3692307" fill="#fedea9"/><path d="m12.8863636 16.3692308.8590909 2.0923077c.2454546.6153846.3681819.9846153.7363637 1.1076923.5568043-.8581879.9326895-1.8215202 1.1045454-2.8307693.7363637-1.3538461 1.8409091-2.9538461 3.0681819-2.9538461 1.2272727 0 1.35 2.4615384.9818181 4.1846154-.2237954.7959985-.0892831 1.6503368.3681819 2.3384615.8590909 1.1076923 1.7181818.1230769 3.3136363.9846154 1.1575362.7379506 2.2279962 1.6050161 3.1909091 2.5846154-.2454545-3.3230769-.6136364-4.4307693 0-6.7692308s-.1227273-8.49230768-2.5772727-10.95384615h.2454545c-2.0863636-1.84615384-2.5772727-2.7076923-5.4-3.2-2.1802052-1.93782137-5.2508294-2.5063209-7.9772727-1.47692307.9396575-.14853556 1.8994708-.10668565 2.8227273.12307692-10.06363639.73846154-10.30909094 8.7384615-13.25454548 8.7384615 2.94545454 2.9538462 5.4 1.9692308 8.59090909.3692308 2.06737659 1.4327151 3.34071039 3.7586091 3.43636359 6.2769231l.3681819-.8615385z" fill="#55210e"/></g><path d="m111.546377 86.6089889c.120909-7.1067562-3.50636-18.3795418-6.770901-27.2017219-1.563196-4.6965807-2.656867-9.5404245-3.264542-14.458573-.604545-4.5336203-1.20909-6.4941047 1.571816-9.9249526 1.16284-1.5086253 2.062478-3.2077056 2.659997-5.0237414.178473.45953.380257.9094075.604545 1.3478331-.120909 9.5573617.362727 18.011951 3.50636 25.486298 7.133628 16.7866482 11.60726 24.138465 14.146348 29.407267-2.055452-.1225303-11.244533 1.4703633-12.453623.3675908" fill="#3a4953"/><path d="m92.7522406 61.9153327c-3.6253282 1.6570197-19.376754 6.9831544-24.7522406 8.403457l1.8751697 5.6812103c5.3754866-.9468684 18.1266409-2.8406052 25.3772972-4.6159834 2.2502037-.5917927 5.0004531-4.1425492 3.1252829-6.1546445-1.8751697-2.0120954.7500679-6.036286-5.6255092-3.3140394" fill="#3a4953"/><path d="m31 187c14.9116882 0 27-12.088312 27-27s-12.0883118-27-27-27-27 12.088312-27 27c.06780748 14.883511 12.116489 26.932193 27 27" fill="#1d160f"/><path d="m30.5 177c9.1126984 0 16.5-7.387302 16.5-16.5s-7.3873016-16.5-16.5-16.5-16.5 7.387302-16.5 16.5 7.3873016 16.5 16.5 16.5" fill="#e0e0e0"/><g transform="translate(0 70)"><path d="m30.0681818 105.506977c7.5236245 0 13.6227273-6.1253696 13.6227273-13.6813956s-6.0991028-13.6813954-13.6227273-13.6813954-13.6227273 6.1253694-13.6227273 13.6813954c.0666338 7.5281323 6.1268769 13.6144746 13.6227273 13.6813956" fill="#323231"/><path d="m66.15.8627907c-.7363636 1.10930232-2.9454545 10.1069767-3.8045455 11.0930233-12.15 15.0372093-29.0863636 28.1023255-26.2636363 47.5767441 14.4818182 5.1767442 17.7954545 10.2302326 24.0545454 22.8023256 5.1545455 9.8604651 9.3272728 13.5581396 14.9727273 15.0372093h47.6181821c13.377272-37.5930232 8.222727-23.7883721 65.536363-17.1325581 4.05-19.7209302-28.840909-28.3488372-32.031818-37.8395349h-52.159091c-.245454 2.7116279 7.240909 6.2860465 12.15 11.5860465s-12.640909 6.5325582-13.622727 25.8837209l-29.5772727-.8627907c-7.9817911-6.7381931-12.4573503-16.7721149-12.15-27.2395348.4909091-12.2023256 9.45-25.1441861 11.0454545-36.1139535 1.5954546-10.96976747-.1227273-13.80465119-5.7681818-14.7906977" fill="#323231"/><path d="m106.036364 26.8697674h46.513636c1.432169 0 2.80568.5713771 3.818377 1.5884349 1.012696 1.0170577 1.581623 2.3964841 1.581623 3.834821v8.0116279c0 2.9951814-2.417662 5.4232558-5.4 5.4232558h-46.513636c-2.982338 0-5.4-2.4280744-5.4-5.4232558v-8.0116279c0-1.4383369.568927-2.8177633 1.581623-3.834821 1.012696-1.0170578 2.386208-1.5884349 3.818377-1.5884349" fill="#1d160f"/><path d="m30.0681818 58.1767442c8.885958 0 17.4079702 3.5451352 23.6912913 9.8555162 6.2833211 6.3103811 9.8132542 14.8690945 9.8132542 23.793321.0063824 3.9568142-.7004677 7.8821118-2.0863637 11.5860466-26.1409091-8.011628-22.4590909-20.2139536-60.74999996-27.7325582 5.82595494-10.8098966 17.09275516-17.5328076 29.33181816-17.5023256" fill="#455561"/></g><path d="m159 187c14.911688 0 27-12.088312 27-27s-12.088312-27-27-27-27 12.088312-27 27c.067807 14.883511 12.116489 26.932193 27 27" fill="#1d160f"/><path d="m159.5 177c9.112698 0 16.5-7.387302 16.5-16.5s-7.387302-16.5-16.5-16.5-16.5 7.387302-16.5 16.5 7.387302 16.5 16.5 16.5" fill="#e0e0e0"/><path d="m158.5 174c7.455844 0 13.5-6.268014 13.5-14s-6.044156-14-13.5-14-13.5 6.268014-13.5 14 6.044156 14 13.5 14" fill="#323231"/><path d="m113.64671 160.654728c-1.801544-1.406219-2.182139-4.034289-.857241-5.919385.613951-.911526 1.56596-1.522636 2.63189-1.689454s2.151601.125396 3.001409.807844l10.041969 7.808549h.122463l.612315.503778c.691644.567338 1.429097 1.072949 2.204334 1.511332h33.554871c1.071814 0 2.099729.43788 2.857616 1.217312.757888.779432 1.183664 1.836568 1.183664 2.938851 0 2.295386-1.809343 4.156164-4.04128 4.156164h-29.513591c-3.184038 0-4.653595.125944-6.368077-.503778-1.717897-.589382-3.301215-1.532099-4.653595-2.770775l-.612316-.377833h-.244926z" fill="#455561"/><path d="m72.1672241 150h31.6655519c1.196925 0 2.167224.895431 2.167224 2s-.970299 2-2.167224 2h-31.6655519c-1.1969248 0-2.1672241-.895431-2.1672241-2s.9702993-2 2.1672241-2" fill="#585d62"/><path d="m52.75 64h9.125c4.4873136 0 8.125 3.5489623 8.125 7.9268293v4.1463414c0 4.377867-3.6376864 7.9268293-8.125 7.9268293h-9.125c-4.375 0-4.75-3.5365854-4.75-7.9268293v-4.1463414c0-4.3902439.375-7.9268293 4.75-7.9268293" fill="#1d160f"/><path d="m52.8857143 64 4.1142857 1.8292683-.2571429 16.4634146-3.8571428 1.7073171c-4.5 0-4.8857143-3.5365854-4.8857143-7.9268293v-4.1463414c0-4.3902439.3857143-7.9268293 4.8857143-7.9268293" fill="#dfe0e2"/><path d="m53.5555556 64h4.4444444v20h-5v-20z" fill="#455561"/><path d="m68.7436198 73.0858434 21.5127604 5.9727126c1.5876496.5337767 2.6755249 1.9785406 2.7336657 3.6304724.0684199.6970682-.2189602 1.3821075-.7669165 1.8281287-.5479562.4460212-1.2849397.5947855-1.9667492.3969995l-21.5127604-5.9727126c-1.632781-.4714428-2.7491544-1.9540538-2.7336657-3.6304724-.0684199-.6970682.2189602-1.3821075.7669165-1.8281287.5479562-.4460212 1.2849397-.5947855 1.9667492-.3969995" fill="#1d160f"/><path d="m81.0431677 99.4799791 1.5507592 38.5200209 12.4060731-.609494-1.43147-21.088492-1.1928916-22.1855821c-8.3502415-3.04747-11.8096273.609494-11.3324707 5.3635472" fill="#3a4953"/><path d="m108.617539 104.905213c6.229193.123223 21.252538-2.464455 26.382461-6.5308054l-6.717756-17.3744076-21.252538 5.6682464-21.2525375 6.0379147c-6.5956152 2.0947868-5.0077819 6.6540285-3.1756666 10.2274879l3.5420896 4.066351c7.4237698-1.303196 14.9391725-2.003703 22.4739475-2.094787" fill="#1f3059"/><path d="m140.606173 80.8021201-13.36515-6.8021201-8.991101 7.5441696-1.701019 2.9681979-3.159035 3.2155477-25.758289 6.0600707c-2.0655232.6183745-2.9160327.6183745-4.374049 2.4734982-3.0375341 3.7102473-.2430027 7.2968199 4.8600544 12.7385159 7.5330844-.123675 22.7207546 0 29.0388256-.742049 15.916678-1.978799 29.281828-7.173145 23.449763-27.4558309" fill="#455561"/><path d="m107.173188 54.9466376c-2.575344 4.8080581-7.2354905 13.4625627-12.2635436 15.0251816-1.5942607.3606044-5.5185948-2.7646334-3.1885214-7.9332959.6131772-1.6828203 1.962167-2.2838276 5.2733239-14.1837714 3.3111571-11.8999438 5.5185951-16.2271961 12.8767211-12.6211525s-.245271 15.8665918-2.69798 19.7130382" fill="#3a4953"/><path d="m117.620023 25.0182153c.870714.3694792 1.865815 1.7242361 3.980405 1.9705556 6.219381.862118 5.846218 1.7242361 8.209584 3.9411111 2.363365 2.216875 6.592544 18.3507986 8.085196 33.6226041.373163 4.1874305 3.482854 11.4538541 4.104792 15.3949653-2.363365 3.8179513-22.389775 3.6947916-24.628752 1.6010763-5.099893-9.1138194-8.085197-14.2865277-11.319275-23.1540277-1.873889-4.5204098-3.250105-9.2276788-4.104792-14.0402083-.621938-4.5569097-2.1145899-6.5274653.746326-9.9759375 1.196296-1.5163752 2.121817-3.2241838 2.736528-5.0495486 3.234078 10.3454166 10.697337-4.9263889 12.189988-4.3105903" fill="#92d2f4"/><path d="m118.179077 25c7.913507 2.5863971 8.779047 1.6011029 12.364854 5.0496324 3.585808 3.4485294 6.058779 18.7205882 7.542562 33.992647.494594 4.1875 5.316887 20.9375 7.913507 24.8786765-1.73108 1.4779412-10.139181 2.8327206-14.714177 3.0790441-9.768236-14.2867647-15.950663-27.5882353-17.0635-39.5349265-1.112837-11.9466911 2.225674-21.430147 3.956754-27.4650735" fill="#3a4953"/><path d="m111 70c-2.301298-3.6732147-4.199712-7.5771257-5.663227-11.6459016-1.788322-4.4562393-3.068357-9.0945601-3.816523-13.8295082-.615568-4.4885246-1.231136-6.4295082 1.600477-9.8262295l1.108023-1.6983607c3.693409 13.4655738 5.047659 23.1704918 6.77125 37" fill="#3a4953"/><path d="m129.556188 49.0069443c-1.14215 3.2839642-4.568598 13.1358569-6.599086 16.6630778-.126906.2432566-9.898629 6.9328134-9.898629-3.5272209-.507622-.9730264 2.411204-9.3653794 4.060976-22.2579798 1.39596-10.5816625 8.629574-11.0681757 12.182928-8.7572379s3.553354 8.5139813.253811 17.8793608" fill="#455561"/><path d="m82.688172 74.8818285c-.9379954.2607967-1.7633709.8181736-2.3494623 1.5865943l-2.2258065 1.8306857c-.4336202.8684403-.8054861 1.7656091-1.1129032 2.6850057.1236559 1.8306857-.1236559 2.9290971.7419355 2.9290971s.9892473-.85432 1.360215-2.6850057l.4946237-.85432c-.3197515.7300686-.4060352 1.53909-.2473118 2.3188686.0488945.446686.3028166.8465063.6888364 1.084627.3860197.2381208.8614196.2881911 1.2896582.1358301.3709677-.1220457.2473118-.3661371.1236559-.7322743v-.9763657c.7419355-.6102286 1.3602151-1.3425028 2.1021505-2.0747771-.604793.7241257-1.1427771 1.5001714-1.6075268 2.3188685-.123656.85432.4946236 1.0984115 1.1129032 1.3425029s1.2365591-1.0984114 2.844086-2.56296c-.6072139.5806246-1.0723939 1.2901778-1.360215 2.0747771-.123656.85432.8655914.7322743 1.360215.6102286 2.4783753-1.0609429 4.840157-2.3695898 7.0483871-3.9054628.8655914-.6102286 1.3602151-1.2204572 1.9784946-1.5865943l5.0698925-2.6850057-3.0913978-5.7361485-5.9354839 2.9290971c-.8655914 0-7.5430108 1.70864-8.2849463 1.9527314" fill="#fedea9"/><path d="m116.704249 24c-1.523682 3.6518187-4.219665 6.7535125-7.704249 8.8636364 0 .1181818 0 .1181818.124262.2363636 1.747517.9623939 3.236308 2.2974257 4.349173 3.9 1.863931-3.3090909 4.970483-7.5636364 4.473434-11.7z" fill="#b8e0f8"/><g transform="translate(104 30)"><path d="m1.22535211.12293578c.38156375 1.72652822 1.63710953 3.12613952 3.30845071 3.68807339 0 0 .12253521.12293578 0 .12293578-1.33704974 1.20571368-2.16897083 2.87499498-2.32816902 4.67155964-1.10257251-1.96531449-1.77119511-4.1454416-1.96056338-6.39266055z" fill="#b8e0f8"/><path d="m63.228169 99.2091743c-8.4657557-2.6470835-17.6339283-1.8004803-25.475843 2.3524787s-13.7110295 11.269875-16.308664 19.775962c-1.2010761 3.769289-1.6995402 7.728363-1.4704226 11.678899 27.3253521.122936 27.4478874-12.662386 66.1690141-8.482569-2.3813547-12.043832-11.1952038-21.784946-22.9140845-25.3247707" fill="#455561"/></g><path d="m121.557851 66.3465228c-8.697046 5.7844467-17.642578 7.9536142-27.2093282 12.6534772-1.1880745-2.2116041-2.6482378-4.2753225-4.3485228-6.1459746 0 0 17.891065-9.8817632 24.848702-15.304682 6.957636-5.4229188 12.548594 4.8203723 6.709149 8.7971794" fill="#455561"/><path d="m89.125 139c-5 6.786566-6.875 7.722644-14.125 8.658722-2.25.234019-3 .702058-3 2.925243 7 .468039 13 .468039 20 .35103 1.125-1.521127 1.5-2.457205 3.25-2.691225l.25 2.691225h6.25l.25-5.499459-1.5-5.850487z" fill="#1d160f"/><path d="m81.02632 101.509895 6.32456 40.490105 12.64912-.617227-1.7027661-28.886233-5.5948031-16.4182441c-8.6354569-2.9626906-12.0409892.6172272-11.6761108 5.4315991" fill="#455561"/></g></g></svg>