<svg height="250" viewBox="0 0 250 250" width="250" xmlns="http://www.w3.org/2000/svg"><g fill="none"><path d="m0 0v250h250v-250z" fill="#39870c"/><g transform="translate(23 38)"><path d="m175.341463 98c-1.408536 5.048544-2.560975 8.582524-4.993902 12.116505-2.432927 3.53398-6.786585 5.553398-9.347561 7.825243l1.408537 6.058252c6.530487-2.019417 13.445122-6.563107 16.134146-11.485437s2.432927-9.466019 3.457317-14.514563z" fill="#f39869"/><path d="m170.759827 126.866015-1.87047-7.010063c-.29121-1.176652-1.327369-1.985667-2.49396-1.94724-1.621074-.129816-4.239732-.908712-5.61141-.908712-.546317.026329-1.054198.300251-1.389963.749667s-.465775 1.029301-.355809 1.587021c.374094 1.687608 1.122282 5.841719 1.122282 5.841719.374094 2.206872 1.621074 2.206872 2.119866.908712s.748188-2.855952.748188-2.855952l3.366846.64908 1.995168 3.634848c.997584 2.077056 3.366846 2.077056 2.369262-.64908" fill="#3c3c3b"/><path d="m164 118.369369c-.12765-.435913-.298164-.858358-.509091-1.261261-.254545-.882883-.763636-2.018018-1.272727-3.405405-.509091-1.387388-.509091-1.387388-.890909-2.144144l-1.145455-2.396397-1.145454-2.522522c-.474907-.814786-.899917-1.657149-1.272728-2.522523-.509091-.882883-.890909-1.765766-1.4-2.522522l-1.4-2.3963968-1.272727-2.2702703c-.324739-.6628896-.708053-1.295991-1.145454-1.8918919l-2.545455-4.036036s.890909 1.6396396 2.418182 4.036036l1.145454 2.0180181c.375233.7827372.800334 1.5410253 1.272728 2.2702702l1.272727 2.3963967 1.272727 2.648648c.381818.756757.890909 1.63964 1.272727 2.522523l1.145455 2.522522c.381818.882883.763636 1.63964 1.018182 2.396397l.890909 2.27027c.509091 1.261261.890909 2.396396 1.145454 3.279279l.381819 1.261262c.089308.207191.283372.351428.509091.378378.254545-.126126.254545-.378378.254545-.630631z" fill="#3c3c3b"/><path d="m183 101.954248c-.78 2.359477-1.17 4.967321-1.95 7.326798-.548814 1.714973-1.430855 3.315862-2.6 4.718954l-.26-.248366-1.43-1.117647-6.11-3.352941-.65-.620915c1.04-2.111111 3.77-13.039216 5.59-13.660131z" fill="#ea5736"/><path d="m171.048358 137.327909c-.900317 2.902545 11.061037 2.110942 11.704121 3.298347.643083 1.187404 12.861671 4.617685 13.247521 2.902545l-3.987118-6.596694c-8.360086-2.242876-15.819855-3.034479-20.964524.395802" fill="#009fe3"/><path d="m199 114.187688c-.509145.768653-1.145576 1.409197-1.654721 2.049741-2.181738 2.861563-5.020843 5.147524-8.273605 6.661656-3.329594 1.373736-7.045294 1.464948-10.437471.256217-.243053-.705738-.540976-1.391106-.891003-2.04974-3.182156-8.583288-5.218736-17.038467-2.418439-25.2374286l9.164609-4.8681334c3.6913.2562175 6.109739 3.2027194 8.273605 8.3270703.244411.2985585.418478.6489429.509145 1.0248707 1.782007 4.227589 3.054869 9.480049 5.346021 13.323312z" fill="#ea5736"/><g transform="translate(167 114)"><path d="m7.6 19.1895833c-1.77333333 3.6854167-3.16666667 7.3708334-2.40666667 10.675l4.18 22.1125c-2.78666666 3.05-8.23333333 3.3041667-7.85333333 8.8958334h18.3666667c.5415693-3.0007331.1890904-6.0950694-1.0133334-8.8958334 1.1962509-7.4993727.5439208-15.1785563-1.9-22.3666666l4.4333334-8.00625z" fill="#f7ae83"/><path d="m20.14 60.8729167h-19c-.1747243-1.4747204.28608676-2.9541665 1.26666667-4.0666667.87702056-.9295896 1.90495412-1.7030758 3.04-2.2875.4141755-.3691957.88456653-.6695201 1.39333333-.8895833l.50666667-.38125c.34239882-.1367949.64664215-.3548264.88666666-.6354167h.12666667c.38-.2541667.38-.5083333.38-.8895833.12034512-.1882956.16557053-.4151665.12666667-.6354167-.12666667-.7625 2.28000003-1.6520833 3.16666663.6354167 2.0266667 4.95625 5.32.7625 6.3333334-1.0166667 1.0133333-1.7791667 1.14-.8895833.8866666 0-.0482701.6382273-.0056189 1.2800994.1266667 1.90625.1413102.231452.2279656.4922734.2533333.7625.4954332 1.2099472.7534844 2.5044476.76 3.8125.0965402 1.2764545.0112379 2.5601988-.2533333 3.8125" fill="#5aabbc"/><path d="m20.2666667 60.8729167h-19.25333337c-.50666666-.1270834.12666667-3.8125 1.26666667-4.0666667 2.11351331-.5017111 4.2864126.5617264 5.19333333 2.5416667h10.38666667c.6333333-1.2708334 1.2666667-2.1604167 2.5333333-2.1604167 1.2666667 0 .2533334 3.8125-.1266666 3.8125" fill="#bdbcbc"/><path d="m17.2266667 19.1895833c-1.52 3.6854167-2.4066667 7.3708334-1.3933334 10.675l6.3333334 22.1125c-2.4066667 3.05-7.7266667 3.3041667-6.9666667 8.8958334h18.3666667c.2616905-3.0739987-.3533421-6.1592774-1.7733334-8.8958334.3926577-7.6825238-1.0400354-15.3486883-4.18-22.3666666l3.6733334-8.00625z" fill="#f7ae83"/><path d="m33.9466667 60.8729167h-19c-.3866665-1.400551-.1061083-2.9017837.76-4.0666667.810602-.8970129 1.7497839-1.6679622 2.7866666-2.2875l1.3933334-.8895833.5066666-.38125.76-.6354167h.1266667c.2516361-.2254992.390785-.551248.38-.8895833.0079659-.2188357-.0354219-.4364884-.1266667-.6354167 0-.7625 2.28-1.6520833 3.2933334.6354167 2.5333333 4.95625 5.4466666.7625 6.3333333-1.0166667s1.0133333-.8895833.8866667 0c-.0259165.6453268.0597953 1.29028.2533333 1.90625l.38.7625c.553024 1.2121579.9366437 2.4950968 1.14 3.8125.1098936 1.2676616.1521761 2.5403101.1266667 3.8125" fill="#5aabbc"/><path d="m34.0733333 60.8729167h-19.2533333c-.5066667-.1270834-.2533333-3.8125.76-4.0666667 2.1794049-.4847829 4.4120446.5570701 5.4466667 2.5416667h10.5133333c.38-1.2708334 1.0133333-2.1604167 2.28-2.1604167s.6333333 3.8125.2533333 3.8125" fill="#d0d0d0"/><path d="m35.8466667 12.7083333-.76 1.525-5.0666667 14.7416667c-5.5733333-3.05-9.5-5.0833333-14.3133333-4.3208333l-2.1533334-.8895834c-2.7866666-1.0166666-6.07999997-1.6520833-8.10666663-.7625l7.22000003-14.2333333c3.3833291.68668578 6.8899446.42282451 10.1333333-.7625h.2533333l2.4066667-1.27083333c2.0769555-1.2855028 3.9547229-2.86972861 5.5733333-4.70208334l1.9-2.03333333c3.9266667 3.8125 5.0666667 8.00625 2.9133334 12.8354167" fill="#92d2f4"/></g><path d="m179.155385 138c-.827129 3.844961 1.77242 10.170543 4.844615 16-.945291-3.348837-2.008743-6.697674-2.599549-9.674419v-.372093c-.434717-1.656116-.515415-3.392605-.236323-5.085271l-1.890581-.868217" fill="#f39869"/><path d="m181.238017 139c-.236196 1.860971-.167901 3.770122.2 5.590909v.409091c-.505537-1.927628-.575209-4.01778-.2-6h-.1" fill="#f3976a"/><path d="m179 138 1.882353.7h.117647z" fill="#559694"/><path d="m190 125c-2.625 1.625-5.125 2.75-7.25 2.75-1.067803.036351-2.119171-.270298-3-.875l.625.75c1.210513 1.318737 1.551335 3.217598.875 4.875l-2.25 5.625 2.125.875 2.125-6.25c.642129-1.643189 1.621515-3.133559 2.875-4.375z" fill="#5bc5f2"/><path d="m175 112c.2 1.333333.5 2.666667.8 4-.3-1.333333-.6-2.666667-.8-4z" fill="#df6143"/><path d="m174 109c.166027 1.352693.399884 2.689023.7 4l-.6-4z" fill="#e41f13"/><path d="m199 114-2 2c.084967 0 .153846-.063959.153846-.142857z" fill="#547179"/><path d="m188 122c-1.869341.533805-3.842956.804581-5.830986.8l-3.169014-.2 3.042254.2h.12676c1.98803.004581 3.961645-.266195 5.830986-.8" fill="#547179"/><path d="m179 123.1h.2c-.1 0-.2 0-.2-.1" fill="#d64646"/><path d="m179 123 3 .2z" fill="#4f676f"/><path d="m196.6 116-.6.6z" fill="#4f676f"/><path d="m175.550154 95.6437466-1.335795-1.9793649-.242872-.2474206-.607179-.9896824-.242872-.3711309h-.121436c.211219-.3467088.374662-.7213447.485744-1.1133927v-.2474206c1.578666-3.4638885 3.643076-5.8143842 6.678974-5.6906739l1.092923 1.7319442 1.457231 2.2267855 1.214359 1.7319442c.850051 5.1958327-6.193231 10.3916655-8.500513 5.0721224" fill="#f7ae83"/><path d="m188.252197 86.1519217c-1.372244 1.8932765-3.492985 3.5341162-5.738476 3.2816793h-.374248l-1.372245-.5048737c-.669972-.5310243-1.545527-.7175219-2.37024-.5048738l-.873246.5048738c-.481432.4456497-.901068.9551429-1.247495 1.5146212-.958338 1.1014019-2.216926 1.891793-3.617735 2.2719318h-.12475c-1.219282.3796263-2.523202.3796263-3.742484 0-.673384-.2325177-1.305258-.5734854-1.871242-1.0097475-1.706259-1.2105092-2.836494-3.0859201-3.118737-5.1749558 0-1.1359659.498997-2.019495-.12475-3.0292424-.623747-1.0097475-1.247495-2.019495.249499-2.7768056 1.008893-.462924 1.714497-1.4148077 1.871242-2.5243687.249499-1.2621844.249499-2.3981503.498998-3.6603346.748497-3.9127715 4.490982-6.8157955 8.358216-7.4468877 4.02381-.4473572 8.059324.7321858 11.227453 3.2816793 1.092048.7270112 2.025939 1.6718985 2.744489 2.7768056.61475 1.0398344.997906 2.2028366 1.122745 3.4078977.498998 3.2816793.374249 6.8157955-1.496994 9.5926011" fill="#f7ae83"/><g fill="#282727"><path d="m191.999319 79.3362445c.038584-3.9287436-1.563281-7.694389-4.41736-10.3842794-4.669781-4.558952-11.232716-4.3056769-14.640393-4.0524018h-1.893155c-1.700093-.0307344-3.324713-.709951-4.54357-1.8995633.225846 1.3828953.78954 2.688133 1.640734 3.7991266l-2.145575-1.0131004c.859254 2.441058 2.829013 4.3233699 5.300832 5.0655022h-2.776626c1.102431.9635538 2.463164 1.5801587 3.912519 1.7729257 1.488614.10861 2.943933.4951457 4.291149 1.139738 1.009683.6331878 2.397996 2.0262009 1.766944 3.419214l-.504841.7598253c-.293832.5286825-.336696 1.1614936-.116857 1.7252056s.679351.9992755 1.25275 1.1874582c.812541.038563 1.598692.3015004 2.271785.7598253-.814356.8642155-1.495037 1.8460066-2.019365 2.9126638-.504841 1.139738-1.262103 3.6724891-.757261 4.6855895.504841 1.0131004 3.407677 2.7860262 4.922201 2.7860262 1.514523 0 8.329878-4.6855895 8.456089-12.790393"/><path d="m179 65.2762248c-1.370417.7671172-3.037798.9338042-4.553846.455245-1.51795-.4134347-2.772163-1.4075417-3.446154-2.7314698 2.560091 1.0482464 5.245476 1.8123137 8 2.2762248"/><path d="m190.086519 72.8032787 1.013385-1.8360656c-.126673.7868853-.126673 1.5737705-.253346 2.3606558l2.153442 1.4426229-1.64675-.3934426c.538987.8296111 1.005309 1.7074173 1.393404 2.6229508-.810108-.4928457-1.573525-1.0636781-2.280115-1.704918-.742514-.6268099-1.238084-1.5130311-1.393404-2.4918033-.253346-1.3114754.253346-2.4918033 0-3.8032787.64427 1.1580923.993027 2.4669927 1.013384 3.8032787"/></g><path d="m178.765412 80.3604713c.732196-.3741453 1.602298-.4613704 2.407665-.241361.816029.2540925 1.45724.8326073 1.738869 1.5688465.199322.9005687.058025 1.835433-.401277 2.654971-.427711 1.0464335-1.168512 1.9654392-2.140147 2.6549709-.510501.4750599-1.159812.8098161-1.872628.965444-.73992.1318907-1.502161-.0973463-2.006387-.6034025-.460033-.6431833-.605237-1.4292209-.401278-2.1722489.194562-1.0081973.555247-1.9844514 1.070074-2.896332.345182-.755873.897482-1.4202699 1.605109-1.930888" fill="#f7ae83"/><g fill="#f39869"><path d="m178 89c-.482398.4305832-.902877.9228513-1.25 1.4634146-.960263 1.0641655-2.221378 1.827835-3.625 2.195122h-.125l.25.3658536.625.9756098c1.013737-.5090831 1.941235-1.167175 2.75-1.9512195.785771-.8434667 1.268464-1.9137397 1.375-3.0487805"/><path d="m177.482353 89c-1.12807.9894095-2.445194 1.7707334-3.882353 2.3030303h-.258824c-.386656.23202-.834955.3579882-1.294117.3636364-.883278.2396133-1.79807.3620175-2.717647.3636363l-2.329412-.2424242c.587137.4189583 1.242626.7464018 1.941176.969697l2.070589.2424242 1.811764-.2424242h.129412c1.453162-.3650611 2.758787-1.1241022 3.752941-2.1818182.359374-.5372872.794694-1.0265719 1.294118-1.4545455h-.517647"/><path d="m177.7 88.1-.7.8h.4l.3-.9"/></g><path d="m183.439392 98c.503565 4.54652.377674 6.946072-2.014261 10.355962-2.542535 3.518688-5.647813 6.591181-9.190065 9.093039-1.555004.344416-3.043384.941664-4.406196 1.768091.134012.59854.302144 1.188873.503566 1.768091-1.510696 2.146968-4.78387 1.641799-4.280305 2.525845 2.517826 4.546519 6.924022 4.925396 10.952544-.505169 6.420456-2.020676 12.840912-5.809442 15.358738-10.734839 2.517826-4.925396.629457-7.830117 1.636587-12.8818056z" fill="#f6ab82"/><path d="m188.697042 92.5138607c-2.363662-2.0745457-4.464695 2.333864-6.040469 9.5947743l-.656573 6.482955 10.242535 4.40841c4.202066-12.576934 0-17.5039797-3.545493-20.4861393" fill="#ea5736"/><path d="m162.265033 122.470094 1.423934.470494c.287462.421168.380494.928367.258897 1.411483 0 .470494-.647243.940988-.647243 1.411482-1.085377.49348-2.404652.19379-3.106765-.705741-.766099-.956301-1.174445-2.110659-1.165037-3.293459-.116688-.649047.125314-1.308733.647243-1.764353.230568 1.224832 1.253847 2.201124 2.588971 2.470094" fill="#f39869"/><path d="m121.097561 28h-1.097561c0-.125.365854-12 10-12v1c-8.536585 0-8.902439 10.5-8.902439 11" fill="#9d9d9c"/><path d="m121 28c0 .5522847-.447715 1-1 1s-1-.4477153-1-1 .447715-1 1-1c.265216 0 .51957.1053568.707107.2928932.187536.1875364.292893.4418903.292893.7071068" fill="#e41f13"/><path d="m144.012346 28h.987654c0-.125-.37037-12-10-12v1c8.641975 0 8.888889 10.5 9.012346 11" fill="#9d9d9c"/><path d="m144 28c0 .5522847.447715 1 1 1s1-.4477153 1-1-.447715-1-1-1-1 .4477153-1 1" fill="#e41f13"/><path d="m132.562232 13.375h-.746781l-1.244636.375-1.369098-.375-1.866953.625c-3.123047-.8376064-6.102263-2.143998-8.83691-3.875l-.497854-1.125c3.044624.92376851 6.170571 1.5516526 9.334764 1.875l1.866953-.25 1.369098.25 1.244636-.25h1.493562l1.244635.25 1.244635-.25 1.866953.25c3.164193-.3233474 6.29014-.95123149 9.334764-1.875l-.497854 1.125c-2.734647 1.731002-5.713863 3.0373936-8.83691 3.875l-1.866953-.625-1.244635.375-1.244635-.375z" fill="#e41f13"/><path d="m123.5 4.9-5.5-.2v-.4l7-.3c1.5 0 1.875 0 2 .3v.2c0 .6-3.125.5-3.5.4" fill="#fbbf48"/><path d="m118 5 5 .2z" fill="#edae56"/><path d="m111.5 4.032 5.5.2v.4l-7 .3c-1.5 0-1.875 0-2-.3v-.2c0-.6 3.125-.4 3.5-.4" fill="#fbbf48"/><path d="m117.875 3.00004146c-.438365-.00399377-.812396.28097651-.875.66665285v.88887046l.375.44443523h1.25l.375-.44443523v-.88887046c-.062604-.38567634-.436635-.67064662-.875-.66665285" fill="#e41f13"/><path d="m117.75 5.3.25-.3zm-1.5 0-.25-.3z" fill="#cdcccc"/><path d="m114.75 7c-.472583.71968725-.731877 1.54942817-.75 2.4 0 1.92 1.375 3.6 3 3.6s3-1.68 3-3.6c-.018123-.85057183-.277417-1.68031275-.75-2.4z" fill="#e41f13"/><path d="m116 5h4v1h-4z" fill="#55210e"/><path d="m141.5 4.9 5.5-.2v-.4l-7-.3c-1.5 0-1.875 0-2 .3v.2c0 .6 3.125.5 3.5.4" fill="#fbbf48"/><path d="m138 4c0 .4 1.588235.5 2.647059.5h1.058823l5.294118-.2-5.294118.2h-1.058823c-1.058824 0-2.647059-.1-2.647059-.5" fill="#edae56"/><path d="m154.575257 4.032-5.575257.2v.4l6.969072.3c1.520525 0 1.900656 0 2.027366-.3v-.2c.126711-.6-3.16776-.4-3.421181-.4" fill="#fbbf48"/><path d="m148 3.00004146c.454331.02201907.849006.28513066 1 .66665285v.88887046l-.375.44443523h-1.25l-.375-.44443523v-.88887046c.062604-.38567634.436635-.67064662.875-.66665285" fill="#e41f13"/><path d="m149 5.3.2-.3z" fill="#cdcccc"/><path d="m147.1 5.1v-.1h-.1z" fill="#bb4b4b"/><path d="m150.231502 7c.533008.69699149.802385 1.54199871.765086 2.4 0 1.92-1.402658 3.6-3.060345 3.6s-2.932831-1.68-2.932831-3.6c-.037299-.85800129.232078-1.70300851.765086-2.4z" fill="#e41f13"/><path d="m146 5h4v1h-4z" fill="#55210e"/><path d="m116 5 .25.3h1.5l.25-.3z" fill="#ea5736"/><path d="m117 5 .166667.1h1.666666l.166667-.1z" fill="#5a2e2a"/><path d="m147.1 5.1v.1l-.1-.2z" fill="#a8a8a8"/><path d="m147 5 .125.2h.125v.1h1.5l.25-.3z" fill="#ea5736"/><path d="m147 5 .166667.1h1.666666l.166667-.1z" fill="#392f2a"/><path d="m126.265318 17.9999969c-.961313.0015791-1.818919-.6066394-2.139356-1.5172409 0-.2528735-.125845-.505747-.125845-.7586205-.023064-4.4927212 3.353688-8.26840589 7.802359-8.7241355h2.391045c4.44867.45572961 7.825423 4.2314143 7.802358 8.7241355.018354.2593141-.024775.519304-.125845.7586205-.320436.9106015-1.178043 1.51882-2.139356 1.5172409z" fill="#e41f13"/><path d="m126 18 1.308411 2h11.383178l1.308411-2z" fill="#3e312c"/><path d="m129 20h8v1h-8z" fill="#9d9d9c"/><path d="m131.999147 7v2.76315789c.03155 2.09506301-.812982 4.10474531-2.322333 5.52631581-.612201.5188261-1.311628.9200617-2.064296 1.1842105-.692444.313642-1.436389.4921619-2.193315.5263158h-1.290185c0-.2631579-.129018-.5263158-.129018-.7894737v-.3947368c.01175-.450401.099023-.8954259.258037-1.3157895.672253-3.9463877 3.834401-6.95629645 7.74111-7.36842105" fill="#f9af00"/><path d="m141.995777 16.2105263c.018807.2698604-.025386.5404242-.128949.7894737h-1.289495c-.754208-.0505412-1.494976-.2283938-2.192141-.5263158-.726226-.2358779-1.38852-.6413574-1.934242-1.1842105-1.584917-1.3760016-2.483653-3.4031916-2.45004-5.52631581v-2.76315789c3.974898.41424035 7.191712 3.4814109 7.865918 7.5 0 .3947368.128949.7894737.128949 1.1842105z" fill="#f9af00"/><path d="m133 28c-1.656854 0-3-1.3431458-3-3v-3h6v3c0 1.6568542-1.343146 3-3 3" fill="#e41f13"/><path d="m135 24.5c0 1.3807119-1.119288 2.5-2.5 2.5s-2.5-1.1192881-2.5-2.5 1.119288-2.5 2.5-2.5c.663041 0 1.298926.2633921 1.767767.732233.468841.468841.732233 1.1047258.732233 1.767767" fill="#fbbf48"/><path d="m132.55334 25.6628644c-.612773 0-1.109524-.4967509-1.109524-1.1095242s.496751-1.1095242 1.109524-1.1095242 1.109524.4967509 1.109524 1.1095242-.496751 1.1095242-1.109524 1.1095242m0-2.6628581c-.857882 0-1.553334.6954513-1.553334 1.5533339-.001193.4025664.165906.7873139.460905 1.0612419.295.273928.691054.4121081 1.092429.3811395.796605 0 1.442382-.6457761 1.442382-1.4423814.030968-.4013753-.107212-.7974294-.38114-1.0924288s-.658675-.462098-1.061242-.4609051" fill="#8d6a3b"/><path d="m134 24.5c0 .8284271-.671573 1.5-1.5 1.5s-1.5-.6715729-1.5-1.5.671573-1.5 1.5-1.5 1.5.6715729 1.5 1.5" fill="#3c3c3b"/><path d="m133.2 25-.2.2v.3c.1-.1.3-.2.4-.4z" fill="#9d9d9c"/><path d="m132.800037 24.0071898c-.202265-.0292054-.407192.0314378-.56099.1660113s-.241108.3296372-.23901.5339887h.3c0-.2761424.223858-.5.5-.5z" fill="#9d9d9c"/><path d="m130 21h5v1h-5z" fill="#55210e"/><path d="m153.869281 8.39507651-.522876 1.18522953v.39507651l-.653595.39507655-.522875.2633843-1.30719.790153-.653595.2633844-1.045751.5267686-.653595.3950765h-.784314l-.915032.3950766h-.261438l-3.006536 1.1852295-.915033.2633843-1.830065.5267687c-.522876.1316922-1.045752-.3950765-1.437909-1.0535374-.392157-.6584608-.653595-2.7655355.261438-3.160612 4.859574-.5272506 9.668482-1.45215005 14.379085-2.7655356" fill="#ea5736"/><path d="m126.612436 14.7714642c-.260936.8053205-.782809 1.3422009-1.565618 1.2079808l-1.826555-.5368804-.782809-.2684401-3.392172-1.342201-.652341-.2684402-.652341-.2684402h-.260936l-.652341-.4026603-1.174214-.5368804-.652341-.2684402-1.304682-.8053206-.521872-.2684401-.652341-.4026603v-.4026603l-.521873-1.2079809c4.704235 1.3268012 9.502991 2.2692728 14.3515 2.818622.782809.1342201.782809 1.8790814.391404 3.0870623" fill="#ea5736"/><path d="m146 13-3 .9z" fill="#e9e8e8"/><path d="m150.868132 11c-3.855245 1.615703-7.823053 2.9158542-11.868132 3.8888889.395604.6944444.791209 1.1111111 1.318681 1.1111111h.131868l1.846154-.5555556.923077-.2777777 3.032967-1.25h.263737l.923076-.4166667h.791209l.659341-.4166667 1.054945-.5555555.659341-.2777778.395604-.2777778c0-.1388889-.131868-.2777778-.131868-.5555555" fill="#e41f13"/><path d="m119 13 3 1z" fill="#e9e8e8"/><path d="m115.26087 11.1388889c-.130435.1388889-.130435.4166667-.26087.5555555l.391304.2777778.652174.2777778 1.173913.5555556.652174.4166666h.26087l.652174.2777778.652174.2777778 3.391304 1.3888889.782609.2777777 1.826087.5555556h.260869c.652174 0 1.043478-.5555556 1.304348-1.25-3.982894-.9871543-7.90365-2.2396182-11.73913-3.75" fill="#e41f13"/><path d="m119.373339 2.97128757-7.373339-.45491251v-.90982504l9.372889-.60655002c1.99955 0 2.499437 0 2.624409.60655002v.30327501c.124972 1.36473755-4.124071 1.06146254-4.623959 1.06146254" fill="#f9af00"/><path d="m124 2c-1.810406.50934931-3.745212.71407884-5.67033.6h-6.32967l7.120879.3h1.45055c1.450549 0 3.428571-.1 3.428571-.6z" fill="#fbbf48"/><path d="m102.626614 1.03361345 7.373386.45378151v.75630252l-9.372948.75630252c-1.8745894 0-2.4994525 0-2.6244252-.60504202v-.45378151c-.1249726-1.21008403 4.2490692-.90756302 4.6239872-.90756302" fill="#f9af00"/><g transform="translate(97)"><path d="m4.125 1.46666667c-1.375 0-3.375.13333333-3.375.8v.4c1.7180272-.67099883 3.55039576-.94372345 5.375-.8h6.125c0-.0353622.0131696-.06927606.0366117-.09428091.023442-.02500485.0552362-.03905243.0883883-.03905243l-7-.4h-1.25" fill="#fbbf48"/><path d="m13.5.93333333c-.603451-.01298094-1.129408.43583571-1.25 1.06666667v1.33333333l.5.66666667h1.75l.5-.66666667v-1.33333333c-.0313692-.31907784-.1812165-.61147017-.4160829-.81188951-.2348664-.20041933-.5351917-.29217429-.8339171-.25477716" fill="#e41f13"/></g><path d="m110 3.4c.058135 0 .105263.04477153.105263.1 0-.05522847-.047128-.1-.105263-.1m2-.4-.421053.5z" fill="#cdcccc"/><path d="m113 3h-3l.409091.4c.075311 0 .136364.04477153.136364.1h1.90909l.545455-.4" fill="#ea5736"/><path d="m108.016085 5c-.673741 1.0585282-1.027572 2.30328372-1.015801 3.57352941 0 2.91176469 1.777652 5.42647059 3.936228 5.42647059 2.158577 0 4.063204-2.5147059 4.063204-5.42647059.011771-1.27024569-.34206-2.51500121-1.015801-3.57352941z" fill="#ea5736"/><path d="m109 4h5v1h-5z" fill="#55210e"/><path d="m115 8c-.888889 2.3255814-2.412698 3.372093-4.063492 3.372093s-3.174603-1.1627907-3.936508-3.372093v.23255814c0 2.55813956 1.777778 4.76744186 3.936508 4.76744186s4.063492-2.2093023 4.063492-4.76744186z" fill="#e02f2f"/><path d="m145.626661 2.97128757 7.373339-.45491251v-.90982504l-9.372889-.60655002c-1.874578 0-2.499437 0-2.624409.60655002v.30327501c-.124972 1.36473755 4.124071 1.06146254 4.623959 1.06146254" fill="#f9af00"/><path d="m141 2.1v.2c0 .5 2.086957.6 3.521739.6h1.304348l7.173913-.3h-6.391304c-1.903935.10779259-3.815972-.09675088-5.608696-.6" fill="#fbbf48"/><path d="m162.373339 1.03361345-7.373339.45378151v.75630252l9.372889.75630252c1.99955 0 2.499437 0 2.624409-.60504202v-.45378151c.124972-1.21008403-4.124071-.90756302-4.623959-.90756302" fill="#f9af00"/><g transform="translate(152)"><path d="m11.5692308 1.46666667h-1.2307693l-6.76923073.4h6.03076923c1.7965334-.14372345 3.6007117.12900117 5.2923077.8v-.4c0-.66666667-1.8461539-.8-3.3230769-.8" fill="#fbbf48"/><path d="m2.33846154.93333333c.59416709-.01298094 1.11203246.43583571 1.23076923 1.06666667v1.33333333l-.49230769.66666667h-1.72307693l-.49230769-.66666667v-1.33333333c.11873677-.63083096.63660214-1.07964761 1.23076923-1.06666667" fill="#e41f13"/></g><path d="m153 4 .2.2z" fill="#cdcccc"/><path d="m156 3h-3c.136364.1.272727.2.272727.3l.272728.2h1.90909l.409091-.3h.136364" fill="#ea5736"/><path d="m156.99979 5c.663215 1.0585282 1.011517 2.30328372.99993 3.57352941 0 2.91176469-1.749877 5.42647059-3.99972 5.42647059s-3.99972-2.5147059-3.99972-5.42647059c-.011587-1.27024569.336715-2.51500121.99993-3.57352941z" fill="#eb5a39"/><path d="m152 4h5v1h-5z" fill="#55210e"/><path d="m158 8c-.875 2.3255814-2.375 3.372093-4 3.372093s-3.125-1.1627907-4-3.372093v.23255814c0 2.55813956 1.875 4.76744186 4 4.76744186s4-2.2093023 4-4.76744186z" fill="#e41f13"/><path d="m137.65388 46.7078561.970323-.3619174 1.455485-.723835 1.940646-2.8953396c.244944-.3453649.687321-.4920322 1.091614-.3619175l.606452-.9651132c.188838-.2304094.464396-.3737333.762385-.3965324.297989-.0227992.592345.0769205.81439.2758933l.242581.3619174c.40191-.0696352.812092.0663582 1.091614.3619175.494173.5495367.494173 1.3806897 0 1.9302264l-3.274841 3.6191746h-.485162l-4.487745 1.4476698c-.628169-.0317919-1.164738-.4613317-1.330234-1.0648922s.077528-1.244575.602492-1.5891691" fill="#f6ab82"/><path d="m138.145094 44.9556335c.60246-.1160407 2.409841-1.5085294 1.686888-2.5528959-.722952-1.0443665-1.445904.2320814-2.530332.5802036l-3.855746.6962443c-.240984 0-.481968.1160408-.722952 0h-.722952c1.325412.6962444 2.289349 1.7406109 3.614761 2.3208145z" fill="#f6ab82"/><path d="m147.766515 43.9191919c-.161102-.3215289-.443704-.5601999-.781047-.6596336-.337343-.0994336-.69951-.0508113-1.000949.1343811l-3.691279 2.8888889-4.582277.3939394c-.957179-.2787084-1.893142-.6298281-2.80028-1.0505051-1.272855-.5252525-2.672995-2.6262626-4.836848-2.6262626h-2.291138c-1.938587.6167429-3.750716 1.5959892-5.345989 2.8888889l-3.436708 2.6262626 4.073135 7.4848485 3.563993-5.3838384c.484891-.8720088 1.474959-1.3020703 2.418424-1.050505 2.719774.599741 5.492366.907776 8.273555.9191919h.763713l4.709562-1.4444445 4.582277-3.1515151c.638675-.4905922.804876-1.405051.381856-2.1010101" fill="#f7ae83"/><path d="m84.6454768 45 18.9437652 16.9689676c8.136919-7.0915089 16.400978-14.1830177 21.105135-16.9689676l3.305623 5.9518021c-6.102689 12.9166768-10.171149 18.8684788-18.435208 26.5931581-1.407707 1.2786938-3.372008 1.7558876-5.212714 1.2663409-11.5696819-2.912584-20.342298-9.6241906-28.352078-17.2222358z" fill="#ea5736"/><g transform="translate(51 98)"><path d="m56.5075472 12.1180328c-.2597471.8298251-.5983964 1.6329365-1.0113208 2.3983606-.6320755 3.0295082-6.9528302 5.5540984-15.1698113 7.5737705l-1.1377359.2524591-3.9188679.8836065h-1.1377358l-1.5169812.3786885-5.0566037.8836066-1.8962264.252459-1.1377359.252459-2.0226415.252459-2.5283019.3786886-6.9528302.8836065-7.45849055.7573771-2.40188679.252459h-.88490566l-.63207547-1.3885246c-.26617718-.9122135-.47724897-1.8395659-.63207548-2.7770492-.30960241-1.1106977-.47946318-2.2555747-.50566037-3.4081967-.15996516-1.9996286.05438026-4.0115176.63207547-5.9327869.04799687-.3609965.17769078-.7063392.37924528-1.0098361.35395252-.9236189.86739099-1.7780934 1.51698113-2.5245901l.25283019-.252459c.59300232-.82328221.98283473-1.77480694 1.13773585-2.77704922.25283019-1.13606557.25283019-2.14590164.63207547-2.39836065h.50566038l1.76981132-.37868853 2.14905661-.25245901 1.64339622-.37868853 2.4018868-.37868852h.3792453l2.2754717-.37868853 7.9641509-1.00983606c12.7679245-1.38852459 25.2830189-1.76721312 26.1679245-1.76721312 3.1603774.12622951 5.309434 3.15573771 6.0679246 6.69016394.3589551 1.61757747.4018784 3.28913013.1264151 4.92295083" fill="#92d2f4"/><path d="m33.5 76.242623 8.8490566.252459 23.1339623.3786885s1.6433962-4.7967213-1.1377359-6.5639344-6.7-1.5147541-10.1132075-2.7770492c-1.2107649-.4066841-2.3281522-1.0503842-3.2867925-1.8934426l-1.7698113-1.2622951c-1.6514325-.9630864-3.5236269-1.4847922-5.4358491-1.5147541h-2.2754717l-1.2641509.252459c-1.6433962.252459-3.1603774.757377-4.2981132 1.0098361-1.1377359.252459-1.390566 1.3885246-1.8962264 4.7967213-.2864512 1.7097107-.4134105 3.4422738-.3792453 5.1754098z" fill="#3c3c3b"/></g><path d="m86 165 4.3043478-.122951h.9130435.5217391l8.0869566-.122951.26087-2.950819.391304-3.565574v-.491803l.521739-5.778689-10.6956522-1.598361-1.9565217-.245901-.1304348-.122951h-.2608696l-.9130434 6.270492-.1304348 1.721311-.5217392 3.688525z" fill="#1d1815"/><path d="m108 109.930988-5.277901 54.509806c-4.0572348 1.782107-8.2823457 3.173454-12.6154713 4.154328-3.2182324.629443-5.7928184.629443-6.050277-.755333-.2574586-12.337092.3861879-37.640721 1.5447516-46.578818.2574586-1.510665.5149172-2.769551.7723758-4.028438.276362-1.411854.6636994-2.800751 1.1585636-4.154328 0-2.517773 7.8524872-11.078205 7.8524872-11.078205 6.5651941.629443 10.1696141.251777 11.7143661 3.273106.368832.802655.628502 1.649121.772376 2.517774 0 .755332.128729 1.510665.128729 2.140108" fill="#92d2f4"/><path d="m0 162.922313.24556894 3.213277.49113789 7.711863s4.05188756.899717 6.01643911-1.670904.24556894-4.755649 1.47341366-7.711863c.54779005-1.308641 1.34111695-2.488763 2.332905-3.470339l1.3506292-1.542372c.6787749-.86978 1.1802126-1.87585 1.4734136-2.956214.4350172-1.455069.6423352-2.974216.6139224-4.498587v-.385593c-.0525128-1.729918-.258032-3.451022-.6139224-5.141243-.1227845-.642655-1.9645515-2.44209-8.96326642-3.213276l-2.08733602-.257062-.73670683 6.812146-.24556894 1.28531z" fill="#3c3c3b"/><g transform="translate(10 100)"><path d="m.756 58.9448276 2.898.637931 3.15.6379311 2.016.3827586 2.898.637931 1.512.2551724 2.394-9.1862069.126-.5103448.63-2.4241379-5.04-1.1482759-1.26-.3827586-4.914-1.1482759-3.276-.7655172-.504 5.4862069v.5103448l-.378 4.8482759z" fill="#1d1815"/><path d="m62.622 63.0275862v-1.1482759l-.63-11.1v-7.4l-.504-9.3137931-.504-9.6965517v-.8931034l-.504-9.0586207v-.6379311l-.252-2.5517241v-.5103448-2.42413795l-.252-4.97586207v-.76551724l-.756-.38275862-1.134-.38275862h-.63l-2.268-.51034483h-.378l-2.394-.38275862-3.276-.38275862h-3.276c-1.9273552-.16728276-3.8632863-.20989803-5.796-.12758621-1.6503819.00997451-3.2959791.18087845-4.914.51034483-.7674161.21087451-1.492387.55633217-2.142 1.02068965l-.378.38275862-.252.51034483c-.1285137.32734836-.2132634.67061448-.252 1.02068966-.7147909 2.74975282-1.0956043 5.57753997-1.134 8.42068969v1.0206896c.1071115 4.7153128 1.5027692 9.3083024 4.032 13.2689655.1102534.4155169.1528125.8464661.126 1.2758621.9503751 8.31351 2.5086533 16.5441528 4.662 24.6241379h.126l-3.402-1.1482758h-.63c-10.336888-2.8375488-20.9347055-4.5904593-31.626-5.2310345-1.638 1.2758621-2.772 8.1655172-2.268 14.0344827.504 5.8689656 1.512 8.1655173 4.158 8.0379311 6.174 0 13.734 1.2758621 21.42 2.6793103 16.884 2.9344828 33.894 5.8689655 34.902-6.1241379v-.7655172c.0853148-.1560453.1287577-.3320043.126-.5103449z" fill="#92d2f4"/></g><path d="m86 47.2311547s-2.0283438 38.243211-8.8740039 49.6401944c-.5214381 1.0661246-1.3069032 1.9815005-2.2818867 2.6592961-1.0141719 1.1396988-4.183459 2.1527638-7.9866036 2.9125628-8.8740039 1.772864-21.8046953 2.40603-23.9598105-.126633h-.1267715s-2.4086582-10.7638181-3.8031445-23.0472336c-.7606289-6.7115569-1.9015723-18.4884398.3803144-26.2130619.5115489-1.9620843 1.465525-3.7813241 2.7889727-5.3185922 3.1692871-3.419095 14.1984062-6.8381901 19.5228086-8.1045216l3.0425156-.6331657c6.7188887 1.5195978 19.0157227 1.8994972 21.2976094 8.3577878" fill="#ea5736"/><path d="m78 31.3454153-.6439394 5.0611592v1.2344291l-.3863636 2.592301-.5151515 3.4564014c-1.2878788 5.9252596-15.1969697 2.9626298-15.4545455-1.6047578v-.2468858l.6439394-5.9252596.7727273-6.9128028z" fill="#f6ab82"/><path d="m67.1210064 31c-.3899603 4.0857143-.3899603 12.0095238 8.9690863 13l.519947-3.4666667.3899603-2.6c-3.6163842-1.860941-6.9416163-4.1946749-9.8789936-6.9333333" fill="#f3976a"/><path d="m82.0015596 38.8230282c-.5242495 1.0887157-1.5702534 1.8165023-2.7549024 1.9168006l-2.8801252.2555734c-7.3881473.2555734-10.2682725-10.2229363-10.5187182-11.6285901-.2504456-1.4056537-8.2647071-3.0668809-8.7655984-6.0059751-1.0017827-13.67317735 7.3881473-13.80096405 12.2718378-14.31211087 4.1897229-.39419959 8.2457422 1.62605787 10.5187182 5.23925487.799 1.2731758 1.4305243 2.6480118 1.8783425 4.0891745.2272843.8816774.394646 1.7783163.5008913 2.6835208-.2504456 1.0222937-.5008913 1.7890139-.5008913 1.7890139l.3756685.6389335 1.7531197 3.0668809c.1621533.3886489.1600222.8283442-.0058903 1.2153373s-.4809109.6870063-.8706695.82925l-1.2522284.5111468c.1252228.8945069 1.0017827 5.8781884 1.0017827 5.8781884.0672953 1.3218512-.1910145 2.6398436-.751337 3.8336011" fill="#f7ae83"/><path d="m61.5831011 34.9274732c9.3725006 1.0196674 3.2930408-9.0495479 3.2930408-9.0495479 1.0536144.6167712 2.0687532 1.2978212 3.0397299 2.0393348l2.7864191-.3823753c-1.2665541-8.794631-2.153142-14.2753431 9.7524669-13.3831342 6.3327706-7.26512994-8.4859128-7.90242204-14.058751-6.62783784-14.692028 3.56883574-11.3989872 21.15809784-4.8129057 27.40356044" fill="#282727"/><path d="m64.1416826 27.9948074c.4885675 2.1240741 2.6871213 4.2481483 4.0306819 3.982639s.7328513-2.1240741.3664256-4.2481482c-.3664256-2.1240742-.3664256-3.5843751-1.95427-3.7171298-1.5878444-.1327546-3.0535469.7965278-2.4428375 3.982639" fill="#f6ab82"/><path d="m71.1333333 124h-.1333333v.255738l.5333333 9.718032.5333334 9.334427v2.557377l.2666666 2.557377v2.301639l.6666667 11.12459v1.15082-1.278689l-.6666667-11.12459v-7.288524l-.5333333-9.334427z" fill="#abd6db"/><path d="m73 163.1v.2-.3" fill="#abd6db"/><path d="m44 128c.945758 8.113978 2.6181572 16.141494 5 24-2.3818428-7.858506-4.054242-15.886022-5-24" fill="#abd6db"/><path d="m42 103c.6756757 1 2.5675676 1.666667 5 2l-2.4324324-.5c-.9451228-.223454-1.8286588-.739625-2.5675676-1.5z" fill="#9d3e41"/><path d="m99.948441 101.929412 2.763577 1.423529c.457039.400793 1.033081.62904 1.633023.647059.628086-.129412 1.256172-.517647 1.130555-1.164706.579741.417737 1.363471.36391 1.884257-.129412.460803-.580195.405867-1.429132-.125617-1.941176.506536-.127933.833895-.633804.753703-1.164706-.042342-.5642029-.379234-1.0600153-.87932-1.2941176.067168-.6607306-.222069-1.3063413-.753703-1.682353-.617203-.5790086-1.344382-1.0196825-2.135492-1.2941176l-3.894132-1.682353-2.1354911-.6470588-2.1354916.2588235c-3.7800877.8741984-7.4788943 2.0866427-11.0543093 3.6235294.5024686 1.8117647.8793201 3.4941181 1.2561715 5.1764711v.517647l.5024686.388235c1.8480671.925772 3.9862792 1.019508 5.9040061.258823l1.5074058-.77647c.9171214-.49975 1.886407-.890493 2.8891945-1.164706h1.2561715l1.5074059.647059" fill="#f7ae83"/><path d="m77.5 97c-.5712796 1.2027144-1.4318231 2.2353665-2.5 3h.1388889l4.8611111-.4285714z" fill="#abd6db"/><path d="m79.7959184 99.1162791-4.5238096.3488372h-.1292517c-1.8098442 1.1682347-3.8842142 1.9623497-6.0748299 2.3255817l-2.0680272.348837 2.0680272.348837h.7755102c5.0793993.839097 10.2199781 1.344309 15.3809524 1.511628h.7755102l-6.2040816-5" fill="#5bc5f2"/><path d="m77 97c-.5078041 1.1480455-1.2727316 2.133759-2.2222222 2.8636364-.9876543 1.2272726-4.0740741 2.3181816-7.7777778 3.1363636l1.9753086-.409091c2.092401-.425971 4.0737681-1.357252 5.8024692-2.7272726.9494906-.7298774 1.7144181-1.7155909 2.2222222-2.8636364" fill="#9d3e41"/><path d="m41.0391063 53.1259259c-.5692871-.0078173-1.1320351.1217875-1.6403214.3777778-1.0105112 3.9051998-1.4775498 7.9306386-1.3879643 11.962963.0293409 4.7181187.3665306 9.4293227 1.0094286 14.1037037 1.3879643 12.2148148 3.7853572 22.9185186 3.7853572 22.9185186h.1261786c.6899349.574505 1.5149114.964501 2.3973929 1.133333l2.3973929.377778c.1261786-1.385185-1.8926786-8.6888889-.2523572-9.1925926 1.3879643 2.1407407 4.6686073 3.9037037 8.8325002 5.2888886l5.5518573 1.511111 4.9209644 1.007408c3.7853572-.755556 6.9398216-1.762963 7.9492502-2.8962965.9413407-.6537128 1.7186236-1.5156312 2.2712143-2.5185185l-.5047143-.5037037c-2.3973929-2.2666667-4.9209644-4.7851852-7.4445359-7.4296296-4.2900715-2.1407408-8.3277859-4.6592593-11.1037145-8.4370371-1.9014388-2.9747882-3.387229-6.1946153-4.4162501-9.5703703-2.0063423-2.7890827-3.619656-5.839767-4.7947858-9.0666667-.5601214-2.4405086-1.5884788-4.7496799-3.0282858-6.8-1.1342005-1.4363189-2.8380927-2.3095386-4.6686073-2.3925926" fill="#e41f13"/><path d="m42 103c.5755711.456225 1.2637991.765927 2 .9-.7362009-.134073-1.4244289-.443775-2-.9" fill="#952a2a"/><path d="m53 71c1.0608489 3.3743664 2.5925948 6.5928691 4.5528455 9.5664336 2.8617886 3.7762237 7.0243903 6.2937063 11.4471545 8.4335664-5.8478017-5.5531598-11.200179-11.5745842-16-18" fill="#d62321"/><path d="m53.7819688 51.6233811 9.6868848 26.4981315c.5268837 1.5924006 1.612857 2.9426922 3.0590163 3.8035595 6.5004095 4.0571302 23.9622941 13.8195997 24.4721301 12.6785318l-4.9709014 10.3963961-28.8057365-9.6356842c-3.0809975-1.0685318-5.5751007-3.3656804-6.8827866-6.3392659l-8.6672128-21.1731481c-9.0495898-19.2713684 7.3926227-28.6534819 12.1086061-16.2285207" fill="#ea5736"/></g></g></svg>