<svg height="155" viewBox="0 0 177 155" width="177" xmlns="http://www.w3.org/2000/svg"><g fill="none" transform=""><path d="m0 0v155h177v-155z" fill="#39870c"/><g transform="translate(8 9)"><path d="m138.4 77.5c-1.1 4-2 6.8-3.9 9.6s-5.3 4.4-7.3 6.2l1.1 4.8c5.1-1.6 10.5-5.2 12.6-9.1s1.9-7.5 2.7-11.5z" fill="#f39869"/><path d="m135.3 99.9-1.5-5.4c-.233532-.9063999-1.064467-1.5296012-2-1.5-1.3-.1-3.4-.7-4.5-.7-.438111.0202815-.845401.2312898-1.114663.5774844-.269262.3461945-.373522.7928922-.285337 1.2225156.3 1.3.9 4.5.9 4.5.3 1.7 1.3 1.7 1.7.7s.6-2.2.6-2.2l2.7.5 1.6 2.8c.8 1.6 2.7 1.6 1.9-.5" fill="#3c3c3b"/><path d="m129.4 93.6c-.100296-.345617-.234272-.6805558-.4-1-.2-.7-.6-1.6-1-2.7s-.4-1.1-.7-1.7l-.9-1.9-.9-2c-.373141-.6460088-.707077-1.313882-1-2-.4-.7-.7-1.4-1.1-2l-1.1-1.9-1-1.8c-.255152-.5255768-.556327-1.0275357-.9-1.5l-2-3.2s.7 1.3 1.9 3.2l.9 1.6c.294826.6205988.628833 1.2218129 1 1.8l1 1.9 1 2.1c.3.6.7 1.3 1 2l.9 2c.3.7.6 1.3.8 1.9l.7 1.8c.4 1 .7 1.9.9 2.6l.3 1c.070171.1642734.22265.2786328.4.3.2-.1.2-.3.2-.5z" fill="#3c3c3b"/><path d="m144.5 80.9c-.6 1.9-.9 4-1.5 5.9-.422165 1.3810046-1.100658 2.6701415-2 3.8l-.2-.2-1.1-.9-4.7-2.7-.5-.5c.8-1.7 2.9-10.5 4.3-11z" fill="#ea5736"/><path d="m135.3 108.1c-.7 2.2 8.6 1.6 9.1 2.5s10 3.5 10.3 2.2l-3.1-5c-6.5-1.7-12.3-2.3-16.3.3" fill="#009fe3"/><path d="m157 89.9c-.4.6-.9 1.1-1.3 1.6-1.714041 2.233698-3.94453 4.0180893-6.5 5.2-2.615832 1.07232-5.535001 1.1435193-8.2.2-.19095-.5508899-.425008-1.0858787-.7-1.6-2.5-6.7-4.1-13.3-1.9-19.7l7.2-3.8c2.9.2 4.8 2.5 6.5 6.5.192017.2330508.328769.5065562.4.8 1.4 3.3 2.4 7.4 4.2 10.4z" fill="#ea5736"/><g transform="translate(132 90)"><path d="m6 15.1c-1.4 2.9-2.5 5.8-1.9 8.4l3.3 17.4c-2.2 2.4-6.5 2.6-6.2 7h14.5c.4275548-2.3612326.1492819-4.7961202-.8-7 .9444086-5.9011458.4294111-11.943782-1.5-17.6l3.5-6.3z" fill="#f7ae83"/><path d="m15.9 47.9h-15c-.13794023-1.1604357.22585797-2.32459 1-3.2.69238465-.7314804 1.50391115-1.3401252 2.4-1.8.32698066-.2905146.698342-.5268355 1.1-.7l.4-.3c.27031486-.1076418.51050697-.2792076.7-.5h.1c.3-.2.3-.4.3-.7.09500931-.148167.13071358-.3266884.1-.5-.1-.6 1.8-1.3 2.5.5 1.6 3.9 4.2.6 5-.8s.9-.7.7 0c-.038108.5022116-.004436 1.0072913.1 1.5.1115607.1821262.1799729.3873627.2.6.3911314.9520896.5948561 1.9707129.6 3 .076216 1.0044232.008872 2.0145826-.2 3" fill="#5aabbc"/><path d="m16 47.9h-15.2c-.4-.1.1-3 1-3.2 1.66856314-.3947891 3.38400995.4420142 4.1 2h8.2c.5-1 1-1.7 2-1.7s.2 3-.1 3" fill="#bdbcbc"/><path d="m13.6 15.1c-1.2 2.9-1.9 5.8-1.1 8.4l5 17.4c-1.9 2.4-6.1 2.6-5.5 7h14.5c.2065978-2.4188842-.2789543-4.8466445-1.4-7 .3099929-6.0452646-.8210806-12.0776564-3.3-17.6l2.9-6.3z" fill="#f7ae83"/><path d="m26.8 47.9h-15c-.305263-1.1020729-.0837697-2.2833707.6-3.2.639949-.7058462 1.3814083-1.3124948 2.2-1.8l1.1-.7.4-.3.6-.5h.1c.1986601-.177442.3085144-.4337689.3-.7.0062889-.1721986-.0279646-.3434663-.1-.5 0-.6 1.8-1.3 2.6.5 2 3.9 4.3.6 5-.8s.8-.7.7 0c-.0204603.5077981.0472069 1.0153023.2 1.5l.3.6c.4365979.9538291.7394556 1.9633548.9 3 .0867581.9975042.120139 1.9989326.1 3" fill="#5aabbc"/><path d="m26.9 47.9h-15.2c-.4-.1-.2-3 .6-3.2 1.7205828-.3814685 3.4831931.4383502 4.3 2h8.3c.3-1 .8-1.7 1.8-1.7s.5 3 .2 3" fill="#d0d0d0"/><path d="m28.3 10-.6 1.2-4 11.6c-4.4-2.4-7.5-4-11.3-3.4l-1.7-.7c-2.2-.8-4.8-1.3-6.4-.6l5.7-11.2c2.6710493.54034291 5.43943.33271437 8-.6h.2l1.9-1c1.6397017-1.01154318 3.1221496-2.2581471 4.4-3.7l1.5-1.6c3.1 3 4 6.3 2.3 10.1" fill="#92d2f4"/></g><path d="m141.7 108.7c-.7 3.1 1.5 8.2 4.1 12.9-.8-2.7-1.7-5.4-2.2-7.8v-.3c-.367901-1.335244-.436195-2.735288-.2-4.1l-1.6-.7" fill="#f39869"/><path d="m143.3 109.4c-.236195 1.364712-.167901 2.764756.2 4.1v.3c-.505537-1.413594-.575209-2.946372-.2-4.4h-.1" fill="#f3976a"/><path d="m141.7 108.7 1.6.7h.1z" fill="#559694"/><path d="m150.5 98.2c-2.1 1.3-4.1 2.2-5.8 2.2-.854242.029081-1.695337-.216239-2.4-.7l.5.6c.968411 1.05499 1.241068 2.574078.7 3.9l-1.8 4.5 1.7.7 1.7-5c.513703-1.314552 1.297212-2.506847 2.3-3.5z" fill="#5bc5f2"/><path d="m138.2 88.6c.2 1 .5 2 .8 3-.3-1-.6-2-.8-3z" fill="#df6143"/><path d="m137.5 85.6c.166027 1.01452.399884 2.0167675.7 3l-.6-3z" fill="#e41f13"/><path d="m156.8 90.1-1.3 1.4c.055228 0 .1-.0447715.1-.1z" fill="#547179"/><path d="m148.6 96.4c-1.474702.5338048-3.031665.804581-4.6.8l-2.5-.2 2.4.2h.1c1.568335.004581 3.125298-.2661952 4.6-.8" fill="#547179"/><path d="m141.1 96.9h.2c-.1 0-.2 0-.2-.1" fill="#d64646"/><path d="m141.5 97 2.4.2z" fill="#4f676f"/><path d="m155.5 91.5-.6.6z" fill="#4f676f"/><path d="m138.6 75.9-1.1-1.6-.2-.2-.5-.8-.2-.3h-.1c.173934-.2802586.308527-.5830919.4-.9v-.2c1.3-2.8 3-4.7 5.5-4.6l.9 1.4 1.2 1.8 1 1.4c.7 4.2-5.1 8.4-7 4.1" fill="#f7ae83"/><path d="m149.2 67.8c-1.1 1.5-2.8 2.8-4.6 2.6h-.3l-1.1-.4c-.537055-.4207184-1.238904-.5684763-1.9-.4l-.7.4c-.385919.3530782-.722302.7567381-1 1.2-.76821.8726157-1.777103 1.4988247-2.9 1.8h-.1c-.977384.3007693-2.022616.3007693-3 0-.539789-.1842185-1.046303-.4543594-1.5-.8-1.367748-.9590589-2.273752-2.4449045-2.5-4.1 0-.9.4-1.6-.1-2.4s-1-1.6.2-2.2c.808735-.3667642 1.374352-1.12092 1.5-2 .2-1 .2-1.9.4-2.9.6-3.1 3.6-5.4 6.7-5.9 3.225512-.354431 6.460407.5800942 9 2.6.875393.5759945 1.624006 1.3246072 2.2 2.2.492788.8238372.799928 1.7452574.9 2.7.4 2.6.3 5.4-1.2 7.6" fill="#f7ae83"/><path d="m151.9 62.9c.030571-3.1023527-1.238632-6.0759141-3.5-8.2-3.7-3.6-8.9-3.4-11.6-3.2h-1.5c-1.347032-.0242696-2.634265-.5606165-3.6-1.5.178944 1.0920104.625575 2.1226981 1.3 3l-1.7-.8c.680811 1.9275941 2.241507 3.4139714 4.2 4h-2.2c.873488.7608753 1.951635 1.2477805 3.1 1.4 1.179472.0857644 2.332563.3909943 3.4.9.8.5 1.9 1.6 1.4 2.7l-.4.6c-.232812.4174769-.266774.9171794-.092589 1.3623175.174184.4451381.538269.7890831.992589.9376825.6438.0304515 1.266689.2380814 1.8.6-.645237.6824322-1.18456 1.4577087-1.6 2.3-.4.9-1 2.9-.6 3.7s2.7 2.2 3.9 2.2 6.6-3.7 6.7-10.1" fill="#282727"/><path d="m141.3 51.7c-1.113463.6740258-2.468211.820485-3.7.4-1.233334-.3632635-2.252383-1.2367334-2.8-2.4 2.080074.9210395 4.261949 1.5923855 6.5 2" fill="#282727"/><path d="m150.5 57.5.8-1.4c-.1.6-.1 1.2-.2 1.8l1.7 1.1-1.3-.3c.425495.6325785.793625 1.3019057 1.1 2-.639526-.3757948-1.242194-.8110545-1.8-1.3-.586165-.4779425-.977385-1.1536862-1.1-1.9-.2-1 .2-1.9 0-2.9.508609.8830454.783929 1.881082.8 2.9" fill="#282727"/><path d="m141.3 63.7c.547398-.3100297 1.197897-.3823073 1.8-.2.610073.2105497 1.08945.689927 1.3 1.3.149016.7462421.04338 1.5209027-.3 2.2-.319762.8671107-.873594 1.6286303-1.6 2.2-.381657.3936509-.86709.6710413-1.4.8-.553174.1092891-1.123035-.0806645-1.5-.5-.343926-.5329638-.452482-1.1843015-.3-1.8.145457-.8354269.415109-1.6443844.8-2.4.258062-.6263423.670969-1.1768844 1.2-1.6" fill="#f7ae83"/><g fill="#f39869"><path d="m140.6 70c-.385919.3530782-.722302.7567381-1 1.2-.76821.8726157-1.777103 1.4988247-2.9 1.8h-.1l.2.3.5.8c.810989-.4174482 1.552988-.9570835 2.2-1.6.628617-.6916427 1.014771-1.5692666 1.1-2.5"/><path d="m140.2 69.9c-.871691.8162628-1.889468 1.4608551-3 1.9h-.2c-.29878.1914165-.645193.2953403-1 .3-.682533.197681-1.389417.2986645-2.1.3l-1.8-.2c.453697.3456406.960211.6157815 1.5.8l1.6.2 1.4-.2h.1c1.122897-.3011753 2.13179-.9273843 2.9-1.8.277698-.4432619.614081-.8469218 1-1.2h-.4"/><path d="m140.9 69.1-.7.8h.4l.3-.9"/></g><path d="m145.2 77.5c.4 3.6.3 5.5-1.6 8.2-2.019627 2.7861483-4.486261 5.2189927-7.3 7.2-1.235196.2727133-2.41747.7456228-3.5 1.4.106451.4739321.240003.9413668.4 1.4-1.2 1.7-3.8 1.3-3.4 2 2 3.6 5.5 3.9 8.7-.4 5.1-1.6 10.2-4.6 12.2-8.5s.5-6.2 1.3-10.2z" fill="#f6ab82"/><path d="m148.7 73.3c-1.8-1.6-3.4 1.8-4.6 7.4l-.5 5 7.8 3.4c3.2-9.7 0-13.5-2.7-15.8" fill="#ea5736"/><path d="m128 96.5 1.1.4c.222067.3580639.293935.7892692.2 1.2 0 .4-.5.8-.5 1.2-.838462.4195422-1.857612.1647547-2.4-.6-.591818-.8130181-.907268-1.7944188-.9-2.8-.090142-.5518001.096806-1.1126453.5-1.5.178116 1.0413152.968606 1.8713299 2 2.1" fill="#f39869"/><path d="m95.5 22.3h-.9c0-.1.3-9.6 8.2-9.6v.8c-7 0-7.3 8.4-7.3 8.8" fill="#9d9d9c"/><path d="m95.9 22.2c0 .4970563-.4029437.9-.9.9s-.9-.4029437-.9-.9.4029437-.9.9-.9c.2386948 0 .4676134.0948212.6363961.2636039s.2636039.3977013.2636039.6363961" fill="#e41f13"/><path d="m114.3 22.3h.8c0-.1-.3-9.6-8.1-9.6v.8c7 0 7.2 8.4 7.3 8.8" fill="#9d9d9c"/><path d="m113.8 22.2c0 .4970563.402944.9.9.9s.9-.4029437.9-.9-.402944-.9-.9-.9-.9.4029437-.9.9" fill="#e41f13"/><path d="m104.9 10.8h-.6l-1 .3-1.1-.3-1.5.5c-2.5092064-.6700851-4.902853-1.71519838-7.1-3.1l-.4-.9c2.4461982.73901481 4.9577344 1.24132205 7.5 1.5l1.5-.2 1.1.2 1-.2h1.2l1 .2 1-.2 1.5.2c2.542266-.25867795 5.053802-.76098519 7.5-1.5l-.4.9c-2.197147 1.38480162-4.590794 2.4299149-7.1 3.1l-1.5-.5-1 .3-1-.3z" fill="#e41f13"/><path d="m97.6 3.9-4.4-.2v-.4l5.6-.3c1.2 0 1.5 0 1.6.3v.2c0 .6-2.5.5-2.8.4" fill="#fbbf48"/><path d="m93.6 3.7 4 .2z" fill="#edae56"/><path d="m88 3.1 4.4.2v.4l-5.6.3c-1.2 0-1.5 0-1.6-.3v-.2c0-.6 2.5-.4 2.8-.4" fill="#fbbf48"/><path d="m92.8 2.6c-.3506919-.00359447-.6499169.2528841-.7.6v.8l.3.4h1l.3-.4v-.8c-.0500831-.3471159-.3493081-.60359447-.7-.6" fill="#e41f13"/><path d="m93.4 4.3.2-.3zm-1.2 0-.2-.3z" fill="#cdcccc"/><path d="m91 5.3c-.3780665.59973938-.5855017 1.29119015-.6 2 0 1.6 1.1 3 2.4 3s2.4-1.4 2.4-3c-.0144983-.70880985-.2219335-1.40026062-.6-2z" fill="#e41f13"/><path d="m91.4 4.3h2.8v1h-2.8z" fill="#55210e"/><path d="m112.1 3.9 4.4-.2v-.4l-5.6-.3c-1.2 0-1.5 0-1.6.3v.2c0 .6 2.5.5 2.8.4" fill="#fbbf48"/><path d="m109.3 3.5c0 .4 1.2.5 2 .5h.8l4-.2-4 .2h-.8c-.8 0-2-.1-2-.5" fill="#edae56"/><path d="m121.8 3.1-4.4.2v.4l5.5.3c1.2 0 1.5 0 1.6-.3v-.2c.1-.6-2.5-.4-2.7-.4" fill="#fbbf48"/><path d="m116.9 2.6c.363465.01981757.679205.25662292.8.6v.8l-.3.4h-1l-.3-.4v-.8c.050083-.3471159.349308-.60359447.7-.6" fill="#e41f13"/><path d="m117.5 4.3.2-.3z" fill="#cdcccc"/><path d="m116.3 4.3v-.1h-.1z" fill="#bb4b4b"/><path d="m118.7 5.3c.417999.58082624.629251 1.28499892.6 2 0 1.6-1.1 3-2.4 3s-2.3-1.4-2.3-3c-.029251-.71500108.182001-1.41917376.6-2z" fill="#e41f13"/><path d="m115.5 4.3h2.8v1h-2.8z" fill="#55210e"/><path d="m92 4 .2.3h1.2l.2-.3z" fill="#ea5736"/><path d="m92.2 4.3.1.1h1l.1-.1z" fill="#5a2e2a"/><path d="m116.2 4.1v.1l-.1-.2z" fill="#a8a8a8"/><path d="m116.1 4 .1.2h.1v.1h1.2l.2-.3z" fill="#ea5736"/><path d="m116.3 4.3.1.1h1l.1-.1z" fill="#392f2a"/><path d="m99.5 14.1c-.7638895.0012489-1.4453708-.4797967-1.7-1.2 0-.2-.1-.4-.1-.6-.0183281-3.553335 2.664946-6.53955921 6.2-6.9h1.9c3.535054.36044079 6.218328 3.346665 6.2 6.9.014585.2050939-.019687.4107224-.1.6-.254629.7202033-.93611 1.2012489-1.7 1.2z" fill="#e41f13"/><path d="m99.5 14.1 1 1.6h8.7l1-1.6z" fill="#3e312c"/><path d="m101.7 15.7h6.4v1h-6.4z" fill="#9d9d9c"/><path d="m103.9 5.3v2.1c.024454 1.59224786-.630128 3.1196065-1.8 4.2-.474506.3943079-1.01662.6992469-1.6.9-.5367008.2383679-1.1133201.374043-1.7.4h-1c0-.2-.1-.4-.1-.6v-.3c.0091071-.3423047.0767509-.6805237.2-1 .5210518-2.99925468 2.971978-5.28678531 6-5.6" fill="#f9af00"/><path d="m112 12.2c.014585.2050939-.019687.4107224-.1.6h-1c-.584887-.0384113-1.159351-.1735793-1.7-.4-.563187-.1792672-1.076794-.4874316-1.5-.9-1.229099-1.0457612-1.926067-2.58642562-1.9-4.2v-2.1c3.082523.31482267 5.577155 2.64587227 6.1 5.7 0 .3.1.6.1.9z" fill="#f9af00"/><path d="m104.9 21.6c-1.270255 0-2.3-1.0297451-2.3-2.3v-2.3h4.6v2.3c0 1.2702549-1.029745 2.3-2.3 2.3" fill="#e41f13"/><path d="m106.7 19.5c0 .9941125-.805887 1.8-1.8 1.8s-1.8-.8058875-1.8-1.8.805887-1.8 1.8-1.8c.47739 0 .935227.1896423 1.272792.5272078.337566.3375655.527208.7954025.527208 1.2727922" fill="#fbbf48"/><path d="m104.9 20.5c-.552285 0-1-.4477153-1-1s.447715-1 1-1 1 .4477153 1 1-.447715 1-1 1m0-2.4c-.773199 0-1.4.6268014-1.4 1.4-.001075.362828.149529.709596.415408.9564838s.622838.3714278.984592.3435162c.71797 0 1.3-.5820298 1.3-1.3.027912-.3617544-.096628-.718713-.343516-.9845921-.246888-.2658792-.593656-.4164831-.956484-.4154079" fill="#8d6a3b"/><path d="m105.9 19.5c0 .5522847-.447715 1-1 1s-1-.4477153-1-1 .447715-1 1-1 1 .4477153 1 1" fill="#3c3c3b"/><path d="m105.3 19.7-.2.2v.3c.1-.1.3-.2.4-.4z" fill="#9d9d9c"/><path d="m104.9 18.8c-.202265-.0292054-.407192.0314378-.56099.1660113s-.241108.3296372-.23901.5339887h.3c0-.2761424.223858-.5.5-.5z" fill="#9d9d9c"/><path d="m103.1 16.6h3.6v1h-3.6z" fill="#55210e"/><path d="m121.3 6.8-.4.9v.3l-.5.3-.4.2-1 .6-.5.2-.8.4-.5.3h-.6l-.7.3h-.2l-2.3.9-.7.2-1.4.4c-.4.1-.8-.3-1.1-.8s-.5-2.1.2-2.4c3.717574-.40036596 7.396389-1.10268517 11-2.1" fill="#ea5736"/><path d="m99.7 11.2c-.2.6-.6 1-1.2.9l-1.4-.4-.6-.2-2.6-1-.5-.2-.5-.2h-.2l-.5-.3-.9-.4-.5-.2-1-.6-.4-.2-.5-.3v-.3l-.4-.9c3.6056569.98852651 7.2837616 1.69071013 11 2.1.6.1.6 1.4.3 2.3" fill="#ea5736"/><path d="m115.6 10.6-2.3.9z" fill="#e9e8e8"/><path d="m119.1 8.5c-2.923561 1.16330616-5.932482 2.099415-9 2.8.3.5.6.8 1 .8h.1l1.4-.4.7-.2 2.3-.9h.2l.7-.3h.6l.5-.3.8-.4.5-.2.3-.2c0-.1-.1-.2-.1-.4" fill="#e41f13"/><path d="m93.9 10.5 2.6 1z" fill="#e9e8e8"/><path d="m90.7 8.5c-.1.1-.1.3-.2.4l.3.2.5.2.9.4.5.3h.2l.5.2.5.2 2.6 1 .6.2 1.4.4h.2c.5 0 .8-.4 1-.9-3.0535519-.7107511-6.0594652-1.61252513-9-2.7" fill="#e41f13"/><path d="m94.3 2.3-5.9-.3v-.6l7.5-.4c1.6 0 2 0 2.1.4v.2c.1.9-3.3.7-3.7.7" fill="#f9af00"/><path d="m98 1.4c-1.3728908.50934931-2.8401192.71407884-4.3.6h-4.8l5.4.3h1.1c1.1 0 2.6-.1 2.6-.6z" fill="#fbbf48"/><path d="m81.3 1.1 5.9.3v.5l-7.5.5c-1.5 0-2 0-2.1-.4v-.3c-.1-.8 3.4-.6 3.7-.6" fill="#f9af00"/><g transform="translate(77)"><path d="m3.3 1.1c-1.1 0-2.7.1-2.7.6v.3c1.37442176-.50324912 2.8403166-.70779259 4.3-.6h4.9c0-.02652165.01053568-.05195704.02928932-.07071068s.04418903-.02928932.07071068-.02928932l-5.6-.3h-1" fill="#fbbf48"/><path d="m10.8.7c-.4827608-.0097357-.90352637.32687678-1 .8v1l.4.5h1.4l.4-.5v-1c-.0250953-.23930838-.1449732-.45860263-.3328663-.60891713s-.4281534-.21913072-.6671337-.19108287" fill="#e41f13"/></g><path d="m87 2.9c.0552285 0 .1.04477153.1.1 0-.05522847-.0447715-.1-.1-.1m1.9-.4-.4.5z" fill="#cdcccc"/><path d="m88.9 2.5h-2.2l.3.4c.0552285 0 .1.04477153.1.1h1.4l.4-.4" fill="#ea5736"/><path d="m85.5 4c-.5306091.79977686-.8092705 1.74025881-.8 2.7 0 2.2 1.4 4.1 3.1 4.1s3.2-1.9 3.2-4.1c.0092705-.95974119-.2693909-1.90022314-.8-2.7z" fill="#ea5736"/><path d="m85.9 2.9h3.8v1.15h-3.8z" fill="#55210e"/><path d="m91 6.5c-.7 2-1.9 2.9-3.2 2.9s-2.5-1-3.1-2.9v.2c0 2.2 1.4 4.1 3.1 4.1s3.2-1.9 3.2-4.1z" fill="#e02f2f"/><path d="m115.4 2.3 5.9-.3v-.6l-7.5-.4c-1.5 0-2 0-2.1.4v.2c-.1.9 3.3.7 3.7.7" fill="#f9af00"/><path d="m111.7 1.4v.2c0 .5 1.6.6 2.7.6h1l5.5-.3h-4.9c-1.459683.10779259-2.925578-.09675088-4.3-.6" fill="#fbbf48"/><path d="m128.4 1.1-5.9.3v.5l7.5.5c1.6 0 2 0 2.1-.4v-.3c.1-.8-3.3-.6-3.7-.6" fill="#f9af00"/><g transform="translate(120)"><path d="m9.4 1.1h-1l-5.5.3h4.9c1.4596834-.10779259 2.9255782.09675088 4.3.6v-.3c0-.5-1.5-.6-2.7-.6" fill="#fbbf48"/><path d="m1.9.7c.48276076-.0097357.90352637.32687678 1 .8v1l-.4.5h-1.4l-.4-.5v-1c.09647363-.47312322.51723924-.8097357 1-.8" fill="#e41f13"/></g><path d="m121 2.8.2.2z" fill="#cdcccc"/><path d="m123 2.5h-2.2c.1.1.2.2.2.3l.2.2h1.4l.3-.3h.1" fill="#ea5736"/><path d="m124.3 4c.530609.79977686.80927 1.74025881.8 2.7 0 2.2-1.4 4.1-3.2 4.1s-3.2-1.9-3.2-4.1c-.00927-.95974119.269391-1.90022314.8-2.7z" fill="#eb5a39"/><path d="m120 2.9h3.8v1.15h-3.8z" fill="#55210e"/><path d="m125.1 6.5c-.7 2-1.9 2.9-3.2 2.9s-2.5-1-3.2-2.9v.2c0 2.2 1.5 4.1 3.2 4.1s3.2-1.9 3.2-4.1z" fill="#e41f13"/><path d="m109 37.1.8-.3 1.2-.6 1.6-2.4c.201948-.2862793.566674-.4078545.9-.3l.5-.8c.15569-.1909906.38288-.3097944.628562-.328693s.488369.0637609.671438.228693l.2.3c.331362-.0577219.669544.0550055.9.3.40743.455521.40743 1.144479 0 1.6l-2.7 3h-.4l-3.7 1.2c-.517905-.0263529-.960289-.3824063-1.096735-.8827086-.136446-.5003024.063919-1.031651.496735-1.3172914" fill="#f6ab82"/><path d="m109.1 35.5c.5-.1 2-1.3 1.4-2.2s-1.2.2-2.1.5l-3.2.6c-.2 0-.4.1-.6 0h-.6c1.1.6 1.9 1.5 3 2z" fill="#f6ab82"/><path d="m117 34.9c-.126568-.2448566-.348589-.4266138-.613618-.5023363-.265029-.0757226-.549561-.0386949-.786382.1023363l-2.9 2.2-3.6.3c-.751994-.2122471-1.48732-.4796383-2.2-.8-1-.4-2.1-2-3.8-2h-1.8c-1.5230232.4696735-2.9466965 1.2154071-4.2 2.2l-2.7 2 3.2 5.7 2.8-4.1c.380948-.6640683 1.15878-.9915766 1.9-.8 2.136751.4567258 4.314999.6913063 6.5.7h.6l3.7-1.1 3.6-2.4c.501766-.3736048.63234-1.0700004.3-1.6" fill="#f7ae83"/><path d="m66.7 35.7 14.9 13.4c6.4-5.6 12.9-11.2 16.6-13.4l2.6 4.7c-4.8 10.2-8 14.9-14.5 21-1.1072156 1.0097548-2.6522141 1.3865837-4.1 1-9.1-2.3-16-7.6-22.3-13.6z" fill="#ea5736"/><g transform="translate(40 77)"><path d="m44.7 9.6c-.2054716.6573939-.4733583 1.2936251-.8 1.9-.5 2.4-5.5 4.4-12 6l-.9.2-3.1.7h-.9l-1.2.3-4 .7-1.5.2-.9.2-1.6.2-2 .3-5.5.7-5.9.6-1.9.2h-.7l-.5-1.1c-.21055806-.7226626-.3775253-1.4573184-.5-2.2-.24490937-.8799034-.37927685-1.7868839-.4-2.7-.1265396-1.5841214.04301722-3.1779555.5-4.7.03796768-.2859842.14056136-.5595674.3-.8.27999229-.7316981.68614511-1.40861946 1.2-2l.2-.2c.46909138-.65221055.77746628-1.40601586.9-2.2.2-.9.2-1.7.5-1.9h.4l1.4-.3 1.7-.2 1.3-.3 1.9-.3h.3l1.8-.3 6.3-.8c10.1-1.1 20-1.4 20.7-1.4 2.5.1 4.2 2.5 4.8 5.3.2839496 1.28145748.3179039 2.60567449.1 3.9" fill="#92d2f4"/><path d="m26.5 60.4 7 .2 18.3.3s1.3-3.8-.9-5.2-5.3-1.2-8-2.2c-.9577692-.3221783-1.8416726-.8321226-2.6-1.5l-1.4-1c-1.306357-.7629645-2.7873467-1.1762639-4.3-1.2h-1.8l-1 .2c-1.3.2-2.5.6-3.4.8s-1.1 1.1-1.5 3.8c-.2265957 1.3544462-.3270262 2.7269961-.3 4.1z" fill="#3c3c3b"/></g><path d="m68.1 130.6 3.3-.1h.7.4l6.2-.1.2-2.4.3-2.9v-.4l.4-4.7-8.2-1.3-1.5-.2-.1-.1h-.2l-.7 5.1-.1 1.4-.4 3z" fill="#1d1815"/><path d="m85.3 86.4-4.1 43.3c-3.151757 1.415621-6.4339243 2.520841-9.8 3.3-2.5.5-4.5.5-4.7-.6-.2-9.8.3-29.9 1.2-37 .2-1.2.4-2.2.6-3.2.2146847-1.1215091.5155776-2.224783.9-3.3 0-2 6.1-8.8 6.1-8.8 5.1.5 7.9.2 9.1 2.6.2865173.6375908.4882351 1.3099835.6 2 0 .6.1 1.2.1 1.7" fill="#92d2f4"/><path d="m.2 128.4.2 2.5.4 6s3.3.7 4.9-1.3.2-3.7 1.2-6c.44613952-1.018152 1.0922529-1.936313 1.9-2.7l1.1-1.2c.5528183-.676708.9612068-1.459453 1.2-2.3.3542933-1.132076.5231404-2.314005.5-3.5v-.3c-.0427683-1.345914-.2101503-2.684971-.5-4-.1-.5-1.6-1.9-7.3-2.5l-1.7-.2-.6 5.3-.2 1z" fill="#3c3c3b"/><g transform="translate(8 79)"><path d="m.6 46.2 2.3.5 2.5.5 1.6.3 2.3.5 1.2.2 1.9-7.2.1-.4.5-1.9-4-.9-1-.3-3.9-.9-2.6-.6-.4 4.3v.4l-.3 3.8z" fill="#1d1815"/><path d="m49.7 49.4v-.9l-.5-8.7v-5.8l-.4-7.3-.4-7.6v-.7l-.4-7.1v-.5l-.2-2v-.4-1.9l-.2-3.9v-.6l-.6-.3-.9-.3h-.5l-1.8-.4h-.3l-1.9-.3-2.6-.3h-2.6c-1.529647-.13111351-3.0661002-.16451467-4.6-.1-1.3098269.00781785-2.6158564.1417696-3.9.4-.6090604.16528002-1.1844341.43604414-1.7.8l-.3.3-.2.4c-.101995.25657033-.1692566.52561675-.2.8-.5672944 2.15521167-.8695272 4.37158539-.9 6.6v.8c.0850091 3.6957857 1.192674 7.2956964 3.2 10.4.0875027.3256754.1212798.6634463.1 1 .754266 6.5159943 1.9909947 12.9670386 3.7 19.3h.1l-2.7-.9h-.5c-8.2038793-2.2240247-16.6148456-3.5979276-25.1-4.1-1.3 1-2.2 6.4-1.8 11s1.2 6.4 3.3 6.3c4.9 0 10.9 1 17 2.1 13.4 2.3 26.9 4.6 27.7-4.8v-.6c.0677102-.1223057.1021886-.2602196.1-.4z" fill="#92d2f4"/></g><path d="m67.8 37.5s-1.6 30.2-7 39.2c-.4113213.8419-1.0309126 1.5647566-1.8 2.1-.8.9-3.3 1.7-6.3 2.3-7 1.4-17.2 1.9-18.9-.1h-.1s-1.9-8.5-3-18.2c-.6-5.3-1.5-14.6.3-20.7.4035205-1.549424 1.1560368-2.986046 2.2-4.2 2.5-2.7 11.2-5.4 15.4-6.4l2.4-.5c5.3 1.2 15 1.5 16.8 6.6" fill="#ea5736"/><path d="m61.4 24.8-.5 4.1v1l-.3 2.1-.4 2.8c-1 4.8-11.8 2.4-12-1.3v-.2l.5-4.8.6-5.6z" fill="#f6ab82"/><path d="m53.2 24.3c-.3 3.3-.3 9.7 6.9 10.5l.4-2.8.3-2.1c-2.7821174-1.5030677-5.3402488-3.3880067-7.6-5.6" fill="#f3976a"/><path d="m65.3 30.4c-.4186532.8519788-1.2539673 1.4215111-2.2 1.5l-2.3.2c-5.9.2-8.2-8-8.4-9.1s-6.6-2.4-7-4.7c-.8-10.7 5.9-10.8 9.8-11.2 3.3458138-.30848247 6.584855 1.27247812 8.4 4.1.6380626.9963289 1.1423829 2.0722123 1.5 3.2.1815039.6899602.315155 1.3916286.4 2.1-.2.8-.4 1.4-.4 1.4l.3.5 1.4 2.4c.1294918.3041388.12779.6482241-.0047039.9510671-.1324938.302843-.384044.5376196-.6952961.6489329l-1 .4c.1.7.8 4.6.8 4.6.0537404 1.0344199-.1525396 2.0658202-.6 3" fill="#f7ae83"/><path d="m48.7 27.3c7.4.8 2.6-7.1 2.6-7.1.8318747.4838999 1.6333714 1.018231 2.4 1.6l2.2-.3c-1-6.9-1.7-11.2 7.7-10.5 5-5.7-6.7-6.2-11.1-5.2-11.6 2.8-9 16.6-3.8 21.5" fill="#282727"/><path d="m50.3 21.7c.4 1.6 2.2 3.2 3.3 3s.6-1.6.3-3.2-.3-2.7-1.6-2.8-2.5.6-2 3" fill="#f6ab82"/><path d="m55.9 97.8h-.1v.2l.4 7.6.4 7.3v2l.2 2v1.8l.5 8.7v.9-1l-.5-8.7v-5.7l-.4-7.3z" fill="#abd6db"/><path d="m57.6 128.8v.2-.3" fill="#abd6db"/><path d="m35 100.9c.6809458 6.322141 1.8850732 12.576914 3.6 18.7-1.7149268-6.123086-2.9190542-12.377859-3.6-18.7" fill="#abd6db"/><path d="m32.8 81c.5.6 1.9 1 3.7 1.2l-1.8-.3c-.6993909-.1340726-1.3532075-.4437752-1.9-.9z" fill="#9d3e41"/><path d="m78.7 80.4 2.2 1.1c.3638343.3097037.822404.4860766 1.3.5.5-.1 1-.4.9-.9.4615148.3227963 1.0854185.2812027 1.5-.1.3668313-.4483324.3230981-1.1043295-.1-1.5.4032383-.0988576.6638385-.4897579.6-.9-.0337069-.435975-.3018963-.8191027-.7-1 .0534706-.5105645-.1767821-1.0094455-.6-1.3-.4913362-.4474158-1.0702214-.7879365-1.7-1l-3.1-1.3-1.7-.5-1.7.2c-3.009213.6755169-5.9537207 1.6124057-8.8 2.8.4 1.4.7 2.7 1 4v.4l.4.3c1.4711901.7153691 3.1733558.7878017 4.7.2l1.2-.6c.7300925-.3861707 1.5017113-.6881085 2.3-.9h1l1.2.5" fill="#f7ae83"/><path d="m60.8 76.7c-.4113213.8419-1.0309126 1.5647566-1.8 2.1h.1l3.5-.3z" fill="#abd6db"/><path d="m62.6 78.5-3.5.3h-.1c-1.4002479 1.0046817-3.0051552 1.687621-4.7 2l-1.6.3 1.6.3h.6c3.929851.7216235 7.9070357 1.1561058 11.9 1.3h.6l-4.8-4.3" fill="#5bc5f2"/><path d="m60.8 76.7c-.4113213.8419-1.0309126 1.5647566-1.8 2.1-.8.9-3.3 1.7-6.3 2.3l1.6-.3c1.6948448-.312379 3.2997521-.9953183 4.7-2 .7690874-.5352434 1.3886787-1.2581 1.8-2.1" fill="#9d3e41"/><path d="m32.3 41.7c-.4511758-.0062079-.8971691.0967136-1.3.3-.800858 3.1011881-1.1709989 6.2978601-1.1 9.5.0232535 3.7467414.2904857 7.4879915.8 11.2 1.1 9.7 3 18.2 3 18.2h.1c.5467925.4562248 1.2006091.7659274 1.9.9l1.9.3c.1-1.1-1.5-6.9-.2-7.3 1.1 1.7 3.7 3.1 7 4.2l4.4 1.2 3.9.8c3-.6 5.5-1.4 6.3-2.3.7460385-.5191249 1.3620567-1.2035895 1.8-2l-.4-.4c-1.9-1.8-3.9-3.8-5.9-5.9-3.4-1.7-6.6-3.7-8.8-6.7-1.5069427-2.3623318-2.6844724-4.9192534-3.5-7.6-1.5900816-2.2148597-2.8686772-4.637462-3.8-7.2-.4439116-1.938051-1.2589133-3.7718047-2.4-5.4-.8988852-1.1406061-2.2492668-1.8340453-3.7-1.9" fill="#e41f13"/><path d="m32.8 81c.5467925.4562248 1.2006091.7659274 1.9.9-.6993909-.1340726-1.3532075-.4437752-1.9-.9" fill="#952a2a"/><path d="m42.2 56.2c.8155276 2.6807466 1.9930573 5.2376682 3.5 7.6 2.2 3 5.4 5 8.8 6.7-4.4954976-4.411677-8.6101376-9.1953641-12.3-14.3" fill="#d62321"/><path d="m42.1 40.7 7.6 20.9c.413375 1.2559819 1.2653926 2.3210039 2.4 3 5.1 3.2 18.8 10.9 19.2 10l-3.9 8.2-22.6-7.6c-2.4172457-.8427883-4.3740341-2.6546295-5.4-5l-6.8-16.7c-7.1-15.2 5.8-22.6 9.5-12.8" fill="#ea5736"/></g></g></svg>