<svg height="231" viewBox="0 0 140 231" width="140" xmlns="http://www.w3.org/2000/svg"><g fill="none" transform=""><path d="m0 0v231h140v-231z" fill="#a90061"/><g transform="translate(8 8)"><path d="m35.6 205.2-2.5 7.1 13.2.1-1.5-7.2z" fill="#b6c4b5"/><path d="m36.8 209.2-3.9 3.2h13.3l-2.7-3.2z" fill="#575756"/><path d="m48.1 205.2-1.5 7.2 13.2-.1-2.5-7.1z" fill="#b6c4b5"/><path d="m49.4 209.2-2.6 3.2h13.3l-4-3.2z" fill="#575756"/><path d="m59 70.8-12.6 19.3-7.4 1.6c-3.5-3.2-3.2-3.7-1-7.7l10.7-19.5c1.2-2.2 2-3.7 3.4-4.8l4.6 1.2z" fill="#c04c4e"/><path d="m58.9 60c1.4618109-.2150422 2.949468-.1812319 4.4.1 6.6 1.8 1.3 13.7-.1 14-12.8 2.4-27.7 0-40.2 0 0-2.5 0-9.3.1-9.4.3-3.9 1.7-4.8 6.3-4.7h3.3c5.4-.3 9-2.6 7.8-8.2h10.9c-1.2 5.6 2.1 7.8 7.5 8.2" fill="#f9c0a7"/><g transform="translate(0 58)"><path d="m29 70.2h.1l4.9 35.8-1.7 15.2 2.6 26.3h10.6l-.1-42.2.3-33.3h.5l.7 33.3.5 42.2h10.5l2.3-26.3-1.8-15.2 4.5-36.5.2-.5-4-24.3h-26.3l-4 24.3z" fill="#00401c"/><path d="m65.2 16.2-3.1 44.2h-32.3l-2-42.5c-.3512078-.2655911-.7641144-.4376355-1.2-.5-7.4 4.2-19 10.1-20.2 9.9s-9.2-1-3.3-7.6l18.5-16.3c.9-1.1 2.5-1.4 5.4-1.4h5.7c1.8855018-.03220933 3.7363543-.51205996 5.4-1.4 1.2309542 3.21462948 4.3592058 5.30013058 7.8 5.2 3.7 0 6.9-2.1 7.9-5.1 1.5982497.76372503 3.3311759 1.20545133 5.1 1.3 1.2-.1 5.4-1.2 6.7-.8 6.6 1.8 1.4 14.6 0 14.9z" fill="#c18f00"/></g><path d="m45.6 58h-.1c-.8505494-.0801085-1.6714954-.3537571-2.4-.8-.6-.4-.7-1.1-1.4-2.1s-1.8-1.9-1.9-2.8c-.0825705-1.1420848.0187179-2.2900198.3-3.4-.8.2-1.1-1.9-1.1-2.6s-.3-2.7-.3-3.9.2-1.1.5-1.2.9.1 1.3 1.1c.3173525-.7660034.5195447-1.5747722.6-2.4.4-1.5.6-2.8 1-3.9.4189838-1.0646163 1.1972938-1.9490594 2.2-2.5l1.9-.8h.9c.1 0 .2 0 .2-.1 1.8296314-.169645 3.6740973.0694524 5.4.7 1.6620065.6208713 3.1169394 1.6947504 4.2 3.1.6883951.9171899 1.0093712 2.0584383.9 3.2-.1608615 1.3194787-.4284041 2.6237488-.8 3.9-.2.9-.3 1.7-.4 2.5.8-.8 1.3-.8 1.7-.4.1104595.4426156.0383921.9110539-.2 1.3-.4 1-1.5 2.5-1.9 3.4s-1.4 2.3-2 1.9c-.2697827 1.0791346-.6728835 2.1204785-1.2 3.1-.5.7-2 1.2-2.9 1.7s-1.4 1.2-2.1 1.4c-.8055549.0685505-1.6169025.0009383-2.4-.2" fill="#f9c5af"/><path d="m44.3 35.7c-.7.6-2.8 4.4-3.6 8.8-.3-6.9-.2-11.8 3.7-14.2 1-1 .3-1.8 2.4-5.5.5 2.4 2.7 2.6 3.6 3.5v-.9c1.0029117 1.0385148 2.2361568 1.8264214 3.6 2.3 2.3.9 3.7 2.3 3.8 3.1 4 2.5.7 8.9-1.7 14.1.7165322-2.9277686.6821355-5.9890703-.1-8.9-.2-.4-.6-.7-.9-.6-4.4 1-10.1-2.2-10.7-1.7" fill="#754130"/><path d="m72.9 199.6-1.2 11.6 1.7 1.1 5-.1 1.4-2-2.4-10.6z" fill="#f9c7b4"/><path d="m77.2 208.9h-4l-1-2.2-.4 4.4 1.6 1.1h5l1.5-2.1-1.2-4.9z" fill="#92d2f4"/><path d="m63.6 210.2 1.4 2.1 5 .1 1.7-1.2-1-11.5h-4.5z" fill="#f9c7b4"/><path d="m57.5 135.3c1.7 8.7 3.4 17.4 5.4 26.1l-.5 11 3.5 27.5h4.9l.2-29v-10l.6-32.9h.5l.4 32.8v10l.3 29h4.9l3.5-27.4-.6-11c1.8-8.1 3.5-16.2 5.1-24.4s1.7-11-2.9-22.6l-1.7-4.2-18.9.8-1.5 3.8c-4.3 10.6-4.1 12.2-3.1 20.5" fill="#0068b3"/><path d="m74.1 42c6.4-1.9 7.8 7.2 8 10.4.4 7.5 10 15.8-10.6 16.8s-12-8.4-12.1-16.1c-.1-6.2 2.4-11.9 9.7-11.1 1.6.1 3.3 1 4.9 1.2l-.6-.9z" fill="#ed6b06"/><path d="m66.9 62.8c.7 3 .6 6.2-.5 7.6-.8054478.5316957-1.7366243.8420879-2.7.9l-4.8.8c-2.6.5-2.9 3.9-2.8 5.3s1.8 1.5 2.3 3c.1461082.658931.2463487 1.3272005.3 2 1.0948716.5829974 2.2312941 1.0843602 3.4 1.5h18.9l2-.8.4-3.3 3.9-2.8c0-6.4-6.4-4.7-9.8-6.1s-2.9-3.4-2.7-8z" fill="#f9c7b4"/><path d="m63.5 210.1 1.4 2.1 5.1.1 1.6-1.1-.3-4.5-1 2.2-4.1.1-1.4-3.7z" fill="#92d2f4"/><path d="m78.5 71.2c2.1.2 5.8-.1 7.6.8 1.0582521.556966 1.8762919 1.4817066 2.3 2.6.3 1.1 1.4 6.2 2.3 9.3l-5.9-2.1-.6 2.7c.5209576.9142603.7965514 1.9477373.8 3-.0177643 1.8900536-.8573631 3.6787641-2.3 4.9l-2.7 13.3 2.9 8.1-22.6.4 3.2-8.1-2.7-13.7c-2.4449799-1.8557248-3.1302343-5.2391686-1.6-7.9l-.6-3.1-7.4 2.4c1.3-2.8 3.1-8.1 3.6-9.3s2.1-2.8 4.4-2.8 3.5-.2 4.5-.4c2.4 16.6 14.5 14.7 14.8-.1" fill="#e1c486"/><path d="m62.8 52.8c-.3-.2-.6 0-.7.4.1061191.8317403.3423361 1.641627.7 2.4 0-.9-.6-1.9-.5-2.4s.3-.4.6-.1-.1-.2-.1-.3" fill="#e9a379"/><path d="m74 64.4c.9784499-.8314035 1.821835-1.8097302 2.5-2.9.5933908-.9227587 1.0324761-1.9360323 1.3-3 .7.2 1-.4 1.2-1.3s.8-2.4 1-3.5-.6-2.1-1.3-1c.1180716-1.1327353.0844414-2.2761621-.1-3.4-.7-4-3.4-7-7.6-7s-7.1 1.9-7.7 6.4c-.2371903 1.2183522-.3378118 2.4593503-.3 3.7-.7-.7-1.3.1-1.1 1.3s.7 2.3 1 3.5.5 1.4 1.2 1.3c.3064214 1.2576207.8494174 2.4454244 1.6 3.5.5644316.8499051 1.236705 1.6230196 2 2.3 1.6 1.3 2.4 1.9 3.2 1.9s1.8-.6 3.1-1.8" fill="#fbd5c7"/><path d="m60.1 49.9c-.3-8.2 10.1-12.8 15.2-7.9-.2.1 1.7 1.6 2.4 2.6 2.8 3.9 1.4 8.5.2 12.7.5-3.3 1-6.5-.2-9.6-3 5.6-13.7 2-13.8 8.9-.3250004-.4404537-.5315839-.9569126-.6-1.5-.9 1.5.5 6.2 4.4 7.8-5.3.5-7.6-11.9-7.6-13" fill="#ed6b06"/><path d="m62.5 78.8-10.7 14.7 11.2 14.3-2.2 2.7-15-14.1c-1.9-1.9-1.8-1.2-.6-3.6l10.5-19.6z" fill="#e1c486"/><path d="m83 82.9c1.255272 1.2039845 1.975642 2.8608355 2 4.6.0025069 1.2831372-.3807408 2.5374024-1.1 3.6-1.9539803 2.6783108-5.5916076 3.4914275-8.5 1.9 4.2.4 10.2-3.3 7.6-10.1" fill="#d8b361"/><path d="m60.4 83c-1.2495774 1.1665348-1.9714641 2.79078-2 4.5-.0220205 1.2859568.3629839 2.545971 1.1 3.6 2 2.9 5.5 3.4 8.5 1.9-4.2.5-10.2-3.2-7.6-10" fill="#d8b361"/><path d="m60.4 112.4c-.6-1.2.9-2.4 1.5-3.3s1.1-2.3 2-2.2l2.9 3.8-1.7 2.8z" fill="#fbd5c7"/><path d="m42.2 78.7 4.3-2.3 5.4.4-.2 1h-3.9c-.7 3.9.3 6.9-2.6 9.3l3.9.5-1.3 1.4-5.4.4-4.8-2.9v-5.6z" fill="#f9c5af"/><path d="m46.9 77.8h14.5c1.0100966.0532358 1.8014019.8885025 1.8 1.9v6.1c0 .4773897-.1896423.9352267-.5272078 1.2727922s-.7954025.5272078-1.2727922.5272078h-14.5c-1.0114975.0014019-1.8467642-.7899034-1.9-1.8v-6.1c.0502258-1.0278184.8721816-1.8497742 1.9-1.9" fill="#282727"/><g transform="translate(0 76)"><path d="m61.1 7.3c.4418278 0 .8-.3581722.8-.8s-.3581722-.8-.8-.8-.8.3581722-.8.8.3581722.8.8.8" fill="#282727"/><path d="m38.7 3.7-.3 7.8-32.3-.6c-2.58785147-.0597834-4.7692668-1.94754664-5.2-4.5-.4-3.2 2.4-7 8.2-6.3z" fill="#c7991f"/></g><path d="m96.4 38.5c5.7-2.4 9.4 2.2 10.7 8.2 3.2 15.1-8.6 20.1-1.1 25.4-8.6-.7-15.2-13-17.1-21.6-1.3-6.3 0-13.6 7.5-12" fill="#55210e"/><path d="m96.4 38.5c5.7-2.4 9.4 2.2 10.7 8.2 3.2 15.1-8.6 20.1-1.1 25.4-8.7-1.5-12.1-26.9-9.6-33.6" fill="#55210e"/><path d="m79.6 120.3-.8 5.6 1.9 7.7 3.6-.9-2-13.7-2.7-.4z" fill="#fbd5c7"/><path d="m99.7 62.8c-.8 3-.2 6.2.9 7.6.836477.54411 1.80315.8548263 2.8.9l4.8.8c2.6.5 2.9 3.9 2.8 5.3s-1.8 1.5-2.3 3c-.146108.658931-.246349 1.3272005-.3 2-1.120458.6015943-2.291633 1.1035263-3.5 1.5h-18.8l-2-.8-.4-3.3-4-2.8c.1-6.4 6.5-4.7 9.8-6.1s2.5-3.4 2.3-8z" fill="#855341"/><path d="m87.8 210.2 1.5 2.1 5 .1 1.6-1.2-1.5-11.5h-4.5z" fill="#855341"/><path d="m87.7 210.1 1.5 2.1 5 .1 1.7-1.1-.6-4.5-.9 2.2-4.1.1-1.5-3.7z" fill="#87cac0"/><path d="m80.8 127.8.2-1.4 13.4 1.5.2 32.9.1 10-.3 29h-4.6l-3.8-27.4.5-11z" fill="#45ac34"/><path d="m96.3 199.7-1.1 9.6 1.6 2.1 4.7.3 1.5-1.5-2.1-10.5z" fill="#855341"/><path d="m100.4 209-4.1-.1-.9-2.2-.5 4.5 1.6 1.1 5-.1 1.5-2.1-1-4.8z" fill="#87cac0"/><path d="m109.9 127.8-.2-1.4-13.3 1.5-.3 32.9v10l.2 29h4.6l3.8-27.4-.5-11z" fill="#45ac34"/><path d="m82.4 82.3.4 2.2c-.444078.9388214-.6827243 1.9615914-.7 3 .0177643 1.8900536.8573631 3.6787641 2.3 4.9l2.9 14.7-5 11.1c-3.2 7.8-1 16.8-.6 25.2h27.1c.7-8.7 3-17.1-.2-24.8l-5.2-11.5 2.9-14.7c1.453643-1.212775 2.295776-3.0068852 2.3-4.9.031733-1.043879-.209553-2.0779631-.7-3l.3-1.6 5.8 2.8c-.7-3-1.2-10-1.7-11.2s-2.1-2.8-4.4-2.8-3.5-.2-4.5-.4-4.2.6-7.5.5-6.9-.7-7.4-.6-5.7-.1-7.6.8c-1.0096051.5889591-1.7862716 1.5068376-2.2 2.6-.3 1.1-.6 6.5-.8 9.7z" fill="#87cac0"/><path d="m89 62.1c1.7 1.6 3.8 3.3 5.7 3.4.2 0 4.9-.3 6.5-3 9.1-14.9-4.5-27.2-10.6-19.1-3.4-.9-4.9.8-5.4 3.3-1.3 5.4-.2 11.4 3.8 15.4" fill="#55210e"/><path d="m102.8 51.9c.5-1.2 1.5-.6 1.5.8s-.4 2.4-.5 3.7-.2 1.5-1 1.5l-.3-2.2c.116194 3.1246518-.915368 6.1837664-2.9 8.6-1.3 1.5-2 2.2-2.8 2.3s-1.8-.3-3.3-1.3c-1.1398828-.6494964-2.1555985-1.4959261-3-2.5-.7167183-.8335473-1.291089-1.7795697-1.7-2.8-.4-.1-.7-.5-.9-1.1s-1.1-2.3-1.5-3.4-.1-1.6.5-1.6c-.1988046-.9200871-.2993681-1.8586801-.3-2.8.1-4.1 2.2-7.5 6.4-8.1s7.2.7 8.6 5.1c.555677 1.6448341.859115 3.3643202.9 5.1z" fill="#855341"/><path d="m103.3 52c.3-.3.5-.1.7.3.037852.8441492-.063502 1.6887727-.3 2.5-.1-1 .3-2 .1-2.5s-.4-.3-.6 0c-.009288-.1094906.026875-.2179804.1-.3" fill="#e9a379"/><path d="m104.1 55.1c5.4-12.7-9.9-18.8-15.2-11.8-4.4 2.7-3.3 8-2.6 9.9.5825087 1.5685668 1.2501677 3.1041825 2 4.6-.5-1.7-.8-3.1-1.1-4.4s.6-4.6.6-6.3v-.2c2.2 4.7 16.7-.4 13.4 18 .2-.5 1.6-10.1 1.7-10.5 1.235953 1.3996829 1.54802 3.3891056.8 5.1.719443-1.3532474.86362-2.9392014.4-4.4" fill="#55210e"/><path d="m104.2 78.6 5.1 17.4-16.5 4.8 1.2 3.3 20-3.4c2.4-1.1 2.1-.5 1.8-3.1l-3.3-22z" fill="#87cac0"/><path d="m106.7 83c2.209112 2.1422662 2.547355 5.5669715.8 8.1-1.9 2.9-5.4 3.4-8.4 1.9 4.2.5 10.1-3.2 7.6-10" fill="#55aaa2"/><path d="m88.7 100.7c-2.2.9-.7 5.3 1.7 5.7l4.2-2.7-1.1-3.1z" fill="#955f47"/><path d="m104.6 95.8c-2.853066.0573784-5.5457089 1.3309256-7.4 3.5l-.3.3 1.7-.5c1.639028-1.5071052 3.773734-2.3609876 6-2.4 2.631068-.0035186 5.125685 1.1704187 6.8 3.2 1.667341 1.968193 2.650011 4.424867 2.8 7h-19.2c.0791885-1.062198.3150751-2.106839.7-3.1l-1 .2c-.304964.941945-.5061565 1.914375-.6 2.9h-.9l-1.8 17.3h26.5l-1.8-17.3h-1c-.171045-2.786861-1.22138-5.447709-3-7.6-1.885262-2.1844471-4.614817-3.4582396-7.5-3.5" fill="#000"/><path d="m82.5 97.6.3 22.8-3.4-.2-2.7-20.1c.2-.9.1-1.5.2-1.8v-1.8l1.3-17.7.6-4.3 8.3 3z" fill="#87cac0"/><path d="m84 82.9c-2.18611 2.1937106-2.5208816 5.6251194-.8 8.2 1.9 2.8 5.4 3.4 8.5 1.9-4.2.4-10.2-3.3-7.7-10.1" fill="#63bfb5"/><path d="m111.2 71.6-2.6 4.8-3.5-.7-.3-2.7-.6-.4v-2.6c.3-.9 2.4-.5 4.3.1s2.9 1 2.6 1.5" fill="#fbd5c7"/><path d="m73.9 14.3c-1.8426404-.1154876-3.4407106 1.2606284-3.6 3.1-.119281 1.3773809.6073551 2.689837 1.838011 3.3198307 1.2306559.6299936 2.720247.4520617 3.7678897-.450075 1.0476427-.9021368 1.4446994-2.3488183 1.0043467-3.6593508s-1.6304188-2.223924-3.0102474-2.3104049" fill="#87cac0"/><g fill="#87cac0" transform="translate(59)"><path d="m15.5 6.9c-3.7470857-.26815033-7.38244289 1.34339975-9.7 4.3-.50790065.6946834-.37535703 1.6666699.3 2.2.32396238.2716102.74749882.393903 1.16637949.3367829s.79420959-.2883491 1.03362051-.6367829c1.68898406-2.1119921 4.3009804-3.26873336 7-3.1 2.496243.2232243 4.7485662 1.5893875 6.1 3.7.2805458.445214.7738787.7108548 1.3.7l.9-.2c.7433052-.4710536.9666902-1.4539475.5-2.2-1.9284795-2.93349672-5.1009811-4.81486394-8.6-5.1"/><path d="m16 .1c-5.6577606-.23955959-11.14962535 1.94263833-15.1 6-.56984055.67602127-.52636375 1.67598762.1 2.3.64326684.55694032 1.60991235.51300188 2.2-.1 3.30802627-3.37822909 7.8735266-5.2261697 12.6-5.1 4.2074904.22085503 8.0957516 2.31171248 10.6 5.7.5246705.71797008 1.5320298.87467036 2.2499999.34999988s.8746705-1.5320297.3500001-2.24999988c-3.0712358-4.14255014-7.8479257-6.67787018-13-6.9"/></g><path d="m84.1 82.9c-1.255272 1.2039845-1.975642 2.8608355-2 4.6.044714 1.2905678.4614305 2.5407173 1.2 3.6 1.891382 2.7042876 5.5289081 3.5270613 8.4 1.9-4.2.4-10.2-3.3-7.6-10.1" fill="#55aaa2"/></g></g></svg>