<svg height="185" viewBox="0 0 143 185" width="143" xmlns="http://www.w3.org/2000/svg"><g fill="none" transform=""><path d="m81.7 105.4h37.8v57.99h-37.8z" fill="#2b474c"/><path d="m137 129.8h-72.8c-3.0375661 0-5.5-2.462434-5.5-5.5v-118c0-3.03756612 2.4624339-5.5 5.5-5.5h72.8c3.054159-.00048699 5.545461 2.4463276 5.6 5.5v118c-.054539 3.053672-2.545841 5.500487-5.6 5.5" fill="#19303b"/><path d="m67.7 9.8h65.9v111.02h-65.9z" fill="#e6e8e9"/><path d="m56.6 85.8.3.2c-.3 0-.4.2-.6.3h-.2c-.3-.1-1.1-.2-1-.6s1.2-.1 1.5.2" fill="#f7b088"/><path d="m57 88.9c.7-.6 1.9-.9 2-2-.1546537-.9418207-.5317583-1.8331588-1.1-2.6-.5315486-.885118-1.468873-1.4475126-2.5-1.5-.7847317-.1977158-1.5907454-.2984675-2.4-.3h-1.9c-.5-.3-.9.5-.4.8h.1c-.2041461.1850477-.3442177.430173-.4.7-.3.8.4 1.4.9 1.9s1.5 1.7 2.6 1.8h1.7c.1.2.4.2.6.1l.6-.5-.2.2-.5.5c-.4.2-.2.7.1.8s.4.7.8.4" fill="#f7b088"/><path d="m31.2 175.6c-1.6-2-6.3-1.2-8.4-.9-.7868398.182148-1.6007348.21606-2.4.1-.4-.1-2.1-.3-2.1-.8.0025832-.515478-.3870987-.948458-.9-1 .1329822-.444327-.0270178-.924327-.4-1.2h-.1c-.4-.3.1-1.2-.2-1s-1.8 3.3-2.1 4.2c-.6 2.4 1.2 3.2 2.7 3.2 4.8.1 9.9.4 13.4-.6.3668089-.135756.6444407-.441759.7439793-.820005.0995386-.378247.0084925-.78127-.2439793-1.079995" fill="#19303b"/><g transform="translate(2 168)"><path d="m14.7 6.8c2.4 1.3 6.2.7 8.6.4.1 0 2.3-.3 2-.5-3.5-1.7-5.9-1.3-6.8-4.8-.0828427-.60751322-.6424868-1.03284271-1.25-.95s-1.0328427.64248678-.95 1.25c0-.60751322-.4924868-1.1-1.1-1.1s-1.1.49248678-1.1 1.1c0 1.2-1.3 3.2-.1 4.2z" fill="#f7ae83"/><path d="m7 1.9c-.1-.6-.5 1.3-.9 1.3-.83257648-.11707421-1.67943449-.08319989-2.5.1-.1-.7.2-2.7-.4-2.1s-2.4 5.8-2.6 8.1-.3 5.2 1.7 6.6 4.4-3.4 4.7-6.2c.2497146-2.5940041.2497146-5.2059959 0-7.8" fill="#19303b"/></g><path d="m8.3 170.3c-.3-.6-.8-1-1.5-.6s-.9-.6-1.2-.5-.8 1.2-1 1.7c-.66063001 1.362761-1.13166637 2.809515-1.4 4.3-.4 2.2 1.4 5.4 3.9 3.6s1.9-3.1 1.9-4.8c.0158887-1.267686-.22211955-2.52573-.7-3.7" fill="#f7ae83"/><path d="m34.5 106.6c.7174476-4.205978.6835904-8.5058408-.1-12.7-.3-1.6-.5-3.2-.7-4.8-.9362756-.6184155-1.9435022-1.1220289-3-1.5-1.707457-.7304804-3.6524511-.6570844-5.3.2l-.5.3c-.729752-.2376593-1.5250677-.1653579-2.2.2-1.7.7-2.6 2.5-3.2 4.1-.6008525 1.9204188-1.0029605 3.8974498-1.2 5.9-.4510843 3.883082-.5514899 7.798903-.3 11.7.2 3.1.7 6.2.9 9.3.1356931 3.075644-.0317815 6.157177-.5 9.2-1 6.4-2.6 12.7-3.2 19.2-.4488224 3.514846-.6493193 7.056958-.6 10.6.2 3.7.7 7.3.6 10.9.0017911 1.164867.7781429 2.186383 1.9 2.5.5564864.132302 1.1318402.166146 1.7.1 1.3807119 0 2.5-1.119288 2.5-2.5.0772761-8.969933 1.2185874-17.899016 3.4-26.6 1.1-4.4 2.6-8.7 4-13s2.7-11.1 4.3-16.5c.6893471-2.15264 1.1912173-4.360869 1.5-6.6" fill="#afddf7"/><path d="m23.5 99.4c-.0169686.703846-.0838028 1.405604-.2 2.1-.2196764 2.453223-.587009 4.890975-1.1 7.3-.5 2.3-1.2 4.6-1.8 6.9-1.2 4.6-2.2 9.4-3.7 14s-2.8 8.6-3.9 13c-2.1814126 8.700984-3.32272394 17.630067-3.4 26.6 0 1.380712-1.11928813 2.5-2.5 2.5-.56815981.066146-1.1435136.032302-1.7-.1-1.12185713-.313617-1.89820894-1.335133-1.9-2.5.1-3.6-.5-7.2-.6-10.9-.04931932-3.543042.15117759-7.085154.6-10.6.6-6.5 2.2-12.8 3.2-19.2.46821849-3.042823.63569309-6.124356.5-9.2-.2-3.1-.7-6.2-.9-9.3-.25148993-3.901097-.15108426-7.816918.3-11.7.3-2 2.7-9.3 4.4-10 .6226218-.2946247 1.3183372-.398982 2-.3h.2l.5-.3c1.6475489-.8570844 3.592543-.9304804 5.3-.2 1.8566888.4461136 3.4690546 1.5926848 4.5 3.2v.3l.2-.3c.2582582-.3443443.7078856-.4847973 1.1162278-.3486833.4083421.136114.6837722.5182529.6837722.9486833h.1c.2554884-.0285695.5109989.0534826.7020855.2254605.1910866.171978.2995069.4174637.2979145.6745395.2 2.6-1.4 5-3 7" fill="#92d2f4"/><path d="m30.9 32.6c.5 2 1.1 4 1.4 6s.1 3-1.3 3.8c-1.7138532.8557387-3.5279003 1.4940145-5.4 1.9-3.7176629 1.2144011-7.5906223 1.8879593-11.5 2-1.2.1-4.3.3-5.4-.5s-.9-3.7-1.1-4.9c-.21625465-1.2880015-.28336397-2.5966334-.2-3.9.00187956-1.9487256.20292416-3.8921568.6-5.8.5-2.8 1.6-6.3 4.1-7.8h.1c2.7630232-3.2318349 7.4572636-3.9930631 11.1-1.8 1.9593972 1.0635928 3.6123371 2.613224 4.8 4.5 1.2371169 2.0583715 2.1796187 4.2799831 2.8 6.6" fill="#55210e"/><path d="m22.9 47.8c-1.4 1.3-4.4 1.8-5.7 0-.6 0-1.2-.6-1-1.6v-.8c.1160303-.5934826.1829236-1.1955225.2-1.8.074644-.225542.1085065-.4625793.1-.7v-.5c-.0043333-.3114817.0641529-.6196695.2-.9h.3v-.5c.4-1.3 1.7-1.1 1.9 0 .3285469.1403412.5572656.4452995.6.8v.2c.0819449.292587.1157198.5965613.1.9h.1c.3464159-.2220375.7993026-.180866 1.1.1h.5v-.6c.4-.9 1.5-.5 1.7.4.0820282.2237451.1160984.4622368.1.7-.0819449.292587-.1157198.5965613-.1.9v.7c.0867111.427566.1202985.8642025.1 1.3.1172855.5044274-.033928 1.0336748-.4 1.4" fill="#f7b088"/><path d="m23.3 21.5c.3660725 1.7327387-.2950862 3.5217562-1.7 4.6-1.523214 1.0339344-3.4178984 1.3618605-5.2.9-1.9039026-.4881582-3.4846754-1.8115959-4.3-3.6h.1c2.7630232-3.2318349 7.4572636-3.9930631 11.1-1.8" fill="#55210e"/><path d="m23.3 43.5c-.0819449.292587-.1157198.5965613-.1.9v.7s-2.2 4.2-6.8.3c0-.3.3-2.3.3-2.5v-.5c-.0043333-.3114817.0641529-.6196695.2-.9h.1l2.5.6 2 .4 1.7.4c.0820282.2237451.1160984.4622368.1.7" fill="#e6a37b"/><path d="m24.7 25.4c-.438018-.2044573-.9166645-.3070244-1.4-.3-1.1-.1-2.4.8-3.5.9s-4.3.4-5.2 2.1 0 3.5.4 5.3.1.7.2 1.1h-.1c-.4679701-.2271316-1.006021-.2630016-1.5-.1-.4333092.1357475-.7207659.5463999-.7 1 .2677193 1.3710955 1.2661579 2.4847386 2.6 2.9.1094561.6264784.3116778 1.2331436.6 1.8.9 2 2.8 3 4.7 4 1.5823469.8487802 3.5217008.650887 4.9-.5 1.6-1.1 2-2.7 2.2-4.6.2506766-2.0021908.1491461-4.0328003-.3-6-.7-2.4-.5-6.3-2.9-7.6" fill="#f7ae83"/><path d="m10.9 65c0-1.8.3-13.8-1.3-15.3s-1.8 1-2.1 1.5-1.3 3.2-1.8 5.1c-1.00358953 4.7341175-1.50635643 9.5606798-1.5 14.4-.2 5.7-1.1 11.7-1.6 17.5-.36601533 3.3872947-.53296889 6.7931472-.5 10.2v5.4c0 1 0 2.1.7 2.6s1.6-1.1 1.8-2.2.9-4.4 1.4-6.6c1.02538919-5.0577388 1.79304615-10.1643265 2.3-15.3.14546138-1.6579717.44679265-3.2985531.9-4.9.8735643-3.4772303 1.4423836-7.0239856 1.7-10.6z" fill="#f7ae83"/><path d="m41.4 77.6 1.3 1c1.7 1.4 3.4 2.8 5.1 4s4.3 4 4.9 2 .1-.6-.1-1.3c-1.2-2.7-3.5-5.2-5.5-7.4-1.8844069-2.0841555-3.9235402-4.0230036-6.1-5.8-1.9-1.7-1.8-4-2.4-6.4-.8257977-3.2102322-1.8955755-6.3527045-3.2-9.4-.9-1.8-2.7-6.9-5-7.3s-1.3 2.6-.5 3c-.3324272 1.9502077-.3661466 3.939647-.1 5.9-.1333782.2444008-.169114.5302877-.1.8.789983 3.2289896 1.965071 6.3513664 3.5 9.3 1 2 1.9 4.1 2.9 6s3.3 4 5.3 5.6" fill="#f7ae83"/><path d="m33.3 85.2c-.5-1.5-1.2-3-1.8-4.5-.5326118-1.7484175-.7692055-3.5735692-.7-5.4.2-3.4 1.2-6.6 1.8-9.9 0-.2.1-.4.1-.6v-1.1c.0161297-.4025901-.0174571-.8056327-.1-1.2v-.4c-.3-1.6-.8-3.1-1.2-4.7-1.0232113-3.2623073-1.3636149-6.7003832-1-10.1-1.7854197-.3572015-3.587705-.6242067-5.4-.8-.959657-.2806454-1.987955-.2097283-2.9.2-.449261.4296441-.9995306.7391708-1.6.9-1.2.2-1.8-.5-2.7-.9l-1.1-.3c-.9 0-1.8.9-2.5 1.2l-5.1 2.3c-.85145507.2524449-1.4520551 1.0132049-1.5 1.9-.1 1.3.6 2.6.8 3.9.15349637 1.8213741.45448336 3.627296.9 5.4.8 3.5 2.2 6.8 2.9 10.3.7388296 2.6804655.562886 5.5307515-.5 8.1l-1.9 5.4c-.54302628.9010898-.947544 1.8786743-1.2 2.9-.1 2.1 4.2 2.7 5.7 3.1 3.218581 1.0203351 6.5377407 1.6908724 9.9 2 2.0687431.2518328 4.1652354.1503896 6.2-.3 1.2621595-.2385657 2.4567907-.7505505 3.5-1.5-.0002573-1.4717676-.100488-2.941818-.3-4.4l-.3-1.2" fill="#f7ae83"/><path d="m32.4 70.9c-.4681147 2.2707872-.5357995 4.605911-.2 6.9.1182939.8752729.2852188 1.7432823.5 2.6 0 .4.1.8.1 1.2v.3c-.022926.2379683.0113599.4779697.1.7.2 1.7.4 3.4.7 5s.2 2.1.2 3.2c-1.0432093.7494495-2.2378405 1.2614343-3.5 1.5-2.0347646.4503896-4.1312569.5518328-6.2.3-3.3622593-.3091276-6.681419-.9796649-9.9-2l-3-.8c-1.4-.4-2.7-1.1-2.7-2.3.252456-1.0213257.65697372-1.9989102 1.2-2.9l1.9-5.4c1.062886-2.5692485 1.2388296-5.4195345.5-8.1-.3-1.5-.8-3.1-1.2-4.6.518255-1.3902259.8870005-2.8316855 1.1-4.3.0501256-.4987437.0501256-1.0012563 0-1.5-.062453-1.6422932-.2294578-3.2789404-.5-4.9-.3032099-2.2120688-1.0153267-4.3484191-2.1-6.3l2.4-1 .4.3c3.0150874 2.1358221 6.7782828 2.9318827 10.4 2.2 2.6550407-.5072699 5.0159853-2.0096893 6.6-4.2l1.8.5c.1 2.7-.1 5.4 1 7.9s3.9 6.7 2.7 10.2c-.2.9-.9 1.4-1.3 2.2h-.1c-.3177744.5541011-.5217589 1.1660545-.6 1.8-.1799028.4864054-.3138217.9886014-.4 1.5" fill="#b90066"/><path d="m33.5 67.5h-.1c-.3177744.5541011-.5217589 1.1660545-.6 1.8-1.1761246-.0312872-2.333321-.3035688-3.4-.8 1.4602328.2205603 2.946272-.1781331 4.1-1.1" fill="#e0006d"/><path d="m14.6 69.7c.7 3.4.9 8.9 0 11.1l-3.3 9c-1.4-.4-2.7-1.1-2.7-2.3.252456-1.0213257.65697372-1.9989102 1.2-2.9l1.9-5.4c1.062886-2.5692485 1.2388296-5.4195345.5-8.1-.3-1.5-.8-3.1-1.2-4.6.518255-1.3902259.8870005-2.8316855 1.1-4.3-.1.5.2 5.9 2.5 6.2 1.3267485.1874011 2.6732515.1874011 4 0-1.0623992 1.0255216-2.5376848 1.5049894-4 1.3" fill="#b90066"/><g fill="#f7b088" transform="translate(0 101)"><path d="m3.3 6.3c.3.1.1.8 0 1.2v.2l-.6.3v-.3c-.1-.4 0-1.5.6-1.4"/><path d="m5.2 8.6c.08602203-.16665283.04470787-.37069551-.09936784-.4907586-.1440757-.12006309-.35222351-.12390539-.50063216-.0092414l-.6.3h-.3l.7-.3c.2-.2.3-.4.2-.6.37085226-.35988066.64585541-.80676078.8-1.3.5-1.1.1-2.1-.2-3.2s-.5-1.6-1.3-1.7-.5 0-.8 0c.10180411-.21019918.0445273-.46287457-.13796488-.60862907s-.44157806-.1457545-.62407024 0-.23976899.39842989-.13796488.60862907c-.02092313.24404359-.08883623.48173945-.2.7l-.2.3v.2l-.3.5-.9 2.3c-.43739233.93656874-.36182172 2.03234257.2 2.9.33183427.88799371.92443517 1.654889 1.7 2.2 1 .5 1.9-.4 2.8-.8.16549972-.10119711.25752959-.28898903.23610729-.4817897s-.15243015-.35581062-.33610729-.4182103"/></g><path d="m62.9 154.7c-.5671084-4.751964-.5335107-9.556432.1-14.3.8-6.4 1-12.3-.4-18.7-.3694999-.501111-.8482731-.911488-1.4-1.2-.3889312-.236531-.8642295-.28365-1.2920312-.128086-.4278016.155564-.7618153.496979-.9079688.928086-.3733363-.005349-.7333422.138653-1 .4l-.6.8c-.6358355-.289202-1.3865566-.024242-1.7.6l-.3.5c-.3562102-.386507-.8795345-.573408-1.4-.5-.2507193-.434044-.5917441-.809171-1-1.1l-3-1.5c-.7499079-.41959-1.5591061-.723039-2.4-.9-1.9 4.7-2.7 8.4-1.6 13.5.7532648 2.764951 1.354169 5.56917 1.8 8.4.6 4-.6 8.1-.6 12.1-.1 5.6.8 10.9 1.6 16.3v.6c.051542.512901.4845219.902583 1 .9h.3c.4152278.225522.9241488.186374 1.3-.1.3818619-.280989.719011-.618138 1-1 .4-.6.2-2.8.3-3.6s.3-2.8.4-4.2c.4023088-2.681193.6028718-5.388794.6-8.1-.1-2.8-.2-5.7-.1-8.5s.3-4.2.4-6.3-.2-5.1.1-7.6c-.1.6 2.1.6 2.2 2s.1 5.7.1 8.5v.3c0 4.5.2 9 .5 13.6s1.8 9.5 1.9 14.3c.7 1.1 1.8 1.1 3.2-1.3s.7-3.2.7-4.8c0-3.2.5-6.5.1-9.7z" fill="#f7ae83"/><path d="m46.8 156.1c2.6608085-.216592 5.3316926-.283364 8-.2.3-.3-.5-19.9-.5-20.3.0830725-.696744.1164901-1.398515.1-2.1h1.2c0 1 0 21 .5 21.9h1.1c2.4-.3 4.7-.7 7.1-.8v-19c-.3-1.6.2-3.5 0-5.2s-.1-10.3-4.1-10.2c-1.5.1-3 .7-4.5.9-1.1789216.281232-2.3880987.415585-3.6.4h-3.1c-.6802746-.040161-1.3614473.062015-2 .3-.4244668-.141344-.8917896-.054499-1.237137.229905-.3453473.284404-.5201917.726402-.462863 1.170095.1 2.3-.4 4.5-.3 6.8s1.7 23.8 1.8 26.1" fill="#f9af00"/><path d="m50.8 75.5h-.8l.3-.2c.4-.1.5 0 .5.3" fill="#4d2a1d"/><path d="m48.1 75.1-.2.4h-.8c.1805348-.2544366.4209455-.460503.7-.6.4-.1.4.1.3.2" fill="#4d2a1d"/><path d="m57.5 77.7c-.1473956-.3058248-.3941752-.5526044-.7-.7.2-1 0-2.1-1.3-2.3-.4833355-.0070244-.961982.0955427-1.4.3-.5513244-.4033894-1.276766-.4797516-1.9-.2-.1070083-.5013453-.4986547-.8929917-1-1-.6008882-.194843-1.2565381-.121993-1.8.2l-1-.5c-1.3-.3-2.4.8-2.9 1.9-1.2555839-.0940029-2.4690402.4748047-3.2 1.5-.1920167.2330508-.3287694.5065562-.4.8-1.3417566.3683469-2.4446861 1.3242192-3 2.6-.3014499.8352299-.4701628 1.7125369-.5 2.6-.1830131.5133419-.2176708 1.0678653-.1 1.6.0046597.3548072.1085835.7012198.3 1 .2.3.3.3.2.6s-.5 1.1-.4 1.8c.2688618 1.03099.9582096 1.9017452 1.9 2.4-.1284949.2763589-.1239483.5962302.0123492.8688254.1362976.2725952.3894668.4681552.6876508.5311746.5921711.283538 1.2437751.4207178 1.9.4.0157093.5501946.3762118 1.0308646.9 1.2 1.0669351.3592266 2.2441498.1313786 3.1-.6.5.5 1 1.2 1.7 1.4s1-.1 1.5-.4c.3774815-.2699571.7792045-.5042955 1.2-.7h.1c1.7-.4 1.6-2.5.1-3.2s-4.2-2.7-4.7-5.4c-.1328902-.9941967-.166389-1.9991607-.1-3-.010615-.4836828.092125-.9631364.3-1.4.0448243-.2214551.1937857-.4076569.4-.5.5237882-.1691354.8842907-.6498054.9-1.2.2306443.1678801.5174879.239591.8.2.4146391-.0136932.7927935-.2405859 1-.6v.2c-.1.7.4 1.2 1.1.9.30855-.1901156.5525248-.468944.7-.8h1.1c-.0495136.2519078.0248768.5122742.2.7.1888544.2518058.4852427.4.8.4s.6111456-.1481942.8-.4l.5.2h-.1c-.5.4 0 1.3.6 1.3.2818028.114147.6050668.033331.8-.2.1845311-.1183205.3250721-.2939969.4-.5.6311795-.4561493.8422646-1.3004897.5-2" fill="#55210e"/><path d="m55.8 99.1c-.0344686.7953481-.6162659 1.460259-1.4 1.6-1.3.3-2.6.4-3.5-.7-.8332695-1.2869088-1.3158711-2.769185-1.4-4.3l-.6-1.7-.3-1-.3-1.2v-.3l-.2-.4c-1.1-1.9 1.9-3.5 3-1.6v.2c.8023252-.4582832 1.8237873-.1918149 2.3.6.8069831 1.7850968 1.3784399 3.6675426 1.7 5.6.3285219 1.0435969.5627935 2.1145528.7 3.2" fill="#f7b088"/><path d="m55.1 95.9c-2.9 1-5.8-1.6-5.8-1.6l-.4-.3-.3-1-.3-1.2v-.3l-.2-.4c-1.1-1.9 1.9-3.4 3-1.6v.2c.8023252-.4582832 1.8237873-.1918149 2.3.6.8069831 1.7850968 1.3784399 3.6675426 1.7 5.6" fill="#f19d80"/><path d="m60 87.4c-.6-1.5-1.5-2.9-2.2-4.4-.3058942-.8587715-.6735205-1.694286-1.1-2.5-.5-.7-1.1-1.3-1.5-2-.2792134-.7150446-1.0821435-1.0719025-1.8-.8l-.4.2c-.8224393-.4542004-1.7811993-.5962389-2.7-.4-2.6228699.5259532-4.6275974 2.6509644-5 5.3-.2529157 1.9171457.1715108 3.8624335 1.2 5.5.4108504.3450578.7216453.7939837.9 1.3.447857 1.3009827.9823877 2.5704932 1.6 3.8l2.9 1c2.1.7 4.7 1.4 6.6.1s2.3-4.8 1.5-7.1" fill="#f7b088"/><path d="m48.3 88.5s-3.3-1.2-2.8.6 3.4 2.4 3.4 2.4z" fill="#f7b088"/><path d="m61.7 103.9.2-.5-1.6-2.2c-.9805012-1.4256399-1.6921936-3.0184752-2.1-4.7-2.4 1.1-6.2.6-8.6.9-1.7615404.0135088-3.4875736.4967981-5 1.4-1.2697453.8206493-2.3037185 1.95802-3 3.3-.6117277 1.219665-1.1137074 2.491347-1.5 3.8-.9 2.5-2.2 5-3.1 7.9-.9142679 3.027536-2.0851811 5.971547-3.5 8.8-1.2775023 2.287344-2.3163038 4.700045-3.1 7.2-.304025 1.006444-.4721802 2.049006-.5 3.1-.1162505 1.639529.4232821 3.258127 1.5 4.5.1.2.4.2.6.2l.3.3c.4.3.8.3 1 0 .3107118-.016361.5837521-.21139.7-.5.0826854-.326539.1163868-.663553.1-1l.3-.4c.3659003-1.762463.1189387-3.597035-.7-5.2-.0217299-.303586.0121593-.608588.1-.9.4-1.5 1.7-2.7 2.5-3.9 1.9312098-2.612154 3.3557969-5.563084 4.2-8.7l.2-.5c.631342-1.612414 1.3662061-3.182351 2.2-4.7.7-1.5 1.4-2.9 2.2-4.4.2 2.2.5 4.3.6 6.5l.3 4.4c.0458445 1.404652.9049108 2.654203 2.2 3.2 1.2408014.334292 2.5433339.368569 3.8.1.699149-.127391 1.3740072-.363591 2-.7l1-.2c1.5-.3 4.5 0 6.5-.7-.7444066-3.485796-1.1463173-7.036008-1.2-10.6.1-2.2.1-3.8 1.4-5.7" fill="#f7ae83"/><path d="m87.7 83.1h-.1c.0953607-.2566036.0323899-.545249-.1611805-.7388195-.1935705-.1935704-.4822159-.2565412-.7388195-.1611805-.4252747.0400542-.8357477.1768786-1.2.4-.2083741-.2146207-.5018853-.3246874-.8-.3-1.4.3-2.5 1.8-3.6 2.7s-4.3 3.5-6.4 5.3l-2.8 2.5c-.7772153.8618718-1.732646 1.5443223-2.8 2-2.8.9-5.9 1.6-8.8 2.4-.6400346.0388175-1.2820761-.0287658-1.9-.2-.5882596-.164576-1.2175599.0440075-1.591061.5273619-.3735012.4833544-.416589 1.1449203-.108939 1.6726381-.2568249.3436087-.364912.775957-.3 1.2l.2 1c.1489453.693842.7934737 1.166496 1.5 1.1l.9 1.1c.2676964.465042.7634135.751669 1.3.751669s1.0323036-.286627 1.3-.751669c.4180193-.643309.7224445-1.353635.9-2.1 2.5432649-.697438 5.0469253-1.5319915 7.5-2.5 1.9443301-.9061362 3.7066308-2.1600809 5.2-3.7 1.7-1.7 3.7-3.1 5.3-4.9h.1c1.1019399.474641 2.3193837.6137774 3.5.4h.1c.9222857.0827287 1.8439174-.1654029 2.6-.7.2385826-.2033238.336434-.5272552.2503177-.8286622-.0861163-.3014071-.3403312-.5247481-.6503177-.5713378h-2.1l.7-.7 1-.7c.7460053-.426512 1.3934782-1.0058299 1.9-1.7.1075004-.2209516.1075004-.4790484 0-.7.1-.3.3-.5.4-.8.0951073-.2247463.0824288-.4806128-.0344311-.6948558-.1168598-.214243-.325119-.3634291-.5655689-.4051442" fill="#f7ae83"/><path d="m65.1 126.3h-1.7c-2.3.2-4.6.3-6.9.6-3.4738309.551883-6.9829225.852662-10.5.9h-1.5c-.5 0 1.5-18.1.6-18.4h-.1c-1.6-.1-6.8-.5-6.1-3.1 1.4-4.9 5.1-9.5 10.7-8.9 1.9 2.6 3.3 2.5 5.4.7s1.2-1.5 3.2-1.8l5.4-.6c.2 1.1 1.4 6.6.9 7.3-.7729017.774857-1.7400342 1.327505-2.8 1.6-.0789513 2.2449.0887191 4.491684.5 6.7.6 4 1.7 11.3 2.9 15" fill="#d4dce1"/><path d="m52.9 169.1c.0330381-.873088.1333352-1.74233.3-2.6 0 0-3.6-.8-4.4-.6s-.2 3.2-.2 3.2z" fill="#bfd3d7"/><path d="m53 169.8c-.1-.9-1.6-.5-1.4.4v.3c0 .3.1.6.1.9v2.3c-.1.8-.1 1.5-.2 2.2v.6c-.7.2-.9 1.3-.1 1.5s1.9-2.5 1.9-3.6c.1666662-1.564545.1330617-3.14396-.1-4.7" fill="#d4d3d4"/><path d="m50.1 167.9c-.5.1-1.1.2-1.2.6l-.3.6c-.5 2.6-1.9 5-1.8 7.5l.3.4c.9337613.991243 2.4314473 1.199255 3.6.5 1.0786229-.806816 1.7391022-2.054388 1.8-3.4.2-1.7.3-3.3.4-5s-.7-1.2-1.5-1.2z" fill="#19303b"/><path d="m51.7 175c-.4410083-.195404-.9176466-.29754-1.4-.3-.8658737-.118403-1.7457788-.08456-2.6.1-1.6.5-1.4 2-1.1 3.3.6662777.55987 1.5372083.813892 2.4.7.8 0 2.3.2 3-.5.5727478-.751702.6510433-1.769544.2-2.6z" fill="#d4d3d4"/><path d="m58.7 169.1c0-.3-.4-2.6-.4-2.6s3.6-.8 4.4-.6.2 3.2.2 3.2z" fill="#bfd3d7"/><path d="m58.5 169.8c.1-.9 1.6-.5 1.4.4v1.2c-.1006208.763365-.1006208 1.536635 0 2.3-.0380421.739108.0292998 1.479869.2 2.2v.6h.1c.6.2.8 1.3 0 1.5s-1.8-2.5-1.9-3.6c-.1666662-1.564545-.1330617-3.14396.1-4.7" fill="#d4d3d4"/><path d="m61.4 167.9c.6.1 1.1.2 1.2.6l.3.6c.5 2.6 1.9 5 1.8 7.5l-.2.4c-.9667291 1.007331-2.5005765 1.214608-3.7.5-1.0477907-.832807-1.7002741-2.065276-1.8-3.4-.1996216-1.659193-.2998006-3.328842-.3-5 0-1 .6-1.2 1.4-1.2z" fill="#19303b"/><path d="m59.8 175c.4410083-.195404.9176466-.29754 1.4-.3.8658737-.118403 1.7457788-.08456 2.6.1 1.6.5 1.4 2 1.1 3.3-.6662777.55987-1.5372083.813892-2.4.7-.8 0-2.3.2-2.9-.5-.6053374-.731093-.7229337-1.750261-.3-2.6z" fill="#d4d3d4"/><path d="m55.8 76.7c-.2651987-.113296-.5708495-.0750897-.8.1-1-.2-2.2-.4-2.9.1l-1.1-.2c-.3364696.0282373-.653571.1691712-.9.4h-.8c-1.1-.6-2.8-.2-2.9 1-.3014652.1534676-.5465324.3985348-.7.7-.857577.1205831-1.5836811.6938232-1.9 1.5-.2764567.2148651-.4203995.5586725-.3794891.9064105.0409103.3477379.2607144.6487517.5794891.7935895.5.8 2.2.7 2.9 0l.8-1.1c.6250241-.0954746 1.19384-.4154336 1.6-.9l.7.2c.7251559.1492676 1.4767603-.0762137 2-.6.5184655.046692 1.0393749-.0574899 1.5-.3.5761563.4239821 1.3715333.3821202 1.9-.1.6-.5 1.4-2.1.4-2.5" fill="#55210e"/><path d="m124.8 169.3h-48.3000003l.0000003-2.6c-.0007958-1.839399 1.4613966-3.3459 3.3-3.4h41.6c1.877768 0 3.4 1.522232 3.4 3.4z" fill="#19303b"/><path d="m126.5 86.3h-1v-10.6l-11.5-17.6h-18l-18.8-19.6v-17.2h1.1v16.8l18.1 18.9h18.2l11.9 18.4z" fill="#e0006d"/><path d="m91.4 95.2h-1.1v-9.1l19.1-17.9v-30l8.5-21.2h9.4v1.1h-8.7l-8.1 20.3v30.3l-19.1 17.8z" fill="#c18f00"/><path d="m76.3 80.4h-1.1v-5.7l5.7-6.5h21v-18.4l-16.6-16.2v-18.6h1.1v18.1l16.6 16.3v19.9h-21.6l-5.1 5.8z" fill="#44195e"/><path d="m82.5 54.4h-10.1v-1.1h9.6l14-15.6h24.1l6.9-4.8.6.9-7.2 5h-23.9z" fill="#92d2f4"/><path d="m78.9 38.3c0 .6627417-.5372583 1.2-1.2 1.2-.6419276-.0477425-1.1522575-.5580724-1.2-1.2 0-.6627417.5372583-1.2 1.2-1.2s1.2.5372583 1.2 1.2" fill="#df233c"/><path d="m78.9 22.3c0 .6627417-.5372583 1.2-1.2 1.2s-1.2-.5372583-1.2-1.2c.0477425-.6419276.5580724-1.1522575 1.2-1.2.6627417 0 1.2.5372583 1.2 1.2" fill="#df233c"/><path d="m87 15c0 .6627417-.5372583 1.2-1.2 1.2s-1.2-.5372583-1.2-1.2c.0477425-.6419276.5580724-1.1522575 1.2-1.2.3182598 0 .6234845.1264282.8485281.3514719.2250437.2250436.3514719.5302683.3514719.8485281" fill="#1d2b33"/><path d="m87 23.1c.0012836.3099204-.1282324.6060027-.3566935.8154253-.228461.2094227-.534667.3127522-.8433065.2845747-.6255755.0021756-1.1478722-.4765964-1.2-1.1 0-.6627417.5372583-1.2 1.2-1.2s1.2.5372583 1.2 1.2" fill="#1d2b33"/><path d="m87 33.3c0 .6627417-.5372583 1.2-1.2 1.2s-1.2-.5372583-1.2-1.2c.0477425-.6419276.5580724-1.1522575 1.2-1.2.6627417 0 1.2.5372583 1.2 1.2" fill="#1d2b33"/><path d="m95 41c0 .6627417-.5372583 1.2-1.2 1.2s-1.2-.5372583-1.2-1.2c.0477425-.6419276.5580724-1.1522575 1.2-1.2.6627417 0 1.2.5372583 1.2 1.2" fill="#1d2b33"/><path d="m103.6 49.6c0 .6627417-.537258 1.2-1.2 1.2s-1.2-.5372583-1.2-1.2c.047742-.6419276.558072-1.1522575 1.2-1.2.662742 0 1.2.5372583 1.2 1.2" fill="#44195e"/><path d="m103.6 57.6c0 .6627417-.537258 1.2-1.2 1.2-.641928-.0477425-1.152258-.5580724-1.2-1.2 0-.6627417.537258-1.2 1.2-1.2s1.2.5372583 1.2 1.2" fill="#44195e"/><path d="m103.6 68.5c0 .6627417-.537258 1.2-1.2 1.2-.641928-.0477425-1.152258-.5580724-1.2-1.2 0-.6627417.537258-1.2 1.2-1.2s1.2.5372583 1.2 1.2" fill="#44195e"/><path d="m82.4 68.5c0 .6627417-.5372583 1.2-1.2 1.2-.6419276-.0477425-1.1522575-.5580724-1.2-1.2 0-.6627417.5372583-1.2 1.2-1.2s1.2.5372583 1.2 1.2" fill="#44195e"/><path d="m76.9 80.4c0 .6627417-.5372583 1.2-1.2 1.2s-1.2-.5372583-1.2-1.2c.0477425-.6419276.5580724-1.1522575 1.2-1.2.6627417 0 1.2.5372583 1.2 1.2" fill="#44195e"/><path d="m92.1 95.2c0 .6627417-.5372583 1.2-1.2 1.2s-1.2-.5372583-1.2-1.2.5372583-1.2 1.2-1.2c.6419276.0477425 1.1522575.5580724 1.2 1.2" fill="#c18f00"/><path d="m92.1 86.3c0 .6627417-.5372583 1.2-1.2 1.2-.6627416-.0000002-1.1999997-.5372584-1.1999997-1.2s.5372581-1.1999998 1.1999997-1.2c.6627417 0 1.2.5372583 1.2 1.2" fill="#c18f00"/><path d="m101.6 77.4c0 .6627417-.537258 1.2-1.2 1.2-.6234036-.0521278-1.1021756-.5744245-1.1-1.2-.0281775-.3086395.075152-.6148455.2845747-.8433065.2094226-.2284611.5055053-.3579771.8154253-.3566935.662742 0 1.2.5372583 1.2 1.2" fill="#c18f00"/><path d="m111.2 68.4c0 .6627417-.537258 1.2-1.2 1.2s-1.2-.5372583-1.2-1.2.537258-1.2 1.2-1.2c.641928.0477425 1.152258.5580724 1.2 1.2" fill="#c18f00"/><path d="m111.2 46.5c0 .6627417-.537258 1.2-1.2 1.2s-1.2-.5372583-1.2-1.2.537258-1.2 1.2-1.2c.641928.0477425 1.152258.5580724 1.2 1.2" fill="#c18f00"/><path d="m111.2 38.3c-.047742.6419276-.558072 1.1522575-1.2 1.2-.662742 0-1.2-.5372583-1.2-1.2s.537258-1.2 1.2-1.2 1.2.5372583 1.2 1.2" fill="#c18f00"/><path d="m103 38.1c.002176.6255755-.476596 1.1478722-1.1 1.2-.662742 0-1.2-.5372583-1.2-1.2s.537258-1.2 1.2-1.2c.30992-.0012836.606003.1282324.815425.3566935.209423.228461.312752.534667.284575.8433065" fill="#92d2f4"/><path d="m83.4 53.8c0 .6627417-.5372583 1.2-1.2 1.2-.3182598 0-.6234845-.1264282-.8485281-.3514719-.2250437-.2250436-.3514719-.5302683-.3514719-.8485281.0477425-.6419276.5580724-1.1522575 1.2-1.2.6627417 0 1.2.5372583 1.2 1.2" fill="#79abc9"/><path d="m73.9 53.8c.0281775.3086395-.075152.6148455-.2845747.8433065-.2094226.2284611-.5055049.3579771-.8154253.3566935-.6627417 0-1.2-.5372583-1.2-1.2s.5372583-1.2 1.2-1.2c.6234036.0521278 1.1021756.5744245 1.1 1.2" fill="#79abc9"/><path d="m78.9 29.7c0 .6627417-.5372583 1.2-1.2 1.2s-1.2-.5372583-1.2-1.2c.0477425-.6419276.5580724-1.1522575 1.2-1.2.6627417 0 1.2.5372583 1.2 1.2" fill="#df233c"/><path d="m88.4 48.1c0 .6627417-.5372583 1.2-1.2 1.2s-1.2-.5372583-1.2-1.2.5372583-1.2 1.2-1.2c.6419276.0477425 1.1522575.5580724 1.2 1.2" fill="#df233c"/><g fill="#e0006d"><path d="m97.4 57.4c0 .6627417-.5372583 1.2-1.2 1.2s-1.2-.5372583-1.2-1.2.5372583-1.2 1.2-1.2 1.2.5372583 1.2 1.2"/><path d="m111.2 57.4c0 .6627417-.537258 1.2-1.2 1.2s-1.2-.5372583-1.2-1.2.537258-1.2 1.2-1.2 1.2.5372583 1.2 1.2"/><path d="m78.3 23.4h-1.1v5.3l.5-.2.6.2z"/><path d="m78.3 30.8h-1.1v6.4h1.1z"/><path d="m78.8 38.7c-.121733.3231914-.3768086.578267-.7.7l7.9 8.3c.1901156-.30855.468944-.5525248.8-.7z"/><path d="m88.3 48.5c-.0985842.3938755-.4061245.7014158-.8.8l.9.8.6-.9z"/></g><path d="m86.4 16.1h-1.1v5.9h1.1z" fill="#44195e"/><path d="m86.4 24.1h-1.1v8.2l.5-.2.6.2z" fill="#44195e"/><path d="m87 33.7c-.1603408.355195-.444805.6396592-.8.8l6.5 6.3c.0284982-.384404.2561264-.7258463.6-.9z" fill="#44195e"/><path d="m96 37.7-1.9 2.1.5.3z" fill="#a7c8db"/><path d="m92.7 41.4-5.1 5.6c.3366801.1547228.5913385.4457609.7.8l4.6-5.1.4-.6c-.2788017-.1521965-.4922344-.4012012-.6-.7" fill="#92d2f4"/><path d="m86.1 48.7-3.6 4c.378873.0605403.6897026.3325162.8.7l3.7-4.1c-.384404-.0284982-.7258463-.2561264-.9-.6" fill="#92d2f4"/><path d="m81.2 53.3h-7.4c.0950093.148167.1307136.3266884.1.5.0145846.2050939-.0196868.4107224-.1.6h7.4c-.1115607-.1821262-.1799729-.3873627-.2-.6.0068825-.1847711.0775555-.3614537.2-.5" fill="#92d2f4"/><path d="m77.7 37.1h-.5c-.429554.1968693-.7035884.6274947-.7 1.1.0477425.6419276.5580724 1.1522575 1.2 1.2h.4c.3231914-.121733.578267-.3768086.7-.7.0677102-.1223057.1021886-.2602196.1-.4-.0155986-.4406984-.2379216-.8482906-.6-1.1h-.6" fill="#e0006d"/><path d="m77.7 21.1c-.6419276.0477425-1.1522575.5580724-1.2 1.2-.0035884.4725053.270446.9031307.7 1.1h1.1c.3620784-.2517094.5844014-.6593016.6-1.1 0-.6627417-.5372583-1.2-1.2-1.2" fill="#e0006d"/><path d="m85.8 13.8c-.6419276.0477425-1.1522575.5580724-1.2 1.2-.0035884.4725053.270446.9031307.7 1.1h1.1c.3620784-.2517094.5844014-.6593016.6-1.1 0-.6627417-.5372583-1.2-1.2-1.2" fill="#44195e"/><path d="m85.8 21.9h-.5c-.429554.1968693-.7035884.6274947-.7 1.1.0337069.435975.3018963.8191027.7 1h1.1c.3466793-.2198951.5691181-.5906264.6-1-.0155986-.4406984-.2379216-.8482906-.6-1.1z" fill="#44195e"/><path d="m85.8 32.1-.5.2c-.6075132.1380712-.9880711.7424868-.8499999 1.35.1380711.6075132.7424867.9880712 1.3499999.85h.4c.355195-.1603408.6396592-.444805.8-.8v-.4c-.0308819-.4093736-.2533207-.7801049-.6-1z" fill="#44195e"/><path d="m93.8 39.8h-.5c-.3438736.1741537-.5715018.515596-.6.9 0 .1-.1.1-.1.2s.1.3.1.4c.1077656.2987988.3211983.5478035.6.7l1.3-2-.5-.3h-.3" fill="#44195e"/><path d="m82.2 52.6c-.435975.0337069-.8191027.3018963-1 .7-.1224445.1385463-.1931175.3152289-.2.5.0200271.2126373.0884393.4178738.2.6.2198951.3466793.5906264.5691181 1 .6.6627417 0 1.2-.5372583 1.2-1.2.0149638-.1409598-.0204626-.2826655-.1-.4-.1102974-.3674838-.421127-.6394597-.8-.7h-.3" fill="#92d2f4"/><path d="m72.8 52.6c-.6627417 0-1.2.5372583-1.2 1.2s.5372583 1.2 1.2 1.2c.4093736-.0308819.7801049-.2533207 1-.6.0803132-.1892776.1145846-.3949061.1-.6.0307136-.1733116-.0049907-.351833-.1-.5-.1808973-.3981037-.564025-.6662931-1-.7" fill="#92d2f4"/><path d="m77.7 28.5-.5.2c-.3981037.1808973-.6662931.564025-.7 1-.0035884.4725053.270446.9031307.7 1.1h1.1c.3620784-.2517094.5844014-.6593016.6-1.1-.0308819-.4093736-.2533207-.7801049-.6-1z" fill="#e0006d"/><path d="m87.2 46.9h-.4c-.331056.1474752-.6098844.39145-.8.7v.4c-.0145846.2050939.0196868.4107224.1.6.1741537.3438736.515596.5715018.9.6h.5c.3938755-.0985842.7014158-.4061245.8-.8 0-.1.1-.2.1-.4s-.1-.2-.1-.3c-.1086615-.3542391-.3633199-.6452772-.7-.8z" fill="#e0006d"/><path d="m72.7 100.9h56.1v15.06h-56.1z" fill="#d4d3d4"/></g></svg>