<svg height="400" viewBox="0 0 1200 400" width="1200" xmlns="http://www.w3.org/2000/svg" xmlns:xlink="http://www.w3.org/1999/xlink"><defs><path id="a" d="m0 239.8v160.4h1200v-160.4z"/><filter id="b" height="149.3%" width="106.6%" x="-2.7%" y="-22.8%"><feMorphology in="SourceAlpha" operator="dilate" radius="6" result="shadowSpreadOuter1"/><feOffset dx="7" dy="3" in="shadowSpreadOuter1" result="shadowOffsetOuter1"/><feGaussianBlur in="shadowOffsetOuter1" result="shadowBlurOuter1" stdDeviation="6"/><feColorMatrix in="shadowBlurOuter1" type="matrix" values="0 0 0 0 0   0 0 0 0 0   0 0 0 0 0  0 0 0 0.139690897 0"/></filter></defs><g fill="none" fill-rule="nonzero"><path d="m.7.2v400h1200v-400z" fill="#a90061"/><path d="m970 83.2c-4.908797-.5649339-9.734035 1.5970723-12.579782 5.6365236s-3.25727 9.3108687-1.072874 13.7430074c2.184396 4.432139 6.615658 7.316772 11.552656 7.520469 7.257053.299421 13.450279-5.196622 14.015576-12.4378175.565298-7.2411952-4.699976-13.6317679-11.915576-14.4621825z" fill="#f092cd"/><path d="m972.5 53.2c-15.238853-1.1536386-30.039016 5.4200377-39.4 17.5-1.050545 1.3382137-1.525031 3.0396433-1.318629 4.7283879.206403 1.6887447 1.076705 3.2258113 2.418629 4.2716121 2.819603 2.1985472 6.885472 1.7070686 9.1-1.1 6.418546-8.3855501 16.520969-13.1169623 27.071958-12.6789967 10.550989.4379655 20.226538 5.9903502 25.928042 14.8789967 1.222123 1.8377003 3.293228 2.9297377 5.5 2.9 1.23887.0124625 2.45472-.3349237 3.5-1 2.95088-1.954541 3.79549-5.9108409 1.9-8.9-7.722576-11.900906-20.554318-19.5185973-34.7-20.6z" fill="#f092cd"/><path d="m974.6 25.5c-21.2-1.6-45.3 8-61.3 24.5-2.092828 2.6181852-1.851604 6.3984569.557035 8.7293974 2.408638 2.3309405 6.194786 2.4481251 8.742965.2706026 13.5-13.9 33.5-22 51-20.7s32.7 9.1 43 22.9c1.22755 1.636738 3.15408 2.6 5.2 2.6 1.37839.0160539 2.72028-.4430117 3.8-1.3 1.38821-1.0010025 2.31765-2.5163146 2.58072-4.2074441.26306-1.6911296-.16217-3.4171698-1.18072-4.7925559-12.7-16.9-30.3-26.3-52.4-28z" fill="#f092cd"/><g><use fill="#000" filter="url(#b)" xlink:href="#a"/><use fill="#a90061" fill-rule="evenodd" xlink:href="#a"/></g><path d="m1071.7 180.7c0-.9.4-4.3 2.4-9.8 1.3-3.9 5.7-15.3 7.4-25.8h-.6c-1.6 10.4-6 21.8-7.4 25.7-2 5.5-2.4 9-2.4 10z" fill="#000"/><path d="m1153.9 351.7c2.74708 2.689483 4.95351 5.88032 6.5 9.4l.9 2.6-7 4s-.6-2.5-2.4-.9-6 6.7-7.6 7.9c-3.5 2.6-6.7 2.3-9.9 1.8 0 0-3.5-4.2.1-5.2s3.2-1.6 5.4-5.4 2.1-8.3 3.2-10.4 10.8-3.8 10.8-3.8" fill="#55210e"/><path d="m1085.6 240.4c0 7.4 21.3 57.2 28.6 71.1 4.9 9.4 17.2 45 18.2 48.1 6.6-.7 23-4.1 23-4.1s-7.9-36.5-22-58c-5-7.6-17.2-49.7-17.8-57.4s-30 .3-30 .3" fill="#000"/><path d="m1073.9 366c-.42195 3.805023-1.54058 7.499898-3.3 10.9l-1.5 2.3-7.4-3s1.5-1.9-.9-2.4-5.1.3-7-.2c-4.2-1.2-10.4-2.2-13.3-5.5 0 0-.9-4.3 2.9-4.3s5.7.4 10-.4 8.5-3 10.8-3.5 9.7 6.1 9.7 6.1" fill="#55210e"/><path d="m1119.5 232.5s5.1 26.5-1.2 35.4c-7.8 10.7-21 41.6-21.5 46.1s-8.3 32-19.6 55c0 0-14-2-21.5-8.9 4.1-9.8 20-41.8 18.3-49.9-.6-3 .7-11.2 2.1-14.7s11.2-34 14.4-61.8c1.1-10 29-1.2 29-1.2" fill="#000"/><path d="m1089.5 240.8c-1.9 6.2-9.9 47-11.4 50.3s-5.5 10-3.6 21c-2.9 4.2-2.3 13-6.1 19.6s-12.4 26.4-12.7 28.4 5.1 1.8 7.1 3.2 4.2-9.1 7.5-20 9.6-27.4 10.5-32.2 1.1-12.4 2.6-18.6 9.9-44.1 9-50.7-2.9-1-2.9-1" fill="#000"/><path d="m1084.4 163.3c-4 .6-9.3 45.2-3.3 69.2 5.9 8.2 21.1-.3 25.3-.8s5.2-65.4 2.3-67.1-4.1-6.3-6.1-6-15.1 4.3-18.2 4.7" fill="#d5dbd9"/><path d="m1094.4 138c.1 3.1 5.5 13 8 17s-7.7 7.1-7.7 7.1l-9.1 4.1s-1.3-6.1-3.7-8.7 12.5-19.5 12.5-19.5" fill="#d39883"/><path d="m1078.4 206.5c.3-7.1 2-30.6 3.8-37.8.06581-.842743.19958-1.678794.4-2.5l1.5-4.4c.4.9.3 1.1.9 1.5l7.6-.4-7.7 6.4c-1.1 3.9-1.5 44.2-1.4 45.9-3.2 2.3-3 1.7-3 1.7s-2.2-9.5-2.1-10.4" fill="#0068b3"/><path d="m1101 150.8c-1 2.2-14.2 12.4-14.2 12.4l3 7.7 14.7-15.7z" fill="#fff"/><path d="m1084.1 162.9c-1.68673 2.207874-3.19166 4.548877-4.5 7l.4.4-1.6 6.2.3 27s2.1-33 3.8-36.8 1.2-3.1 1.2-3.1z" fill="#292a36"/><path d="m1103.9 154.9c3.28667 2.827051 6.20909 6.051787 8.7 9.6 2 2.9 4.9 17.3 5.6 32.5.46897 10.336088 2.70111 20.515987 6.6 30.1 2.6 6.5 5.5 15 6.4 19.9.3 1.6-51.7 13.3-50.7 8.1 1.7-9-.7-21.6-1.2-29.2-.61295-6.81708-.67983-13.672258-.2-20.5.9-10.2 7.8-29 9.7-34.2 3.1-8.6 15.1-16.3 15.1-16.3" fill="#000"/><path d="m1101.7 152 4.1 4.2-11.2 11.3-3.8.6-.4 8.6s-5.9 9.2-11.9 31.9c1.5-8.7.3-13.9 6.4-31.9 3.7-10.9 16.8-24.7 16.8-24.7" fill="#2c2e39"/><path d="m1083.8 160.2-1.2 5.3-.5 3.6s.2-4 2.6-6c.2-.2-.9-2.9-.9-2.9" fill="#fff"/><path d="m1074.7 126.3c-6.2 2.8-8 6.5-5 16.2.1.6 1.4 1.6 1.6 2.2s.1.2.2.4c.2 2.6.3 6.7.7 7.3s1.7.4 2.9.1c.8 1.3 1.6 2.3 2.3 3.3s2.4 3 3.2 2.7c3.2-.8 6.2-3.3 9.1-5.4s1.4-9.7-.1-14.7c-2.4-8.3-7.1-15.7-14.9-12.1" fill="#d39883"/><path d="m1067.9 135.5c-1.3256-.380843-2.60122-.917946-3.8-1.6-1.0837-.803984-2.0585-1.745173-2.9-2.8l4.7.5s-6-1.2-4.7-1.1c2.73706.321087 5.44959-.771461 7.2-2.9 3.28852-4.303615 8.21131-7.054582 13.6-7.6 4.8-.6 6.3.9 6.3.9s12.3-.1 10.9 16.4c0 0-.9 7.6 1.7 8.6-1.5 2.1-6.5 2.2-6.5 2.2s-4.7-5.3-4.7-7.2c0-3.9-3.7-4.1-4-2.5s1.3 3.4.9 4-1.7 3.1-1.8 2.6c-1.2-6.4-7.5-10.4-9.5-10.9s3.7-5.9 5.3-7-3.1 1-6.3 6.1c-.7 1.1-6.4 2.3-6.4 2.3" fill="#55210e"/><path d="m1085 144.4c-.3 1.4-.6 6.7-1 7.9s-5.5 5.5-5.5 5.5 2 6.7 2.8 6.5 7.2-6.5 7.7-7.5-1.9-13.7-2.3-14.8-1.7 2.4-1.7 2.4" fill="#55210e"/><path d="m1085.4 138.1c.3-.8 2-2.6 3.1-1s2.3 5.8.8 6.5-3.9-5.5-3.9-5.5" fill="#cc9583"/><path d="m1106.6 221.9-17.6 3.8s-1.4 6.1.5 7.1 17.6-2.4 19-3.8-1.9-7.1-1.9-7.1" fill="#2c2e39"/><path d="m1072.3 192c.33763-1.23825.50583-2.516558.5-3.8 0-3.1-1.1-5-1.1-7.4s.7-4.2 3.4-7.7c6.1-8.3 13.6-16.8 13.6-27.5-.01394-1.683761-.21518-3.360745-.6-5l-.5.2c.31455 1.581125.48193 3.187992.5 4.8 0 10.5-7.3 18.9-13.5 27.1-2.7 3.6-3.4 6-3.4 8.1s1.1 4.5 1 7.4c.00406 1.217583-.16427 2.42961-.5 3.6-2 7.5-3 17.9-9.2 17.8-1.1454-.021093-2.2721-.294231-3.3-.8l-.2.5c1.08975.544507 2.28276.851279 3.5.9 6.9-.1 7.7-10.9 9.8-18.2" fill="#000"/><path d="m1060.5 207.8c.2.3.4.6.3.8l-1.4 2.6c-.4.6-1.8.5-2 .3l-14.9-14.8c-.6-.6-.7-1.2-.4-1.5l2.7-2.9c.2-.2 1-.7 1.5-.3z" fill="#3c3c3b"/><path d="m1061.1 207.6c.2.3.4.6.3.7l-1.9 2.8c-.1.2-.6.2-.8 0l-15.3-14.9c-.5-.4-.6-.9-.4-1.1l2.7-3c.2-.2.4-.3 1 .3z" fill="#000"/><path d="m1053.4 200.6c.06856-.116771.07339-.260302.01283-.381417-.06055-.121116-.17828-.203371-.31283-.218583-1.4-.2-3.5-.9-3-1.4s3.9-.1 5.4.2c1.8673.468536 3.67799 1.139161 5.4 2 3.96354.326569 7.94968.259575 11.9-.2 1.9-.3 7.9 3.8 5.7 7.4-1.1 1.9-10.9 1.3-17.6.3-2.48937.613213-5.08183.681436-7.6.2-1.82041-.514115-3.54354-1.325-5.1-2.4-1.8-1-.8-1.5 0-1.1 1.05733.484044 2.16371.852836 3.3 1.1l-2.7-1c-2.1-.7-2.3-2-1.8-2.5s.9 1 1.8 1.2l2.5.3-3-.6c-.70037-.335016-1.26498-.899634-1.6-1.6-.7-1.2.1-.9.1-.9s1.2 1.2 1.8 1.2h3.1c-1.19658-.044736-2.37825-.28107-3.5-.7-1.03581-.329715-1.99007-.875006-2.8-1.6-.6-.7-.5-1.4.7-.9l2.8 1c1.47455.346384 2.98538.514255 4.5.5" fill="#d39883"/><path d="m1068.3 199.8-4.4.5s0 11.9-.2 13.4l6.9-1.1z" fill="#d5dbd9"/><path d="m1098.1 168.5c3.9-4.3 10.2-3.8 12-.6s2.9 4.9 1.8 11c-2.3 13-9.2 28.2-14.3 30.4-2.6 1.1-29.2 7.9-29.6 6.7s-1.4-14-2.5-16.2c11-2.6 21.5-3.3 22.4-5.2 2.1-4.5 10.2-26.1 10.2-26.1" fill="#2c2e39"/><path d="m1086.6 140.8c0 1.2.6 2.2 1.3 2.2s1.4-1 1.4-2.2-.6-2.2-1.4-2.2-1.3 1-1.3 2.2" fill="#000"/><path d="m1025.1 126.9c3.40873-.263744 6.38762 2.281692 6.65876 5.689842.27113 3.408149-2.26784 6.392554-5.6754 6.671075-3.40755.278521-6.39745-2.253975-6.68336-5.660917-.13809-1.645546.38597-3.278191 1.456-4.535941 1.07002-1.25775 2.59759-2.036671 4.244-2.164059" fill="#87cac0"/><g fill="#87cac0" transform="translate(998 100)"><path d="m26 13.2c6.9720112-.5794688 13.7581549 2.4365951 18 8 .9941125 1.2702549.7702549 3.1058875-.5 4.1s-3.1058875.7702549-4.1-.5c-2.9486949-3.86873-7.6001978-6.0545353-12.4604649-5.855344-4.8602671.1991912-9.3173065 2.7582974-11.9395351 6.855344-.4957037.8586748-1.4085532 1.3911704-2.4 1.4-.5718795.0006384-1.1302419-.1738499-1.6-.5-.6779551-.4114931-1.15781076-1.0826811-1.32784936-1.8573014s-.01542323-1.5850823.42784936-2.2426986c3.5418239-5.4438029 9.4231277-8.9208002 15.9-9.4"/><path d="m25 .5c9.7-.8 20.7 3.7 28.1 11.2.87084 1.2154602.7136992 2.8866318-.3684532 3.9184515s-2.7589089 1.1092479-3.9315468.1815485c-6.1-6.3-15.3-10-23.3-9.4s-15 4.1-19.8 10.4c-.51169297.7662403-1.37880172 1.2186449-2.3 1.2-.64911064 0-1.28071149-.2105336-1.8-.6-.6300752-.4590914-1.048776-1.1525301-1.16165991-1.9239034-.11288391-.7713734.08955697-1.5557109.56165991-2.1760966 5.8-7.7 13.9-12.1 24-12.8"/></g><path d="m698.900263 365.440754h3.4v23.17h-3.4z" fill="#334042" transform="matrix(.9963453 -.08541692 .08541692 .9963453 -29.643893 61.221036)"/><path d="m728.3 320.1c3.7-6 7.4-8.9 10.8-3.5.683362 1.859622 1.055026 3.819305 1.1 5.8.893832 14.62195.827022 29.286801-.2 43.9-.04242 1.321933-.458485 2.604801-1.2 3.7-3.4 3.8-6.4 6-9 2.9-.561614-1.265653-.89994-2.618958-1-4-1.337401-14.358968-1.871567-28.78144-1.6-43.2-.02461-1.922657.349951-3.829508 1.1-5.6" fill="#6c828a"/><path d="m758.5 387.7h16.6v8.21h-16.6z" fill="#69787d"/><g transform="translate(689 307)"><path d="m106.5 80.3.000001 3.6h-59.3000016l.0000006-3.6c-.0009621-1.508172 1.1927899-2.746137 2.7-2.8h53.9c1.50721.053863 2.700962 1.291828 2.7 2.8" fill="#69787d"/><path d="m75.3 84.5h3.8v31.97h-3.8z" fill="#69787d"/><path d="m34.5 80h17.9v8.85h-17.9z" fill="#334042"/><path d="m40.8 84.1h4.1v34.48h-4.1z" fill="#334042"/><path d="m13.3 60.9c.7914229-1.1891444 1.2411057-2.5727838 1.3-4 1.0273026-15.7479702 1.094093-31.5439055.2-47.3-.0567551-2.15106721-.4620167-4.27869053-1.2-6.3-3.7-5.9-7.7-2.7-11.6 3.8-.78757394 1.90650283-1.2278381 3.9384912-1.3 6-.20492951 15.5539922.39587526 31.1081602 1.8 46.6.11746177 1.4857924.48955044 2.9403208 1.1 4.3 2.8 3.3 6 .9 9.7-3.1" fill="#465557"/><path d="m10.5 79.5v3.9h63.9000005l-.0000005-3.9c.0004679-.7867716-.3187556-1.5399672-.8844354-2.086791-.5656798-.5468237-1.3292607-.8403392-2.1155646-.813209h-58c-1.6016258 0-2.9 1.2983742-2.9 2.9" fill="#465557"/><path d="m141.6 71.4c.128835-2.444597-.039055-4.8957988-.5-7.3-.8-5.1-6.4-6.2-10.7-7.3l-19-4.6-24.7-6-33.5.8c9.7-.2 20.4 2.5 29.5 5.7 6.3608922 2.1041678 12.3138336 5.2835797 17.6 9.4 2.563776 2.0630703 4.849466 4.4495996 6.8 7.1 2.7 3.6 6.2 5.6 10.3 7.3 1.006459.3032806 1.9535.7768009 2.8 1.4l.8.9c-1.3 18.2-.8 53.1-.8 53.1l18.9-.2c.2-11.4.8-22.9 1.5-34.3.3-5 .8-10 .8-15s.2-7.4.2-11" fill="#0068b3"/><path d="m138.2 64.7c-1.9-4.2-6.9-4.3-12.2-5.7l-16.5-4.6-21.2-5.8-36.9-2.2c-1.4 0-3 8.2-3.1 9-.8 6.8 2.4 12.7 8.1 16.4 12.6 8.3 30.9 8 45.4 7.5l11.5-.5c-5 19-12.1 51.8-12.1 51.8s1.9 2.9 22 3.2c2.3-10.1 4.9-20.1 7.5-30 2.1-7.8 4.7-15.5 6-23.4 2.5-4.6 3.5-11.4 1.5-15.7" fill="#0078be"/><path d="m85.9 39.7c-12.5.5-24.5 6.4-37.2 7.7-.4417337 7.7419095-1.309716 15.4535984-2.6 23.1h42.2c-.1-11.3-2.5-20.7-2.5-26.8 0-1.4 0-2.7.1-4" fill="#162f4e"/><path d="m95.2 68.6-1.7-1.4c1.7358201-.1745803 3.4465419-.5435595 5.1-1.1.8-.3 1.7-.7 2.4-.3.637364.4919619 1.065852 1.2061085 1.2 2 1.2 4.9 10.7 47.3 11.5 50.7s3.6 8.3 5.4 12.5c1.62938 4.075579 3.568379 8.020438 5.8 11.8.580653.726648 1.293095 1.337313 2.1 1.8l1.6 1c-.27893.412668-.615704.783119-1 1.1-.395506.323745-.832759.592824-1.3.8h-3.9c-1.638878-.467176-3.013204-1.588337-3.8-3.1-1-1.5-1.2-3.3-2.4-4.7s-3.1-2.6-4.7-3.8c-.932947-.82064-1.936885-1.556862-3-2.2l-2.6-1.1c-1.3-.7-.9-1.3-.8-2.7s0-2.2-.1-3.4c-.149339-1.781789-.553453-3.532951-1.2-5.2-.847096-2.548717-2.09619-4.945627-3.7-7.1-4.1293491-5.234914-6.9722621-11.366015-8.3-17.9-.4811236-2.6728356-.7154435-5.3842512-.7-8.1-.1-2.7.3-6-.5-8.5s-1.7-3.4-2.3-5.2-1.2-2.7-1.7-4.1z" fill="#efb690"/><path d="m101.1 65.9.5.3c.568915.3868839 1.074846.8590864 1.5 1.4 2.9 3.6.1 9.1-1.2 12.9s-2.8 9.7-4.4 14.4c-3.2 9.3-6.7 18.5-9.6 27.9-1.4 4.4-1.3 8.9-2 13.4-.7347724 4.331481-1.1691418 8.708588-1.3 13.1.0940816.910642.3658796 1.793985.8 2.6l.9 1.8-1.5.4h-1.5l-3.3-1.8c-1.2010046-1.258755-1.8178698-2.964206-1.7-4.7 0-1.7.7-3.4.5-5.2s-1.3-3.8-2-5.7c-.3532811-1.224229-.8571318-2.39988-1.5-3.5-.4-.8-1.1-1.5-1.5-2.3s-.1-1.6.7-2.7c.6674688-.939423 1.2370997-1.944654 1.7-3 .8063708-1.584991 1.4110759-3.264728 1.8-5 .5144326-2.633502.6825224-5.322938.5-8-.6457043-6.589778.1388328-13.2412885 2.3-19.5 1.065842-2.5647327 2.3366212-5.0394079 3.8-7.4 1.2-2.1 3.5-3.8 1.8-6.2-.6551501-.7571126-1.2566139-1.5590643-1.8-2.4-.1914165-.2987802-.2953403-.6451928-.3-1 .0636892-.5629076.3094844-1.0896114.7-1.5 1.4-1.7 3.1-3.2 4.5-4.9s.6-1 1.4-1.2 1.8.1 2.8-.4 2.4-2 3.8-2.3c1.2452847-.2211263 2.528311.0283509 3.6.7" fill="#fac39d"/></g><path d="m711.6 383.6h10.3l41.1.4h6.4c-1.3-3.4-5.9-4-9.3-4-15.8-.7-34.4-.9-45-14.7-3.1-4-4.2-9-4.6-14.2-1.4 2.8-3.4 11.3-3.6 12.6-.8 4.9-.8 11.2 1.3 15.8.682883 1.658684 1.872997 3.058818 3.4 4" fill="#f9af00"/><path d="m760.1 380.1c-15.8-.7-34.4-.9-45-14.7-3.1-4-4.2-9-4.6-14.2.2-.5.5-.8.7-.8l32.2 2.8 42 10 7.9 11.4-.6.5c-4.5 3.3-9.2 6.4-13.8 9.5-1.374078.961083-2.810584 1.829668-4.3 2.6-.6.4-1.1.9-1.8.7s-1.9-3.8-3-3.8h-.4c-1.3-3.4-5.9-4-9.3-4" fill="#f9af00"/><path d="m761.8 361.5v5.9c.054472 2.777523 2.321943 5.000534 5.1 5h144.8c2.761424 0 5-2.238576 5-5v-5.9z" fill="#d5dbd9"/><path d="m783.9 326.8-22.1 34.8h154.9l-32.2-34.8z" fill="#a8aab3"/><path d="m814 347.3 3.5 8.7h-43l4.2-8.9z" fill="#fff"/><path d="m883.4 309.3c0-1.3 3.7-36 3.7-36s2.8-.3 2.9 3-1.2 66.2-1.2 66.2c-.022043 1.114988-.809218 2.067883-1.9 2.3-2.1-.1-2.6-1.9-7.2-6.8s-5.1-4.8-5.5-5.8c-.8-7.1 8.6-9.6 9.2-22.9" fill="#2f2722"/><path d="m884.9 343.2s-.4 4.1-3.3 5.2l-58.2 1.7s-3.8-1.3-4.9-4.6c21-4.2 66.4-2.3 66.4-2.3" fill="#2f2722"/><path d="m874.6 331.6 10.2 10.3c.8.8 2.4 1.3 2.4-.6l1-65.3c.1-1.9-.6-3.1-1.5-2.6l-11.3 7c-.5.3-.9 1.7-.9 3.1l-.6 46.2c-.107571.711432.156578 1.428408.7 1.9" fill="#8ba4a8"/><path d="m874.6 329.1 11.3 9.4.9-60.1-11.7 5.9z" fill="#92d2f4"/><path d="m870.2 331.9c2.1 0 3.9 0 4.2.4l10 10.8c.6.7-1.2 1.3-4.1 1.3h-.8l-10-12.6z" fill="#7b9396"/><path d="m828 333.4 42-1.5 10 12.7-57.6 1.5c-2.6 0-4.4-.4-4.1-1.1l5.8-10.8c.2-.4 2-.8 3.9-.8" fill="#8ba4a8"/><g fill="#d5d6d7"><path d="m825.4 340.2 11.6-.4.4-2.2-11.1.4z"/><path d="m834.7 333.9-.2 1 2.1-.1.2-1z"/><path d="m830.5 334-.4 1h2.1l.3-1z"/><path d="m871.2 344 5.9-.1-8.4-11.4-4.4.2z"/><path d="m864.7 343.3.5 1.1 4.4-.2-.5-1z"/><path d="m864 342 .5.9 4.3-.1-.5-1z"/><path d="m863.4 340.7.4.9 4.2-.1-.5-1z"/><path d="m862.8 339.4.4.9 4.1-.1-.5-.9z"/><path d="m862.3 338.3.4.8 3.9-.1-.4-.8z"/><path d="m861.8 337.2.3.8 3.9-.2-.5-.7z"/><path d="m861.3 336.2.3.7 3.8-.1-.5-.8z"/><path d="m860.8 335.2.3.7 3.7-.1-.4-.7z"/><path d="m860.4 334.3.3.6 3.5-.1-.3-.7z"/><path d="m859.9 333.4.3.6 3.5-.1-.3-.6z"/><path d="m859.5 332.5.3.6 3.4-.1-.3-.6z"/><path d="m857.5 343.3.3 1.2 5.7-.2-.5-1.1z"/><path d="m857 342 .4 1 5.5-.1-.5-1.1z"/><path d="m856.6 340.7.4 1 5.3-.1-.5-1.1z"/><path d="m856.3 339.5.3.9 5.1-.1-.4-1z"/><path d="m855.9 338.4.3.9 5-.2-.4-.9z"/><path d="m855.6 337.3.2.8 4.9-.1-.4-.9z"/><path d="m855.3 336.3.2.8 4.7-.2-.3-.8z"/><path d="m855 335.3.2.8 4.6-.2-.3-.8z"/><path d="m854.7 334.4.2.7 4.5-.1-.3-.8z"/><path d="m854.4 333.5.2.7 4.4-.1-.3-.7z"/><path d="m851 332.8.2.6 7.4-.2-.3-.7z"/><path d="m851 343.5.2 1.1 5.6-.1-.3-1.2z"/><path d="m850.8 342.1.2 1.1 5.4-.1-.3-1.1z"/><path d="m850.6 340.9.2 1 5.2-.2-.3-1z"/><path d="m850.4 339.7.1.9 5.1-.1-.2-1z"/><path d="m850.2 338.5.1.9 5-.1-.3-.9z"/><path d="m850 337.5.2.8 4.8-.1-.3-.9z"/><path d="m849.8 336.4.2.9 4.7-.2-.3-.8z"/><path d="m849.7 335.5.1.7 4.6-.1-.3-.8z"/><path d="m849.5 334.6.1.7 4.5-.2-.2-.7z"/><path d="m849.4 333.7.1.7 4.3-.2-.2-.7z"/><path d="m849.2 332.8.1.7 4.3-.1-.2-.7z"/><path d="m844.3 343.7v1.1l5.5-.1-.1-1.2z"/><path d="m844.2 342.3.1 1.1 5.3-.1-.1-1.1z"/><path d="m844.2 341.1v1l5.3-.2-.2-1z"/><path d="m844.2 339.9v.9l5.1-.1-.2-1z"/><path d="m844.2 338.7v.9l4.9-.1-.1-.9z"/><path d="m844.1 337.6.1.9 4.8-.2-.2-.8z"/><path d="m844.1 336.6v.8l4.7-.1-.1-.8z"/><path d="m844.1 335.7v.7l4.6-.1-.2-.8z"/><path d="m844.1 334.7v.8l4.4-.2-.1-.7z"/><path d="m844.1 333.9v.7l4.3-.2-.1-.7z"/><path d="m839.8 333.2-.1.6 8.6-.3-.1-.6z"/><path d="m837.6 343.9-.2 1.1 5.5-.1v-1.2z"/><path d="m837.7 342.5-.1 1.1 5.3-.2v-1z"/><path d="m837.9 341.2-.1 1.1 5.1-.2v-1z"/><path d="m838.1 340-.2 1 5.1-.2v-.9z"/><path d="m838.2 338.9-.1.9 4.9-.1v-.9z"/><path d="m838.3 337.8-.1.9 4.8-.2v-.8z"/><path d="m843 339.4-4.9.1.5-3.7 4.4-.1z"/><path d="m838.7 334.9-.1.8 4.4-.2v-.7z"/><path d="m838.8 334-.1.7 4.3-.1v-.7z"/><path d="m838.9 333.2-.1.7 4.2-.2v-.6z"/></g><path d="m884.3 266.6c-.1 2.1-1.2 4.3-2.7 5.1s-3.3-.4-3.4-2.9 1.5-5.3 3.3-5.7 2.8 1.3 2.8 3.5" fill="#8ba4a8"/><path d="m882.4 267.3c.057395 1.269878-.598383 2.465709-1.7 3.1-1 .4-1.9-.4-1.9-1.8s.8-3.1 1.9-3.4 1.7.7 1.7 2.1" fill="#2f2722"/><path d="m880.3 271.2.2 6.2 2.1-1.5.1-5.7z" fill="#647e83"/><path d="m770.6 274.8s-3.3 7.4-5.7 9.1-15.2-2.7-15.2-2.7 4.7-11.9 4-13.8 3.3-3.6 3.3-3.6z" fill="#efb690"/><path d="m757 266.3c1.2 1.2 2 3 3.5 3.9s.7.7 3.5 2.8c.861455.528329 1.809287.900691 2.8 1.1l6.2 1.9c.545503.195874 1.120403.297327 1.7.3 1.15719-.285209 2.13872-1.048621 2.7-2.1l.3-.5c.1-.8-.9-1.6-.6-2.4s.6-.6.8-.9c.221632-.55326.184969-1.17654-.1-1.7.5.1.9-.5 1-1 .017253-.505354.084244-1.00778.2-1.5.4-.7 1.3-.8 2.1-1.1.270019-.167639.39321-.49615.3-.8-.432841-1.082182-.968635-2.120283-1.6-3.1-.775608-.690962-1.243525-1.662789-1.3-2.7.108379-.658703.310426-1.298516.6-1.9.3-1.3-.4-2.6-.7-4s-.2-2.1-.3-3.1c-.027954-1.063288-.415748-2.085652-1.1-2.9-2.2-2.1-3.3-4.6-6-5.9-4.9-2.3-10.8-1.5-15.5 1.1-1.499568.709613-2.829482 1.732623-3.9 3-.775488 1.067732-1.382552 2.248133-1.8 3.5-1.009797 2.754906-1.183735 5.746633-.5 8.6.681867 2.873469 2.343841 5.419471 4.7 7.2.9.8 2 1.4 3 2.2" fill="#fac39d"/><path d="m803.8 306c-.1-.3.6-1.2.7-1.5s1.1-2 1.6-3 2.7-3.4 3.7-5.3 1.1-2.6 1.8-2.8l.5.2c1.9 1.8-.4 4.2-1.3 5.7-.340574.613306-.641199 1.247959-.9 1.9l5.1-3.2c.9-.6 5.7-3.8 6.4-2.6s-.4 1.2-.8 1.6c-1.747979 1.477584-3.584746 2.84681-5.5 4.1l5-3c.7-.5 3.8-2.1 4.4-.9.181965.338135.098019.757862-.2 1-2.148823 1.73927-4.540897 3.154299-7.1 4.2l5.7-2.7c.5-.2 1.5-.6 2-.1s-.2 1.5-.6 1.8c-1.962062 1.400723-4.035676 2.638203-6.2 3.7 1.8-.4 7-3.1 6.5-1.5-.216542.427684-.523664.803056-.9 1.1l-6 4.4c-1.141872.795206-2.345739 1.497461-3.6 2.1l-3.6 1.8c-1.8.9-3.2.9-5.2 1.3z" fill="#fac39d"/><path d="m819.7 325c.1-.3 1.3-.6 1.6-.7l3.1-1.4c2-.9 4.2-1 6.2-1.8s2.4-1.3 3.1-1 .2.2.2.4c.4 2.6-2.8 3-4.5 3.6l-1.9 1 5.9.6c1.2.2 6.9.6 6.7 2s-1.1.7-1.6.7c-2.301452.133291-4.610133.066373-6.9-.2l5.8.8c.9.1 4.3.7 4 2.1s-.4.6-.8.6c-2.772288.034136-5.534721-.336435-8.2-1.1l6.2 1.4c.5.1 1.6.5 1.6 1.2s-1.1 1-1.6 1c-2.385837-.179112-4.757506-.51315-7.1-1 1.6.9 7.4 2 5.9 2.9-.389202.238653-.845577.34397-1.3.3l-7.4-.3-4.2-.6-3.9-.9c-1.749596-.440635-3.408151-1.185292-4.9-2.2z" fill="#fac39d"/><path d="m752.6 269.6c-.432625-.648247-.769429-1.355537-1-2.1-1.030895-2.576416-1.899264-5.214924-2.6-7.9-.804082-2.727242-1.208291-5.556704-1.2-8.4-.275659-5.776174 3.446649-10.987405 9-12.6 2.575666-.850319 5.299786-1.156782 8-.9 2.025275.096472 4.035552.398014 6 .9.996437.193973 1.968822.495748 2.9.9.691203.58898 1.426708 1.123892 2.2 1.6 1.0957.497516 2.301155.704165 3.5.6h.6c.2.2.1.6 0 .9-2.2 5.5-9.5 5-11.4 10.6-.419775 1.332291-.688134 2.707629-.8 4.1-.2 1.3-.7 2.6-.8 4s.5 1.9-.4 2.4-2.1-.3-2.1-.5c.070283-1.213961-.064952-2.431075-.4-3.6-.265482-1.189401-.982573-2.229182-2-2.9-1.039248-.666112-2.397908-.542598-3.3.3-1.1 1-1 2.6-.8 4s1.5 4.4 3.7 4.8c-.860265.322091-1.474603 1.090014-1.6 2-.1.2-.2.5-.4.6h-.5c-2.9-.1-4 .8-5.8 2.9-.205472-.657394-.473358-1.293625-.8-1.9" fill="#55210e"/><path d="m768.3 280c.5 1.5 1.2 3.7 2 6.4 1.861825 6.64654 3.166342 13.436718 3.9 20.3.401077 3.452136.601414 6.924644.600007 10.4-7.400007-9.9-14.100007-15.2-17.800007-20.2s-8-11.7-8.3-13.5c-.389261-1.961327.2968-3.981396 1.8-5.3 4.5-4.3 14.3 3.4 14.3 3.4z" fill="#bfc2c3"/><path d="m751.1 289c9.9-7.3 18 3.6 22.4 11.2 2.7 4.8 5.5 9.6 9.5 13.3 1.7-.4 21.7-7.9 20.8-9.7 2.1 4.1 4.9 6.8 6.3 10.8-5.9 5.7-22.2 15.2-28.4 17.7s-20.1-18.2-26-23.5-12.2-14.2-4.6-19.8" fill="#127cc0"/><path d="m752.6 272.9 15.6 7.1-3.1 6.8-15.4-7.8z" fill="#eaeef1"/><path d="m772.4 300.6c-3.504337-6.846735-8.49218-12.825314-14.6-17.5l-8.1-4.1-7.3 12.3-2.8 11.2c-1.680508 7.06927-2.320583 14.345912-1.9 21.6.4 5.6.6 11.5.5 17.7-.1 4.4-.2 8.6-.5 12.6 12.7-1.3 24.7-7.2 37.2-7.7.3-26.7 3-35.4-2.5-46.1" fill="#0075bc"/><path d="m751.5 275s16.5 14.9 22.7 28.9c-10.9-10.9-15.2-10.9-15.2-10.9v-7.6l-4.5 3.9-4.8-10.3z" fill="#0068b3"/><path d="m815.2 321.7c1.968926-.068571 3.940237-.001747 5.9.2.121762.524992.188787 1.06119.2 1.6.6 4 .4 8.8.5 12.8-3.8.2-8.9-.9-12.6-.6-9.2.9-34-4-36.2-5.7-6.6-5.1-13.3-10.2-20.1-15.1-3.8-2.6-10.7-8.3-10.2-13.9.010274-.44015.0775-.877116.2-1.3 2.5-8.5 13.8-5.1 18.8-2.1 4.073208 2.586243 7.802825 5.677457 11.1 9.2 5.6 5.5 4.3 8.2 12.2 9.5s21.8 5.7 30.2 5.4" fill="#127cc0"/><path d="m733.3 267 5.7 5.5c5.9 5.5 8.2 6.7 8.2 6.7s-2.8 5-1 11.7c-6.786507-6.35041-11.3157-14.741704-12.9-23.9" fill="#efb690"/><path d="m807.6 334.2c.479292.757835.881307 1.561865 1.2 2.4.376289.815502.71007 1.649954 1 2.5.1.6-.3 1.2-1 1l-.7-.5c-.3.9-.9.6-1.3 0s-1.1-2.5-2.5-2.7h-8.2s.5-2.1.5-2.3.6-2.1 1.9-2.1h5.1c.811867-.055947 1.626885.04593 2.4.3.65502.257304 1.214059.711523 1.6 1.3" fill="#efb690"/><path d="m802 333.6-1 .3h-.9c.264203-.051263.535797-.051263.8 0 .62719.115826 1.262439.182695 1.9.2.6.1 2.7.8 2.1 1.8s-1.8.6-2.5.5-2.7.6-4 1c-3.3.9-6.6-.3-9.7-1l2.4-4.3 10.6-3 3 1c1.397936.408633 2.716578 1.051049 3.9 1.9.443132.417392.785151.93042 1 1.5l1 2c.3.5 1.5 2 .7 2.7s-1.2-.1-1.4-.4-1.3-2.8-2.3-3.4c-1.737148-.845428-3.685428-1.158544-5.6-.9" fill="#e3bba3"/><path d="m802 333.6-1 .3h-.9c.264203-.051263.535797-.051263.8 0 .62719.115826 1.262439.182695 1.9.2.6.1 2.7.8 2.1 1.8s-1.8.6-2.5.5-2.7.6-4 1c-3.3.9-6.6-.3-9.7-1l2.4-4.3 10.6-3 3 1c1.397936.408633 2.716578 1.051049 3.9 1.9.443132.417392.785151.93042 1 1.5l1 2c.3.5 1.5 2 .7 2.7s-1.2-.1-1.4-.4-1.3-2.8-2.3-3.4c-1.737148-.845428-3.685428-1.158544-5.6-.9" fill="#efb690"/><path d="m745.9 289.9 2.2 1.1c2.533558 1.271492 4.496686 3.448779 5.5 6.1l11.3 28.2 29.7 5.1-1.3 8.2-29.3-.2c-2.760048-.298232-5.212054-1.895751-6.6-4.3l-9.8-11.2z" fill="#e7e7e7"/><path d="m753.9 275c.519073.304003.732857.945353.5 1.5-.36164.443241-.633378.952749-.8 1.5-.082979.596209-.116427 1.198268-.1 1.8-.28297 1.319201-1.362961 2.319194-2.7 2.5-1.328932.104969-2.664073-.100437-3.9-.6-4.7-1.5-9.4-4-12.2-8.1s-3.4-8.4-3.9-12.9c-.516558-2.745997-.482567-5.567245.1-8.3.213236-.765902.515286-1.504248.9-2.2 3.4-6.7 11-7.4 17.2-5.1 6.233601 2.403066 9.824919 8.951939 8.5 15.5-.292659.713118-.526766 1.448883-.7 2.2-.2 1.6.7 3 1.4 4.4s1.9 3.5.5 4.2-1.5-.1-2.2.6c-.580398.58462-.904232 1.376213-.9 2.2 0 .2 0 .3-.1.4s-1.3.4-1.6.4" fill="#fac39d"/><path d="m725.7 288.4c.817821-.784779 1.585975-1.619729 2.3-2.5 1.528867-1.710584 2.686555-3.719512 3.4-5.9 1.441507-4.209176 2.052799-8.658019 1.8-13.1.1 0 .1 0 .1.1 1.5843 9.158296 6.113493 17.54959 12.9 23.9.1.3.1.6.2.9 2.3 4 4.4 7.1 1.5 9s-10.9-1.7-14.2-3l-1.3-.5c-.6-.2-1.3-2.6-1.6-3.2-.448583-.938376-1.020287-1.812748-1.7-2.6-.53165-.462726-1.197485-.743078-1.9-.8-.7-.1-2.2.2-2.8-.2s.7-1.5 1.3-2.1" fill="#fac39d"/><path d="m748.9 296.4s-4 4-14.5.3c.9 21.4 2.3 31.2 2.3 31.2l12.6 4.2 4.4-13.9z" fill="#e7e7e7"/><path d="m756.3 319.8c0 1.4-9.6 25.2-12.2 31.8l-.5 1.1c-.1.3 1.5 1.2 1.5 1.2l-4.9 2.7c-.8-.1-8.3-4.1-28.9-6.2h-.1l.3-1c.2-1.1.5-2.3.7-3.6 2.3-14.2 1.7-42.2 1.7-42.2l2.8-3 16.3-1.1s11.8 16.4 16.3 17.9c-.012172-.701427.021232-1.402904.1-2.1v-2.3c0-1.5-.1-3.1-.1-4.6-.08425-2.876854-.317898-5.747389-.7-8.6-.2-1.4-.5-2.7-.8-4.1-.075359-.676962-.209193-1.346128-.4-2-.126285-.35204-.294139-.687748-.5-1-.107075-.343246-.240815-.677598-.4-1h.2l.6.7c.104683.360882.274105.699725.5 1l.9 2.4c.6 1.3 1 2.7 1.5 4.1s1.7 5.6 2.7 8.4l2.4 7.6c.518248 1.210647.855203 2.491077 1 3.8" fill="#f9af00"/><path d="m744.1 351.6-.5 1.1-32.1-3.3c.2-1.1.5-2.3.7-3.6 5.9.9 25.7 4.9 31.9 5.8" fill="#2f2722"/><path d="m741.1 261.7c-.072434-.386032-.207553-.757609-.4-1.1-.473697-1.163528-1.550378-1.971038-2.8-2.1-1.8 0-3.1 1.8-3.2 3.5.016708 1.729632.500418 3.422618 1.4 4.9l-2.7 6.1c-.9 0-2.8-2.9-3.3-3.6-2.2-3-4.9-7.8-5.3-11.6 0-.3 0-.7-.3-.8h-.5c-.9.1-1.7-.7-2.4-1.4l-.6-.7c-1.5-2.7.5-7.8 2.5-9.6 1.839459-1.702271 4.299549-2.570538 6.8-2.4 1.1.1 2 .8 3 .9s2.5-.9 3.6-1.3c5.236452-1.83607 11.053182-.77157 15.3 2.8 2.2 1.9 3.9 3.6 4.7 6.5.615143-.143118 1.260294.046633 1.7.5.365781.514501.636703 1.090212.8 1.7.499625 2.002642.499625 4.097358 0 6.1 0 .2-5.1.8-5.8 1 .6-1.5-.4-4-1.8-4.9s-4.1 1.2-5.7 2.5-4.7 4-4.6 5.5c-.027945-.846812-.162334-1.686743-.4-2.5" fill="#202c2b"/><path d="m770 347.9 7.9.7 6.8.7c.629302.035344 1.228272.281978 1.7.7 1.9 1.5 4 2.6 5.7 4.4s1.6 1.8-.4 2.3c-1.222222.40697-2.566404-.041091-3.3-1.1.3.4.8.9.6 1.5s-1.3.4-1.9.1l-3.9-1.9c-.772634-.389196-1.657221-.495346-2.5-.3l-6.1 1.3c-.761955.17138-1.555795.136865-2.3-.1l-4.8-1.6z" fill="#fac39d"/><g transform="translate(713 288)"><path d="m12.4.5c3.9-.8 8 5 8.9 8.2s1.7 8.8 2.6 13.1 3 9.9 3.7 15.1c.0632446 1.955978.3313768 3.8999363.8 5.8.9 3 3.1 3.3 5.8 4.6 7.2 3.3 25.8 12.6 26.1 12.7l-3.5 8.6-1.4-.5-11-2.7c-6.2-1.5-11.8-4-18-5.5-3.1-.7-7.5-1.3-9.9-3.4s-2.4-4.6-3.4-6.7c-1.9-4-3.7-8-5.6-11.9l-2.7-5.7c-.6-1.3-1.6-4.9-2.7-5.7l-.5-.4c-4.1-11.6 3.8-24.3 10.8-25.6" fill="#e7e7e7"/><path d="m171.2 84.4h9v58.34h-9z" fill="#a8aab3"/></g><path d="m788.3 312.4.4-.3c.890399-.472817 1.984931-.310664 2.7.4 1.8 1.8 3 3.2 4.7 5.2.379856.561827.588304 1.221912.6 1.9l4.9 5.7c1.714523 1.970979 2.671627 4.487809 2.7 7.1.453214.127748.774853.529797.8 1v8.6c0 .2-.1.3-.2.5 1.268438.296368 2.313122 1.191811 2.8 2.4h-8.1c.504015-1.157588 1.491304-2.035178 2.7-2.4-.080837-.153542-.115564-.327178-.1-.5v-8.6c-.003588-.472505.270446-.903131.7-1.1-.048072-2.236227-.859669-4.388723-2.3-6.1l-4.8-5.4c-.892984.32013-1.889445.128503-2.6-.5-1.8-1.8-3-3.2-4.7-5.2s-.8-2.2-.2-2.7" fill="#5e818c"/><path d="m803.2 211.9c-1.822055-.142906-3.581942.697097-4.61673 2.20359-1.034788 1.506492-1.187267 3.450601-.4 5.1s2.394675 2.753504 4.21673 2.89641c2.816652.220914 5.279086-1.883348 5.5-4.7s-1.883348-5.279086-4.7-5.5" fill="#87cac0"/><g fill="#87cac0" transform="translate(781 190)"><path d="m23.2 10.6c-5.7598631-.4417424-11.3568074 2.037441-14.9 6.6-.82842712 1.049341-.64934102 2.5715729.4 3.4s2.5715729.649341 3.4-.4c2.4320772-3.1784932 6.2585333-4.9749593 10.2575937-4.8157927 3.9990605.1591666 7.6706366 2.2540618 9.8424063 5.6157927.4248589.6949399 1.185587 1.1133403 2 1.1.4960175.0085253.983357-.1307145 1.4-.4 1.0974325-.722855 1.4094647-2.1938638.7-3.3-2.9018249-4.510501-7.7517482-7.3982416-13.1-7.8"/><path d="m24 .1c-8-.6-17.1 3.1-23.2 9.3-.93888395.9664983-.91649813 2.5111158.05000013 3.4499999.96649826.938884 2.51111577.9164983 3.44999987-.0499999 5.1-5.3 12.7-8.3 19.3-7.8 6.4247846.26153897 12.3836545 3.4248897 16.2 8.6.4488682.6567777 1.2052569 1.034972 2 1 .8940461-.0600096 1.6876021-.5939169 2.080048-1.3994638s.3237561-1.7595227-.180048-2.5005362c-4.7-6.4-11.4-9.9-19.7-10.6"/></g><g transform="translate(553 339)"><path d="m12.2.1 8 8.1-11.7 3.6-6.9-8.2z" fill="#000"/><path d="m15.1 5.4c1-.2 5.4-5.2 5.4-5.2 1.5555467.71650205 2.5375973 2.28778298 2.5 4v2.3l12.7 4.7c1.0620983.3048659 1.8455695 1.2058577 2 2.3.2105407 1.521919-.7254426 2.9684386-2.2 3.4-3.4590868.8977499-7.0277622 1.3017509-10.6 1.2l-20.4-.7c-1.12094694.0140765-2.19091178-.4675196-2.92364274-1.3159449-.73273095-.8484253-1.05345122-1.9770962-.87635726-3.0840551l.7-4c.1195653-.64358067.49681996-1.21039828 1.04436152-1.56913241.54754157-.35873413 1.21785375-.47825341 1.85563848-.33086759l4.6 1.1c.8.1 6.2-2.8 6.2-2.8" fill="#41413f"/><path d="m35.5 16.9c1.4745574-.4315614 2.4105407-1.878081 2.2-3.4l-.3-.8c-3.6377585 2.5483712-8.0930322 3.653279-12.5 3.1l-24.1-3.2v.4c-.17709396 1.1069589.14362631 2.2356298.87635726 3.0840551.73273096.8484253 1.8026958 1.3300214 2.92364274 1.3159449l20.4.7c3.5722378.1017509 7.1409132-.3022501 10.6-1.2" fill="#000"/></g><path d="m485.8 325.2c25.8-23.2 43.2-39.6 53-27.7 12.8 14.1 30.2 42.4 30.2 42.4l-15.1 10.9-24.2-32.2-27.5 26.1-36.8-.9-3.1-17.2s11.5 9.4 23.5-1.4" fill="#9f7f6d"/><path d="m530.8 293.5c-10.3 0-25.2 13.9-45 31.7l5.8 10.5 7.2 1c12.6-4.7 25-12.3 29.5-24.7 12.8 14.1 33.2 33.3 33.2 33.3l-3.9 2.8 11.4-8.2s-17.4-28.3-30.2-42.4c-1.898766-2.50578-4.856117-3.984455-8-4" fill="#55210e"/><path d="m462.3 326.6.8 4 4.7-1.1c-1.959233-.706284-3.810396-1.682351-5.5-2.9" fill="#8c6e5f"/><path d="m528.3 312c-4.5 12.4-16.9 20-29.5 24.7 3.6.5 7.2.8 10.7 1.1l20.2-19.2 16.9 22.6h5c1.877771.044458 3.637771.924458 4.8 2.4.969585 1.287062 1.399983 2.901053 1.2 4.5l3.9-2.8s-20.4-19.2-33.2-33.3" fill="#5d2817"/><path d="m546.1 356.3-18.1.000005v-15.100005h23.6c1.877771.044458 3.637771.924458 4.8 2.4 1.593921 2.037216 1.675003 4.875101.2 7-2.306685 3.557917-6.25977 5.703878-10.5 5.7" fill="#000"/><path d="m544.4 356h-17.4v-14.5h22.7c1.815528-.024399 3.530203.832938 4.6 2.3 1.498283 1.996188 1.578371 4.719204.2 6.8-2.26008 3.366602-6.045142 5.390298-10.1 5.4" fill="#41413f"/><path d="m495.8 270.1v12.4c0 .276142.223858.5.5.5.236562-.048237.404868-.25862.4-.5v-12.4c0-.220914-.179086-.4-.4-.4-.24138-.004868-.451763.163438-.5.4" fill="#e5e6ea"/><path d="m495.9 270.2c.005186.138832.039243.275061.1.4.5 1.6 2.6 8.6 2.6 13.8-.011993.671006-.078883 1.339906-.2 2-.004868.24138.163438.451763.4.5.097206.098584.24925.117845.367968.046614s.173274-.214451.132032-.346614c.116037-.728005.182855-1.463005.2-2.2-.1-6.2-2.8-14.4-2.8-14.4-.015212-.134554-.097467-.252277-.218583-.312835-.121115-.060558-.264646-.055728-.381417.012835-.185675.090112-.272308.306695-.2.5" fill="#e9e5ec"/><g transform="translate(453 229)"><path d="m32.5 26.4 8.7-7.6 4.1-14.3 15.7-4.5 11.7 17.5-4.8 5.5-4.3 7.6c-.4406804.8865673-1.4407214 1.3449195-2.4 1.1l-1.1-.3-4.8 4c-.9627599.8401278-2.2315878 1.2419444-3.5024504 1.1091678-1.2708626-.1327767-2.4292344-.7881814-3.1975496-1.8091678h-.1l-.6-.9-7.2 5.8z" fill="#f8b990"/><path d="m.1 104v9.2c.0038608 7.054851 5.29204171 12.987932 12.3 13.8l24.3 2.8c10.841665 1.483102 21.8253006 1.617458 32.7.4l5.5-.5c5.6333044-.248528 9.998528-5.016696 9.7499998-10.65-.2485281-5.633304-5.0166954-9.998528-10.6499998-9.75h-2.8c-10.9177809-.016704-21.8175852-.886014-32.6-2.6l-5.8-10.5z" fill="#55210e"/></g><path d="m527.9 338.3v.1z" fill="#eeecec"/><path d="m537 346.8v.3c.009288-.109491-.026875-.21798-.1-.3" fill="#3d3c3b"/><g transform="translate(446 222)"><path d="m45.6 113.7s-14.3 1.3-11.1 1.6 32.6 2.8 45.9 6.3c2.6805954.637901 4.9890731 2.333189 6.4 4.7 3.1 5.1 0 10.1-30.5 11.6h5.2c4.5 0 9.2-.3 14.8-.8h.1l5.2-.5c2.7728609-.202078 5.3462681-1.516525 7.1353632-3.644606 1.7890952-2.128082 2.6419142-4.889041 2.3646368-7.655394v-.3c.0092881-.109491-.0268752-.21798-.1-.3-.6708863-4.16625-3.8612583-7.476261-8-8.3h-4.8c-5.2 0-9.9-.2-14.7-.5s-7.1-.6-10.7-1.1l-7.2-1" fill="#55210e"/><path d="m40 31.2c-12.7.8-34 14-38.2 41.3s5.1 44.6 5.1 44.6 21.8-2.4 32.9-13.9c-1.4-12.7-14.9-15.1 4.8-35.9 3.7471659-3.8459507 5.7997107-9.0313273 5.7-14.4-.7-12.9-7.5-22-10.3-21.7" fill="#45ac34"/><path d="m44.7 27.5s7.7-1.2 8.2-1.7 1.6-2 3-3.5c1.4633637-1.7729473 4.0624027-2.0813078 5.9-.7l-2.9 4.4 1.8 1.6 6-7c.4749706-.555416 1.1691895-.8751923 1.9-.8751923s1.4250294.3197763 1.9.8751923l6.3 7.3h1.5c2.8381655-.0496128 5.4642506-1.5127174 7-3.9 1.3033618-2.0582155 1.5978488-4.5981659.8-6.9l-2.6-8-3 2.3-2.8-3.9c-2.8106065-4.05184687-7.3714959-6.53623375-12.3-6.7h-1.5c-7.7751758-.26622026-14.5580642 5.23687791-15.9 12.9-.6650619 3.8761438-1.5329201 7.7147473-2.6 11.5z" fill="#f28b3e"/></g><path d="m498.6 256.4s-2.8 3.7-2.3 10.1l4.6-3.7z" fill="#f7ad79"/><path d="m496.1 272.6s-5.7-15.6-27.7-9.6c-1.8.5-4.5.7-6-.1s-.7-7.7 4.4-7.7c2.4 0-1.2-2.5 2.9-4.7s12.3-2.5 17.7 2 13.2 18.3 8.7 20.1" fill="#45ac34"/><path d="m550.4 305.7h-.1c-.238013-.008583-.464059.10444-.6.3l-19.7 23.2 8 8.4 25.1-31z" fill="#41413f"/><path d="m497.2 329.5.8 5.9h40.6l-7.8-7.2h-32.4c-.336368-.00117-.657785.13889-.885939.386057-.228153.247166-.342094.578743-.314061.913943" fill="#bfc3c6"/><path d="m548.4 308.5 10.4 1-20.1 23.5-6.4-5z" fill="#fff"/><path d="m539.8 335.4h-41.8c0 2.098682 1.701318 3.8 3.8 3.8h34.3c.998875.000365 1.955463-.403153 2.652295-1.118818.696832-.715666 1.074702-1.682671 1.047705-2.681182" fill="#e9e5ec"/><path d="m539.2 337.6 24.6-29.4c.347689-.245051.502305-.683233.385399-1.09222s-.479745-.699258-.904419-.723535-.818228.222755-.98098.615755l-24.7 29.3z" fill="#e9e5ec"/><path d="m532.8 334.4-4.5-5.6h-16.8l2.4 5.6z" fill="#403f3e"/><path d="m509.9 333h-9.6l-.4-3.1h9.1z" fill="#d2d4d7"/><path d="m548.4 308.5 10.4 1-2.4 2.8-9.6-1.9z" fill="#e9e5ec"/><path d="m546.5 312 7.2 1.9-1.4 1.6-6.7-2.2z" fill="#e9e5ec"/><path d="m544.8 314.1 6.5 2.5-1.3 1.6-6.1-2.8z" fill="#e9e5ec"/><path d="m542.8 317 5.3 2.7-4.9 5.8-4.9-3.3z" fill="#e9e5ec"/><path d="m506.4 319.7 3.4 2.2 7.3.8 6.7 7.7h-3.4l-8.2 1.9-11.6-3.5z" fill="#f7ad79"/><path d="m489.3 302 18.8 16.9-5 9.3-27.3-18.2z" fill="#45ac34"/><path d="m510.7 326.4 8.2-2 6.3 3.2 3.1 4.7c-1.19313.404136-2.512256.093754-3.4-.8l-1.7-1.9.4 3.4-1.7 1.8-4.1.6-12-2.4 1.2-6.9z" fill="#f8b990"/><path d="m491.4 267.5c5.7.4 7.2 11.9 5.7 17.4s-5.2 28.1-5.2 28.1l19.3 12s-.7 8.8-6 9.7-30.9-11.2-31-17.2 0-23.4 2.2-33c3.5-15.5 9.3-17.5 15-17" fill="#45ac34"/><path d="m563.7 274c-1.114576-.082471-2.216057.28269-3.060632 1.014655s-1.362585 1.770363-1.439368 2.885345c-.082471 1.114576.28269 2.216057 1.014655 3.060632s1.770363 1.362585 2.885345 1.439368c2.303103.116983 4.288451-1.603651 4.5-3.9.082471-1.114576-.28269-2.216057-1.014655-3.060632s-1.770363-1.362585-2.885345-1.439368" fill="#87cac0"/><path d="m564.5 264.7c-4.749095-.394191-9.375962 1.637117-12.3 5.4-.662742.883656-.483656 2.137258.4 2.8s2.137258.483656 2.8-.4c2.108134-2.674963 5.402282-4.134869 8.8-3.9 3.125392.304777 5.950322 1.992397 7.7 4.6.36515.595257 1.002312.970058 1.7 1 .397165-.02639.778652-.165112 1.1-.4.890382-.594371 1.154848-1.784467.6-2.7-2.376734-3.730104-6.386797-6.106437-10.8-6.4" fill="#87cac0"/><path d="m565.2 256c-6.6-.5-14.1 2.5-19.1 7.7-.574061.817281-.4572 1.932786.273777 2.613351.730977.680564 1.851976.71755 2.626223.086649 4.2-4.3 10.4-6.8 15.8-6.4s10.2 2.8 13.4 7.1c.353701.531565.962527.835979 1.6.8.419341.006566.833083-.096869 1.2-.3.424346-.31826.704884-.792055.779899-1.317157s-.061639-1.058497-.379899-1.482843c-3.814145-5.206233-9.756496-8.434177-16.2-8.8" fill="#87cac0"/><path d="m273.2 317.4-3.3 9.5 17.8.1-2.1-9.6z" fill="#b6c4b5"/><path d="m274.9 322.8-5.3 4.2h17.8l-3.5-4.2z" fill="#575756"/><path d="m290.1 317.4-2.1 9.6 17.8-.1-3.3-9.5z" fill="#b6c4b5"/><path d="m291.8 322.8-3.6 4.2h17.9l-5.3-4.2z" fill="#575756"/><path d="m304.7 137-16.9 25.9-10 2.1c-4.6-4.3-4.3-5-1.3-10.3l14.4-26.2c1.6-2.9 2.6-4.9 4.6-6.4l6.1 1.7z" fill="#c04c4e"/><path d="m304.6 122.5c1.965549-.230054 3.954542-.162631 5.9.2 8.9 2.4 1.8 18.4-.1 18.8-17.2 3.2-37.2 0-53.9 0v-12.7c.5-5.2 2.3-6.4 8.4-6.3h4.6c7.2-.5 12-3.6 10.3-11.1h14.8c-1.7 7.5 2.8 10.5 10 11" fill="#f9c0a7"/><g transform="translate(226 120)"><path d="m38.4 94h.1l6.6 48.1-2.2 20.4 3.5 35.2h14.1l-.1-56.5.5-44.8h.6l1 44.8.6 56.5h14.1l3.1-35.2-2.5-20.4 6.1-49 .3-.7-5.4-32.6h-35.2l-5.5 32.7z" fill="#00401c"/><path d="m87 21.6-4.2 59.3h-43.2l-2.7-57.1c-.5246818-.303418-1.1011022-.5068605-1.7-.6-9.8 5.6-25.5 13.5-27.1 13.3s-12.3-1.4-4.4-10.3l24.9-21.8c1.2-1.5 3.3-1.9 7.1-1.9h7.8c2.5114143-.09013577 4.9711159-.7392237 7.2-1.9 1.3 4 5.5 7 10.5 7s9.2-3 10.5-7c2.1424496 1.09275796 4.4967631 1.70692671 6.9 1.8 1.6-.1 7.2-1.6 9-1.1 8.9 2.5 1.9 19.7 0 20.1z" fill="#c18f00"/></g><path d="m286.7 119.8h-.1c-1.140573-.099458-2.23934-.477159-3.2-1.1-.8-.5-1-1.4-1.9-2.8s-2.3-2.6-2.6-3.7.2-2.7.4-4.6c-1 .3-1.4-2.6-1.4-3.5s-.4-3.7-.4-5.2.3-1.5.6-1.6 1.2 0 1.9 1.4c.2-1 .6-2 .8-3.1.243259-1.8079389.679068-3.5846978 1.3-5.3.501787-1.459363 1.538057-2.6742994 2.9-3.4.823751-.4356853 1.696602-.7713975 2.6-1h1.5c2.437137-.2447821 4.898106.062839 7.2.9 2.245528.8069023 4.196626 2.2702258 5.6 4.2.9226 1.1949191 1.352061 2.6980349 1.2 4.2-.183176 1.8245928-.51766 3.630808-1 5.4-.287507 1.048387-.488185 2.118671-.6 3.2 1.1-1 1.8-1.1 2.2-.5s.2.9-.1 1.7-2 3.4-2.6 4.6-1.9 3.2-2.7 2.5c-.6 1.8-.8 3.1-1.6 4.3s-2.7 1.5-3.9 2.2-2 1.7-2.9 1.8c-1.068465.167992-2.160767.099723-3.2-.2" fill="#f9c5af"/><path d="m285 89.9c-1 .8-3.7 5.9-4.8 11.8-.4-9.2-.4-15.8 5-19 1.3-1.4.4-2.4 3.1-7.4.7 3.2 3.7 3.5 4.9 4.6v-1.1c1.3 1.6 3.1 2.2 4.8 3s5 3.1 5.1 4.2c5.3 3.3 1 12-2.3 19 .8-3.7 1-8.5-.1-12.1-.3-.5-.8-.9-1.2-.8-6 1.4-13.6-2.8-14.4-2.2" fill="#754130"/><path d="m323.3 309.9-1.5 15.5 2.2 1.5 6.7-.1 1.9-2.8-3.2-14.1z" fill="#f9c7b4"/><path d="m329.2 322.4-5.5-.1-1.3-3-.6 6 2.2 1.5 6.8-.1 1.9-2.8-1.6-6.5z" fill="#92d2f4"/><path d="m310.8 324.1 1.9 2.8 6.7.1 2.3-1.5-1.3-15.5-6-.1z" fill="#f9c7b4"/><path d="m302.7 223.6c2.4 11.7 4.6 23.4 7.2 35l-.7 14.8 4.8 36.8h6.5l.3-38.9v-13.6l.9-44.1h.6l.5 44v13.5l.4 38.9h6.5l4.7-36.7-.7-14.8c2.4-10.9 4.6-21.8 6.9-32.7s2.2-14.9-4-30.4l-2.2-5.6-25.5 1.2-2 5.1c-5.8 14.2-5.6 16.3-4.2 27.5" fill="#0068b3"/><path d="m325 98.3c8.6-2.5 10.5 9.8 10.7 14.1.5 10 13.4 21.1-14.1 22.4s-16.2-11.2-16.3-21.5c-.1-8.4 3.2-16 12.9-15 2.2.2 4.5 1.4 6.7 1.7l-.9-1.2z" fill="#ed6b06"/><path d="m315.3 126.2c1 4.1.9 8.4-.6 10.3s-2 .9-3.7 1.2l-6.4 1c-3.5.8-4 5.3-3.8 7.2s2.5 2 3.1 4c.188059.857359.321659 1.725762.4 2.6 1.494454.782212 3.030018 1.48323 4.6 2.1h25.3l2.7-1.1.5-4.4 5.3-3.7c0-8.7-8.6-6.4-13.1-8.2s-4-4.6-3.7-10.8z" fill="#f9c7b4"/><path d="m310.8 324 1.9 2.8 6.7.1 2.2-1.5-.4-6-1.4 3h-5.5l-1.8-4.9z" fill="#92d2f4"/><path d="m330.9 137.5c2.8.3 7.8-.1 10.3 1.1 1.394009.760982 2.461172 2.006006 3 3.5.3 1.5 1.8 8.3 3.1 12.5l-8-2.8-.7 3.6c.63498 1.239263.977094 2.607718 1 4 .009371 2.525456-1.13159 4.917793-3.1 6.5l-3.5 17.9 3.9 10.9-30.5.6 4.4-10.9-3.7-18.4c-1.97242-1.622538-3.110709-4.045992-3.1-6.6-.026619-1.398345.318468-2.778692 1-4l-.9-4.2-9.8 3.3c1.7-3.8 4.1-10.9 4.8-12.6s2.8-3.6 5.8-3.7l6.1-.5c3.3 22.2 19.4 19.8 19.9-.2" fill="#e1c486"/><path d="m309.8 112.9c-.4-.4-.8-.1-.9.5s.7 2.3.9 3.3c0-1.3-.8-2.6-.7-3.3s.5-.5.8-.1 0-.3-.1-.4" fill="#e9a379"/><path d="m324.9 128.5c1.268099-1.185252 2.377328-2.529771 3.3-4 .732592-1.221191 1.304008-2.532085 1.7-3.9 1 .2 1.4-.7 1.7-1.8s1.1-3.3 1.3-4.8-.8-2.8-1.7-1.3c.087474-1.502892.020456-3.010794-.2-4.5-1-5.4-4.5-9.5-10.2-9.5s-9.4 2.6-10.4 8.6c-.237826 1.65553-.338169 3.32791-.3 5-.9-.9-1.8.1-1.5 1.7s1 3.1 1.4 4.8.6 1.9 1.5 1.8c.508474 1.599856 1.249759 3.116119 2.2 4.5.778791 1.192588 1.721345 2.269792 2.8 3.2 2 1.8 3.1 2.6 4.2 2.6s2.4-.8 4.2-2.4" fill="#fbd5c7"/><path d="m306.2 109c-.4-11 13.5-17.3 20.5-10.6-.3.1 2.1 2 3.1 3.4 3.8 5.3 1.9 11.5.3 17.1.6-4.4 1.3-8.7-.3-12.9-4 7.6-18.4 2.7-18.6 12-.365581-.612751-.603672-1.293011-.7-2-1.2 2 .7 8.3 5.9 10.4-7.1.6-10.1-15.9-10.2-17.4" fill="#ed6b06"/><path d="m309.4 147.7-14.3 19.7 15 19.3-2.9 3.6-20.2-19c-2.5-2.5-2.4-1.6-.9-4.8l14.1-26.3z" fill="#e1c486"/><path d="m337 153.3c1.666514 1.590748 2.606523 3.796154 2.6 6.1-.022448 1.711846-.543738 3.379971-1.5 4.8-2.6 3.8-7.3 4.6-11.4 2.5 5.7.6 13.7-4.3 10.3-13.4" fill="#d8b361"/><path d="m306.5 153.4c-1.601274 1.62665-2.49914 3.817442-2.5 6.1-.021926 1.718621.503401 3.399668 1.5 4.8 2.5 3.8 7.2 4.6 11.3 2.5-5.7.6-13.6-4.3-10.3-13.4" fill="#d8b361"/><path d="m306.6 192.9c-.8-1.7 1.2-3.2 2-4.4s1.5-3.2 2.8-3.1l3.8 5.1-2.3 3.8z" fill="#fbd5c7"/><path d="m282.1 147.6 5.8-3.1 7.3.5-.2 1.4h-5.3c-1 5.2.4 9.2-3.4 12.5l5.1.6-1.7 1.9-7.2.6-6.5-4 .2-7.5z" fill="#f9c5af"/><path d="m288.5 146.5h19.4c1.380712 0 2.5 1.119288 2.5 2.5v8.1c0 1.380712-1.119288 2.5-2.5 2.5h-19.4c-1.380712 0-2.5-1.119288-2.5-2.5v-8.1c0-1.380712 1.119288-2.5 2.5-2.5" fill="#282727"/><g transform="translate(226 143)"><path d="m81.6 10.8c.6075132-.0000001 1.0999998-.4924868 1.0999998-1.1 0-.60751315-.4924866-1.0999999-1.0999998-1.1-.3929922-.00000007-.756132.20965873-.9526281.54999995-.1964961.34034121-.1964961.75965889 0 1.10000015.1964961.3403412.5596359.55.9526281.5499999" fill="#282727"/><path d="m51.5 6-.4 10.4-43.3-.8c-3.48428695-.0785212-6.44152787-2.577598-7.1-6-.5-4.4 3.3-9.4 11.1-8.5z" fill="#c7991f"/></g><path d="m354.9 93.7c7.6-3.2 12.7 2.9 14.4 10.9 4.3 20.4-11.5 27-1.5 34.2-11.5-1-20.5-17.5-22.9-29-1.8-8.4 0-18.2 10-16.1" fill="#55210e"/><path d="m354.9 93.7c7.6-3.2 12.7 2.9 14.4 10.9 4.3 20.4-11.5 27-1.5 34.2-11.7-2.1-16.2-36.2-12.9-45.1" fill="#55210e"/><path d="m332.3 203.5-1.1 7.4 2.6 10.4 4.8-1.2-2.7-18.4-3.6-.5z" fill="#fbd5c7"/><path d="m359.3 126.2c-1 4.1-.2 8.4 1.3 10.3s2 .9 3.7 1.2l6.4 1c3.5.8 4 5.3 3.8 7.2s-2.5 2-3.1 4c-.188059.857359-.321659 1.725762-.4 2.6-1.485269.80083-3.021968 1.502366-4.6 2.1h-25.3l-2.7-1.1-.5-4.4-5.3-3.7c.1-8.7 8.7-6.4 13.1-8.2s3.3-4.6 3-10.8z" fill="#855341"/><path d="m343.3 324.1 2 2.8 6.7.1 2.2-1.5-2.1-15.5-6-.1z" fill="#855341"/><path d="m343.2 324 2 2.8 6.8.1 2.1-1.5-.7-6-1.2 3h-5.5l-2.1-4.9z" fill="#87cac0"/><path d="m334 213.6.2-1.9 17.9 2 .4 44v13.6l-.3 38.8h-6.2l-5.1-36.7.7-14.8z" fill="#45ac34"/><path d="m354.8 310-1.6 12.8 2.2 2.9 6.3.4 2-2-2.9-14.2z" fill="#855341"/><path d="m360.2 322.4h-5.4l-1.2-3-.8 6 2.2 1.5 6.7-.1 2.1-2.8-1.5-6.5z" fill="#87cac0"/><path d="m373 213.6-.3-1.9-17.9 2-.3 44-.1 13.6.4 38.8h6.2l5-36.7-.7-14.8z" fill="#45ac34"/><path d="m336.1 152.4.6 3c-.63498 1.239263-.977094 2.607718-1 4-.009371 2.525456 1.13159 4.917793 3.1 6.5l3.9 19.8-6.7 14.9c-4.3 10.5-1.4 22.5-.8 33.8h36.3c.9-11.6 4-22.9-.2-33.3l-7-15.4 3.9-19.7c1.97242-1.622538 3.110709-4.045992 3.1-6.6.03648-1.399447-.309248-2.782361-1-4l.5-2.1 7.7 3.7c-.8-4-1.6-13.4-2.3-15.1s-2.8-3.6-5.8-3.7l-6.1-.5c-1-.2-5.6.8-10.1.7s-9.3-1-9.8-.9c-2.8.3-7.8-.1-10.3 1.1-1.395305.732546-2.439558 1.992853-2.9 3.5-.4 1.5-.9 8.8-1.2 13z" fill="#87cac0"/><path d="m345 125.3c2.3 2.2 5.1 4.5 7.6 4.5.3 0 6.6-.3 8.8-3.9 12.2-20-6.1-36.5-14.2-25.7-4.6-1.2-6.6 1.1-7.4 4.5-1.6 7.2-.2 15.2 5.2 20.6" fill="#55210e"/><path d="m363.5 111.7c.7-1.6 2-.8 2 1s-.5 3.3-.6 5-.4 2-1.4 1.9l-.4-2.8c.065988 2.687774-.481189 5.355262-1.6 7.8-.589767 1.304247-1.364393 2.516706-2.3 3.6-1.7 2.1-2.6 3-3.8 3.2s-2.4-.4-4.4-1.7c-1.490405-.935297-2.809497-2.119098-3.9-3.5-1.037318-1.062079-1.853131-2.319792-2.4-3.7-.5-.1-.9-.7-1.2-1.5s-1.5-3.1-2-4.5-.1-2.2.6-2.1c-.244706-1.251065-.345362-2.526035-.3-3.8 0-5.5 2.9-10.1 8.5-10.9s9.7 1 11.6 6.8c.77352 2.222697 1.211661 4.548211 1.3 6.9z" fill="#855341"/><path d="m364.1 111.8c.4-.4.8-.2 1 .3s-.3 2.4-.4 3.4c-.1-1.3.5-2.7.2-3.3s-.5-.5-.8 0z" fill="#e9a379"/><path d="m365.3 115.9c7.2-17-13.3-25.2-20.5-15.8-5.8 3.7-4.4 10.7-3.5 13.3s1.7 4 2.8 6.1c-.615018-1.901748-1.11591-3.838529-1.5-5.8-.6-3.2.7-6.2.8-8.4v-.3c2.9 6.3 22.4-.5 18 24 .3-.6 2.1-13.5 2.2-14 1.670431 1.849234 2.136573 4.490706 1.2 6.8.905276-1.833092 1.083887-3.940708.5-5.9" fill="#55210e"/><path d="m365.4 147.5 6.9 23.3-22.2 6.5 1.7 4.4 26.8-4.5c3.2-1.5 2.7-.8 2.4-4.3l-4.5-29.5z" fill="#87cac0"/><path d="m368.8 153.4c2.85933 2.93427 3.315409 7.4536 1.1 10.9-2.6 3.8-7.3 4.6-11.4 2.5 5.7.6 13.6-4.3 10.3-13.4" fill="#55aaa2"/><g transform="translate(343 170)"><path d="m1.6 7.2c-3 1.1-1 7 2.2 7.6l5.6-3.6-1.4-4.2z" fill="#955f47"/><path d="m23 .6c-3.8602274.02904739-7.5142864 1.74645513-10 4.7l-.4.4 2.3-.7c2.2039967-2.04338492 5.094537-3.18532678 8.1-3.2 3.5138266.0439123 6.8349862 1.61325144 9.1 4.3 2.2278374 2.60553841 3.5290418 5.8761333 3.7 9.3h-25.7c.111866-1.3923709.3802246-2.767709.8-4.1l-1.3.2c-.37774865 1.2698976-.61253627 2.578-.7 3.9h-1.2l-2.5 23.2h35.5l-2.4-23.2h-1.2c-.263397-3.7157174-1.6989372-7.25204796-4.1-10.1-2.5021973-2.93202123-6.1458253-4.64452643-10-4.7" fill="#000"/></g><path d="m336.3 173 .4 30.5-4.6-.2-3.6-26.9c.2-1.3.2-2 .3-2.5-.0543-.799079-.0543-1.600921 0-2.4l1.7-23.7.8-5.8 11.1 4z" fill="#87cac0"/><path d="m338.3 153.3c-1.666514 1.590748-2.606523 3.796154-2.6 6.1.022448 1.711846.543738 3.379971 1.5 4.8 2.6 3.8 7.3 4.6 11.4 2.5-5.7.6-13.7-4.3-10.3-13.4" fill="#63bfb5"/><path d="m374.8 138-3.5 6.5-4.7-.9-.3-3.6-.9-.5v-3.5c.4-1.3 3.3-.7 5.9.1s3.8 1.3 3.4 1.9" fill="#fbd5c7"/><path d="m324.7 61.2c-1.716293-.3489419-3.479125.3296142-4.51849 1.7392743-1.039365 1.4096602-1.16642 3.2943014-.325666 4.8307112.840754 1.5364097 2.496558 2.4454356 4.244156 2.3300145 2.451025.172998 4.587687-1.6520676 4.8-4.1.082273-1.1941089-.314571-2.3717944-1.102762-3.2725834-.78819-.900789-1.902775-1.4504515-3.097238-1.5274166" fill="#87cac0"/><g fill="#87cac0" transform="translate(305 42)"><path d="m20.6 9.2c-5.0548692-.33915621-9.953193 1.8295673-13.1 5.8-.68496297.9474335-.50926999 2.2651309.4 3 .44680549.3555321 1.01912181.5137941 1.58511053.438329.56598877-.0754652 1.07684547-.3781503 1.41488947-.838329 2.2341313-2.8167693 5.7135421-4.3507031 9.3-4.1 3.3922115.2083024 6.4788399 2.0305288 8.3 4.9.3973463.6108803 1.0714092.9853597 1.8 1 .3971655-.0263899.7786519-.1651123 1.1-.4.4856444-.2866261.8277176-.7649546.9419708-1.3171784.1142533-.5522239-.0099322-1.1270197-.3419708-1.5828216-2.5137244-3.9543046-6.7308757-6.50679095-11.4-6.9"/><path d="m21.3.1c-7.1-.6-15 2.6-20.3 8.1-.39026583.40827533-.5996227.95654295-.58080657 1.52102689.01881613.56448391.26421889 1.09759291.68080657 1.47897311.8449466.7875364 2.1550534.7875364 3 0 4.4-4.6 11-7.3 16.8-6.9 5.6616895.27343983 10.905626 3.06042708 14.3 7.6.3859467.5477882 1.0319082.8517701 1.7.8.4647062.0073305.9197963-.1326972 1.3-.4.8961693-.6991272 1.0734447-1.9843743.4-2.9-4.0576148-5.5634931-10.4212576-8.98441087-17.3-9.3"/></g><path d="m338.4 153.3c-1.666514 1.590748-2.606523 3.796154-2.6 6.1-.021926 1.718621.503401 3.399668 1.5 4.8 2.6 3.8 7.2 4.6 11.3 2.5-5.6.6-13.6-4.3-10.2-13.4" fill="#55aaa2"/><g fill="#f2d9e7" transform="translate(28 55)"><path d="m463 79h-4.5l-10 26.2h3.2l2.3-6.8h9.6l1.2 6.8h3.4zm-2.5 2.4 2.7 14.4h-8.1l5.2-14.4zm23.5 4.2c-.98526-.2142497-1.991824-.3149062-3-.3-4.8 0-9.3 4.7-9.3 13.5 0 4.9 1.8 6.7 4.4 6.7s4.1-1.1 5.9-3.5h.1l-.3 3.5c-.4 3.5-2.2 4.9-5.3 4.9-1.830093.007867-3.650796-.261867-5.4-.8v2.8c1.843655.364773 3.720884.532382 5.6.5 4 0 7.4-2.1 7.8-7.5l1.8-20.2zm-1.7 13.4c-1.9 2.7-3.9 3.9-5.2 3.9s-2.4-1.1-2.4-4.3c0-7.2 3.1-10.9 6.1-10.9l2.5.2zm7.6-.7c0 5.1 2.1 7.2 6.1 7.2 2.0565.069576 4.094-.413899 5.9-1.4v-2.6c-1.53539.934966-3.302451 1.420041-5.1 1.4-2.6 0-4-1.1-4-5.5 6.4 0 10.5-3.1 10.5-7.6 0-2.8-1.8-4.5-5.1-4.5s-8.3 4.2-8.3 13zm10.4-8.1c0 2.8-2.6 5-7.3 5 .5-5.1 2.9-7.4 4.9-7.4.653737-.0627036 1.301302.1699315 1.765685.6343146.464383.464383.697019 1.1119489.634315 1.7656854zm16 15h2.8l1.3-13.3c.4-4.8-1.2-6.6-4-6.6s-3.7.9-6 3.2h-.1l.3-3-2.8.3-1.8 19.4h2.8l1.3-14c2.4-2.2 4.3-3.1 5.5-3.1s2.2 1 1.9 4.2zm23.5-28-2.9.4-.7 8c-.815159-.216653-1.656726-.3176411-2.5-.3-4.8 0-9.3 4.7-9.3 13.5 0 4.9 1.8 6.7 4.4 6.7s4.1-1.1 5.9-3.5h.1l-.3 3.2h2.7zm-4.8 21.8c-2 2.7-3.9 3.9-5.3 3.9s-2.4-1.1-2.4-4.3c0-7.2 3.2-10.9 6.1-10.9l2.6.2zm20-13.4c-.98526-.2142497-1.991824-.3149062-3-.3-4.8 0-9.3 4.7-9.3 13.5 0 4.9 1.8 6.7 4.4 6.7s4.2-1.1 5.9-3.5h.1l-.3 3.2h2.8l1.8-20zm-1.7 13.4c-1.9 2.7-3.8 3.9-5.2 3.9s-2.4-1.1-2.4-4.3c0-7.2 3.1-10.9 6.1-10.9l2.5.2zm23.1 6.2c7.9 0 13.2-5.1 13.2-14.8 0-7.1-4.7-11.4-11.7-11.4h-6.8l-2 26.2zm1-23.6c5.6 0 9 3.4 9 9.3 0 8-4 11.7-9.6 11.7h-4.5l1.6-21zm20.6 3.9-2.9.3-1.8 19.4h2.9zm-2.6-6c-.062473.4226007.071422.8505996.363597 1.162253.292175.3116535.710655.4728535 1.136403.437747.538853.0291925 1.0647-.1721296 1.446285-.553715.381585-.3815855.582907-.9074318.553715-1.446285.029961-.4328381-.128964-.8574457-.435759-1.1642408-.306795-.306795-.731403-.4657198-1.164241-.4357592-.521726-.0007231-1.020794.213123-1.380132.5913742-.359339.3782512-.547328.8876227-.519868 1.4086258zm18.6 6.1c-.98526-.2142497-1.991824-.3149062-3-.3-4.8 0-9.3 4.7-9.3 13.5 0 4.9 1.8 6.7 4.4 6.7s4.1-1.1 5.9-3.5h.1l-.3 3.5c-.4 3.5-2.2 4.9-5.3 4.9-1.830093.007867-3.650796-.261867-5.4-.8v2.8c1.844283.360373 3.721047.527941 5.6.5 4 0 7.4-2.1 7.9-7.5l1.8-20.2zm-1.7 13.4c-1.9 2.7-3.8 3.9-5.2 3.9s-2.4-1.1-2.4-4.3c0-7.2 3.1-10.9 6.1-10.9l2.5.2zm12.5-13.5-2.9.3-1.7 19.4h2.8zm-2.6-6c-.029961.4328381.128964.8574457.435759 1.1642408.306795.306795.731403.4657198 1.164241.4357592.521726.0007231 1.020794-.213123 1.380132-.5913742.359339-.3782512.547328-.8876227.519868-1.4086258.062473-.4226007-.071422-.8505996-.363597-1.162253-.292175-.3116535-.710655-.4728535-1.136403-.437747-.538853-.0291925-1.0647.1721296-1.446285.553715-.381585.3815855-.582907.9074318-.553715 1.446285zm6.5 8.4h2l-1.2 11.7c-.4 4.3 1 5.9 3.7 5.9 1.261774.061893 2.522445-.14254 3.7-.6v-2.5c-.893551.341387-1.843518.511024-2.8.5-1.3 0-2-.7-1.7-3.5l1.1-11.5h4l.3-2.2h-4.1l.5-4.7-2.8.5-.4 4.2h-2.3zm23.5-2.3c-.98526-.2142497-1.991824-.3149062-3-.3-4.8 0-9.3 4.7-9.3 13.5 0 4.9 1.8 6.7 4.4 6.7s4.2-1.1 5.9-3.5h.1l-.3 3.2h2.8l1.8-20zm-1.7 13.4c-1.9 2.7-3.8 3.9-5.2 3.9s-2.4-1.1-2.4-4.3c0-7.2 3.1-10.9 6.1-10.9l2.5.2zm13.3-21.8-2.9.4-2.5 27.6h2.8zm2.8 21.1c0 5.1 2.2 7.2 6.1 7.2 2.08869.072914 4.159272-.410222 6-1.4v-2.6c-1.576622.924065-3.372549 1.407584-5.2 1.4-2.5 0-4-1.1-4-5.5 6.5 0 10.5-3.1 10.5-7.6 0-2.8-1.8-4.5-5.1-4.5s-8.3 4.2-8.3 13zm10.5-8.1c0 2.8-2.7 5-7.4 5 .6-5.1 2.9-7.4 4.9-7.4.669922-.0957393 1.346629.1221645 1.834813.5908203.488183.4686557.733514 1.1359099.665187 1.8091797zm25.2-11.5c-6.9 0-12.1 5.6-12.1 16 0 7.4 3.7 10.8 9.2 10.8s12-5.4 12-15.4c0-7.1-3.8-11.4-9.1-11.4zm-.6 2.7c3.9 0 6.5 2.7 6.5 9.4s-4.1 12-8.3 12-6.5-2.3-6.5-8.7c0-8.3 3.9-12.7 8.3-12.7zm16.3 23.8h3.5l2.1-4.1c2.574175-4.8013283 4.299545-10.0112708 5.1-15.4h-2.9c-.679149 5.0897983-2.129089 10.0465675-4.3 14.7l-1.1 2.2h-.1l-2.6-16.9h-3.1zm12.3-6.9c0 5.1 2.1 7.2 6 7.2 2.089633.08271 4.162762-.401019 6-1.4v-2.6c-1.566455.948106-3.369272 1.43348-5.2 1.4-2.5 0-4-1.1-4-5.5 6.5 0 10.5-3.1 10.5-7.6 0-2.8-1.8-4.5-5-4.5s-8.3 4.2-8.3 13zm10.4-8.1c0 2.8-2.7 5-7.4 5 .6-5.1 2.9-7.4 4.9-7.4.669922-.0957393 1.346629.1221645 1.834813.5908203.488183.4686557.733514 1.1359099.665187 1.8091797zm15.9-4.6c-.402831-.2032864-.848824-.3062079-1.3-.3-1.6 0-2.7.6-4.6 3.8h-.1l.3-3.6-2.8.3-1.6 19.4h2.8l1.1-13c1.5-2.5 3.2-3.9 4.7-3.9h1.2l.3-2.8zm11.4 19.6h2.9l1.2-13.3c.5-4.8-1.2-6.6-4-6.6s-3.6.9-5.9 3.2h-.1l1.1-11.3-2.9.4-2.5 27.6h2.8l1.3-14c2.4-2.1 4.3-3.1 5.5-3.1s2.1 1 1.9 4.2zm8-6.9c0 5.1 2.2 7.2 6.1 7.2 2.08869.072914 4.159272-.410222 6-1.4v-2.6c-1.576622.924065-3.372549 1.407584-5.2 1.4-2.5 0-4-1.1-4-5.5 6.5 0 10.5-3.1 10.5-7.6 0-2.8-1.8-4.5-5.1-4.5s-8.3 4.2-8.3 13zm10.5-8.1c0 2.8-2.7 5-7.4 5 .6-5.1 2.9-7.4 4.9-7.4.669922-.0957393 1.346629.1221645 1.834813.5908203.488183.4686557.733514 1.1359099.665187 1.8091797zm10.3-4.7-2.9.3-1.7 19.4h2.8zm-2.6-6c-.062473.4226007.071422.8505996.363597 1.162253.292175.3116535.710655.4728535 1.136403.437747.538853.0291925 1.0647-.1721296 1.446285-.553715.381585-.3815855.582907-.9074318.553715-1.446285.029961-.4328381-.128964-.8574457-.435759-1.1642408-.306795-.306795-.731403-.4657198-1.164241-.4357592-.521726-.0007231-1.020794.213123-1.380132.5913742-.359339.3782512-.547328.8876227-.519868 1.4086258zm21.7-2.3-2.8.4-.8 8c-.815159-.216653-1.656726-.3176411-2.5-.3-4.8 0-9.3 4.7-9.3 13.5 0 4.9 1.8 6.7 4.4 6.7s4.1-1.1 5.9-3.5h.1l-.3 3.2h2.8zm-4.8 21.8c-1.9 2.7-3.8 3.9-5.2 3.9s-2.4-1.1-2.4-4.3c0-7.2 3.1-10.9 6.1-10.9l2.5.2z"/><path d="m473.6 56.6h15.1v-52.9h-8.9v42.8h-.4l-15.5-42.8h-15.2v52.9h9v-42.7h.3zm27.9 0h27.9v-8h-18.3v-44.9h-9.6zm63.3 0c17.4 0 28.2-8.8 28.2-28 0-15.9-10-24.9-27.9-24.9h-15.1v52.9zm-5.1-44.9h4.8c11.4 0 18.3 6 18.3 17.4 0 13.8-6.9 19.5-17.6 19.5h-5.5zm52.7-8h-9.7v52.9h9.7zm34.3 34.4h8.2v10.8c-2.027024.2021257-4.062925.302252-6.1.3-9.1 0-16.5-6.1-16.5-18.5s7.6-19.1 18.2-19.1c3.848071-.0252457 7.692489.2421921 11.5.8l.7-8.2c-3.923631-.72757474-7.909971-1.06256134-11.9-1-16.1 0-28.6 9.1-28.6 28.5 0 16.9 10.6 25.5 26.2 25.5 5.303159.0203629 10.595413-.4820663 15.8-1.5v-25.5h-17.5zm38.1-34.4h-9.7v52.9h9.7zm44.2 32.1c0-12.8-6.6-19-16.1-19-3.666991-.0650948-7.287089.8313106-10.5 2.6v-19.1l-5.3.4v55.5c3.799658.6355624 7.647729.9367158 11.5.9 11.9 0 20.4-7.7 20.4-21.3zm-5.7.6c0 10.9-6.1 15.9-13.8 15.9-2.376299.0257802-4.750768-.1414359-7.1-.5v-27.9c2.752864-1.410317 5.807057-2.1309694 8.9-2.1 7.4 0 12 4.3 12 14.6zm12.5.6c0 14.1 7.1 20.1 17.6 20.1 4.387807.1227134 8.741603-.8028968 12.7-2.7v-5c-3.805618 1.8242039-7.980031 2.7480493-12.2 2.7-7.4 0-12.9-4.8-12.8-15.5h25.4v-4.3c0-10.4-5.4-15.8-14.7-15.8s-16 7.1-16 20.5zm5.7-5c.8-6.8 5.2-10.8 10.1-10.8s9.2 3.4 9.2 10.8zm30.3-10.2h4.8v23.2c0 9.4 4.8 12.1 10.3 12.1 2.233021.038287 4.45876-.2652229 6.6-.9v-4.6c-1.772593.3971652-3.583458.5983724-5.4.6-3.6 0-6.2-2.3-6.2-7.4v-23h10.3v-4.5h-10.3v-7.8l-5.3.9v6.9h-4.8zm25.9 15.2c0 14.1 7.1 20.1 17.6 20.1 4.387807.1227134 8.741603-.8028968 12.7-2.7v-5c-3.802043 1.8345391-7.978911 2.7589279-12.2 2.7-7.4 0-12.9-4.8-12.7-15.5h25.3c.1-1.6.1-3 .1-4.3 0-10.4-5.4-15.8-14.8-15.8s-16 7.1-16 20.5zm5.7-5c.8-6.8 5.2-10.8 10.2-10.8s9.1 3.4 9.1 10.8zm52.2-14.6c-1.457367-.4434926-2.977347-.6461565-4.5-.6-2.9 0-5.4 1.4-8.5 4.8v-4.6l-5.2.5v39.1h5.3v-30.1c3-3.1 5.1-4.4 7.6-4.4 1.56029-.0057297 3.112042.2304064 4.6.7z"/><path d="m81 208.8h-23.1c-32 16.3-51.4 48.7-57.5 86.3l5.1 15h53v34.7h22.5v-34.7h15.5v-18.9h-15.5zm-60.2 82.4c4.1-27 17.1-47.8 37.5-61h.4v61z"/></g><path d="m986.7 120.7 37.3 33.5 46.7-53.8-22-10.2-24.7-.5z" fill="#a90061"/></g></svg>