<svg height="400" viewBox="0 0 1200 400" width="1200" xmlns="http://www.w3.org/2000/svg" xmlns:xlink="http://www.w3.org/1999/xlink"><defs><path id="a" d="m0 239.8v160.4h1200v-160.4z"/><filter id="b" height="149.3%" width="106.6%" x="-2.7%" y="-22.8%"><feMorphology in="SourceAlpha" operator="dilate" radius="6" result="shadowSpreadOuter1"/><feOffset dx="7" dy="3" in="shadowSpreadOuter1" result="shadowOffsetOuter1"/><feGaussianBlur in="shadowOffsetOuter1" result="shadowBlurOuter1" stdDeviation="6"/><feColorMatrix in="shadowBlurOuter1" type="matrix" values="0 0 0 0 0   0 0 0 0 0   0 0 0 0 0  0 0 0 0.139690897 0"/></filter></defs><g fill="none" fill-rule="evenodd"><g fill-rule="nonzero"><path d="m.7.2v400h1200v-400z" fill="#42145f"/><path d="m970 83.2c-4.908797-.5649339-9.734035 1.5970723-12.579782 5.6365236s-3.25727 9.3108687-1.072874 13.7430074c2.184396 4.432139 6.615658 7.316772 11.552656 7.520469 7.257053.299421 13.450279-5.196622 14.015576-12.4378175.565298-7.2411952-4.699976-13.6317679-11.915576-14.4621825z" fill="#a90061"/><path d="m972.5 53.2c-15.238853-1.1536386-30.039016 5.4200377-39.4 17.5-1.050545 1.3382137-1.525031 3.0396433-1.318629 4.7283879.206403 1.6887447 1.076705 3.2258113 2.418629 4.2716121 2.819603 2.1985472 6.885472 1.7070686 9.1-1.1 6.418546-8.3855501 16.520969-13.1169623 27.071958-12.6789967 10.550989.4379655 20.226538 5.9903502 25.928042 14.8789967 1.222123 1.8377003 3.293228 2.9297377 5.5 2.9 1.23887.0124625 2.45472-.3349237 3.5-1 2.95088-1.954541 3.79549-5.9108409 1.9-8.9-7.722576-11.900906-20.554318-19.5185973-34.7-20.6z" fill="#a90061"/><path d="m974.6 25.5c-21.2-1.6-45.3 8-61.3 24.5-2.092828 2.6181852-1.851604 6.3984569.557035 8.7293974 2.408638 2.3309405 6.194786 2.4481251 8.742965.2706026 13.5-13.9 33.5-22 51-20.7s32.7 9.1 43 22.9c1.22755 1.636738 3.15408 2.6 5.2 2.6 1.37839.0160539 2.72028-.4430117 3.8-1.3 1.38821-1.0010025 2.31765-2.5163146 2.58072-4.2074441.26306-1.6911296-.16217-3.4171698-1.18072-4.7925559-12.7-16.9-30.3-26.3-52.4-28z" fill="#a90061"/><g><use fill="#000" filter="url(#b)" xlink:href="#a"/><use fill="#42145f" fill-rule="evenodd" xlink:href="#a"/></g><g fill="#e3dce7" transform="translate(34 55)"><path d="m457 79h-4.5l-10 26.2h3.2l2.3-6.8h9.6l1.2 6.8h3.4zm-2.5 2.4 2.7 14.4h-8.1l5.2-14.4zm23.5 4.2c-.98526-.2142497-1.991824-.3149062-3-.3-4.8 0-9.3 4.7-9.3 13.5 0 4.9 1.8 6.7 4.4 6.7s4.1-1.1 5.9-3.5h.1l-.3 3.5c-.4 3.5-2.2 4.9-5.3 4.9-1.830093.007867-3.650796-.261867-5.4-.8v2.8c1.843655.364773 3.720884.532382 5.6.5 4 0 7.4-2.1 7.8-7.5l1.8-20.2zm-1.7 13.4c-1.9 2.7-3.9 3.9-5.2 3.9s-2.4-1.1-2.4-4.3c0-7.2 3.1-10.9 6.1-10.9l2.5.2zm7.6-.7c0 5.1 2.1 7.2 6.1 7.2 2.0565.069576 4.094-.413899 5.9-1.4v-2.6c-1.53539.934966-3.302451 1.420041-5.1 1.4-2.6 0-4-1.1-4-5.5 6.4 0 10.5-3.1 10.5-7.6 0-2.8-1.8-4.5-5.1-4.5s-8.3 4.2-8.3 13zm10.4-8.1c0 2.8-2.6 5-7.3 5 .5-5.1 2.9-7.4 4.9-7.4.653737-.0627036 1.301302.1699315 1.765685.6343146.464383.464383.697019 1.1119489.634315 1.7656854zm16 15h2.8l1.3-13.3c.4-4.8-1.2-6.6-4-6.6s-3.7.9-6 3.2h-.1l.3-3-2.8.3-1.8 19.4h2.8l1.3-14c2.4-2.2 4.3-3.1 5.5-3.1s2.2 1 1.9 4.2zm23.5-28-2.9.4-.7 8c-.815159-.216653-1.656726-.3176411-2.5-.3-4.8 0-9.3 4.7-9.3 13.5 0 4.9 1.8 6.7 4.4 6.7s4.1-1.1 5.9-3.5h.1l-.3 3.2h2.7zm-4.8 21.8c-2 2.7-3.9 3.9-5.3 3.9s-2.4-1.1-2.4-4.3c0-7.2 3.2-10.9 6.1-10.9l2.6.2zm20-13.4c-.98526-.2142497-1.991824-.3149062-3-.3-4.8 0-9.3 4.7-9.3 13.5 0 4.9 1.8 6.7 4.4 6.7s4.2-1.1 5.9-3.5h.1l-.3 3.2h2.8l1.8-20zm-1.7 13.4c-1.9 2.7-3.8 3.9-5.2 3.9s-2.4-1.1-2.4-4.3c0-7.2 3.1-10.9 6.1-10.9l2.5.2zm23.1 6.2c7.9 0 13.2-5.1 13.2-14.8 0-7.1-4.7-11.4-11.7-11.4h-6.8l-2 26.2zm1-23.6c5.6 0 9 3.4 9 9.3 0 8-4 11.7-9.6 11.7h-4.5l1.6-21zm20.6 3.9-2.9.3-1.8 19.4h2.9zm-2.6-6c-.062473.4226007.071422.8505996.363597 1.162253.292175.3116535.710655.4728535 1.136403.437747.538853.0291925 1.0647-.1721296 1.446285-.553715.381585-.3815855.582907-.9074318.553715-1.446285.029961-.4328381-.128964-.8574457-.435759-1.1642408-.306795-.306795-.731403-.4657198-1.164241-.4357592-.521726-.0007231-1.020794.213123-1.380132.5913742-.359339.3782512-.547328.8876227-.519868 1.4086258zm18.6 6.1c-.98526-.2142497-1.991824-.3149062-3-.3-4.8 0-9.3 4.7-9.3 13.5 0 4.9 1.8 6.7 4.4 6.7s4.1-1.1 5.9-3.5h.1l-.3 3.5c-.4 3.5-2.2 4.9-5.3 4.9-1.830093.007867-3.650796-.261867-5.4-.8v2.8c1.844283.360373 3.721047.527941 5.6.5 4 0 7.4-2.1 7.9-7.5l1.8-20.2zm-1.7 13.4c-1.9 2.7-3.8 3.9-5.2 3.9s-2.4-1.1-2.4-4.3c0-7.2 3.1-10.9 6.1-10.9l2.5.2zm12.5-13.5-2.9.3-1.7 19.4h2.8zm-2.6-6c-.029961.4328381.128964.8574457.435759 1.1642408.306795.306795.731403.4657198 1.164241.4357592.521726.0007231 1.020794-.213123 1.380132-.5913742.359339-.3782512.547328-.8876227.519868-1.4086258.062473-.4226007-.071422-.8505996-.363597-1.162253-.292175-.3116535-.710655-.4728535-1.136403-.437747-.538853-.0291925-1.0647.1721296-1.446285.553715-.381585.3815855-.582907.9074318-.553715 1.446285zm6.5 8.4h2l-1.2 11.7c-.4 4.3 1 5.9 3.7 5.9 1.261774.061893 2.522445-.14254 3.7-.6v-2.5c-.893551.341387-1.843518.511024-2.8.5-1.3 0-2-.7-1.7-3.5l1.1-11.5h4l.3-2.2h-4.1l.5-4.7-2.8.5-.4 4.2h-2.3zm23.5-2.3c-.98526-.2142497-1.991824-.3149062-3-.3-4.8 0-9.3 4.7-9.3 13.5 0 4.9 1.8 6.7 4.4 6.7s4.2-1.1 5.9-3.5h.1l-.3 3.2h2.8l1.8-20zm-1.7 13.4c-1.9 2.7-3.8 3.9-5.2 3.9s-2.4-1.1-2.4-4.3c0-7.2 3.1-10.9 6.1-10.9l2.5.2zm13.3-21.8-2.9.4-2.5 27.6h2.8zm2.8 21.1c0 5.1 2.2 7.2 6.1 7.2 2.08869.072914 4.159272-.410222 6-1.4v-2.6c-1.576622.924065-3.372549 1.407584-5.2 1.4-2.5 0-4-1.1-4-5.5 6.5 0 10.5-3.1 10.5-7.6 0-2.8-1.8-4.5-5.1-4.5s-8.3 4.2-8.3 13zm10.5-8.1c0 2.8-2.7 5-7.4 5 .6-5.1 2.9-7.4 4.9-7.4.669922-.0957393 1.346629.1221645 1.834813.5908203.488183.4686557.733514 1.1359099.665187 1.8091797zm25.2-11.5c-6.9 0-12.1 5.6-12.1 16 0 7.4 3.7 10.8 9.2 10.8s12-5.4 12-15.4c0-7.1-3.8-11.4-9.1-11.4zm-.6 2.7c3.9 0 6.5 2.7 6.5 9.4s-4.1 12-8.3 12-6.5-2.3-6.5-8.7c0-8.3 3.9-12.7 8.3-12.7zm16.3 23.8h3.5l2.1-4.1c2.574175-4.8013283 4.299545-10.0112708 5.1-15.4h-2.9c-.679149 5.0897983-2.129089 10.0465675-4.3 14.7l-1.1 2.2h-.1l-2.6-16.9h-3.1zm12.3-6.9c0 5.1 2.1 7.2 6 7.2 2.089633.08271 4.162762-.401019 6-1.4v-2.6c-1.566455.948106-3.369272 1.43348-5.2 1.4-2.5 0-4-1.1-4-5.5 6.5 0 10.5-3.1 10.5-7.6 0-2.8-1.8-4.5-5-4.5s-8.3 4.2-8.3 13zm10.4-8.1c0 2.8-2.7 5-7.4 5 .6-5.1 2.9-7.4 4.9-7.4.669922-.0957393 1.346629.1221645 1.834813.5908203.488183.4686557.733514 1.1359099.665187 1.8091797zm15.9-4.6c-.402831-.2032864-.848824-.3062079-1.3-.3-1.6 0-2.7.6-4.6 3.8h-.1l.3-3.6-2.8.3-1.6 19.4h2.8l1.1-13c1.5-2.5 3.2-3.9 4.7-3.9h1.2l.3-2.8zm11.4 19.6h2.9l1.2-13.3c.5-4.8-1.2-6.6-4-6.6s-3.6.9-5.9 3.2h-.1l1.1-11.3-2.9.4-2.5 27.6h2.8l1.3-14c2.4-2.1 4.3-3.1 5.5-3.1s2.1 1 1.9 4.2zm8-6.9c0 5.1 2.2 7.2 6.1 7.2 2.08869.072914 4.159272-.410222 6-1.4v-2.6c-1.576622.924065-3.372549 1.407584-5.2 1.4-2.5 0-4-1.1-4-5.5 6.5 0 10.5-3.1 10.5-7.6 0-2.8-1.8-4.5-5.1-4.5s-8.3 4.2-8.3 13zm10.5-8.1c0 2.8-2.7 5-7.4 5 .6-5.1 2.9-7.4 4.9-7.4.669922-.0957393 1.346629.1221645 1.834813.5908203.488183.4686557.733514 1.1359099.665187 1.8091797zm10.3-4.7-2.9.3-1.7 19.4h2.8zm-2.6-6c-.062473.4226007.071422.8505996.363597 1.162253.292175.3116535.710655.4728535 1.136403.437747.538853.0291925 1.0647-.1721296 1.446285-.553715.381585-.3815855.582907-.9074318.553715-1.446285.029961-.4328381-.128964-.8574457-.435759-1.1642408-.306795-.306795-.731403-.4657198-1.164241-.4357592-.521726-.0007231-1.020794.213123-1.380132.5913742-.359339.3782512-.547328.8876227-.519868 1.4086258zm21.7-2.3-2.8.4-.8 8c-.815159-.216653-1.656726-.3176411-2.5-.3-4.8 0-9.3 4.7-9.3 13.5 0 4.9 1.8 6.7 4.4 6.7s4.1-1.1 5.9-3.5h.1l-.3 3.2h2.8zm-4.8 21.8c-1.9 2.7-3.8 3.9-5.2 3.9s-2.4-1.1-2.4-4.3c0-7.2 3.1-10.9 6.1-10.9l2.5.2z"/><path d="m467.6 56.6h15.1v-52.9h-8.9v42.8h-.4l-15.5-42.8h-15.2v52.9h9v-42.7h.3zm27.9 0h27.9v-8h-18.3v-44.9h-9.6zm63.3 0c17.4 0 28.2-8.8 28.2-28 0-15.9-10-24.9-27.9-24.9h-15.1v52.9zm-5.1-44.9h4.8c11.4 0 18.3 6 18.3 17.4 0 13.8-6.9 19.5-17.6 19.5h-5.5zm52.7-8h-9.7v52.9h9.7zm34.3 34.4h8.2v10.8c-2.027024.2021257-4.062925.302252-6.1.3-9.1 0-16.5-6.1-16.5-18.5s7.6-19.1 18.2-19.1c3.848071-.0252457 7.692489.2421921 11.5.8l.7-8.2c-3.923631-.72757474-7.909971-1.06256134-11.9-1-16.1 0-28.6 9.1-28.6 28.5 0 16.9 10.6 25.5 26.2 25.5 5.303159.0203629 10.595413-.4820663 15.8-1.5v-25.5h-17.5zm38.1-34.4h-9.7v52.9h9.7zm44.2 32.1c0-12.8-6.6-19-16.1-19-3.666991-.0650948-7.287089.8313106-10.5 2.6v-19.1l-5.3.4v55.5c3.799658.6355624 7.647729.9367158 11.5.9 11.9 0 20.4-7.7 20.4-21.3zm-5.7.6c0 10.9-6.1 15.9-13.8 15.9-2.376299.0257802-4.750768-.1414359-7.1-.5v-27.9c2.752864-1.410317 5.807057-2.1309694 8.9-2.1 7.4 0 12 4.3 12 14.6zm12.5.6c0 14.1 7.1 20.1 17.6 20.1 4.387807.1227134 8.741603-.8028968 12.7-2.7v-5c-3.805618 1.8242039-7.980031 2.7480493-12.2 2.7-7.4 0-12.9-4.8-12.8-15.5h25.4v-4.3c0-10.4-5.4-15.8-14.7-15.8s-16 7.1-16 20.5zm5.7-5c.8-6.8 5.2-10.8 10.1-10.8s9.2 3.4 9.2 10.8zm30.3-10.2h4.8v23.2c0 9.4 4.8 12.1 10.3 12.1 2.233021.038287 4.45876-.2652229 6.6-.9v-4.6c-1.772593.3971652-3.583458.5983724-5.4.6-3.6 0-6.2-2.3-6.2-7.4v-23h10.3v-4.5h-10.3v-7.8l-5.3.9v6.9h-4.8zm25.9 15.2c0 14.1 7.1 20.1 17.6 20.1 4.387807.1227134 8.741603-.8028968 12.7-2.7v-5c-3.802043 1.8345391-7.978911 2.7589279-12.2 2.7-7.4 0-12.9-4.8-12.7-15.5h25.3c.1-1.6.1-3 .1-4.3 0-10.4-5.4-15.8-14.8-15.8s-16 7.1-16 20.5zm5.7-5c.8-6.8 5.2-10.8 10.2-10.8s9.1 3.4 9.1 10.8zm52.2-14.6c-1.457367-.4434926-2.977347-.6461565-4.5-.6-2.9 0-5.4 1.4-8.5 4.8v-4.6l-5.2.5v39.1h5.3v-30.1c3-3.1 5.1-4.4 7.6-4.4 1.56029-.0057297 3.112042.2304064 4.6.7z"/><path d="m74.2 209.2h-71.8v68.7c7.5-.8 16.5-1.4 23.8-1.4 20.2 0 30.2 8.1 30.2 22 0 16.7-15.5 27.4-38.7 27.4h-17.4v18.9h16.3c38 0 63.5-20.2 63.5-49.3 0-23.5-15.3-39.4-44.5-39.4-4.9 0-9 .2-14.1.6v-27.3h52.7z"/></g><path d="m318.6 212.5h59v90.55h-59z" fill="#2b474c"/><path d="m405.1 250.7h-113.8c-4.749649 0-8.6-3.850351-8.6-8.6v-184.2c-.000315-4.7660943 3.834221-8.6452173 8.6-8.7h113.8c4.765779.0547827 8.600315 3.9339057 8.6 8.7v184.2c0 4.749649-3.850351 8.6-8.6 8.6" fill="#19303b"/><path d="m296.7 63.3h102.9v173.35h-102.9z" fill="#e6e8e9"/><path d="m279.5 182 .4.3c-.356026.035706-.681594.216578-.9.5l-.3-.2c-.5-.1-1.7-.3-1.5-.9s1.8-.1 2.3.3" fill="#f7b088"/><path d="m280.1 186.9c1.1-1 3-1.5 3.1-3.3s-1-2.8-1.8-4c-.803449-1.367995-2.219496-2.262341-3.8-2.4l-3.8-.4c-.331511-.049288-.668489-.049288-1 0h-.8c-.378224.039259-.759802-.030119-1.1-.2-.8-.4-1.5.8-.7 1.2h.2c-.290515.326981-.526835.698342-.7 1.1-.4 1.2.7 2.2 1.5 3s2.3 2.5 4.1 2.7c.837481.130456 1.693911.061942 2.5-.2.242138.298019.661865.381965 1 .2.357077-.235551.691811-.503338 1-.8l-.4.3-.8.7c-.5.3-.2 1.1.3 1.2s.6 1.3 1.2.8" fill="#f7b088"/><path d="m239.8 322.2c-2.5-3.1-9.8-1.9-13.1-1.3-1.258761.200139-2.541239.200139-3.8 0-.5-.1-3.2-.4-3.2-1.1-1.159255-.881275-1.944593-2.166373-2.2-3.6h-.1c-.5-.4.3-1.8-.3-1.5s-2.8 5-3.2 6.4c-1 3.9 1.8 5.1 4.2 5.1 7.5.1 15.4.6 20.9-1 .576674-.186203 1.02095-.650078 1.182101-1.234248.16115-.58417.017543-1.21022-.382101-1.665752" fill="#19303b"/><g transform="translate(194 311)"><path d="m23.1 10c3.8 2 9.7 1 13.5.6.2 0 3.6-.6 3.2-.7-5.5-2.7-9.4-2.2-10.7-7.6-.110457-.93888405-.9611159-1.6104569-1.9-1.49999995-.938884.11045695-1.6104569.96111589-1.5 1.89999995 0-2.2-3.5-2.2-3.5.1s-2 4.9-.1 6.5z" fill="#f7ae83"/><path d="m11.1 2.3c-.1-.9-.7 2.1-1.4 2.1-1.26086478-.21761795-2.55232601-.18363213-3.8.1-.3-1.1.3-4.2-.7-3.3-2.7 2.2-3.8 9-4.1 12.6s-.4 8.2 2.6 10.3c4.9 3.4 6.9-5.2 7.4-9.7.3-2.7.5-9.3 0-12.1" fill="#19303b"/></g><path d="m204 313.9c-.5-.9-1.2-1.5-2.3-.9s-1.3-1-1.8-.8-1.4 1.9-1.7 2.6c-.98537 2.168503-1.691028 4.453492-2.1 6.8-.6 3.4 2.1 8.4 6.1 5.6 2.3-1.7 2.9-4.8 2.9-7.4.004012-2.018013-.369055-4.019012-1.1-5.9" fill="#f7ae83"/><path d="m245 214.4c1.034123-6.531745.96652-13.190597-.2-19.7-.4-2.5-.8-5-1.1-7.5-1.387596-1.052773-2.942711-1.864138-4.6-2.4-2.6-.9-5.9-1.2-8.4.3l-.7.5c-1.148799-.387217-2.402788-.315561-3.5.2-2.6 1.2-4.1 4-5 6.6-.896604 2.932978-1.499566 5.947788-1.8 9-.715927 6.072604-.88327 12.197363-.5 18.3.3 4.9 1.1 9.8 1.4 14.6.232712 4.814752-.035394 9.640654-.8 14.4-1.5 10-4.1 19.9-5 30-.648534 5.475441-.949137 10.986504-.9 16.5.2 5.7 1 11.4 1 17.1.020274 1.768495 1.199546 3.313748 2.9 3.8.856164.165896 1.728536.233001 2.6.2 2.149749-.049915 3.895685-1.752204 4-3.9.111919-14.027698 1.89107-27.992354 5.3-41.6 1.7-6.9 4-13.5 6.1-20.3 2.7-8.5 4.3-17.3 6.8-25.8 1.000099-3.383614 1.801467-6.822818 2.4-10.3" fill="#afddf7"/><path d="m227.8 203.3-.3 3.2c-.321412 3.832547-.889253 7.640424-1.7 11.4-.8 3.6-1.9 7.1-2.9 10.7-1.9 7.3-3.4 14.7-5.7 21.9s-4.4 13.4-6.1 20.3c-3.40893 13.607646-5.188081 27.572302-5.3 41.6-.054267 2.16999-1.829331 3.900678-4 3.9-.871464.033001-1.743836-.034104-2.6-.2-1.700454-.486252-2.879726-2.031505-2.9-3.8 0-5.7-.8-11.4-1-17.1.000593-5.51225.301037-11.020388.9-16.5.9-10.1 3.5-20 5-30 .764606-4.759346 1.032712-9.585248.8-14.4-.3-4.8-1.1-9.7-1.4-14.6-.38327-6.102637-.215927-12.227396.5-18.3.4-3 4.2-14.4 6.8-15.6 1.006454-.442279 2.128879-.547506 3.2-.3h.3l.7-.5c2.5-1.5 5.8-1.2 8.4-.3s5.5 2.4 6.9 5l.2.5.3-.5c.411928-.576085 1.153568-.812828 1.823089-.581959s1.107613.874416 1.076911 1.581959h.1c.827674.043129 1.503617.676826 1.6 1.5.3 4-2.2 7.8-4.7 11" fill="#92d2f4"/><path d="m239.3 98.9c.8 3.1 1.7 6.3 2.2 9.4s.2 4.6-2 5.9-5.7 2.2-8.4 3c-5.830643 1.863819-11.884232 2.940013-18 3.2-2 0-6.8.4-8.4-.9s-1.4-5.7-1.8-7.6c-.29925-2.018629-.399731-4.061749-.3-6.1.085751-3.05545.42019-6.0988422 1-9.1.8-4.3 2.5-9.7 6.4-12.2h.2c1.99292-2.3168319 4.703268-3.9008018 7.7-4.5 3.300297-.5583562 6.692133.0422814 9.6 1.7 3.058871 1.6600546 5.614846 4.1124091 7.4 7.1 2.011151 3.1383357 3.497303 6.5835075 4.4 10.2" fill="#55210e"/><path d="m226.8 122.7c-2.1 2-6.8 2.8-8.8-.1-.9.1-1.9-.9-1.6-2.5v-.4l.2-.8.3-2.8c.1-.4.1-.8.2-1.2v-.7c-.030639-.453456.073754-.905825.3-1.3v-.8c.5-2.1 2.6-1.7 2.9 0 .451881.259639.777273.693496.9 1.2v.3c.1.4.1.9.2 1.4.555383-.430987 1.35277-.342388 1.8.2h.7v-.3l.2-.5c.7-1.4 2.4-.9 2.8.6.102815.359459.102815.740541 0 1.1-.082948.428082-.116501.864268-.1 1.3v1.1c.1.7.1 1.4.2 2 .174816.835904-.089147 1.703213-.7 2.3" fill="#f7b088"/><path d="m227.5 81.6c.3 2.7-.3 5.4-2.7 7.2-2.483742 1.6048091-5.541693 2.0527369-8.381358 1.227699-2.839666-.825038-5.181517-2.841827-6.418642-5.527699h.2c1.99292-2.3168319 4.703268-3.9008018 7.7-4.5 3.300297-.5583562 6.692133.0422814 9.6 1.7" fill="#55210e"/><path d="m227.4 116c-.1.4-.1.9-.2 1.3.078377.361169.111963.730618.1 1.1 0 0-3.5 6.7-10.6.5 0-.4.4-3.6.5-4v-.7c-.030639-.453456.073754-.905825.3-1.3v-.3l4.1 1 3 .7 2.8.6c.102815.359459.102815.740541 0 1.1" fill="#e6a37b"/><path d="m229.6 87.8c-.654616-.4205063-1.422535-.6299386-2.2-.6-1.7-.2-3.7 1.2-5.3 1.4s-6.8.6-8.3 3.4.1 5.4.7 8.2c.115622.55983.182539 1.128622.2 1.7h-.1c-.709293-.370806-1.537349-.442811-2.3-.2-.665132.250886-1.103928.889135-1.1 1.6.506866 2.124871 2.047188 3.853037 4.1 4.6.20947.927689.510963 1.832167.9 2.7 1.5 3.1 4.4 4.7 7.3 6.3s5.2.9 7.7-.8 3.2-4.3 3.4-7.2.5-6.2-.5-9.3-.6-9.9-4.5-11.8" fill="#f7ae83"/><path d="m208.1 149.5c-.1-2.8.4-21.5-2-23.9-.9-.8-2.8 1.7-3.3 2.4-1.7 2.3-2.1 5-2.8 7.9-1.8 7.3-2.2 14.8-2.4 22.4s-1.6 18.3-2.5 27.4c-.6 5.3-.7 10.6-.8 15.9 0 2.9.1 5.7.1 8.5s-.1 3.3 1.1 4 2.5-1.6 2.8-3.3c.8-3.5 1.4-6.9 2.1-10.4 1.645885-7.897308 2.880878-15.874699 3.7-23.9.263541-2.599477.731659-5.174124 1.4-7.7 1.335143-5.415887 2.204975-10.935974 2.6-16.5z" fill="#f7ae83"/><path d="m255.8 169.3 1.9 1.5c2.6 2.2 5.3 4.2 8.1 6.3s6.6 6.2 7.6 3.1c.4-1.1.2-1-.3-2.1-1.8-4.2-5.4-8.1-8.5-11.5-2.932341-3.265514-6.072188-6.338555-9.4-9.2-3.1-2.6-2.9-6.2-3.8-9.9-1.293914-4.99915-2.999747-9.882517-5.1-14.6-1.3-2.9-4.2-10.8-7.8-11.6-1.8-.3-2 4.2-.8 4.8-.483425 3.045244-.517117 6.144967-.1 9.2-.194621.40561-.230296.869396-.1 1.3 1 5.3 3.2 9.8 5.5 14.4s2.9 6.4 4.5 9.5 5.1 6.2 8.3 8.8" fill="#f7ae83"/><path d="m243 181.1c-.8-2.4-1.9-4.7-2.7-7.1-.861859-2.712622-1.234327-5.556925-1.1-8.4.2-5.2 1.9-10.3 2.8-15.5v-.2c0-.3.1-.6.1-.9v-1.7c.016589-.634976-.016848-1.270273-.1-1.9v-.8c-.446283-2.468681-1.047471-4.906832-1.8-7.3-1.4-5.3-2.3-10.4-1.6-15.9-2.7-.7-5.8-.6-8.4-1.1s-3-.6-4.5.3c-.749806.657047-1.638719 1.135693-2.6 1.4-1.7.4-2.7-.8-4.2-1.4-.523763-.27484-1.108637-.412457-1.7-.4-1.3-.1-2.8 1.3-3.9 1.8s-5.2 2.4-7.9 3.5c-1.338517.39192-2.269028 1.605629-2.3 3-.2 2.1.9 4.1 1.1 6.2s.8 5.6 1.4 8.4c1.3 5.4 3.5 10.6 4.7 16.1 1.043962 4.148089.764234 8.518836-.8 12.5-1 2.9-2.1 5.7-3.1 8.6s-1.6 2.9-1.7 4.4c-.2 3.3 6.5 4.2 8.7 4.9 5.076534 1.578979 10.305464 2.618061 15.6 3.1 3.201282.368044 6.440432.23308 9.6-.4 2.009605-.466833 3.910755-1.315561 5.6-2.5-.1-2.2-.3-4.5-.5-6.8-.154838-.614121-.355397-1.2158-.6-1.8" fill="#f7ae83"/><path d="m241.7 158.7c-.733289 3.552671-.868479 7.202819-.4 10.8.2 1.3.6 2.7.8 4.1l.3 1.8v.5c.1.4.1.8.2 1.1.3 2.6.6 5.3 1.1 7.8s.3 3.3.4 4.9c-1.689245 1.184439-3.590395 2.033167-5.6 2.5-3.159568.63308-6.398718.768044-9.6.4-5.294536-.481939-10.523466-1.521021-15.6-3.1l-4.5-1.2c-2.2-.8-4.3-1.8-4.2-3.7s1.2-3 1.7-4.4 2.1-5.7 3.1-8.6c1.564234-3.981164 1.843962-8.351911.8-12.5-.5-2.5-1.3-4.8-2-7.2.904859-2.168459 1.477953-4.460837 1.7-6.8.132642-.792767.166233-1.598947.1-2.4-.09639-2.553316-.397354-5.094793-.9-7.6-.5-3.2-1.3-7-3.2-9.8l3.7-1.6.7.5c4.727837 3.342182 10.630269 4.573364 16.3 3.4 4.092736-.816075 7.731604-3.134961 10.2-6.5.970573.112903 1.916282.383105 2.8.8.2 4.1-.1 8.3 1.5 12.3s6.2 10.5 4.4 15.9c-.5 1.4-1.5 2.2-2.2 3.4h-.1c-.393115.910891-.72714 1.846161-1 2.8-.2.9-.3 1.7-.5 2.4" fill="#b90066"/><path d="m243.3 153.4h-.1c-.393115.910891-.72714 1.846161-1 2.8-1.838389.04115-3.658631-.37098-5.3-1.2 2.276115.333594 4.589448-.280885 6.4-1.7" fill="#e0006d"/><path d="m213.9 156.9c1.1 5.2 1.4 13.8 0 17.2s-3.8 10.4-5.1 14.2c-2.2-.8-4.3-1.8-4.2-3.7s1.2-3 1.7-4.4 2.1-5.7 3.1-8.6c1.564234-3.981164 1.843962-8.351911.8-12.5-.5-2.5-1.3-4.8-2-7.2.904859-2.168459 1.477953-4.460837 1.7-6.8 0 .7.4 9.3 4 9.8 2.054832.312784 4.145168.312784 6.2 0 0 0-2.8 2.8-6.2 2" fill="#b90066"/><g fill="#f7b088" transform="translate(191 206)"><path d="m5.2 9.6c.6.2.1 1.2 0 1.8v.3c-.32392279.1093895-.60428774.3196632-.8.6l-.2-.5c-.1-.6.1-2.4 1-2.2"/><path d="m8.2 13.2c.07094053-.2679781-.02294007-.552574-.23940391-.7257451-.21646383-.1731711-.51472637-.2022896-.76059609-.0742549l-.9.4h-.5l1.2-.4c.29801926-.2421378.38196478-.6618654.2-1 .59321557-.6446793 1.06724064-1.3895758 1.4-2.2.7-1.7.1-3.2-.5-4.9s-.6-2.4-1.9-2.7h-1.3v-.2c.1-.9-1.3-.9-1.4 0-.00609096.38603432-.10926095.76432425-.3 1.1l-.3.4v.3l-.4.9c-.52676317 1.17575439-.99402081 2.37727406-1.4 3.6-.65478564 1.45651372-.5423336 3.1432942.3 4.5.6 1.2 1.4 2.8 2.7 3.4s2.9-.6 4.3-1.2c.38659929-.0276143.67761416-.3634007.64999993-.75-.02761424-.3865993-.36340063-.6776142-.74999993-.65"/></g><path d="m289.3 289.6c-.916814-7.40724-.883208-14.901281.1-22.3 1.4-10.1 1.6-19.2-.5-29.2v-.2c-.651551-.761037-1.429655-1.403819-2.3-1.9-.615302-.332609-1.345088-.380247-1.998407-.130448-.653319.249798-1.165158.772175-1.401593 1.430448-.604623.013899-1.179441.265382-1.6.7l-.9 1.1c-.998982-.400941-2.141379-.020142-2.7.9l-.4.9c-.503148-.635319-1.292943-.973803-2.1-.9-.462818-.661783-1.038217-1.237182-1.7-1.7l-4.6-2.3c-1.200916-.628758-2.478206-1.099339-3.8-1.4-3 7.4-4.2 13.1-2.5 21.1 1 4.3 2.3 8.6 2.9 13.1.8 6.2-1.1 12.6-1.1 18.9-.1 8.7 1.4 17 2.6 25.5v.9c.13199.804701.788465 1.420147 1.6 1.5h.5c.636553.326848 1.399225.288714 2-.1.58214-.482185 1.117815-1.01786 1.6-1.6.6-.9.3-4.5.4-5.7s.5-4.3.7-6.5c.552119-4.17818.85266-8.385764.9-12.6-.1-4.4-.3-8.9-.2-13.4s.5-6.5.7-9.8-.4-7.9.1-11.8c-.1.8 3.4.9 3.4 3.1.1 4.4.1 8.8.3 13.3v.4c.1 7.1.4 14.2.7 21.2s2.9 14.9 3 22.5c1.2 1.6 2.9 1.7 5.1-2.1 1.2-2.2 1-5.1 1.1-7.5 0-5.1.8-10.2.1-15.2z" fill="#f7ae83"/><path d="m264.1 291.8c4.2-.5 8.4-.3 12.6-.4.4-.4-.9-31.1-.8-31.6s.2-2.2.2-3.3h1.8c0 1.7 0 32.8.8 34.2h1.7c3.7-.4 7.4-1 11.1-1.3v-29.8c-.4-2.5.2-5.5-.1-8.1s-.1-16.1-6.4-15.9c-2.3.1-4.7 1-6.9 1.4-1.881512.347881-3.787291.548489-5.7.6h-4.8c-1.057864-.070241-2.117864.100727-3.1.5-.668415-.202408-1.393722-.059278-1.935138.381876s-.828093 1.122602-.764862 1.818124c.1 3.5-.6 7.1-.5 10.6s2.7 37.2 2.8 40.8" fill="#f9af00"/><path d="m270.4 165.8h-1.3l.5-.3c.7-.2.8 0 .8.3" fill="#4d2a1d"/><path d="m266.2 165.4-.4.5h-1.2c.302896-.411376.720269-.724405 1.2-.9.5-.1.5.1.4.4" fill="#4d2a1d"/><path d="m280.9 169.3c-.238146-.489949-.675138-.85411-1.2-1 .3-1.7 0-3.3-2-3.6-.732096-.023914-1.457231.148738-2.1.5-.835585-.708861-2.007878-.865166-3-.4-.215968-.776943-.823057-1.384032-1.6-1.6-.947133-.279632-1.969049-.133644-2.8.4-.443757-.437015-.99609-.747702-1.6-.9-2-.4-3.7 1.3-4.5 3.1-1.938786-.204658-3.841037.632333-5 2.2-.241.413208-.441915.848524-.6 1.3-2.1.3-3.8 2.2-4.6 4.2-.581579 1.253977-.888433 2.617771-.9 4-.231943.779312-.266308 1.604094-.1 2.4.037986.552741.173403 1.094412.4 1.6.3.5.5.5.4 1s-.8 1.6-.7 2.7 1.6 2.8 2.9 3.8c-.152787.477685-.099353.997455.147426 1.434064s.664524.750463 1.152574.865936c.90469.315875 1.845314.517438 2.8.6.134.8288.70895 1.518741 1.5 1.8 1.7.8 3.3 0 4.8-.9.8.7 1.5 1.9 2.6 2.2.84696.108464 1.703724-.105727 2.4-.6.6-.3 1.3-1.1 1.8-1.2h.2c2.7-.7 2.6-4 .3-5.1s-6.7-4.2-7.4-8.4c-.218377-1.522969-.28537-3.063824-.2-4.6-.013546-.720148.122665-1.435258.4-2.1.2-.5.4-.5.7-.7.834817-.276594 1.424704-1.023784 1.5-1.9.343609.256825.775957.364912 1.2.3.641281.052777 1.244788-.309327 1.5-.9h.1v.3c-.207183.465256-.067893 1.011896.336675 1.321271.404568.309376.968606.300575 1.363325-.021271.500085-.2032.8968-.599915 1.1-1.1l.9-.3.8.3c.00466.354807.108584.70122.3 1 .339526.354528.809116.55501 1.3.55501s.960474-.200482 1.3-.55501l.7.3h-.1c-.8.7 0 2.1.9 2 .429859.228278.958634.146929 1.3-.2.287541-.231391.497-.545581.6-.9.9-.8 1.5-1.9.8-3.1" fill="#55210e"/><path d="m278.2 202.8c-.119848 1.185655-.952828 2.177298-2.1 2.5-2 .4-4.2.5-5.6-1.2s-1.7-4.3-2.1-6.6l-.9-2.6-.5-1.7-.6-1.9v-.4l-.3-.6c-1.7-3 3-5.4 4.7-2.5l.2.2c.604587-.345622 1.325936-.423399 1.990302-.214599.664366.208801 1.211529.685254 1.509698 1.314599 1.302517 2.724421 2.21159 5.619987 2.7 8.6.51968 1.663358.887846 3.370312 1.1 5.1" fill="#f7b088"/><path d="m277.1 197.7c-4.5 1.6-9-2.5-9-2.5l-.6-.3-.5-1.7-.6-1.9v-.4l-.3-.6c-1.7-3 3-5.4 4.7-2.5l.2.2c.604587-.345622 1.325936-.423399 1.990302-.214599.664366.208801 1.211529.685254 1.509698 1.314599 1.302517 2.724421 2.21159 5.619987 2.7 8.6" fill="#f19d80"/><path d="m284.8 184.6c-.9-2.5-2.4-4.6-3.4-7s-1.1-2.6-1.8-3.8-1.6-2.1-2.3-3.3c-.501202-1.099849-1.76819-1.62412-2.9-1.2l-.5.4c-1.298307-.754669-2.829366-1.003912-4.3-.7-4.075012.804176-7.200452 4.089895-7.8 8.2-.414954 3.020593.22052 6.092048 1.8 8.7.687041.503397 1.20911 1.199489 1.5 2 .721549 2.027471 1.590537 3.999406 2.6 5.9 1.444919.702944 2.951218 1.27199 4.5 1.7 3.2 1 7.2 2.1 10.3.1s3.6-7.5 2.3-11" fill="#f7b088"/><path d="m266.5 186.2s-5.1-1.8-4.3 1 5.3 3.7 5.3 3.7z" fill="#f7b088"/><path d="m287.5 210.2.2-.8c-.8-1.1-1.7-2.3-2.4-3.4-1.570848-2.204569-2.72331-4.678974-3.4-7.3-3.8 1.7-9.7 1-13.4 1.3s-5.5.7-7.7 2.2c-2.016987 1.309294-3.641269 3.140932-4.7 5.3-1.06716 1.859176-1.906537 3.840105-2.5 5.9-1.4 3.9-3.4 7.8-4.7 12.3-1.433269 4.749537-3.273418 9.366639-5.5 13.8-1.988153 3.554766-3.596999 7.30874-4.8 11.2-.519369 1.547491-.789406 3.167713-.8 4.8-.170144 2.526624.615052 5.024976 2.2 7 .282182.297055.706077.412663 1.1.3l.5.6c.189833.21525.462999.338562.75.338562s.560167-.123312.75-.338562c.496984-.013057.934453-.331217 1.1-.8.164656-.51646.232461-1.0589.2-1.6l.3-.6c.662733-2.721771.34403-5.590092-.9-8.1-.075708-.501341-.041588-1.013145.1-1.5.6-2.2 2.7-4.2 3.9-6.1 2.8-4.2 5.4-8.6 6.5-13.6l.3-.8c1.009284-2.489208 2.144073-4.925666 3.4-7.3 1.1-2.3 2.3-4.5 3.4-6.8.4 3.3.8 6.7 1 10.1s.3 4.6.6 6.8 1.1 4.2 3.4 5 4 .4 5.9.2c1.064661-.227008 2.103376-.562077 3.1-1l1.5-.3c2.4-.5 7-.2 10.3-1.2-1.284473-5.439267-1.922221-11.011172-1.9-16.6 0-3.3.1-5.9 2.2-8.9" fill="#f7ae83"/><path d="m328 177.8h-.1c.1-.9-.5-1.6-1.4-1.4-.667414.127638-1.309305.364125-1.9.7-.275673-.372982-.755673-.532982-1.2-.4-2.3.4-4 2.7-5.7 4.2s-6.7 5.4-10 8.2l-4.4 3.9c-1.3 1.2-2.6 2.7-4.3 3.2-4.4 1.4-9.2 2.4-13.8 3.6-.971024.036367-1.943162-.030677-2.9-.2-.904456-.212328-1.850216.116418-2.427972.843963-.577757.727546-.683719 1.723189-.272028 2.556037-.340265.571482-.480971 1.239837-.4 1.9l.2 1.5c.31841 1.047889 1.305825 1.747308 2.4 1.7l1.4 1.8c1.1 1.4 3 1.6 4 0 .678902-.973278 1.186226-2.055568 1.5-3.2 4.2-1.3 8.4-2.6 11.7-4 3.032892-1.420151 5.7786-3.386214 8.1-5.8 2.7-2.6 5.8-4.8 8.3-7.6v-.3c1.7498.674476 3.637036.91467 5.5.7h.2c1.411988.187506 2.842366-.170089 4-1 .432816-.28564.633181-.816989.496735-1.317291-.136446-.500303-.57883-.856356-1.096735-.882709l-2.3.2h-1c.415214-.314673.785327-.684786 1.1-1.1l1.5-1c1.200022-.649279 2.228339-1.574764 3-2.7.196496-.340341.196496-.759659 0-1.1l.7-1.1c.159553-.370202.138337-.793477-.057436-1.145869-.195773-.352391-.543949-.594022-.942564-.654131" fill="#f7ae83"/><path d="m292.8 245.2-2.8.2c-3.6.2-7.1.5-10.7.9-5.3.7-10.9 1.6-16.3 1.5l-2.5-.2c-.7-.1 2.3-28.3 1-28.7h-.2c-2.4-.2-10.6-.9-9.5-4.9 2.2-7.7 7.9-14.9 16.7-14 3 4.1 5.2 4.1 8.5 1.1s1.8-2.2 4.9-2.8c.7-.1 8.5-1 8.5-.8s2.2 10.2 1.3 11.3c-1.151996 1.243444-2.649455 2.11406-4.3 2.5-.058968 3.513374.175177 7.025546.7 10.5 1 6.2 2.8 17.6 4.7 23.4" fill="#d4dce1"/><path d="m273.6 312.1c0-.5.6-4.1.6-4.1s-5.6-1.3-6.9-1-.3 5.1-.3 5.1z" fill="#bfd3d7"/><path d="m273.9 313.2c-.3-1.5-2.5-.8-2.3.6v.6c-.012988.468824.020509.937782.1 1.4 0 1.2 0 2.4-.1 3.6-.000547 1.106784-.100954 2.211261-.3 3.3v.9h-.1c-.508602.1516-.857217.619284-.857217 1.15s.348615.9984.857217 1.15c2.7.5 2.8-4 2.9-5.7.265913-2.394835.232321-4.813474-.1-7.2" fill="#d4d3d4"/><path d="m269.3 310.2c-.8.1-1.6.3-1.9.9-.115972.340018-.249484.673799-.4 1-.8 3.9-3 7.7-2.8 11.7l.4.5c1.39847 1.623612 3.763218 2.00366 5.6.9 1.9-1 2.6-3.4 2.9-5.4.319235-2.554478.486196-5.125688.5-7.7 0-1.6-.9-1.9-2.3-1.9z" fill="#19303b"/><path d="m271.8 321.3c-.704927-.29247-1.444193-.494088-2.2-.6-1.340369-.150657-2.697098-.048902-4 .3-2.5.7-2.2 3.1-1.8 5.1s2.3 1 3.8 1.1 3.6.3 4.6-.7 1-2.9.4-4.1c-.198341-.411796-.469348-.78443-.8-1.1" fill="#d4d3d4"/><path d="m282.7 312.1c0-.5-.6-4.1-.6-4.1s5.6-1.3 6.9-1 .3 5.1.3 5.1z" fill="#bfd3d7"/><path d="m282.4 313.2c.3-1.5 2.5-.8 2.3.6h-.1v.6c0 .4-.1.9-.1 1.4v3.6c.1 1.1.2 2.2.4 3.3v.9h.1c.508602.1516.857217.619284.857217 1.15s-.348615.9984-.857217 1.15c-2.7.5-2.8-4-3-5.7-.181835-2.400475-.114811-4.813321.2-7.2" fill="#d4d3d4"/><path d="m287 310.2c.8.1 1.6.3 1.9.9.115972.340018.249484.673799.4 1 .8 3.9 3 7.7 2.8 11.7l-.4.5c-1.39847 1.623612-3.763218 2.00366-5.6.9-1.9-1-2.6-3.4-2.9-5.4-.319235-2.554478-.486196-5.125688-.5-7.7 0-1.6.9-1.9 2.3-1.9z" fill="#19303b"/><path d="m284.5 321.3c.700457-.305344 1.441509-.507449 2.2-.6 1.340369-.150657 2.697098-.048902 4 .3 2.5.7 2.2 3.1 1.7 5.1s-2.2 1-3.7 1.1-3.6.3-4.6-.7-1-2.9-.4-4.1c.198341-.411796.469348-.78443.8-1.1" fill="#d4d3d4"/><path d="m278.2 167.8c-.434532-.197904-.945047-.119363-1.3.2-1.5-.4-3.4-.6-4.5.1-.507921-.205938-1.051976-.307948-1.6-.3-.562126-.019826-1.106617.19797-1.5.6-.402173-.064936-.814122-.030607-1.2.1-1.7-.9-4.4-.3-4.6 1.7-.462743.172287-.827713.537257-1 1-1.32956.198399-2.463221 1.067539-3 2.3-.357553.333063-.543306.811257-.504339 1.298347s.298382.929671.704339 1.201653c.8 1.3 3.5 1.2 4.5 0 .527114-.48838.96679-1.063341 1.3-1.7.994927-.088551 1.904617-.597977 2.5-1.4l1.1.4c1.14847.138072 2.295425-.268912 3.1-1.1.821952.167279 1.67673.024816 2.4-.4.90004.67328 2.146793.631721 3-.1.9-.8 2.2-3.2.6-3.9" fill="#55210e"/><path d="m385.9 312.4h-75.4v-4.1c0-2.871881 2.328119-5.2 5.2-5.2h65c2.871881 0 5.2 2.328119 5.2 5.2z" fill="#19303b"/><path d="m388.6 182.8h-1.7v-16.6l-17.9-27.5h-28.1l-29.4-30.6v-26.8h1.7v26.1l28.4 29.6h28.3l18.7 28.7z" fill="#e0006d"/><path d="m333.8 196.7h-1.7v-14.3l29.8-27.9v-46.9l13.2-33h14.7v1.7h-13.6l-12.6 31.6v47.3l-29.8 27.9z" fill="#c18f00"/><path d="m310.1 173.6h-1.7v-9l8.9-10.1h32.8v-28.7l-25.9-25.4v-28.9h1.7v28.2l25.9 25.4v31.1h-33.7l-8 9.1z" fill="#44195e"/><path d="m319.8 132.9h-15.7v-1.7h14.9l21.9-24.3h37.6l10.8-7.5.9 1.4-11.2 7.8h-37.3z" fill="#92d2f4"/><path d="m314.3 107.8c-.053236 1.010097-.888503 1.801402-1.9 1.8-.994113 0-1.8-.805887-1.8-1.8-.027514-.494468.149912-.978427.490505-1.337943.340594-.359515.814263-.562822 1.309495-.562057 1.049341 0 1.9.850659 1.9 1.9" fill="#df233c"/><path d="m314.3 82.9c-.050226 1.0278184-.872182 1.8497742-1.9 1.9-1.049341 0-1.9-.850659-1.9-1.9s.850659-1.9 1.9-1.9c1.027818.0502258 1.849774.8721816 1.9 1.9" fill="#df233c"/><path d="m326.9 71.5c0 .9941125-.805887 1.8-1.8 1.8-.763353.1786711-1.558068-.1298599-2.000894-.7768039-.442825-.646944-.442825-1.4994482 0-2.1463922.442826-.646944 1.237541-.955475 2.000894-.7768039.495232-.0007649.968901.2025422 1.309495.5620575.340593.3595153.518019.843475.490505 1.3379425" fill="#1d2b33"/><path d="m326.9 84c.001402 1.0114975-.789903 1.8467642-1.8 1.9-1.027818-.0502258-1.849774-.8721816-1.9-1.9.053236-1.0100966.888503-1.8014019 1.9-1.8.994113 0 1.8.8058875 1.8 1.8" fill="#1d2b33"/><path d="m326.9 100.1c0 .994113-.805887 1.8-1.8 1.8-.763353.178671-1.558068-.12986-2.000894-.776804-.442825-.646944-.442825-1.4994481 0-2.1463921.442826-.646944 1.237541-.955475 2.000894-.7768039.495232-.0007649.968901.2025422 1.309495.5620575.340593.3595153.518019.843475.490505 1.3379425" fill="#1d2b33"/><path d="m339.5 112.1c0 .768478-.46292 1.461287-1.172901 1.755371-.709982.294084-1.527206.131528-2.070602-.411868s-.705952-1.36062-.411868-2.070602c.294084-.709981.986893-1.172901 1.755371-1.172901 1.049341 0 1.9.850659 1.9 1.9" fill="#1d2b33"/><path d="m352.9 125.5c-.053236 1.010097-.888503 1.801402-1.9 1.8-.994113 0-1.8-.805887-1.8-1.8-.001402-1.011497.789903-1.846764 1.8-1.9 1.027818.050226 1.849774.872182 1.9 1.9" fill="#44195e"/><path d="m352.9 137.9c-.050226 1.027818-.872182 1.849774-1.9 1.9-1.010097-.053236-1.801402-.888503-1.8-1.9 0-.994113.805887-1.8 1.8-1.8 1.011497-.001402 1.846764.789903 1.9 1.8" fill="#44195e"/><path d="m352.9 155c-.053236 1.010097-.888503 1.801402-1.9 1.8-.994113 0-1.8-.805887-1.8-1.8-.027514-.494468.149912-.978427.490505-1.337943.340594-.359515.814263-.562822 1.309495-.562057 1.049341 0 1.9.850659 1.9 1.9" fill="#44195e"/><path d="m319.8 155c-.053236 1.010097-.888503 1.801402-1.9 1.8-.994113 0-1.8-.805887-1.8-1.8-.027514-.494468.149912-.978427.490505-1.337943.340594-.359515.814263-.562822 1.309495-.562057 1.049341 0 1.9.850659 1.9 1.9" fill="#44195e"/><path d="m311.2 173.6c0 .768478-.46292 1.461287-1.172901 1.755371-.709982.294084-1.527206.131528-2.070602-.411868s-.705952-1.36062-.411868-2.070602c.294084-.709981.986893-1.172901 1.755371-1.172901 1.049341 0 1.9.850659 1.9 1.9" fill="#44195e"/><path d="m334.8 196.7c.178671.763353-.12986 1.558068-.776804 2.000894-.646944.442825-1.499448.442825-2.146392 0-.646944-.442826-.955475-1.237541-.776804-2.000894-.000765-.495232.202542-.968901.562057-1.309495.359516-.340593.843475-.518019 1.337943-.490505.994113 0 1.8.805887 1.8 1.8" fill="#c18f00"/><path d="m334.8 182.8c0 .994113-.805887 1.8-1.8 1.8-.494468.027514-.978427-.149912-1.337943-.490505-.359515-.340594-.562822-.814263-.562057-1.309495-.178671-.763353.12986-1.558068.776804-2.000894.646944-.442825 1.499448-.442825 2.146392 0 .646944.442826.955475 1.237541.776804 2.000894" fill="#c18f00"/><path d="m349.8 168.8c0 1.049341-.850659 1.9-1.9 1.9-.495232.000765-.968901-.202542-1.309495-.562057-.340593-.359516-.518019-.843475-.490505-1.337943 0-.994113.805887-1.8 1.8-1.8 1.011497-.001402 1.846764.789903 1.9 1.8" fill="#c18f00"/><path d="m364.6 154.9c0 .47739-.189642.935227-.527208 1.272792-.337565.337566-.795402.527208-1.272792.527208-.763353.178671-1.558068-.12986-2.000894-.776804-.442825-.646944-.442825-1.499448 0-2.146392.442826-.646944 1.237541-.955475 2.000894-.776804.495232-.000765.968901.202542 1.309495.562057.340593.359516.518019.843475.490505 1.337943" fill="#c18f00"/><path d="m364.6 120.7c0 .994113-.805887 1.8-1.8 1.8-1.011497.001402-1.846764-.789903-1.9-1.8.050226-1.027818.872182-1.849774 1.9-1.9 1.010097.053236 1.801402.888503 1.8 1.9" fill="#c18f00"/><path d="m364.6 107.8c0 .994113-.805887 1.8-1.8 1.8-.763353.178671-1.558068-.12986-2.000894-.776804-.442825-.646944-.442825-1.499448 0-2.146392.442826-.646944 1.237541-.955475 2.000894-.776804.495232-.000765.968901.202542 1.309495.562057.340593.359516.518019.843475.490505 1.337943" fill="#c18f00"/><path d="m371.5 90.7c.001402 1.0114975-.789903 1.8467642-1.8 1.9-1.027818-.0502258-1.849774-.8721816-1.9-1.9.053236-1.0100966.888503-1.8014019 1.9-1.8.994113 0 1.8.8058875 1.8 1.8" fill="#c18f00"/><path d="m391.7 100.1c0 1.049341-.850659 1.9-1.9 1.9s-1.9-.850659-1.9-1.9.850659-1.9 1.9-1.9 1.9.850659 1.9 1.9" fill="#92d2f4"/><path d="m380.7 107.5c-.050226 1.027818-.872182 1.849774-1.9 1.9-1.049341 0-1.9-.850659-1.9-1.9s.850659-1.9 1.9-1.9c1.027818.050226 1.849774.872182 1.9 1.9" fill="#92d2f4"/><path d="m352 107.5c0 1.049341-.850659 1.9-1.9 1.9s-1.9-.850659-1.9-1.9.850659-1.9 1.9-1.9 1.9.850659 1.9 1.9" fill="#92d2f4"/><path d="m321.3 132c.027514.494468-.149912.978427-.490505 1.337943-.340594.359515-.814263.562822-1.309495.562057-.512347.02935-1.012861-.161384-1.375738-.524262-.362878-.362877-.553612-.863391-.524262-1.375738-.000765-.495232.202542-.968901.562057-1.309495.359516-.340593.843475-.518019 1.337943-.490505.47739 0 .935227.189642 1.272792.527208.337566.337565.527208.795402.527208 1.272792" fill="#79abc9"/><path d="m306.5 132c.027514.494468-.149912.978427-.490505 1.337943-.340594.359515-.814263.562822-1.309495.562057-.763353.178671-1.558068-.12986-2.000894-.776804-.442825-.646944-.442825-1.499448 0-2.146392.442826-.646944 1.237541-.955475 2.000894-.776804.47739 0 .935227.189642 1.272792.527208.337566.337565.527208.795402.527208 1.272792" fill="#79abc9"/><path d="m377.7 75.4c.178671.7633529-.12986 1.5580679-.776804 2.0008935s-1.499448.4428256-2.146392 0-.955475-1.2375406-.776804-2.0008935c-.000765-.4952318.202542-.9689014.562057-1.3094949.359516-.3405934.843475-.5180186 1.337943-.4905051.994113 0 1.8.8058875 1.8 1.8" fill="#c18f00"/><path d="m391.7 75.4c0 1.049341-.850659 1.9-1.9 1.9s-1.9-.850659-1.9-1.9.850659-1.9 1.9-1.9 1.9.850659 1.9 1.9" fill="#c18f00"/><path d="m314.3 94.4c0 .5039113-.200178.9871838-.556497 1.3435029s-.839592.5564971-1.343503.5564971c-.495232.0007649-.968901-.2025422-1.309495-.5620575-.340593-.3595153-.518019-.843475-.490505-1.3379425 0-.9941125.805887-1.8 1.8-1.8 1.011497-.0014019 1.846764.7899034 1.9 1.8" fill="#df233c"/><path d="m329 123.2c0 .994113-.805887 1.8-1.8 1.8-1.011497.001402-1.846764-.789903-1.9-1.8.050226-1.027818.872182-1.849774 1.9-1.9 1.010097.053236 1.801402.888503 1.8 1.9" fill="#df233c"/><path d="m343.2 137.6c.02935.512347-.161384 1.012861-.524262 1.375738-.362877.362878-.863391.553612-1.375738.524262-.495232.000765-.968901-.202542-1.309495-.562057-.340593-.359516-.518019-.843475-.490505-1.337943 0-.994113.805887-1.8 1.8-1.8.494468-.027514.978427.149912 1.337943.490505.359515.340594.562822.814263.562057 1.309495" fill="#e0006d"/><path d="m364.6 137.6c.027514.494468-.149912.978427-.490505 1.337943-.340594.359515-.814263.562822-1.309495.562057-.763353.178671-1.558068-.12986-2.000894-.776804-.442825-.646944-.442825-1.499448 0-2.146392.442826-.646944 1.237541-.955475 2.000894-.776804.994113 0 1.8.805887 1.8 1.8" fill="#e0006d"/><path d="m379.8 151.2c.027514.494468-.149912.978427-.490505 1.337943-.340594.359515-.814263.562822-1.309495.562057-.763353.178671-1.558068-.12986-2.000894-.776804-.442825-.646944-.442825-1.499448 0-2.146392.442826-.646944 1.237541-.955475 2.000894-.776804.994113 0 1.8.805887 1.8 1.8" fill="#e0006d"/><path d="m389.7 165.9c.02935.512347-.161384 1.012861-.524262 1.375738-.362877.362878-.863391.553612-1.375738.524262-.495232.000765-.968901-.202542-1.309495-.562057-.340593-.359516-.518019-.843475-.490505-1.337943 0-.994113.805887-1.8 1.8-1.8.494468-.027514.978427.149912 1.337943.490505.359515.340594.562822.814263.562057 1.309495" fill="#e0006d"/><path d="m389.7 182.8c.000765.495232-.202542.968901-.562057 1.309495-.359516.340593-.843475.518019-1.337943.490505-.994113 0-1.8-.805887-1.8-1.8-.178671-.763353.12986-1.558068.776804-2.000894.646944-.442825 1.499448-.442825 2.146392 0 .646944.442826.955475 1.237541.776804 2.000894" fill="#e0006d"/><path d="m313.3 84.5c-.262773.1886847-.57657.2932837-.9.3-.296196.0118793-.58465-.0962907-.8-.3v8.3c.230644-.1678801.517488-.239591.8-.2.313557-.029468.628435.0405049.9.2z" fill="#e0006d"/><path d="m313.3 96.1-.9.2-.8-.2v10l.8-.2.9.2z" fill="#e0006d"/><path d="m314.2 108.4c-.232411.538341-.661659.967589-1.2 1.2l12.4 12.9c.258549-.533798.730771-.93337 1.3-1.1z" fill="#e0006d"/><path d="m328.9 123.8c-.174508.575295-.624705 1.025492-1.2 1.2l1.4 1.3.9-1.5z" fill="#e0006d"/><path d="m325.9 73.1c-.230644.1678801-.517488.239591-.8.2-.313557.029468-.628435-.0405049-.9-.2v9.3c.271565-.1594951.586443-.229468.9-.2.282512-.039591.569356.0321199.8.2z" fill="#44195e"/><path d="m325.9 85.7-.8.2-.9-.2v12.7l.9-.2.8.2z" fill="#44195e"/><path d="m326.9 100.6c-.202053.558289-.641711.997947-1.2 1.2l10.1 9.9c.088435-.576109.46585-1.066748 1-1.3z" fill="#44195e"/><path d="m341 106.9h-.1l-2.9 3.3.7.4z" fill="#a7c8db"/><path d="m335.8 112.6-7.9 8.9c.528131.214711.931937.655226 1.1 1.2l7.2-8 .6-1c-.47625-.205463-.840721-.606381-1-1.1" fill="#92d2f4"/><path d="m325.5 124-5.6 6.3c.608679.086457 1.113988.514027 1.3 1.1l5.7-6.4c-.606073-.074297-1.133155-.450784-1.4-1" fill="#92d2f4"/><path d="m317.8 131.2h-11.5c.17438.265492.245524.585641.2.9.029928.28192-.040925.565331-.2.8h11.5c-.112323-.253131-.179988-.523792-.2-.8.007877-.310106.075796-.615744.2-.9" fill="#92d2f4"/><path d="m312.4 105.9-.8.2c-.624378.335734-1.009917.991151-1 1.7 0 .47739.189642.935227.527208 1.272792.337565.337566.795402.527208 1.272792.527208h.6c.538341-.232411.967589-.661659 1.2-1.2 0-.2.1-.4.1-.6.009917-.708849-.375622-1.364266-1-1.7z" fill="#e0006d"/><path d="m312.4 81c-1.010097.0532358-1.801402.8885025-1.8 1.9.029942.6976878.404743 1.3348503 1 1.7l.8.2c.32343-.0067163.637227-.1113153.9-.3.608548-.3019039.995293-.9206958 1-1.6-.050226-1.0278184-.872182-1.8497742-1.9-1.9" fill="#e0006d"/><path d="m325.1 69.6c-1.049341 0-1.9.850659-1.9 1.9.004707.6793042.391452 1.2980961 1 1.6.271565.1594951.586443.229468.9.2.282512.039591.569356-.0321199.8-.2.608548-.3019039.995293-.9206958 1-1.6.027514-.4944675-.149912-.9784272-.490505-1.3379425-.340594-.3595153-.814263-.5628224-1.309495-.5620575" fill="#44195e"/><path d="m325.1 82.2c-.313557-.029468-.628435.0405049-.9.2-.608548.3019039-.995293.9206958-1 1.6-.009917.7088495.375622 1.3642657 1 1.7l.9.2.8-.2c.624378-.3357343 1.009917-.9911505 1-1.7-.004707-.6793042-.391452-1.2980961-1-1.6-.230644-.1678801-.517488-.239591-.8-.2" fill="#44195e"/><path d="m325.1 98.2-.9.2c-.641753.317368-1.034412.9848876-1 1.7.053236 1.010097.888503 1.801402 1.9 1.8h.6c.558289-.202053.997947-.641711 1.2-1.2v-.5c.034412-.7151124-.358247-1.382632-1-1.7l-.8-.2" fill="#44195e"/><path d="m337.6 110.2-.8.2c-.53415.233252-.911565.723891-1 1.3 0 .1-.1.2-.1.4.043195.164542.076587.331502.1.5.159279.493619.52375.894537 1 1.1l1.9-3.1-.7-.4z" fill="#44195e"/><path d="m319.5 130.2c-.715112-.034412-1.382632.358247-1.7 1-.112323.253131-.179988.523792-.2.8.007877.310106.075796.615744.2.9.441348.694698 1.279792 1.026246 2.076899.821276.797108-.204971 1.371613-.899849 1.423101-1.721276.014585-.205094-.019687-.410722-.1-.6-.186012-.585973-.691321-1.013543-1.3-1.1h-.4" fill="#92d2f4"/><path d="m304.7 130.2c-.763353-.178671-1.558068.12986-2.000894.776804-.442825.646944-.442825 1.499448 0 2.146392.442826.646944 1.237541.955475 2.000894.776804.679304-.004707 1.298096-.391452 1.6-1 .17438-.265492.245524-.585641.2-.9.029928-.28192-.040925-.565331-.2-.8-.301904-.608548-.920696-.995293-1.6-1" fill="#92d2f4"/><path d="m312.4 92.6c-.282512-.039591-.569356.0321199-.8.2-.608548.3019039-.995293.9206958-1 1.6-.034412.7151124.358247 1.382632 1 1.7l.8.2.9-.2c.641753-.317368 1.034412-.9848876 1-1.7-.004707-.6793042-.391452-1.2980961-1-1.6-.271565-.1594951-.586443-.229468-.9-.2" fill="#e0006d"/><path d="m327.2 121.3h-.5c-.569229.16663-1.041451.566202-1.3 1.1 0 .2-.1.5-.1.7.007297.278093.075571.55119.2.8.266845.549216.793927.925703 1.4 1h.9c.528131-.214711.931937-.655226 1.1-1.2.080313-.189278.114585-.394906.1-.6v-.5c-.168063-.544774-.571869-.985289-1.1-1.2l-.7-.2" fill="#e0006d"/><path d="m304.6 205.6h87.5v23.51h-87.5z" fill="#d4d3d4"/></g><path d="m1085.9 198.2h13.9l-11.1 15.3c-5.8 8.6-7.2 10.3-14.1 11.2l-6.7-1.3z" fill="#79bb58"/><path d="m1061.8 143.8h68.7c.79366 0 1.55265.325278 2.1.9.34488.341943.61701.750133.8 1.2.22373.46709.32687.98279.3 1.5v53.8c.11534 1.897768-1.30543 3.540536-3.2 3.7h-68.7c-1.8695-.207921-3.26378-1.820059-3.2-3.7v-5.5-48.2c-.11534-1.897768 1.30543-3.540536 3.2-3.7" fill="#7c8d9a"/><path d="m1132.4 144.5.2.2c.34488.341943.61701.750133.8 1.2.22373.46709.32687.98279.3 1.5v53.8c.11534 1.897768-1.30543 3.540536-3.2 3.7h-68.7c-1.06196-.037299-2.03614-.599325-2.6-1.5z" fill="#69787d"/><path d="m1061.1 147.1h70v46.98h-70z" fill="#f5e2eb" fill-rule="nonzero"/><path d="m1123.4 173.7 1-9-2.4-.6-2.7 3.9-1.1-.3-1.7 3.2.5 3.7 3.5 1.4z" fill="#f9c4a7"/><path d="m1096.3 183.9 12.9 4.4 7.7-14.3 4 1.8-7 16.4c-.28764.644858-.65736 1.249863-1.1 1.8h-6.1l-16.5-3.1z" fill="#989b22"/><path d="m1092.1 148.1c-5.2-1.5-8 3-8.4 8.4-1.1 13.7 9.8 16.6 3.9 22.2 7.5-1.6 11.9-13.2 12.5-21 .4-5.6-1.6-11.9-8-9.6" fill="#f9af00"/><path d="m1092.1 148.1c-5.2-1.5-8 3-8.4 8.4-1.1 13.7 9.8 16.6 3.9 22.2 7.5-2.4 7.5-25.1 4.5-30.6" fill="#f2b236"/><path d="m1089.1 168.1c1.2 1.7 2.8 3.5 4.4 3.8s4.4.5 6.2-1.7c10-11.7-.3-24.4-6.7-18.2-2.8-1.3-4.3 0-5.2 2.2-1.8 4.5-1.7 9.9 1.3 13.9" fill="#f2b236"/><path d="m1098.9 170.1c-.7 2.7-.2 5.5.8 6.8.73275.437061 1.55157.710001 2.4.8l4.3.7c2.3.4 2.6 3.4 2.5 4.7s-1.7 1.3-2.1 2.6c-.14204.592232-.24229 1.193713-.3 1.8l-3 1.4h-16.7l-1.7-.8-.4-2.9-3.5-2.5c0-5.6 5.7-4.2 8.7-5.4s2.1-3 1.9-7.1z" fill="#f9c4a7"/><path d="m1083.5 187.4.4 2c-.39935.808257-.60479 1.698481-.6 2.6-.0215.688495.11535 1.372735.4 2h22.7c.23775-.641463.37274-1.316438.4-2-.01841-.910699-.25868-1.803162-.7-2.6l.3-1.4 5.1 2.4c-.5-2.6-1-8.8-1.5-9.9s-1.9-2.4-3.9-2.5l-4-.3c-.6-.1-3.6.5-6.6.5s-6.1-.7-6.5-.6-5.2-.1-6.8.7c-.91312.484563-1.59651 1.311826-1.9 2.3-.3 1-.6 5.8-.8 8.6z" fill="#989b22"/><path d="m1106.4 194c.23775-.641463.37274-1.316438.4-2-.00562-.912475-.24674-1.808043-.7-2.6l.3-1.4 5.1 2.4c-.5-2.6-1-8.8-1.5-9.9s-1.9-2.4-3.9-2.5l-4-.3c-.6-.1-3.6.5-6.6.5h-.4v15.8z" fill="#989b22"/><path d="m1102.5 161.2c.7-1 1.4-.3 1.2.8s-.6 2.1-.9 3.2-.4 1.3-1.1 1.2v-2c-.25568 1.786693-.90461 3.494397-1.9 5-.55679.765625-1.19373 1.469615-1.9 2.1-1.3 1.2-2 1.7-2.8 1.7s-1.5-.5-2.7-1.6c-.85421-.756698-1.59513-1.632331-2.2-2.6-.54133-.830303-.94644-1.741803-1.2-2.7-.3-.2-.4-.6-.6-1.1s-.7-2.2-.8-3.2.1-1.4.6-1.3c-.0325-.838312.03464-1.677517.2-2.5.6-3.5 2.9-6.2 6.7-6.2s6.2 1.6 6.8 5.6c.27967 1.518063.31343 3.071218.1 4.6z" fill="#fbcdab"/><path d="m1102.9 161.3c.3-.2.5 0 .6.3-.07084.762591-.27387 1.507034-.6 2.2.1-.9.6-1.7.5-2.2s-.3-.3-.6 0c.07312-.08202.10929-.190509.1-.3" fill="#e8a577"/><path d="m1103.2 164.1c6.5-10.3-6-17.8-11.6-12.4-4.3 1.8-4 6.5-3.7 8.3s.7 2.8 1.1 4.3c-.2-1.6-.2-2.8-.3-4s1.1-3.9 1.4-5.4v-.2c1.3 4.4 14.7 2 9.2 17.6.3-.4 2.8-8.6 3-9 .84291 1.417491.84291 3.182509 0 4.6.81359-1.087236 1.13951-2.463346.9-3.8" fill="#f2b236"/><path d="m1105.1 188c1.07872 1.0933 1.68859 2.564157 1.7 4.1.02072.656225-.11646 1.307829-.4 1.9h-1.8c1.15575-1.791838 1.34323-4.041581.5-6" fill="#8e9300"/><path d="m1079.1 194 .7-9.7.5-3.8 7.3 2.7-2.4 10.8z" fill="#6ac1b6"/><g transform="translate(1032 154)"><path d="m53 34c-1.1124482 1.028989-1.7312306 2.4849475-1.7 4-.0214974.6884945.1153507 1.3727348.4 2h1.8c-1.2513892-1.7580628-1.4431389-4.0590599-.5-6" fill="#65bfb3"/><path d="m10.8 11.1c3.7-2 5.5-5.4 4.3-11h17.1c-1.1 5 .1 8.3 3 10.3 67.9 46.9-72.4 26-24.4.7" fill="#f9c4a7"/></g><path d="m1055.7 154.2h8.5c-1.1 5 .1 8.3 3 10.3 37.7 26 11.2 31.2-11.5 26.3z" fill="#f9c4a7"/><path d="m1042.9 139c-1.1-1.5-1.8-1.8-2.5-1.2s-.5 1-.3 2 1.4 4.3 1.8 5.8 1.4 4.1 2.5 3.5c.2 2.2.1 3.9.7 5.4s2.7 2.4 3.8 3.5 4.1 1.1 6.3 1.1 4.9 1.1 7.2-1.2 3.3-2.3 3.8-3.5.5-3.1.7-5.2c1.1.5 2.3-2.6 2.5-3.6s1.4-4.1 1.8-5.8 0-1.8-.3-2-1.4-.3-2.5 1.1c0-1.2-.1-2.5-.1-3.8.19832-2.100061.13113-4.216747-.2-6.3-.24151-1.736997-1.09205-3.331772-2.4-4.5-2.08422-1.810468-4.66035-2.959285-7.4-3.3-2.82287-.439197-5.71079-.164157-8.4.8h-1.3c-.05523 0-.1.044772-.1.1h-.2c-.97327.482078-1.88067 1.087015-2.7 1.8-1.36692 1.134446-2.25894 2.740076-2.5 4.5-.23985 2.091639-.27335 4.201802-.1 6.3 0 1.4-.1 2.6-.1 3.9" fill="#fbd5c5"/><path d="m1055.7 159.1c2.1.1 4.5 1 6.7-1.2s3.3-2.3 3.8-3.5.5-3.1.7-5.2c1.1.5 2.3-2.6 2.5-3.6s1.4-4.1 1.8-5.8c.2305-.675847.11865-1.421527-.3-2-.7-.6-1.4-.3-2.5 1.1 0-1.2-.1-2.5-.1-3.8.19832-2.100061.13113-4.216747-.2-6.3-.19595-1.751457-1.05467-3.361546-2.4-4.5-2.08422-1.810468-4.66035-2.959285-7.4-3.3l-2.6-.2z" fill="#fac8b2"/><path d="m1042.4 141.1c-1.4-7.6-1.1-13.9 3.8-17.6 8.4-6.3 18.7-1.3 19.2.1 4.7 2.6 4.7 9.4 3.7 16.2-.8 5.3-1.9 12.8-4.9 17s-5.8 3.2-8.6 4.9c-3.6-1.9-6.2-1.4-8.2-4.3s-4.1-11.8-5-16.3" fill="#c18f00"/><path d="m1046.1 161.4c-.23171 1.044531-.83607 1.968848-1.7 2.6 7.8 6.2 14.2 5.8 22.5 0-.96521-.56876-1.70638-1.451101-2.1-2.5-6.226.466087-12.47934.432647-18.7-.1" fill="#45ac34"/><g transform="translate(1020 161)"><path d="m35.7 7.5c3.5-.1 7.1-1.6 11.2-4.5-.9652135-.56876002-1.7063802-1.45110126-2.1-2.5-3.0213839.32995648-6.0634446.4302442-9.1.3z" fill="#45ac34"/><path d="m7.7 18.5c3.6 14.1 25.8 43.2 14.3 45-4.8.8-8.9.4-12-2.1s-4.4-10-5.4-17.5c-2.1-15.7-3.9-29.5-3.9-29.6.05100601-1.8639884.56659787-3.6857463 1.5-5.3 1.7 4.7 2.2 5.8 5.5 9.5" fill="#79bb58"/></g><path d="m1083.2 104.1h33.8c1.76731 0 3.2 1.432689 3.2 3.2v23.3c0 1.767311-1.43269 3.2-3.2 3.2h-33.8c-.86588.027072-1.70575-.29808-2.32767-.901156s-.97275-1.432538-.97233-2.298844v-23.3c-.00042-.866306.35041-1.695768.97233-2.298844s1.46179-.928228 2.32767-.901156" fill="#ed6b06"/><path d="m1083.5 109.6h33v1h-33z" fill="#f9af00" fill-rule="nonzero"/><path d="m1083.5 113.2h33v1h-33z" fill="#f9af00" fill-rule="nonzero"/><path d="m1083.5 116.9h33v1h-33z" fill="#f9af00" fill-rule="nonzero"/><path d="m1083.5 120.6h33v1h-33z" fill="#f9af00" fill-rule="nonzero"/><path d="m1083.5 124.3h33v1h-33z" fill="#f9af00" fill-rule="nonzero"/><path d="m1083.5 128.2h33v1h-33z" fill="#f9af00" fill-rule="nonzero"/><path d="m1090.4 107.1c9.8 0 17.7 6.1 17.7 13.7s-7.9 13.4-17.7 13.6c-11.9.2-17.7-5.5-17.7-13.6s7.9-13.7 17.7-13.7" fill="#87cac0"/><path d="m1082.3 122.8c1.27025 0 2.3-1.029745 2.3-2.3s-1.02975-2.3-2.3-2.3-2.3 1.029745-2.3 2.3 1.02975 2.3 2.3 2.3" fill="#cae6e1"/><path d="m1098.3 122.8c1.27025 0 2.3-1.029745 2.3-2.3s-1.02975-2.3-2.3-2.3-2.3 1.029745-2.3 2.3 1.02975 2.3 2.3 2.3" fill="#cae6e1"/><path d="m1090.3 122.8c1.27025 0 2.3-1.029745 2.3-2.3s-1.02975-2.3-2.3-2.3-2.3 1.029745-2.3 2.3 1.02975 2.3 2.3 2.3" fill="#cae6e1"/><path d="m1103.1 133.6 14.5 8.5-5.8-12z" fill="#ed6b06"/><path d="m1087.9 133.6-14.6 8.5 5.9-12z" fill="#87cac0"/><path d="m1076.8 389.3h-14.1l-1.9 10.9 20.3-.2z" fill="#000" fill-rule="nonzero"/><path d="m1035.3 389.3h14.1l2.1 10.9-20.3-.2z" fill="#000" fill-rule="nonzero"/><path d="m1081.5 272.1-5.1 55.6 3 23.6-1.6 40.8h-16.1l-2.8-65.5-2.7-51.7h-1.1l-2.4 51.7-2.2 65.5h-16.1l-2.1-41 3-23.4-5.7-56.8-.2-.7 6.1-37.8h40.2l6.1 37.9z" fill="#55210e"/><path d="m1026.4 178.1 6.4 52.5-3.7 36.9 24.2-.2.9-8.5.6 8.5 27.2-.2-4.8-38.5 2.7-17.6c2.08895-.319274 4.15874-.753263 6.2-1.3l4.5-34.4c-.6-7-3.2-8-12.5-7.6-3.2.1-9.4-2.1-11.8-4.1-8.4 2.3-14.4 2.2-21.3 0-2.4 2-8.6 4.2-11.8 4.1-6.1-.2-9.3.1-11 2.4l.3.7c1.4 3.9 1.6 4.6 3.9 7.3" fill="#8fc36e"/><g fill-rule="nonzero" transform="translate(570 225)"><path d="m66.9 121.3.8 141.7 86.6-18.5.8-132.1z" fill="#92d2f4"/><path d="m155.1 114.3c0-2.2-.1-5.6-.9-13.9-2.4-24.7-16.6-75.4-35.2-91.4-9.6-2.9-80-9-80-9l-9.3 6.1 31.6 117.1z" fill="#b2def7"/><path d="m69.6 263s.6-138.4-1.1-158.8c-3.2-38.7-15.8-84.2-29.5-104.2l-38.3 12.8.6 229.8z" fill="#0068b3"/></g><path d="m622.1 235.7c6.4 6.6 15.1 28 27.2 94.9 20-1.6 50.3-4.6 50.3-4.6s-1.5-60.9-29.9-86.2c-18.4-2.1-47.6-4.1-47.6-4.1" fill="#92d2f4" fill-rule="nonzero"/><path d="m622.5 235.7h.1c3.8.3 30.1 2.1 47.1 4.1.207473.257834.442166.492527.7.7l-.3-.7c-18.4-2.1-47.6-4.1-47.6-4.1" fill="#6e9dd3" fill-rule="nonzero"/><path d="m622.6 235.7c2.6 2.9 8.7 14.4 14.5 34.7l33.5.6c3.6-7.2 2.5-23.8-.2-30.5-.257834-.207473-.492527-.442166-.7-.7-17-2-43.3-3.8-47.1-4.1" fill="#2c81c4" fill-rule="nonzero"/><path d="m638 276.6 6.9 31.6v-.2c-2.5-12.4-4.8-22.8-7-31.4" fill="#4b7fc1" fill-rule="nonzero"/><path d="m645.4 310.6 1 4.8-.9-4.7h-.1" fill="#4b7fc1" fill-rule="nonzero"/><path d="m636.7 270.4 1.3 6.2c2.2 8.6 4.5 19 7 31.4.276898-.332761.670314-.547351 1.1-.6l23.6-1.3h.1c.641861-.058183 1.26143.251602 1.6.8l.6 1.5c.2.5-.2 1-1 1l-24.6 1.4h-.9c.3 1.5.6 3.1 1 4.7l35.6-2.3-11.5-42.2c-.351151.685814-.787979 1.324255-1.3 1.9l-31.4.2c-.3-1-.5-1.9-.8-2.7z" fill="#2c81c4" fill-rule="nonzero"/><path d="m650.7 304.1c-.4 0-.7-.2-.7-.4v-.7c0-.2.3-.4.7-.4l12.2-.7h.1c.4 0 .7.1.8.3l.4.7c.1.2-.2.4-.6.5l-12.8.7z" fill="#3d6fb5" fill-rule="nonzero"/><path d="m637.1 270.4c.3.8.5 1.8.8 2.7l31.4-.2c.512021-.575745.948849-1.214186 1.3-1.9z" fill="#92d2f4" fill-rule="nonzero"/><path d="m646.4 315.4h-.4l2.4 10.6c-.6-3.6-1.3-7-1.9-10.3z" fill="#6e9dd3" fill-rule="nonzero"/><path d="m699.1 326.1c-3.8.4-31 3-49.6 4.5l49.8-4.5z" fill="#6e9dd3" fill-rule="nonzero"/><path d="m682.1 313.1v.3l-35.6 2.3c.6 3.3 1.3 6.7 1.9 10.3l1.1 4.6 49.6-4.5z" fill="#2c81c4" fill-rule="nonzero"/><path d="m646.5 315.4h-.1v.3-.3" fill="#3869b1" fill-rule="nonzero"/><path d="m682.1 313.1-35.6 2.3v.3l35.6-2.3z" fill="#2b5aa4" fill-rule="nonzero"/><path d="m664.8 277.9 5.1 19.9-28.6 1.3-5.7-21.1z" fill="#92d2f4" fill-rule="nonzero"/><path d="m644.9 308.2c0 .1-.1.2 0 .2v1.5c.074432.287106.252553.536476.5.7z" fill="#4b7fc1" fill-rule="nonzero"/><path d="m645 308v.2l.5 2.4h.1c-.118244-.908297-.285151-1.809593-.5-2.7" fill="#2956a3" fill-rule="nonzero"/><path d="m669.8 306.1h-.1l-23.6 1.3c-.429686.052649-.823102.267239-1.1.6.214849.890407.381756 1.791703.5 2.7h.9l24.6-1.4c.8 0 1.2-.5 1-1l-.6-1.5c-.33857-.548398-.958139-.858183-1.6-.8" fill="#0068b3" fill-rule="nonzero"/><path d="m663 301.9h-.1l-12.2.7c-.4 0-.7.2-.7.4v.7c0 .2.3.4.7.4h.1l12.8-.7c.4 0 .7-.3.6-.5l-.4-.7c-.1-.2-.4-.3-.8-.3" fill="#0068b3" fill-rule="nonzero"/><path d="m622.4 232.4c2.5 4.1 8.6 12.8 17.5 49.4s9.3 49.5 9.3 52.7-7-1.6-7-1.6-10.9-60-17.9-80.1-7.3-22.3-7.3-22.3z" fill="#b0ddf7" fill-rule="nonzero"/><path d="m709.6 284.2c.2.8-.1 1.5-.8 1.6h-8.4c-.935533.029601-1.766468-.5936-2-1.5l-3.1-10.1c-.138159-.35124-.086591-.748787.13661-1.053153.223202-.304365.586865-.473042.96339-.446847l8.5.6c.797204.11065 1.438201.711585 1.6 1.5z" fill="#2c81c4" fill-rule="nonzero"/><path d="m701.9 299.2 1 4.3 11.9-1.1-1.1-3.9z" fill="#2c81c4" fill-rule="nonzero"/><path d="m712 291.9-11.8.2 1 4.4 11.9-.5z" fill="#2c81c4" fill-rule="nonzero"/><path d="m739.5 272.5c-3.2 6.3-12.7 21.9-17.8 24.9s-20.2 11.8-22.3 12.1-7.3 0-9.4.3c-1.768217.176223-3.511893.545077-5.2 1.1-1 .6-4.8 2.9-5.5 3.8s-1.9 3.2-1.5 4.2.7 1.2 2.1-.6c1.255439-1.451031 2.784585-2.640366 4.5-3.5 1.134303-.026406 2.26921.006973 3.4.1l1.1 1.7c-1.434375 1.120621-2.80329 2.322595-4.1 3.6-1.2 1.4-.8 1.9 1.3 1.4 2.326127-.82083 4.597422-1.789471 6.8-2.9 3.6-1.6 6.1-2.9 7.8-3.1s24-6.9 26.4-8.2c6.4-3.4 21-16.1 22-19.5s-7.2-20.4-9.6-15.4" fill="#e4aba5" fill-rule="nonzero"/><g fill-rule="nonzero" transform="translate(717 217)"><path d="m20 37c4.7 4.1 8.3 3.9 1 20-1.4 3.3 4.3-3.4 9.6-6.1s5.5-3.3 8.6-4.1c-2.1-2.4-5.2-14-3.6-21.4s-15.6 11.6-15.6 11.6" fill="#e4aba5"/><path d="m35.6 14.9c-2.4-11.7-11-15.4-20.2-13.5s-12.8 10.3-10.4 21.9c.45365557 2.1390821 1.05509816 4.2441311 1.8 6.3-.00811755 1.3428996-.1420361 2.6820851-.4 4 .2 1 1.5 1.1 2.9 1 3.3 5.2 8 8.1 13.8 6.9 9.2-1.9 14.9-15 12.5-26.6" fill="#f0c2b8"/><path d="m35.9 14.9c-2.5-11.7-11-15.4-20.3-13.5-1.7.4 3.7 4.6 2.4 5.4 2.8 3.8 10.9 29.8 2.3 35 1.007438-.0009876 2.0123157-.1014754 3-.3 9.2-1.9 15-15 12.6-26.6" fill="#e4aba5"/><path d="m14.9 15.2-10.6-2.1c-1.4-2.1 1.5-11.3 15.7-12.7s17.3 6.4 19.1 13.8-3.7 19.6-3.7 19.6-11.1-4.7-9.5-7.5 1.8-7.6-.8-7.4-2.2 1.7-2.2 1.7z" fill="#f9af00"/><path d="m3 10.6c-1 0-4.8 3.4-1.8 8.4 4.4-.7 16.4-5 16.4-5l-5.2-3.7z" fill="#f9af00"/><path d="m27.7 169.4c-1.1 6.5-1.6 25.8.2 28.6s5.2 45.1 5.1 47.9c-.1 5-8.6 13.6-16 16.9 4 2.7 14.2-2 19.2-3.6s7.4.5 8.3-2c2-5.5-1.1-7.4-.8-15.8s6.8-33.7 1.3-46.9c-3.3-8-1.3-19.2-2.1-22s-15.2-3.1-15.2-3.1" fill="#e4aba5"/></g><path d="m744.9 264.9c-2.5 1.6-8.5 9.8-8.5 9.8-2.4 5.3-8.3 12.9-9.2 15.7s1.1 9.7 2.4 11.6.8 12.3.8 14.8 3.3 2.6 3.3 2.6 20.4 1.5 23.6.5 4.4-15.3 5-25.6 1.8-22.6-7.4-33.9c-4.6 1.6-6.2 2.1-10 4.5" fill="#e41f13" fill-rule="nonzero"/><g fill="#e41f13" fill-rule="nonzero" transform="translate(732 260)"><path d="m30.3 34.1c-.6 10.3 4.5 19.2-3.7 26-3.9 3.3.5 4.3.5 4.3l-15.1-2.4s-.4-5.2.1-6.6 5.3-36.8 5.3-41.6-2-7-3.9-9.4c3.3-2.1 5-2.6 9.4-4.2 9.2 11.4 8.1 23.6 7.4 33.9"/><path d="m27.3 59.5c.7 4 10.2 8.5 8.8 24.8s-3.6 39-2 48.4c.4 2.8 7.2 16.8 12.2 48-13.4 3.6-31.2 2.3-31.2 2.3-2-17.1-6.8-35.3-9.5-47.5-1.9-8.3-2.7-50.5-3.4-55.2s-1.6-21.3-1.6-21.3z"/></g><path d="m756 239.2c1.2 4.1 5.2 15.3 4 17.6s-7-2-8.3-7 4.3-10.6 4.3-10.6" fill="#f9af00" fill-rule="nonzero"/><path d="m759 250.5c2.2 3.8 5 14.1 4 17.8s-9.8-8.2-7.8-13.8 3.8-4 3.8-4" fill="#f9af00" fill-rule="nonzero"/><path d="m763 268.3c2.3 2.3 4.3 15.1 2.5 20.8-.861071.312467-1.813278.252971-2.628756-.16425s-1.420848-1.154625-1.671244-2.03575c0 0-1.2-20.8-.2-20.8s2 2.2 2 2.2" fill="#f9af00" fill-rule="nonzero"/><path d="m715.5 329.9c-1.8 3.9 3 34.6 6.1 36.1s27.7 1 27.7 1l1.4-36.8c-5 .5-5.2 1.4-14.1 0s-20.6-1.3-21.1-.3" fill="#c18f00" fill-rule="nonzero"/><path d="m776.9 329.9c.6 4.2-3 34.6-6 36.1s-26.4 1-26.4 1l-.2-36.2c3.95955-.148019 7.90319-.582488 11.8-1.3 7.8-1.2 20.6-1.4 20.8.4" fill="#c18f00" fill-rule="nonzero"/><path d="m758.6 334.6 5.5-.6.7 6.6-2.1 3-3.3-2.7z" fill="#c18f00" fill-rule="nonzero"/><path d="m733.1 334.6-5.5-.6-.7 6.6 2.1 3 3.3-2.7z" fill="#c18f00" fill-rule="nonzero"/><path d="m760.3 335.3c-1.390289-4.584538-3.025982-9.091038-4.9-13.5-2.8-6.8-7.1-13.3-9.8-13s-5.9 4.8-8.5 11c-2.078489 4.9525-3.848538 10.028866-5.3 15.2-.092345.305322-.302453.561314-.583908.711423-.281454.150109-.611092.181982-.916092.088577-.610171-.273864-.912983-.966006-.7-1.6 1.469402-5.275978 3.273046-10.453105 5.4-15.5 2.9-6.2 6-12.1 10.6-12.4s8.8 7.6 11.9 14.4c1.906994 4.50934 3.575957 9.115678 5 13.8.200994.661193-.150449 1.36408-.8 1.6h-.3c-.523998-.027246-.969531-.391773-1.1-.9" fill="#c18f00" fill-rule="nonzero"/><path d="m749.5 267.3c-6.2.6-5.9 8.6-4.9 14.9s3 22.7 1.3 24.6-18.7 11.8-22.1 11.4-7-3.6-9.7-2.9c-2.327066.767639-4.286757 2.371022-5.5 4.5-1.1 2-1 5.4 1.5 4.7s1.1-.8 4.3-.9 3.9 1.2 8.8 1.6 25.6-5.1 31-10.7 5.3-25.5 3.7-34.8c-2.1-12.9-8.4-12.4-8.4-12.4" fill="#f0c2b8" fill-rule="nonzero"/><path d="m743.5 308.6c2-.6 6 .7 9.8 8.5 1.6-.5 1.7-1.2 1.7-1.2s-2.5-8.8-8.8-9.5c-3.4-.4-2.7 2.2-2.7 2.2" fill="#c18f00" fill-rule="nonzero"/></g></svg>