<svg height="400" viewBox="0 0 1200 400" width="1200" xmlns="http://www.w3.org/2000/svg" xmlns:xlink="http://www.w3.org/1999/xlink"><defs><path id="a" d="m.7 239.8v160.4h1200v-160.4z"/><filter id="b" height="149.3%" width="106.6%" x="-2.7%" y="-22.8%"><feMorphology in="SourceAlpha" operator="dilate" radius="6" result="shadowSpreadOuter1"/><feOffset dx="7" dy="3" in="shadowSpreadOuter1" result="shadowOffsetOuter1"/><feGaussianBlur in="shadowOffsetOuter1" result="shadowBlurOuter1" stdDeviation="6"/><feColorMatrix in="shadowBlurOuter1" type="matrix" values="0 0 0 0 0   0 0 0 0 0   0 0 0 0 0  0 0 0 0.139690897 0"/></filter></defs><g fill="none" fill-rule="nonzero"><path d="m.7.2v400h1200v-400z" fill="#e17000"/><path d="m970 83.2c-4.908797-.5649339-9.734035 1.5970723-12.579782 5.6365236s-3.25727 9.3108687-1.072874 13.7430074c2.184396 4.432139 6.615658 7.316772 11.552656 7.520469 7.257053.299421 13.450279-5.196622 14.015576-12.4378175.565298-7.2411952-4.699976-13.6317679-11.915576-14.4621825z" fill="#f0b880"/><path d="m972.5 53.2c-15.238853-1.1536386-30.039016 5.4200377-39.4 17.5-1.050545 1.3382137-1.525031 3.0396433-1.318629 4.7283879.206403 1.6887447 1.076705 3.2258113 2.418629 4.2716121 2.819603 2.1985472 6.885472 1.7070686 9.1-1.1 6.418546-8.3855501 16.520969-13.1169623 27.071958-12.6789967 10.550989.4379655 20.226538 5.9903502 25.928042 14.8789967 1.222123 1.8377003 3.293228 2.9297377 5.5 2.9 1.23887.0124625 2.45472-.3349237 3.5-1 2.95088-1.954541 3.79549-5.9108409 1.9-8.9-7.722576-11.900906-20.554318-19.5185973-34.7-20.6z" fill="#f0b880"/><path d="m974.6 25.5c-21.2-1.6-45.3 8-61.3 24.5-2.092828 2.6181852-1.851604 6.3984569.557035 8.7293974 2.408638 2.3309405 6.194786 2.4481251 8.742965.2706026 13.5-13.9 33.5-22 51-20.7s32.7 9.1 43 22.9c1.22755 1.636738 3.15408 2.6 5.2 2.6 1.37839.0160539 2.72028-.4430117 3.8-1.3 1.38821-1.0010025 2.31765-2.5163146 2.58072-4.2074441.26306-1.6911296-.16217-3.4171698-1.18072-4.7925559-12.7-16.9-30.3-26.3-52.4-28z" fill="#f0b880"/><g><use fill="#000" filter="url(#b)" xlink:href="#a"/><use fill="#e17000" fill-rule="evenodd" xlink:href="#a"/></g><g fill="#fbead9" transform="translate(27 55)"><path d="m464 79h-4.5l-10 26.2h3.2l2.3-6.8h9.6l1.2 6.8h3.4zm-2.5 2.4 2.7 14.4h-8.1l5.2-14.4zm23.5 4.2c-.98526-.2142497-1.991824-.3149062-3-.3-4.8 0-9.3 4.7-9.3 13.5 0 4.9 1.8 6.7 4.4 6.7s4.1-1.1 5.9-3.5h.1l-.3 3.5c-.4 3.5-2.2 4.9-5.3 4.9-1.830093.007867-3.650796-.261867-5.4-.8v2.8c1.843655.364773 3.720884.532382 5.6.5 4 0 7.4-2.1 7.8-7.5l1.8-20.2zm-1.7 13.4c-1.9 2.7-3.9 3.9-5.2 3.9s-2.4-1.1-2.4-4.3c0-7.2 3.1-10.9 6.1-10.9l2.5.2zm7.6-.7c0 5.1 2.1 7.2 6.1 7.2 2.0565.069576 4.094-.413899 5.9-1.4v-2.6c-1.53539.934966-3.302451 1.420041-5.1 1.4-2.6 0-4-1.1-4-5.5 6.4 0 10.5-3.1 10.5-7.6 0-2.8-1.8-4.5-5.1-4.5s-8.3 4.2-8.3 13zm10.4-8.1c0 2.8-2.6 5-7.3 5 .5-5.1 2.9-7.4 4.9-7.4.653737-.0627036 1.301302.1699315 1.765685.6343146.464383.464383.697019 1.1119489.634315 1.7656854zm16 15h2.8l1.3-13.3c.4-4.8-1.2-6.6-4-6.6s-3.7.9-6 3.2h-.1l.3-3-2.8.3-1.8 19.4h2.8l1.3-14c2.4-2.2 4.3-3.1 5.5-3.1s2.2 1 1.9 4.2zm23.5-28-2.9.4-.7 8c-.815159-.216653-1.656726-.3176411-2.5-.3-4.8 0-9.3 4.7-9.3 13.5 0 4.9 1.8 6.7 4.4 6.7s4.1-1.1 5.9-3.5h.1l-.3 3.2h2.7zm-4.8 21.8c-2 2.7-3.9 3.9-5.3 3.9s-2.4-1.1-2.4-4.3c0-7.2 3.2-10.9 6.1-10.9l2.6.2zm20-13.4c-.98526-.2142497-1.991824-.3149062-3-.3-4.8 0-9.3 4.7-9.3 13.5 0 4.9 1.8 6.7 4.4 6.7s4.2-1.1 5.9-3.5h.1l-.3 3.2h2.8l1.8-20zm-1.7 13.4c-1.9 2.7-3.8 3.9-5.2 3.9s-2.4-1.1-2.4-4.3c0-7.2 3.1-10.9 6.1-10.9l2.5.2zm23.1 6.2c7.9 0 13.2-5.1 13.2-14.8 0-7.1-4.7-11.4-11.7-11.4h-6.8l-2 26.2zm1-23.6c5.6 0 9 3.4 9 9.3 0 8-4 11.7-9.6 11.7h-4.5l1.6-21zm20.6 3.9-2.9.3-1.8 19.4h2.9zm-2.6-6c-.062473.4226007.071422.8505996.363597 1.162253.292175.3116535.710655.4728535 1.136403.437747.538853.0291925 1.0647-.1721296 1.446285-.553715.381585-.3815855.582907-.9074318.553715-1.446285.029961-.4328381-.128964-.8574457-.435759-1.1642408-.306795-.306795-.731403-.4657198-1.164241-.4357592-.521726-.0007231-1.020794.213123-1.380132.5913742-.359339.3782512-.547328.8876227-.519868 1.4086258zm18.6 6.1c-.98526-.2142497-1.991824-.3149062-3-.3-4.8 0-9.3 4.7-9.3 13.5 0 4.9 1.8 6.7 4.4 6.7s4.1-1.1 5.9-3.5h.1l-.3 3.5c-.4 3.5-2.2 4.9-5.3 4.9-1.830093.007867-3.650796-.261867-5.4-.8v2.8c1.844283.360373 3.721047.527941 5.6.5 4 0 7.4-2.1 7.9-7.5l1.8-20.2zm-1.7 13.4c-1.9 2.7-3.8 3.9-5.2 3.9s-2.4-1.1-2.4-4.3c0-7.2 3.1-10.9 6.1-10.9l2.5.2zm12.5-13.5-2.9.3-1.7 19.4h2.8zm-2.6-6c-.029961.4328381.128964.8574457.435759 1.1642408.306795.306795.731403.4657198 1.164241.4357592.521726.0007231 1.020794-.213123 1.380132-.5913742.359339-.3782512.547328-.8876227.519868-1.4086258.062473-.4226007-.071422-.8505996-.363597-1.162253-.292175-.3116535-.710655-.4728535-1.136403-.437747-.538853-.0291925-1.0647.1721296-1.446285.553715-.381585.3815855-.582907.9074318-.553715 1.446285zm6.5 8.4h2l-1.2 11.7c-.4 4.3 1 5.9 3.7 5.9 1.261774.061893 2.522445-.14254 3.7-.6v-2.5c-.893551.341387-1.843518.511024-2.8.5-1.3 0-2-.7-1.7-3.5l1.1-11.5h4l.3-2.2h-4.1l.5-4.7-2.8.5-.4 4.2h-2.3zm23.5-2.3c-.98526-.2142497-1.991824-.3149062-3-.3-4.8 0-9.3 4.7-9.3 13.5 0 4.9 1.8 6.7 4.4 6.7s4.2-1.1 5.9-3.5h.1l-.3 3.2h2.8l1.8-20zm-1.7 13.4c-1.9 2.7-3.8 3.9-5.2 3.9s-2.4-1.1-2.4-4.3c0-7.2 3.1-10.9 6.1-10.9l2.5.2zm13.3-21.8-2.9.4-2.5 27.6h2.8zm2.8 21.1c0 5.1 2.2 7.2 6.1 7.2 2.08869.072914 4.159272-.410222 6-1.4v-2.6c-1.576622.924065-3.372549 1.407584-5.2 1.4-2.5 0-4-1.1-4-5.5 6.5 0 10.5-3.1 10.5-7.6 0-2.8-1.8-4.5-5.1-4.5s-8.3 4.2-8.3 13zm10.5-8.1c0 2.8-2.7 5-7.4 5 .6-5.1 2.9-7.4 4.9-7.4.669922-.0957393 1.346629.1221645 1.834813.5908203.488183.4686557.733514 1.1359099.665187 1.8091797zm25.2-11.5c-6.9 0-12.1 5.6-12.1 16 0 7.4 3.7 10.8 9.2 10.8s12-5.4 12-15.4c0-7.1-3.8-11.4-9.1-11.4zm-.6 2.7c3.9 0 6.5 2.7 6.5 9.4s-4.1 12-8.3 12-6.5-2.3-6.5-8.7c0-8.3 3.9-12.7 8.3-12.7zm16.3 23.8h3.5l2.1-4.1c2.574175-4.8013283 4.299545-10.0112708 5.1-15.4h-2.9c-.679149 5.0897983-2.129089 10.0465675-4.3 14.7l-1.1 2.2h-.1l-2.6-16.9h-3.1zm12.3-6.9c0 5.1 2.1 7.2 6 7.2 2.089633.08271 4.162762-.401019 6-1.4v-2.6c-1.566455.948106-3.369272 1.43348-5.2 1.4-2.5 0-4-1.1-4-5.5 6.5 0 10.5-3.1 10.5-7.6 0-2.8-1.8-4.5-5-4.5s-8.3 4.2-8.3 13zm10.4-8.1c0 2.8-2.7 5-7.4 5 .6-5.1 2.9-7.4 4.9-7.4.669922-.0957393 1.346629.1221645 1.834813.5908203.488183.4686557.733514 1.1359099.665187 1.8091797zm15.9-4.6c-.402831-.2032864-.848824-.3062079-1.3-.3-1.6 0-2.7.6-4.6 3.8h-.1l.3-3.6-2.8.3-1.6 19.4h2.8l1.1-13c1.5-2.5 3.2-3.9 4.7-3.9h1.2l.3-2.8zm11.4 19.6h2.9l1.2-13.3c.5-4.8-1.2-6.6-4-6.6s-3.6.9-5.9 3.2h-.1l1.1-11.3-2.9.4-2.5 27.6h2.8l1.3-14c2.4-2.1 4.3-3.1 5.5-3.1s2.1 1 1.9 4.2zm8-6.9c0 5.1 2.2 7.2 6.1 7.2 2.08869.072914 4.159272-.410222 6-1.4v-2.6c-1.576622.924065-3.372549 1.407584-5.2 1.4-2.5 0-4-1.1-4-5.5 6.5 0 10.5-3.1 10.5-7.6 0-2.8-1.8-4.5-5.1-4.5s-8.3 4.2-8.3 13zm10.5-8.1c0 2.8-2.7 5-7.4 5 .6-5.1 2.9-7.4 4.9-7.4.669922-.0957393 1.346629.1221645 1.834813.5908203.488183.4686557.733514 1.1359099.665187 1.8091797zm10.3-4.7-2.9.3-1.7 19.4h2.8zm-2.6-6c-.062473.4226007.071422.8505996.363597 1.162253.292175.3116535.710655.4728535 1.136403.437747.538853.0291925 1.0647-.1721296 1.446285-.553715.381585-.3815855.582907-.9074318.553715-1.446285.029961-.4328381-.128964-.8574457-.435759-1.1642408-.306795-.306795-.731403-.4657198-1.164241-.4357592-.521726-.0007231-1.020794.213123-1.380132.5913742-.359339.3782512-.547328.8876227-.519868 1.4086258zm21.7-2.3-2.8.4-.8 8c-.815159-.216653-1.656726-.3176411-2.5-.3-4.8 0-9.3 4.7-9.3 13.5 0 4.9 1.8 6.7 4.4 6.7s4.1-1.1 5.9-3.5h.1l-.3 3.2h2.8zm-4.8 21.8c-1.9 2.7-3.8 3.9-5.2 3.9s-2.4-1.1-2.4-4.3c0-7.2 3.1-10.9 6.1-10.9l2.5.2z"/><path d="m474.6 56.6h15.1v-52.9h-8.9v42.8h-.4l-15.5-42.8h-15.2v52.9h9v-42.7h.3zm27.9 0h27.9v-8h-18.3v-44.9h-9.6zm63.3 0c17.4 0 28.2-8.8 28.2-28 0-15.9-10-24.9-27.9-24.9h-15.1v52.9zm-5.1-44.9h4.8c11.4 0 18.3 6 18.3 17.4 0 13.8-6.9 19.5-17.6 19.5h-5.5zm52.7-8h-9.7v52.9h9.7zm34.3 34.4h8.2v10.8c-2.027024.2021257-4.062925.302252-6.1.3-9.1 0-16.5-6.1-16.5-18.5s7.6-19.1 18.2-19.1c3.848071-.0252457 7.692489.2421921 11.5.8l.7-8.2c-3.923631-.72757474-7.909971-1.06256134-11.9-1-16.1 0-28.6 9.1-28.6 28.5 0 16.9 10.6 25.5 26.2 25.5 5.303159.0203629 10.595413-.4820663 15.8-1.5v-25.5h-17.5zm38.1-34.4h-9.7v52.9h9.7zm44.2 32.1c0-12.8-6.6-19-16.1-19-3.666991-.0650948-7.287089.8313106-10.5 2.6v-19.1l-5.3.4v55.5c3.799658.6355624 7.647729.9367158 11.5.9 11.9 0 20.4-7.7 20.4-21.3zm-5.7.6c0 10.9-6.1 15.9-13.8 15.9-2.376299.0257802-4.750768-.1414359-7.1-.5v-27.9c2.752864-1.410317 5.807057-2.1309694 8.9-2.1 7.4 0 12 4.3 12 14.6zm12.5.6c0 14.1 7.1 20.1 17.6 20.1 4.387807.1227134 8.741603-.8028968 12.7-2.7v-5c-3.805618 1.8242039-7.980031 2.7480493-12.2 2.7-7.4 0-12.9-4.8-12.8-15.5h25.4v-4.3c0-10.4-5.4-15.8-14.7-15.8s-16 7.1-16 20.5zm5.7-5c.8-6.8 5.2-10.8 10.1-10.8s9.2 3.4 9.2 10.8zm30.3-10.2h4.8v23.2c0 9.4 4.8 12.1 10.3 12.1 2.233021.038287 4.45876-.2652229 6.6-.9v-4.6c-1.772593.3971652-3.583458.5983724-5.4.6-3.6 0-6.2-2.3-6.2-7.4v-23h10.3v-4.5h-10.3v-7.8l-5.3.9v6.9h-4.8zm25.9 15.2c0 14.1 7.1 20.1 17.6 20.1 4.387807.1227134 8.741603-.8028968 12.7-2.7v-5c-3.802043 1.8345391-7.978911 2.7589279-12.2 2.7-7.4 0-12.9-4.8-12.7-15.5h25.3c.1-1.6.1-3 .1-4.3 0-10.4-5.4-15.8-14.8-15.8s-16 7.1-16 20.5zm5.7-5c.8-6.8 5.2-10.8 10.2-10.8s9.1 3.4 9.1 10.8zm52.2-14.6c-1.457367-.4434926-2.977347-.6461565-4.5-.6-2.9 0-5.4 1.4-8.5 4.8v-4.6l-5.2.5v39.1h5.3v-30.1c3-3.1 5.1-4.4 7.6-4.4 1.56029-.0057297 3.112042.2304064 4.6.7z"/><path d="m.6 267.4c8.60406531-1.616792 17.3457803-2.387134 26.1-2.3v79.8h23v-101h-12.8c-12.3018661.073882-24.5283963 1.926386-36.3 5.5z"/></g><path d="m1024.3 306.7h9.6v68.31h-9.6z" fill="#706f6f"/><path d="m1010 383c0 3.092795-2.50721 5.6-5.6 5.6s-5.6-2.507205-5.6-5.6 2.50721-5.6 5.6-5.6 5.6 2.507205 5.6 5.6" fill="#313131"/><path d="m1060.7 383c0 3.092795-2.50721 5.6-5.6 5.6s-5.6-2.507205-5.6-5.6 2.50721-5.6 5.6-5.6 5.6 2.507205 5.6 5.6" fill="#3c3c3b"/><path d="m1062.5 379.7h-66.7c0-2.595738 2.104262-4.7 4.7-4.7h57.3c2.59574 0 4.7 2.104262 4.7 4.7" fill="#706f6f"/><path d="m1060.6 312.8h-63c-2.927109 0-5.3-2.372891-5.3-5.3v-3.1c-.000505-2.943718 2.356787-5.345487 5.3-5.4h63c2.98234 0 5.4 2.417662 5.4 5.4v3.1c-.05451 2.943213-2.45628 5.300505-5.4 5.3" fill="#3c3c3b"/><path d="m1024.4 292.7h31.2c7.23493 0 13.1-5.86507 13.1-13.1v-43.2c0-15.850572-12.84943-28.7-28.7-28.7s-28.7 12.849428-28.7 28.7v43.2c0 7.23493 5.86507 13.1 13.1 13.1" fill="#3c3c3b"/><path d="m1024 287.7h24.3c5.6333 0 10.2-4.566696 10.2-10.2v-42.4c.55829-8.341707-3.5753-16.300096-10.72068-20.640514-7.14539-4.340418-16.11325-4.340418-23.25864 0-7.14538 4.340418-11.27897 12.298807-10.72068 20.640514v42.4c0 5.633304 4.5667 10.2 10.2 10.2" fill="#3c3c3b"/><path d="m1023.1 198.3h22.1v7.69h-22.1z" fill="#bacfed"/><path d="m1019.4 376.1-13.2-1.3c-3.94664 2.766802-7.720354 5.772414-11.3 9-2.219823 2.160274-3.325633 5.219682-3 8.3 0 0 11.3 2.9 16 0 3.70742-2.202973 7.54816-4.173437 11.5-5.9z" fill="#212121"/><path d="m1056.1 246.5c3.9-12.1 14.1-32.7 8.1-36.3-7.7-4.7-30-7.6-30-7.6v.4s-22.5 1.9-30.3 6.6c-5.9 3.6 4.4 25.2 8.3 37.3 1 2.9.9 15.9.5 27.4-.1 2.8-2.4 15.9-2 21.3.1 1.6 18.4 6 23.6 6.3s23.2-5.1 23.3-6.7c.4-5.4-1.9-18.5-2-21.3-.4-11.5-.5-24.5.5-27.4" fill="#f8bc95"/><path d="m1007.4 208.9c-4.3-1.7-8.6 2.8-11.6 10.8s-5.7 13.9-6.4 16-5.1 14.1-6 17.5c-1.048093 3.440183.68116 7.114844 4 8.5 2.8 1.1 8.2-2.6 11.4-7.9s20-40.3 8.6-44.9" fill="#45ac34"/><path d="m1043.5 199c-.5-2.3-1.8-13.6-1.8-13.6h-7.5v.4h-7.6s-1.2 11.3-1.7 13.6-6.8 5.8-6.8 5.8h16.1v-.4h16s-6.2-3.5-6.7-5.8" fill="#f8bc95"/><path d="m1043 195.8c-.5-3.5-1.1-8.4-1.2-9.9l-.5-.5h-7.1v.4h-7.6s-1.2 11.3-1.7 13.6-6.8 5.8-6.8 5.8h.8l15.2-4.1c2-.6 8.9-5.3 8.9-5.3" fill="#edb293"/><path d="m1012.2 278.9-11.2 19.4-.6 8.4h32.8l24.6-.8 4.6-7.6-6.4-19.4z" fill="#0068b3"/><path d="m999.2 300.1 3.3 77.3h20.5l1.9-77.3s-3-10.3-13.6-10.3c-9.1 0-12.1 10.3-12.1 10.3" fill="#0068b3"/><path d="m1011.3 289.8c-9.1 0-12.1 10.3-12.1 10.3l3.3 77.3h8.8z" fill="#0068b3"/><path d="m1058.2 210c4.1-1.9 9.4-2.3 12.9 5.8s7.3 18.4 8.1 20.5 5.1 13.6 6.2 17.1.4 7.4-2.9 8.9-8.4-2.4-11.9-7.7-23.4-39.5-12.4-44.6" fill="#45ac34"/><path d="m1065.9 210.5c-.8-1.8-6.3-3.1-11.3-4.6s-8.2-3.1-8.2-3.1l-12.2 6.9-12.1-6.9c-2.67974 1.140813-5.41674 2.142152-8.2 3-5 1.5-10.5 2.8-11.4 4.6s8 35.8 9 38.7-1.6 23.1.9 29.1l21.7.8h.1l21.7-.7c2-6.9-.1-26.7.9-29.6s10-36.5 9.1-38.2" fill="#d3e1f4"/><path d="m1033.2 205.6 1 4.2-7.4-2.8 4.3-2.1z" fill="#bacfed"/><path d="m1066.5 210.2c-.8-1.8-6.5-3.1-11.5-4.7-2.85916-.865351-5.66415-1.900523-8.4-3.1l-12.4 42.6-12.3-42.6s-4 1.7-8.4 3.1-10.7 2.8-11.5 4.6 8.1 36.4 9.1 39.4-1.6 23.5.9 29.7l22.1.7h.1l22.1-.6c2-7.1-.1-27.2 1-30.1s10.1-37.2 9.2-39" fill="#45ac34"/><path d="m1037.8 277c-2.2-1.4-5.3-2.7-7.3-3.9s0-5.3 0-7.4 5.8-6.1 9.8-7.6 10.9-.9 12.5-3.7-2.6-5.4-4.5-5.4-13.8-3.5-15.7-3.2-15.9 1.7-18.2-.1-12.4-35.6-12.4-35.6c2.5 10.9 8.4 37.5 9.1 39.4s-1.6 23.5.9 29.7l22.1.7h.1l22.1-.6s-4.9-.7-6.9-1.3-9.5.3-11.6-1" fill="#45ac34"/><path d="m1035.1 205.6-1 4.2 7.5-2.8-4.3-2.1z" fill="#bacfed"/><path d="m1018.8 203.4 4.3-5.1 10.1 7.3-3.6 6.9z" fill="#e2f2fd"/><path d="m1049.5 274.5s9.5 9.8 12 15.5 2.5 15.4-3.6 15.9-11.2.5-12.5-.3-11.7-18.5-11.5-20.7 11.5-12.2 15.6-10.4" fill="#0068b3"/><path d="m973.9 315.9 8.1 10.5c-.207268 4.797525-.741845 9.575302-1.6 14.3-.599496 3.028237-2.604592 5.590303-5.4 6.9 0 0-8.5-7.9-8.5-13.5-.166636-4.318523-.567224-8.624839-1.2-12.9z" fill="#212121"/><path d="m1049 292.5-67.3 38.4-10.9-17.4 64.5-42.8s10.3-2.9 16 6-2.3 15.8-2.3 15.8" fill="#0068b3"/><path d="m1061.4 290.9c-.3-.5-11.3-15.7-11.7-16.1-5.8-6.5-14.4-4.1-14.4-4.1l-64.5 42.8 5.9 9.3s42.9-40.9 60.9-47.8c6.9-2.8 23.8 15.9 23.8 15.9" fill="#0068b3"/><path d="m1049.5 203.4-4.3-5.1-10.1 7.3 3.7 6.9z" fill="#e2f2fd"/><path d="m1018.9 174.8c-.3 9.6 3.3 19.4 9.4 20.2s17.2-7.2 18.3-16.7-3.6-17.9-12.3-19.2-15.1 5.8-15.4 15.7" fill="#f8b999"/><path d="m1019.1 170.3s9.5-6.8 18 .8c1.8 1.6-.5 8.9 0 9.5s2.7-5.6 3-4.9c2.3 5.7.4 12.9 1.2 12.9s8.9-11.7 5.3-21.1c-.27239-.759536-.60685-1.495355-1-2.2-.5-.7-.9-1.4-1.4-2l-1.1-1.2c-.65024-.595658-1.35312-1.13118-2.1-1.6-.85587-.575603-1.75912-1.07741-2.7-1.5-.9659-.381156-1.97256-.649597-3-.8l-1.9-.3c-.86729-.081197-1.74151-.047573-2.6.1-.99308.332914-1.96204.733864-2.9 1.2l-1.4.9-1.1.7-1.4 1.2c-.9025.80338-1.70797 1.709532-2.4 2.7-.42381.527582-.7924 1.097227-1.1 1.7l-.4.9c-.49688.937847-.83479 1.951597-1 3" fill="#878787"/><path d="m1038.4 178.5c-.7 2.7-1 6.2.4 6.6s3.1-1.4 3.9-4.1.2-5.1-1.2-5.5-2.3.3-3.1 3" fill="#f8bc95"/><path d="m988.1 250.4c3.6-1.1 8.5.6 11.9 9.8s7 26.7 7 26.7l-8.5 3.8s-8.7-14.3-10.7-19.3-9-18.3.3-21" fill="#45ac34"/><path d="m999.3 289.1c.195284.990759.328874 1.992686.4 3 .230779 2.69263 1.16156 5.278129 2.7 7.5 1.5 2.1 5.4 5.9 6 5.7s.2-1.6.2-1.6 2.7 2.6 3.4 2.2.4-1.6.4-1.6 2.4 1.2 3.4.7-2-3.4-2-3.4 2.3 1.4 2.9.4-3.5-3.4-5-6.7c-.5-1.2-1.1-2.8-.7-3s3.8.4 4.7.1 1.6-1.7 1.4-1.8-1.6.1-4.5-.9c-.6-.3-3.3-3.1-6.9-2.6-2.18356.493791-4.32381 1.16262-6.4 2" fill="#f8b999"/><path d="m995 284.9 10.2-5.6 3.6 7.6-9.5 5.4z" fill="#45ac34"/><path d="m1086.1 256.6c-.2 3.7-2.4 6.6-12.8 6.5s-27-2.7-27-2.7l.2-8.7s13-3.6 18.7-3.8 21.4-.9 20.9 8.7" fill="#45ac34"/><path d="m1042.9 252.7c-5.53481.964928-9.79341 5.426313-10.5 11 .1.7 1.9 1.4 3.6.5s8.9-4.3 9-6.5-.5-5.3-2.1-5" fill="#f8b999"/><path d="m1041.4 254.9c-1.61638 1.008795-3.12437 2.181672-4.5 3.5l-1 .7-.6.9-.6.4-.6 1-.8.6c-.7.6-.3 1.1-.5 1.3l-.9 1.1c-.4.7.1 4.5.3 5s1 4.1 1.3 4.1 1.5-.9 1.3-2.8c-.12705-1.296896-.12705-2.603104 0-3.9.67478 1.098438 1.44439 2.135727 2.3 3.1.5.4 1 0 1.3-.4l-.2-2.1h1.4c.6-.8-.1-2-.2-2.5s1.2.4 1.4.1-1.8-4.1-.5-5 2.3-3.3 1.1-5.2" fill="#f8b999"/><path d="m1050.8 250.4.3 11.2-8.2.1v-10.5z" fill="#45ac34"/><g fill="#a17458" transform="translate(878 164)"><path d="m34.3 45.1c-3.9-12.1-14.1-33-8.2-36.6 7.8-4.8 30.1-7.7 30.1-7.7v.4s22.6 1.9 30.3 6.6c6 3.6-4.3 25.5-8.2 37.6-1 3-.9 16-.5 27.6.1 2.9 2.4 16.1 2.1 21.5-.2 1.6-18.4 11.7-23.5 12v-.4c-5.1-.3-23.4-10.3-23.5-11.9-.4-5.5 1.9-18.6 2-21.5.3-11.6.4-24.7-.6-27.6"/><path d="m31.5 7.4c4.2 2 4.8 9.5.7 17.1s-7.6 12.2-8.7 14.2-6.9 14-9 17-6.5 5.6-9.7 3.8-5.7-2.7-3.9-8.6 17.6-49.8 30.6-43.5"/></g><path d="m924.8 161.2c.5-2.3 1.8-13.8 1.8-13.8h7.6v.4h7.6s1.3 11.5 1.8 13.8 6.7 5.8 6.7 5.8h-16.1v-.4h-16.2s6.3-3.5 6.8-5.8" fill="#a17458"/><path d="m925.3 158c.5-3.5 1-8.5 1.2-10.1l.5-.5h7.2v.4h7.6s1.3 11.5 1.8 13.8 6.7 5.8 6.7 5.8h-.7l-15.4-4.1c-2-.6-8.9-5.3-8.9-5.3" fill="#956856"/><path d="m946.4 245.7c9.3 0 12.9 6.4 12.7 26.3s-3.2 41.3-4.5 44.4-14.4 3.1-15.7 1.3-4.5-42.9-4.6-49.3 2-22.6 12.1-22.7" fill="#f8bc95"/><path d="m945.8 332.2h2.5c1.777217-.052259 3.460784-.80878 4.679937-2.102958 1.219153-1.294177 1.873905-3.019873 1.820063-4.797042l-.2-8.2c-.052259-1.777217-.80878-3.460784-2.102958-4.679937-1.294177-1.219153-3.019873-1.873905-4.797042-1.820063h-2.4c-1.777217.052259-3.460784.80878-4.679937 2.102958-1.219153 1.294177-1.873905 3.019873-1.820063 4.797042l.2 8.2c.108904 3.661148 3.137666 6.556288 6.8 6.5" fill="#f8bc95"/><path d="m947.2 320.1c2.8 0 9.7.9 9.4 19.4s-8.2 43.8-8.2 43.8h-6.7s-3.3-34.2-3.3-40.8c-.1-14.9-.2-22.4 8.8-22.4" fill="#f8bc95"/><path d="m922 245.9c-9.3-1-13.5 5.1-15.3 24.8s-2.7 41.4-1.7 44.6 14 4.7 15.4 3 10.6-42.2 11.2-48.6.4-22.7-9.6-23.8" fill="#f8bc95"/><path d="m912.1 332-2.4-.3c-1.764159-.224396-3.366731-1.140953-4.454647-2.54774-1.087915-1.406787-1.57191-3.188377-1.345353-4.95226l1-8.2c.565621-3.616752 3.857258-6.162284 7.5-5.8l2.5.4c1.757607.223048 3.351737 1.143375 4.423765 2.553938 1.072029 1.410564 1.531927 3.192906 1.276235 4.946062l-1 8.2c-.516924 3.633447-3.860808 6.1748-7.5 5.7" fill="#f8bc95"/><path d="m912 319.8c-2.8-.3-9.8-.1-11.4 18.3s1.5 44.4 1.5 44.4l6.7.7s8.9-33.7 9.6-40.2c1.6-14.8 2.5-22.3-6.4-23.2" fill="#f8bc95"/><path d="m962.1 172.1c-4.3 1.5-6 8.8-3 16.8s6 13.2 6.8 15.3 5 14.8 6.6 18 5.7 6.5 9.1 5.2 6-1.9 5-8.1-10.7-51.7-24.5-47.2" fill="#f8bc95"/><path d="m956.5 241.8s3.3 16.3 3.8 25.1-3.7 47.7-3.7 52 .3 17.4 0 30.3-3.5 38.2-3.5 38.2l-16.5-.4s-.1-54.4-.1-62.9-2.2-53.6-2.2-53.6v-28z" fill="#333332"/><path d="m901.9 172.7c1.1-1.7 6.5-3.1 11.6-4.6 2.749488-.887394 5.424493-1.990833 8-3.3l2.8 1.5c6.173218 3.49405 13.726782 3.49405 19.9 0l2.3-1.4s4 1.7 8.5 3.1 10.6 2.8 11.5 4.6-8.1 36.5-9.1 39.4 1.6 23.6-.9 29.7l-22.1.8h-.1l-22.1-.7c-2-7.1 0-27.1-1-30.1s-11-36.1-9.3-39" fill="#6296d0"/><g transform="translate(897 241)"><path d="m15.4.3s-5 15.9-6.5 24.7-2.7 47.8-3.1 52-2.1 17.3-3.2 30.1-2.5 38.4-2.5 38.4l16.4 1.3s7.8-54.1 8.7-62.6 12.2-53.3 12.2-53.3v-29.4z" fill="#333332"/><path d="m54.3 146.4s5.7 6.5 5.4 8.3-2.6 4.5-6.9 4.8-8.6-2.8-9.4-2.9-2-10.6-2-10.6z" fill="#212121"/></g><path d="m899.4 386.7s-6.3 6-6.1 7.7 2 4.8 6.3 5.5 8.9-1.8 9.7-1.8 3-10.4 3-10.4z" fill="#212121"/><path d="m914.3 274.6c-.9 5.8-3.5 44.9-3.7 47.1s-7.8 62.5-8.1 65.2l-5.4-.4s1.4-25.5 2.5-38.4 2.7-25.8 3.2-30.1 1.7-43.3 3.1-52 6.5-24.7 6.5-24.7l13 .9s-10.2 26.5-11.1 32.4" fill="#212121"/><path d="m936.9 259.6c1.348873-2.443962 4.145201-3.708869 6.871299-3.108204 2.726098.600666 4.731871 2.923664 4.928701 5.708204.5 6.4.7 10.8.1 13.7-1.4 7.3-3.4 43.3-3.1 44.2s.1 66.9.1 66.9l-.3.2-8.9-.2s-.1-54.4-.1-63-2.2-53.5-2.2-53.5v-6z" fill="#212121"/><path d="m966.4 171.9s5.8 1.4 10.8 11.7 9.3 31.6 9.3 31.6c-2.594011 1.983471-5.548792 3.44388-8.7 4.3-5.8 1.8-8.2 1.3-8.2 1.3l-7.5-21.9s-2.8-26.3 4.3-27" fill="#6296d0"/><path d="m905.6 170.5s-5.9.8-11.9 10.5-14.4 30.2-14.4 30.2c2.370397 2.248512 5.155419 4.014624 8.2 5.2 5.5 2.3 8.2 2.3 8.2 2.3l11.4-20.9s5.5-25.8-1.5-27.3" fill="#6296d0"/><path d="m951.8 140.2c-1.8 9.6-7.5 18.6-13.7 18s-15.5-10.8-14.6-20.5 7.5-17 16.4-16.4 13.7 9 11.9 18.9" fill="#ab795b"/><path d="m949.4 129.4s-4.8-2.5-14.8 3.2c-2.2 1.2-1.5 8.9-2.1 9.4s-1.5-6.1-1.9-5.4c-3.6 5.1-3.3 12.6-4 12.5s-2.1-2.5-2.7-5.9c-.2-1.3-.4-2.7-.5-4.2-.064734-1.567219-.031335-3.136953.1-4.7.1-.9.2-1.9.4-2.9s1.5-1.7 1.5-3.9 3.9-5.2 7.4-6.1l3-1.1c2.608456-.465362 5.296942-.116208 7.7 1l1.5.7c.3.2.1.5.9.3s2.3.8 2.9 1.2.6 1.6 1.4 2.9 1.6 2.3 1.7 6.7" fill="#55210e"/><path d="m931.6 139.7c.2 2.7-.3 6.3-1.8 6.4s-2.8-2.1-2.9-4.9.9-5.1 2.4-5.2 2.1.9 2.3 3.7" fill="#ab795b"/><path d="m929.4 235.9c-3-5 5.4-13.1 9.1-14.5s10.7-.6 11.7-3.5c1.7-5.3-17.1-8.7-18.8-8.4s-14.9 1.6-17 0-12.5-33.1-12.5-33.1c2.3 10.5 8.8 34.9 9.4 36.7s-1.5 22.7.9 28.7l20.6.7 20.6-.6s-22-2.7-24-6" fill="#4288c8"/><g fill="#ab795b" transform="translate(878 207)"><path d="m108.2 13.8c-1.1-3.5-2.9-6.1-7.4-4.9s-14.3 6.9-14.3 6.9l1.9 5.8s10.4 2.3 12.9 1.9 9.9-.3 6.9-9.7"/><path d="m.6 12c-.5-3.7 1.1-7 11.5-8.8s34.8-2.8 34.8-2.8l.7 6s-19.7 8.3-25.2 9.5-20.7 5.8-21.8-3.9"/></g><path d="m920 214.2c2.304904 1.054708 4.676691 1.956655 7.1 2.7 1.8.2 8.1-.6 9.5-.5s7.5 4.7 7.7 3.2-4.4-8-4.4-8-6.6-5.1-9.4-5-7.9.9-7.9.9z" fill="#ab795b"/><path d="m974.7 221.9c-2.506451-.578-5.043936-1.012044-7.6-1.3-1.8.1-7.8 2.2-9.2 2.4s-9.7-.4-9.7 1.2 8.3 4.5 8.3 4.5c2.978605.71816 6.036521 1.054195 9.1 1l7.7-.7z" fill="#ab795b"/><path d="m946.8 222.3h47.1l-24.3-2.6-41.3-.1z" fill="#5b5a5a"/><path d="m946.8 222.3h48.3l5.5-36.3h-48.3z" fill="#d2d6d9"/><path d="m946.8 225.1-18.5-2.7v-2.8l18.5 2.7z" fill="#c4c8cd"/><path d="m946.8 222.3h48.2v2.79h-48.2z" fill="#767676"/><path d="m964.9 227.8s-5.2-1.5-5.4-2.4-5.6-3.9-5.8-4.5 2.4-1.1 4.4-.3c1.262595.535013 2.63075.774441 4 .7.7 0 3.8-1.2 6.2 0 1.647606.747248 2.704217 2.390866 2.7 4.2-.1.9-4.5 3.7-6.1 2.3" fill="#ab795b"/><path d="m1063.6 265.5h6.8v124.39h-6.8z" fill="#646363"/><path d="m1183.4 266.1h6.8v124.39h-6.8z" fill="#646363"/><path d="m1065 265.5h123.8v18.13h-123.8z" fill="#646363"/><path d="m1063.6 273.5h1v6.02h-1z" fill="#121212"/><path d="m1063.6 273.5v6h1.4v-6z" fill="#575756"/><path d="m1188.8 277.8 1.5-.1v-4.1h-1.5z" fill="#575756"/><path d="m1065 273.5v6l123.8-1.7v-4.2z" fill="#575756"/><path d="m1055.6 262.8h142.9v11.22h-142.9z" fill="#b2b2b2"/><path d="m1109.3 204.5-5.4 58.3 14.1.3 6.1-66.7z" fill="#f5bfd9"/><path d="m1128.5 176.5c3.1 2.5 1.8 8.1-2.8 12.8s-33.5 24.4-35.6 24.2-6.6-3.3-5.5-6.2 22.9-23 27.4-26.2 12.4-7.8 16.5-4.6" fill="#f5bfd9"/><path d="m1089.3 214.6c-3.9-.5-8-9.9-10.4-16.9s-7.1-28.4-7.1-28.4l6-1.7s15.7 35 16.4 37 1.7 10.8-4.9 10" fill="#f8b999"/><path d="m1147.4 249.1c.72909 3.618312.99788 7.314272.8 11-.7 9-31.2 11.7-32.2 11.5s-11-11-12-14.3c-.6-1.8 3.4-9 6-16.5 12.9 2.9 24.4 5.3 37.4 8.3" fill="#44195e"/><path d="m1088.5 375.9c1.1 2.3 1.6 8.1 1.4 9.7s-2.3 4-3.5 4.2c-3.1.5-5.9-.5-9.2-.6s-9.3 1.3-13.9 1c-1.9-.2-6.5-.9-6.2-2s6.6-2.7 9.9-4c4.86042-1.963494 9.54413-4.338804 14-7.1 0 0 7.3-1.6 7.5-1.2" fill="#f4a17f"/><path d="m1121.8 250.9c4.9 5.8 8.9 17.8-.1 29.9s-20.9 31.8-22.4 32.2-12.2-4-13.2-5.6 18.5-53.4 19.7-56.1c2.1-4.9 10.4-7 16-.4" fill="#44195e"/><path d="m1099.7 308.7c5.3 7.1 2.6 25.9 1.4 31.9s-12 34.6-12 36.9-7.9.9-8.1-.4 4.3-47.1 4.2-50.4.6-18.3.8-19.7c1.1-7.5 10.6-2.3 13.7 1.7" fill="#44195e"/><path d="m1130 177c-2.7-.2-2.5-3.3-2.4-5.9l.2-.3c.3-1.2.7-16.7.7-16.7l16.1-5.1s-1.8 15.7-1.1 18.6c-4.1 4.2-7.6 9.7-13.5 9.4" fill="#f4a17f"/><path d="m1114.6 227.6c1-7.6-1.9-17.7-2.8-18.8s-3.9-5.7-3.7-9.5c.2-5.5 6.2-12.8 6.6-14.7s-.1-4.7.9-5.8 10.6-6.2 12-7.7c1.4 2 11.8.7 15.9-3.5v.5c3.4 3 13.6 6.2 15.7 11.4s-11.4 20.7-12.2 42.5c-.2 6.6-.1 18.6.3 27.1-13.3-.6-24.4-4.6-37.4-8.3 2.25138-4.115951 3.80573-8.576268 4.6-13.2" fill="#92d2f4"/><path d="m1147.8 255.9c2.7 10.1-9.3 22-19.5 33.1-13.7 15-24.3 27.5-25.9 27.7s-10-5.1-10.8-6.9 18-38.7 24.9-51.3c10.4-19 26.9-19.5 31.3-2.6" fill="#542c6a"/><path d="m1068.3 376.8c.3 2.1 2.2 5.4 2.3 7s-1.2 3.8-2.3 4.1c-3 1.1-4.1 1-9.1 2.2-3.2.7-11.4 3.5-13.8 3.1s-7.5-1.6-7.3-2.7 6.8-1.9 9.8-3.8c5.24674-3.622622 9.98832-7.927034 14.1-12.8 0 0 6.2 2.5 6.3 2.9" fill="#f8bc95"/><path d="m1103.5 316.6c2.4 8.5-6.8 25.1-10.2 30.3s-23.6 27.9-24.4 30.1-7.7-2.1-7.4-3.3 20.9-42.4 22.1-45.5 7.1-16.9 7.8-18.2c3.7-6.6 10.7 1.8 12.1 6.6" fill="#542c6a"/><path d="m1089.9 381.4c.10116 1.398173.10116 2.801827 0 4.2-.3 1.9-2.3 4-3.5 4.2-3.1.5-5.7-.1-8.9-.2s-10.2.8-12.6.8-8.7-1.2-8.4-2.3 7.2-2.6 10.5-3.9c0 0 2.9 1.7 4.6 1.6s18.1-4.3 18.3-4.4" fill="#282727"/><path d="m1120.1 133.1c3.5-4.2 14.7-9 21.3-1.9s5 15.2 2.5 20.4c-1.79279 3.86056-4.7705 7.048463-8.5 9.1-.9.5-9.2 3.1-11 2.7s-3.1-8.9-3.4-8.8c-.69443.025038-1.31515-.430154-1.5-1.1-.2-1 .2-7.4-.1-8s-3.3-7.6.7-12.4" fill="#f8b999"/><path d="m1069.2 379.7c.68929 1.280233 1.16233 2.665555 1.4 4.1.1 1.9-1.2 3.8-2.3 4.1-3 1.1-4.1 1-9.1 2.2-3.2.7-11.4 3.5-13.8 3.1s-7.5-1.6-7.3-2.7 6.8-1.9 9.8-3.8l2.8 1.3z" fill="#3c3c3b"/><path d="m1117.1 138.7s10.9.8 13.6 1.2 8.5 25 9.2 26.3c7.3 11.2 11.7-2.7 10.8 0 0 0 3.6-4.3-1.7-29-3.3-8.3-12.8-11.2-19.1-10.4s-13.1 5.1-12.8 11.9" fill="#40245d"/><path d="m1109.3 204.5c3.12925 1.5846 6.51525 2.600397 10 3 14.1 2.3 16.6-5.6 19.8-8.7s6.6-17.7 6.6-17.7l12.6 5.4s-10.2 20.6-10.8 31.1c-.3 5.9-.1 31.5-.1 31.5s-11.7-.6-20.7-3.6c-3.2-1.1 2.5-8.6 2.3-14.9s-15-17.7-15.9-18.9-3.8-7.2-3.8-7.2" fill="#5bc5f2"/><path d="m1079 165.5s-1.6-5.8-2.6-6.8-5.9-9.2-6.4-8.1 3 8.2 2.8 8.3-4.1 2-5.2 3.3 4.4 8.7 4.4 8.7l5.8.6z" fill="#f8b999"/><path d="m1146.6 167.6c-4.47032 2.738141-7.33935 7.470174-7.7 12.7-.8 9.1 6.9 63 7.2 72.9s.5 15.2.5 15.2l11.7-5.3s-1.1-86.5-2.8-89.6-8.9-5.9-8.9-5.9" fill="#f5bfd9"/><path d="m1124.2 173.3-11.7 15.3 1.7-9.1s5.8-5.9 10-6.2" fill="#f5bfd9"/><path d="m1168.3 222.1c.9 1.9 15 38.1 15 38.1l-6.1 1.5s-11.4-17.5-14.9-24-7-16.2-4.5-19.4c4.2-5.4 9.6 1.9 10.5 3.8" fill="#f8b999"/><path d="m1150.5 172.8c3.7-1.7 8 2 10.3 8.2s6.9 40.8 5.8 42.6-6.7 3.2-8.7.9-9.7-29.4-10.6-34.9-1.5-14.5 3.2-16.8" fill="#f5bfd9"/><g transform="translate(1155 218)"><path d="m14.2 2.5c.5164135 1.794019-.5102855 3.66886066-2.3 4.2l-7 2.2c-1.794019.51641354-3.66886066-.51028547-4.2-2.3-.27820077-.83532103-.19994805-1.74836192.21633482-2.52416181.41628286-.77579988 1.13381508-1.34581275 1.98366518-1.57583819l7.1-2.2c1.7591494-.47101226 3.5855513.48567445 4.2 2.2" fill="#f5bfd9"/><path d="m20.6 41.2c1.6 2.5 3.3 6.3 6.7 6.7s5.9-1 8-1 3.3.5 3.5.2-1-2-1-2c1.568212-.1542924 3.1447318.1960454 4.5 1 1.5 1.3 2.5 2.3 3.3 1.9s-3.5-4.9-5-5.3-14.5-2.8-14.5-2.8z" fill="#f8b999"/></g><path d="m1139.5 151s.5-5.9 6.9-3.5 1 10.3-.4 13.9c1.8 5.4 7.9 8.9 7.3 9.5-3.4 3.8-23.2.9-25.2 1.2-4.9.7.7-10.8.8-9.1 6.7-1.4 13-5.9 13-5.9z" fill="#40245d"/><path d="m1059.7 122.6c-3.4648-.231608-6.48218 2.342039-6.8 5.8-.138 1.672055.39663 3.330091 1.4854 4.606573 1.08876 1.276482 2.64171 2.065958 4.3146 2.193427 3.4648.231608 6.48218-2.342039 6.8-5.8.138-1.672055-.39663-3.330091-1.4854-4.606573-1.08876-1.276482-2.64171-2.065958-4.3146-2.193427" fill="#87cac0"/><g fill="#87cac0" transform="translate(1032 95)"><path d="m28.8 13.7c-7.0738813-.5485197-13.9498362 2.4949357-18.3 8.1-.86945461 1.3023409-.59100074 3.0543392.6393863 4.0229418 1.230387.9686025 2.9987915.8279608 4.0606137-.3229418 3.1230382-4.0674216 8.0864539-6.285918 13.2-5.9 4.7176412.4073764 8.9902854 2.948863 11.6 6.9.5284979.8745094 1.478219 1.4063533 2.5 1.4.5700088-.0112489 1.1250112-.1846872 1.6-.5 1.3653684-.8942917 1.765268-2.7160564.9-4.1-3.5708408-5.5892236-9.5826428-9.1517729-16.2-9.6"/><path d="m29.8.7c-9.8-.7-21 3.8-28.5 11.5-.87083997 1.2154602-.71369919 2.8866318.36845322 3.9184515s2.75890892 1.1092479 3.93154678.1815485c6.3-6.4 15.6-10.2 23.8-9.6s15.2 4.2 20 10.7c.5665631.7554175 1.4557281 1.2 2.4 1.2.6515433.0155794 1.2881131-.1966105 1.8-.6.6365196-.4773897 1.0573267-1.1880831 1.1698485-1.9757359s-.0924588-1.5877445-.5698485-2.2242641c-5.9-7.9-14.1-12.3-24.4-13.1"/></g><path d="m219.3 308h1.5v5.9h-1.5z" fill="#453b43"/><path d="m237.5 308h1.5v5.9h-1.5z" fill="#453b43"/><path d="m177.3 310.5c-.81395-2.505758-1.383275-5.084465-1.7-7.7v.2c0 2.3 0 4.5.1 6.7.132765 1.535526.065536 3.081792-.2 4.6-.3 1.3-1.3 2.6-2.9 2.2s-2.9-2.9-1.7-4.2c.331371-.331371.331371-.868629 0-1.2s-.868629-.331371-1.2 0c-3.3 3.5 2.5 9.5 6.1 6.1 1.5-1.3 1.6-3.6 1.6-5.5v-1.2z" fill="#2e292d"/><path d="m187.7 310.6c.814216-2.53981 1.383478-5.151718 1.7-7.8v.3c.1 2.2.1 4.5.1 6.7-.16627 1.497802-.132642 3.011063.1 4.5.3 1.4 1.4 2.7 2.9 2.2s3-2.9 1.7-4.2.5-2 1.2-1.2c3.3 3.5-2.4 9.6-6.1 6.2-1.4-1.4-1.6-3.6-1.6-5.5z" fill="#2e292d"/><path d="m177.2 306.5c.068631-2.373306-.269588-4.740843-1-7-.4-1.1-1.1-1.7-2-1s-1.1-1.2-1.5-1-1.2 2.2-1.5 3.1c-.834983 2.499988-1.404783 5.080843-1.7 7.7-.259476 1.421013-.426494 2.857363-.5 4.3-.224942.819956-.078714 1.69732.4 2.4l.5.4c.125619.472223.460142.861156.908264 1.055992.448123.194836.960713.174213 1.391736-.055992.259409.333536.686941.489003 1.1.4.460262-.109929.877757-.353467 1.2-.7.3.1.6.3.9.2.59631-.176171 1.076763-.619666 1.3-1.2.385685-1.33018.521312-2.720357.4-4.1 0-1.5.1-3 .1-4.5" fill="#f6ae86"/><path d="m195.6 310.5c.099057-.291823.099057-.608177 0-.9-.123581-2.806377-.559607-5.590233-1.3-8.3-.2-.9-.5-2.9-1.2-3.3s-1.8.6-1.6.8-1.6-.3-2.1.8c-.781924 2.190168-1.25317 4.479078-1.4 6.8v1.2c-.1 1 0 2.1 0 3.2s0 2.2.1 3.3c-.117954.754137.101438 1.522011.6 2.1.396484.331229.960463.371513 1.4.1.247852.429337.704277.695585 1.2.7.356549.007365.706385-.097586 1-.3.417924-.016487.812779-.195966 1.1-.5.500085-.2032.8968-.599915 1.1-1.1.806655-.331969 1.324101-1.12804 1.3-2 .029594-.871394-.037482-1.743384-.2-2.6" fill="#f6ae86"/><path d="m200.1 193.5c-1.859156.276777-3.634539.959617-5.2 2-1.756565.937269-3.459233 1.972225-5.1 3.1-1.593531 1.257824-2.633867 3.087381-2.9 5.1-.114233.287416-.181752.591254-.2.9l-.3 1.7c-.616663 5.412656-.683672 10.873843-.2 16.3v1.4c.2 12.8.4 25.5.8 38.2.3 6.3.5 12.5.5 18.8.1 2.2.3 4.3.6 6.5s.7 7.2 1 10.8v.7c.1.8.1 1.7.2 2.5.049977.97266.82734 1.750023 1.8 1.8 1.004392-.144244 1.761986-.986015 1.8-2 .1-.4.1-.8.2-1.2.335274-.396306.544243-.883901.6-1.4 1-9.1 2.7-18 3.4-27.1.332865-4.726484.366265-9.469297.1-14.2-.2-4.4-1.1-8.8-.9-13.3.1-1.3.3-2.5.5-3.8s1-4 1.6-5.9c1.1-3.7 1.9-7.4 2.8-11.2s1.6-8.2 2.1-12.3c.5-5.7.9-12.9-3.2-17.4" fill="#f6ae86"/><g transform="translate(166 98)"><path d="m16.3 105.2v-.2c-.3404562-1.719901-1.2576731-3.272114-2.6-4.4-1.5724907-1.1265085-3.2085308-2.1615543-4.9-3.1-1.27873449-.8729745-2.70007918-1.5159637-4.2-1.9-1.3 4.1-2.9 8.1-3.8 12.3l-.3.8v1c.3 4.1.5 8.2 1.1 12.3s1.3 8.2 2.1 12.2c1.00464789 3.928759 1.60774153 7.949383 1.8 12 .1 4.4-1 8.9-1.4 13.3-.39986425 4.688832-.50006792 9.398404-.3 14.1.3 9.1 1.6 18.1 2.4 27.2-.01940368.513575.15964437 1.01491.5 1.4 0 .4.1.8.1 1.2s.8 2 1.7 2c.47757431.027271.94636226-.136675 1.30285017-.455638.35648793-.318963.57135273-.766706.59714983-1.244362l.3-2.6v-.6c.4-3.6.9-7.2 1.4-10.9.4200914-2.145014.6874295-4.317137.8-6.5.3-6.3.8-12.5 1.2-18.7.6-8.8 1.2-17.6 1.6-26.4-.6-10.9.6-21.9.6-32.8" fill="#f6ae86"/><path d="m38.8 21.6c.6-1.3.7-2.7-.4-3.7-.3070687-.2938752-.6866728-.500932-1.1-.6.1-.3.1-.6.2-.9.9945101-1.3594131 1.2210965-3.1343392.6-4.7-.3086967-.8523189-.7846932-1.6343133-1.4-2.3-.5453628-.33862-1.1133698-.63932958-1.7-.9v-1c0-.75729575-.2456226-1.4941634-.7-2.1-.704-1.19466667-1.856-2.05866667-3.2-2.4h-.3c-.5833425-.56911483-1.453663-.72735492-2.2-.4l-.6.2c-.3697694-.58914946-.8867789-1.07169168-1.5-1.4-1.0031027-.73469361-2.3554513-.77446857-3.4-.1h-.2c-1.9932916-.9401071-4.2247381-1.25390427-6.4-.9-2.1200262.11826168-4.1338839.96620175-5.7 2.4-.7514441.8078165-1.32993805 1.76063006-1.7 2.8l-.7.9c-1.03443657.31261096-1.92183401.98703301-2.5 1.9-.72079989 1.28058925-.86611249 2.8063715-.4 4.2-.49730506 1.0271032-.60393717 2.2000566-.3 3.3-1.03750057 1.2518674-1.44298804 2.9106798-1.1 4.5-.93887545 1.4489779-1.26268837 3.2119593-.9 4.9.11981651 1.0198751.57744424 1.9703327 1.3 2.7-.23421893 1.5546453.16173845 3.1384748 1.1 4.4.77534231.9625269 1.87970968 1.6037725 3.1 1.8.43757098 1.088102 1.3650949 1.9043231 2.5 2.2 1.1296697.3867273 2.3500924.4215966 3.5.1.6595834.4092235 1.4239839.6176963 2.2.6 1.1313128.2319414 2.3036825.1629784 3.4-.2 1.092137.8019443 2.477234 1.0935437 3.8.8 1.4497434-.3989235 2.7198125-1.280916 3.6-2.5.5744858.0750648 1.158621.0063431 1.7-.2l1.2-.5c1.2794368-.4534377 2.3003524-1.437892 2.8-2.7 2.0197304-.5391935 3.6792123-1.9774111 4.5-3.9.6347311-1.5307115.6704284-3.244181.1-4.8l.8-1.2" fill="#55210e"/></g><path d="m182.3 135.9c1.8 1.7 5.8 2.4 7.6-.1.8.1 1.6-.8 1.3-2.1v-1.1l-.3-2.4c-.087503-.325675-.12128-.663446-.1-1v-.6c.038471-.391066-.068315-.782613-.3-1.1v-.2l-.2-.5c-.4-1.8-2.2-1.5-2.5 0-.364544.219028-.618978.582506-.7 1v.3c-.1.4-.1.8-.2 1.2-.473717-.342481-1.132565-.254635-1.5.2h-.6l-.2-.2v-.5c-.6-1.2-2.1-.8-2.4.5-.099057.291823-.099057.608177 0 .9.082543.394367.11613.79741.1 1.2.011086.336291-.022541.672564-.1 1 .013649.568456-.019799 1.137065-.1 1.7-.152166.69497.076304 1.41846.6 1.9" fill="#f6ae86"/><path d="m181.8 130.1c.082543.394367.11613.79741.1 1.2v1s2.9 5.7 9.1.3c0-.3-.4-3-.4-3.4v-.6c.038471-.391066-.068315-.782613-.3-1.1v-.2l-3.5.8-2.6.6-2.4.5c-.099057.291823-.099057.608177 0 .9" fill="#f6af8c"/><path d="m175.4 108.1c.423116-.529031.973658-.941938 1.6-1.2 1.3-.6 3.4-.1 4.8-.4s5.6-1.6 7.6.3 1.5 4.4 1.9 6.8l.3 1.4h.1c.465235-.501763 1.115802-.790903 1.8-.8.586938-.028288 1.119875.340669 1.3.9.28176 1.834114-.397947 3.684429-1.8 4.9h-.1c.1832.820566.217074 1.667424.1 2.5-.3 2.9-2.1 5.1-4 7.2-1.613323 1.776059-4.117988 2.441361-6.4 1.7-2.6-.7-3.9-2.5-4.9-4.8-1.289998-2.387489-2.105027-5.002373-2.4-7.7-.2-3.3-2.4-8.1.1-10.8" fill="#f6af8c"/><path d="m160.7 179.2-1.5 1.4c-2.1 2.1-4.2 4.1-6.4 6s-5.2 5.8-6.3 3.2c-.4-.8-.2-.8.1-1.7 1.2-3.8 4-7.4 6.4-10.5 2.219832-3.070139 4.695319-5.947057 7.4-8.6 2.4-2.5 1.9-5.6 2.5-8.8.664396-4.389915 1.735677-8.708516 3.2-12.9.9-2.6 2.7-9.5 5.8-10.4 1.5-.5 2 3.3 1 4 .665619 2.543494.935449 5.174345.8 7.8.216536.32298.288989.72147.2 1.1-.606667 4.411707-1.818049 8.718841-3.6 12.8-1.1 2.8-2 5.7-3.1 8.4s-4 5.8-6.5 8.2" fill="#f6af8c"/><path d="m172.3 144c-.247598.882971-.247598 1.817029 0 2.7.416139 1.549015 1.374165 2.897348 2.7 3.8.651061.469561 1.54928.384016 2.1-.2 3.4.3 6.9.1 10.4.1 1.602603-.033322 3.205724.033474 4.8.2h.7l3.1.4h2.9c.663226-.307807 1.090981-.968882 1.1-1.7.126613-1.087245.361102-2.159192.7-3.2v-.7c.301697-1.259254.845091-2.447928 1.6-3.5l.4-.3c.050403-.465306.050403-.934694 0-1.4-.097964-.96806-.709218-1.808535-1.6-2.2l-.6-.2-1.5-.5-1.5-.5h-.1l-4-1.4c-1-.4-2.3-1.4-3.4-1.3-.52609.074725-1.034293.244126-1.5.5-1.2.7-1.9 1.7-3.4 1.6-.854055-.18493-1.667312-.523787-2.4-1-1.3-.7-2.5-.4-3.9 0-.953796.257822-1.922203.458182-2.9.6l-1.3.3c-.960537.160129-1.899853.428505-2.8.8.452234 2.20353.653516 4.451179.6 6.7z" fill="#f6af8c"/><path d="m215.2 215v.4l-.8-.4v-.3c-.2-.4-.6-1.3-.2-1.5s1.1 1.3 1 1.8" fill="#f6ae86"/><path d="m212 217.7c1.2.4 2.4 1.5 3.7.8s1.6-2.1 2.1-3.2c.561213-1.247618.524414-2.682783-.1-3.9l-1.5-2.9-.4-.7v-.3l-.3-.3c-.173934-.280259-.308527-.583092-.4-.9.083483-.2598-.018861-.543212-.249073-.689733-.230212-.14652-.530299-.119239-.730315.066393-.200016.185631-.249576.482853-.120612.72334h-1.1c-1.1.3-1.2 1.5-1.5 2.4s-.7 2.9 0 4.3c.374046.636986.846559 1.210752 1.4 1.7h-.1c-.09321.30385.029981.632361.3.8.317943.145533.654452.246485 1 .3h-.4l-.8-.2c-.5-.3-.9.3-.8.8s-.6.9.1 1.1" fill="#f6ae86"/><path d="m200.7 158.5c.5-2.8-.8-5-1.7-7.5s-.6-2.1-.8-3.2-.1-2.2-.1-3.3c.179112-2.385837.51315-4.757506 1-7.1l2.2.7.6.7c1.6 1.8 2.2 4.1 3 6.5 2.1 6.2 3 12.5 3.8 19s2.7 15.6 4.2 23.3c.9 4.4 1.4 9 1.9 13.5l.6 7.3c.1 1.3.3 2.8-.7 3.5s-2.2-1.2-2.7-2.7-1.7-5.7-2.5-8.6c-2.007066-6.644481-3.675876-13.386473-5-20.2-.352927-2.227621-.956768-4.408156-1.8-6.5-1.394858-4.007531-2.464978-8.120805-3.2-12.3.60251-.94308 1.010497-1.997047 1.2-3.1" fill="#f6af8c"/><path d="m169.1 312.9h8.1c.276142 0 .5-.223858.5-.5v-3.9c0-.276142-.223858-.5-.5-.5h-7.2l-.6.4-.8 3.9c-.030418.14886.0085.303474.105766.420195.097267.11672.242329.182881.394234.179805" fill="#2e292d"/><path d="m195.9 312.9h-7.6c-.331371 0-.6-.268629-.6-.6l.2-3.8c.049301-.291842.304052-.504135.6-.5h6.7c.295948-.004135.550699.208158.6.5l.6 3.8c.004135.295948-.208158.550699-.5.6" fill="#2e292d"/><path d="m176.1 298.4c-.7.9-2.7.4-3.5-.1-.396488-.123725-.826149.039941-1.039842.396095-.213692.356154-.15591.812287.139842 1.103905 1.5.8 4.4 1.3 5.6-.2s-.4-2-1.2-1.2" fill="#2e292d"/><path d="m193.2 298.8c-1.023427.832539-2.45289.951661-3.6.3-.9-.6-1.7.8-.8 1.4s4 .8 5.6-.5-.4-1.9-1.2-1.2" fill="#2e292d"/><path d="m203.8 200.6v-.4c-.726419-2.844843-1.696676-5.621786-2.9-8.3l-1.6-3v-.3c-.3-.7-1.2-3.6-1.7-3.9-.568511-.248408-1.179788-.384247-1.8-.4h-.4c-1.542674-.016072-3.083255.117892-4.6.4-4.2.6-8.5.1-12.8.6-.981998.060495-1.954441.228157-2.9.5-.385923-.678457-1.147518-1.051869-1.920212-.941484s-1.39927.682106-1.579788 1.441484l-.2.5c-.620256 1.406064-1.321431 2.775023-2.1 4.1-.875196 1.993495-1.545313 4.070857-2 6.2-.1.4-.3.9-.4 1.4-1.6 7.3-.6 14.7.4 22s1.5 12.7 2.2 19 .1 12.8-.4 19.2c-.3 3.1-.5 6.3-.6 9.4s.1 5 .1 7.5-.1 8.9 4.5 9.9c1.9.4 4 .3 5.4-1.3.97819-1.558172 1.498015-3.36023 1.5-5.2.5-5.5 1-11 1.3-16.5s.7-13.2 1.2-19.8-.1-12 .1-18c.1-2.9.2-5.9.2-8.9-.117339-2.375811.222127-4.752077 1-7v-.2h2c-.083107.562639-.11657 1.131497-.1 1.7v.3c-.9 11.5-1 23.1-.8 34.7.1 5.9.3 11.7.6 17.6s.7 11.4.7 17.1c0 1.7-.5 3.8.8 5.1s3.8 1.4 5.4 1h.4c.517968.481396 1.235761.684471 1.929158.545792.693398-.13868 1.27787-.602208 1.570842-1.245792 1.5-4.2.6-10.3.8-14.8 0-7.4.8-14.6.1-22s1.8-13.6 3.8-19.6c1.811736-5.749238 2.952645-11.688677 3.4-17.7.20257-3.577881.0013-7.167196-.6-10.7" fill="#55210e"/><path d="m183.4 205.4-.9-14.8h-2.5s1.4 11.4 3.4 14.8" fill="#65301f"/><path d="m203.8 200.6c-9.7.2-9.1-9-9.1-9l4.5-2.7 1.6 3c1.203324 2.678214 2.173581 5.455157 2.9 8.3z" fill="#65301f"/><path d="m175.4 193.1c-1.1 8.9-8.7 5.4-8.7 5.4s.3-1 .4-1.4c.454687-2.129143 1.124804-4.206505 2-6.2.778569-1.324977 1.479744-2.693936 2.1-4.1 2.6.7 4.7 2.5 4.2 6.3" fill="#65301f"/><path d="m200 180.2c-1.2-3.6-2.8-7.4-2.5-10.9s2.6-7.1 3.2-10.8c.258802-1.269708.154835-2.586632-.3-3.8 1.239811-.529621 2.414268-1.200739 3.5-2 1.509114-.889424 2.752247-2.167089 3.6-3.7-.8-3-1.2-6.2-2.6-9-.199311-.355899-.433818-.69091-.7-1-2.620068 1.14568-5.375674 1.952199-8.2 2.4-5.259194.817092-10.578391 1.185087-15.9 1.1-3.9 0-9.2-.1-12.3-2.9-1.207606 1.973253-2.309169 4.009475-3.3 6.1-.094628 1.806396.396384 3.595083 1.4 5.1.9 1.5 2.1 2.3 2.8 3.5s.2 2.8.3 3.6c.266088 1.382005.702762 2.725619 1.3 4 1.1 2.2 2.5 3.6 2.5 6.3s-1.1 5.4-1.9 8c-1.1 4.2-3 9.2-3 13.6.007297.278093.075571.55119.2.8l.2.5c1.3 2.1 3.9 2.7 6.1 3.3 7 1.8 14.8 3.8 21.9 1.6 2.5-.8 5.3-2.1 6-4.9s-1.1-6.4-1.7-8.8z" fill="#e41f13"/><path d="m168 281.2s3.6 3.8 13.1 1.8c.6 5.9-.7 5.9-.7 5.9l-12.4-2c-.52558-1.863653-.52558-3.836347 0-5.7" fill="#4c2a1b"/><path d="m198.3 282.8s-3.8 2.2-13.2.2c-.7 5.9.7 5.9.7 5.9l12.5-.4c.583437-1.855211.583437-3.844789 0-5.7" fill="#4c2a1b"/><path d="m168.7 154.3s16.6 4.8 31.7.4c-9.4 5.6-26.5 3.9-31.7-.4" fill="#b92226"/><path d="m218.2 295.5c-.680664.002017-1.247644-.521349-1.3-1.2l-3.9-81c0-.662742.537258-1.2 1.2-1.2.308639-.028177.614845.075152.843307.284575.228461.209422.357977.505505.356693.815425l4 81c.002017.680664-.521349 1.247644-1.2 1.3" fill="#453b43"/><path d="m236.4 310.5h-19.3l-2.4-60.8 11.3-.8h8c4.930555-.060864 9.03239 3.776337 9.3 8.7l2.2 43.6c.138737 2.489812-.761768 4.925585-2.486743 6.726383-1.724975 1.800799-4.119782 2.805187-6.613257 2.773617" fill="#4c8091"/><path d="m235.2 310.5h-3.9l-3.1-61.6 4.1-.1z" fill="#1c2b34"/><path d="m219.77289 269.894837h5.9v3.17h-5.9z" fill="#e1b951" transform="matrix(.99981571 -.01919744 .01919744 .99981571 -5.170673 4.32574)"/><path d="m219.826049 288.583767h5.9v3.17h-5.9z" fill="#e1b951" transform="matrix(.99981571 -.01919744 .01919744 .99981571 -5.529443 4.330205)"/><path d="m224.3 271.4.6 18.6h-3.6l-.5-18.6z" fill="#dd213b"/><path d="m223 313.9c0 .769128-.305535 1.506754-.84939 2.05061-.543856.543855-1.281482.84939-2.05061.84939-1.618575.000899-2.946048-1.282325-3-2.9.051939-1.634857 1.365143-2.948061 3-3 1.617675.053952 2.900899 1.381425 2.9 3" fill="#453b43"/><path d="m241.2 313.9c-.26299 1.422385-1.503507 2.454564-2.95 2.454564s-2.68701-1.032179-2.95-2.454564c-.21882-1.183491.29083-2.383191 1.294548-3.047331 1.003719-.66414 2.307185-.66414 3.310904 0 1.003718.66414 1.513368 1.86384 1.294548 3.047331" fill="#453b43"/><path d="m149.4 188.9c-.244688-.540741-.412967-1.11289-.5-1.7 0-.4 1.4-1.4-.1-1.4s-1.8 1.1-2.3 1.4c-2.043774 1.492249-3.747915 3.400887-5 5.6v.3l-.2.5c-.229151.770324-.039591 1.60439.5 2.2-.3.9-.2 1.7.7 2 .497102.163846 1.040811-.045273 1.3-.5.549269.198582 1.150731.198582 1.7 0 1.275609-.532767 2.259589-1.589635 2.7-2.9.811242-1.442695 1.289582-3.048549 1.4-4.7z" fill="#f6ae86"/><path d="m149.1 347.8h-38.3v-144.9c-.00021-7.196057 5.804153-13.045068 13-13.1h12.2c7.23493 0 13.1 5.86507 13.1 13.1z" fill="#5bc5f2"/><path d="m141.2 347.8h-22.6v-158.4c0-1.325483 1.074517-2.4 2.4-2.4h17.8c1.325483 0 2.4 1.074517 2.4 2.4z" fill="#92d2f4"/><path d="m302.5 347.8h-38.3v-144.9c0-7.23493 5.86507-13.1 13.1-13.1h12.1c3.474336 0 6.806372 1.380175 9.263099 3.836901 2.456726 2.456727 3.836901 5.788763 3.836901 9.263099z" fill="#5bc5f2"/><path d="m294.7 347.8h-22.6v-158.4c0-1.325483 1.074517-2.4 2.4-2.4h17.8c1.325483 0 2.4 1.074517 2.4 2.4z" fill="#92d2f4"/><path d="m165.9 205.7h-6.4c-1.007823 0-1.974368.400356-2.687006 1.112994s-1.112994 1.679183-1.112994 2.687006v103.9l12.9-1.1.7-3.4c.1-.2.1-.4.2-.5.295217-2.619157.865017-5.200012 1.7-7.7l.3-1c-.245937-.216475-.335019-.561029-.224823-.869579.110197-.30855.397394-.51872.724823-.530421h.1c-.3-3.6-.7-7.1-1.1-10.7l-3-.5c-.374722-1.298387-.476861-2.660244-.3-4l-12 9.6v-11.5l12.6-9.9v-3.2c.1-3.1.3-6.3.6-9.4v-.7l-13.2 9.6v-6.7l13.7-9.4c.266771-3.996873.233344-8.008128-.1-12-.7-6.3-1.3-12.7-2.2-19-.747105-4.899026-1.148098-9.844606-1.2-14.8" fill="#d9e6e7"/><path d="m204.4 207.3c.1 1.3 0 2.7 0 4-.447355 6.011323-1.588264 11.950762-3.4 17.7-.176805.349368-.311096.718668-.4 1.1l4.6-3.2v-17.4c-.006252-.803418-.288727-1.580226-.8-2.2" fill="#d9e6e7"/><path d="m185.9 208.5h-2v.2c-.777873 2.247923-1.117339 4.624189-1 7 0 3-.1 6-.2 8.9-.2 6 .3 11.9-.1 17.8l2.4-1.7c-.1-10.1.1-20.2.9-30.3v-.3c-.01657-.568503.016893-1.137361.1-1.7" fill="#d9e6e7"/><path d="m205.2 231.8-6.5 4.7c-1.202457 3.845127-1.677241 7.880791-1.4 11.9v.3l7.9-6.2z" fill="#d9e6e7"/><path d="m185 246.4-2.9 2.1c-.3 4.2-.5 8.4-.7 12.6l4-3.1c-.2-3.9-.3-7.8-.4-11.6" fill="#d9e6e7"/><path d="m205.2 252.8-7.7 6.1c0 1.1-.1 2.3-.1 3.4s-.1 5-.2 7.5v.6c-.2 3.9.5 8.9-.3 12.9.495688-.070235.971966-.240334 1.4-.5.583437 1.855211.583437 3.844789 0 5.7h-3.3c-.5 3.4-.9 6.7-1.3 10 .7 0 1.3.9.7 1.4l-.3.2c.106005.358413.173059.727211.2 1.1.601821 2.226382 1.003419 4.502105 1.2 6.8.2.1.2.2.3.4l.3 2 9.1-.5z" fill="#d9e6e7"/><path d="m185.9 268.3-5.3 4.2c-.2 2.2-.4 4.3-.7 6.5-.022788 1.520362-.363419 3.019137-1 4.4l2.2-.4c.6 5.9-.7 5.9-.7 5.9l-2.4-.4c-.4 3.2-.9 6.4-1.2 9.7.327429.011701.614626.221871.724823.530421.110196.30855.021114.653104-.224823.869579-.195712.280337-.476077.490611-.8.6v.3c.478936 1.963648.714042 3.978838.7 6v1.5c.276142 0 .5.223858.5.5v3.1l10-.6v-.4c.079537-.117335.114964-.25904.1-.4v-1.8c-.016231-.27055.017672-.54177.1-.8v-1.2c.172169-1.924778.506693-3.831562 1-5.7-.1-.1-.2-.1-.2-.2-.282201-.204129-.421292-.552758-.357106-.895082.064186-.342325.320125-.616886.657106-.704918v-.6c-.2-3.1-.6-6.3-.9-9.5h-2.4s-1.4 0-.7-5.9l1.2.2c-.099931-1.09773-.099931-2.20227 0-3.3 0-3.9-.2-7.7-.4-11.6" fill="#d9e6e7"/><path d="m205.2 310-9.1.5.3 1.8c.014964.14096-.020463.282665-.1.4.7 2.6-1.9 5.6-4.5 5.6-.903138.009142-1.770554-.352281-2.4-1-1.5-1.4-1.7-3.6-1.7-5.5v-.8l-10 .6v.8c-.044824.221455-.193786.407657-.4.5.057382 1.588698-.518072 3.135231-1.6 4.3-.635922.638132-1.499109.997793-2.4 1-2.6 0-5.2-2.9-4.6-5.5-.1-.1-.1-.2-.1-.4l-12.9 1.1v6.2c0 2.098682 1.701318 3.8 3.8 3.8h41.9c2.098682 0 3.8-1.701318 3.8-3.8z" fill="#d7e3e4"/><path d="m168.7 312.7c-.6 2.6 2 5.5 4.6 5.5.900891-.002207 1.764078-.361868 2.4-1 1.081928-1.164769 1.657382-2.711302 1.6-4.3h-.2c.021622.753209-.114632 1.502607-.4 2.2-.223237.580334-.70369 1.023829-1.3 1.2h-.2l-.7-.2c-.322243.346533-.739738.590071-1.2.7h-.2c-.349414.033883-.691007-.117936-.9-.4-.234669.159075-.51808.229928-.8.2-.689488-.077475-1.273063-.544336-1.5-1.2l-.5-.4c-.41288-.617489-.590312-1.362704-.5-2.1z" fill="#a8b0b2"/><path d="m187.8 310.2c.014964.14096-.020463.282665-.1.4v1.2c0 1.9.2 4.1 1.7 5.5.629446.647719 1.496862 1.009142 2.4 1 2.6 0 5.2-3 4.5-5.6l-.4.2h-.1v.2c.024101.87196-.493345 1.668031-1.3 2-.2032.500085-.599915.8968-1.1 1.1-.287221.304034-.682076.483513-1.1.5-.246059.219374-.571528.327864-.9.3h-.1c-.495723-.004415-.952148-.270663-1.2-.7l-.7.2-.7-.3c-.498562-.577989-.717954-1.345863-.6-2.1v-1.2c-.206214-.092343-.355176-.278545-.4-.5z" fill="#a8b0b2"/><g fill="#d9d7d0"><path d="m171.5 299.6-.3 1c-.834983 2.499988-1.404783 5.080843-1.7 7.7-.1.1-.1.3-.2.5v-.4l.6-.4h7.2v-1.5c.014042-2.021162-.221064-4.036352-.7-6 0 .4-.1.8-.1 1.2-.053129.954859-.843666 1.701477-1.8 1.7h-.1c-.9 0-1.5-.9-1.7-2s-.1-.8-.1-1.2l-1-.4-.2-.2"/><path d="m168.9 312.9c-.090312.737296.08712 1.482511.5 2.1l.5.4c.204437.67123.800265 1.147893 1.5 1.2.28192.029928.565331-.040925.8-.2.208993.282064.550586.433883.9.4h.2c.460262-.109929.877757-.353467 1.2-.7l.7.2h.2c.59631-.176171 1.076763-.619666 1.3-1.2.285368-.697393.421622-1.446791.4-2.2z"/><path d="m194.1 300.2-1.1.7c-.1.1-.1.2-.1.4-.038014 1.013985-.795608 1.855756-1.8 2h-.1c-.954859-.053129-1.701477-.843666-1.7-1.8v-.7h-.3c-.493307 1.868438-.827831 3.775222-1 5.7v1.2c0 .3-.1.5-.1.8.120197-.212906.357557-.331586.6-.3h7c-.196581-2.297895-.598179-4.573618-1.2-6.8-.026941-.372789-.093995-.741587-.2-1.1"/><path d="m195.8 312.9h-7.5c-.1 0-.2 0-.2-.1v1.2c-.117954.754137.101438 1.522011.6 2.1l.7.3.7-.2c.247852.429337.704277.695585 1.2.7h.1c.328472.027864.653941-.080626.9-.3.417924-.016487.812779-.195966 1.1-.5.500085-.2032.8968-.599915 1.1-1.1.806655-.331969 1.324101-1.12804 1.3-2v-.2"/><path d="m197.4 262.3c-.1 2.5-.2 5-.2 7.5.1-2.5.2-5 .2-7.5"/><path d="m195 288.6-6.8.2c.3 3.2.7 6.4.9 9.5v.6h.1l.4.2c.446294.2978.964285.470464 1.5.5.773695-.004026 1.519731-.28823 2.1-.8l.5-.2c.4-3.3.8-6.6 1.3-10"/><path d="m189.299998 300.8.000002.7c-.001477.956334.745141 1.746871 1.7 1.8h.1c1.004392-.144244 1.761986-.986015 1.8-2 0-.2 0-.3.1-.4-.643941.228894-1.317557.363617-2 .4-.6009-.013474-1.18749-.186-1.700002-.5"/><path d="m171 287.4c.4 3.6.8 7.1 1.1 10.7h.5c.674489.373819 1.429117.579626 2.2.6.6 0 1.1-.1 1.3-.5.156766-.158368.379567-.232635.6-.2h.1c.3-3.3.8-6.5 1.2-9.7z"/><path d="m172.7 300.2c0 .4.1.8.1 1.2s.8 2 1.7 2h.1c.956334.001477 1.746871-.745141 1.8-1.7 0-.4.1-.8.1-1.2v-.3c-.520463.28358-1.107694.421753-1.7.4-.716176-.026583-1.4242-.161445-2.1-.4"/></g><path d="m177.2 308h-7.2l-.6.4v.4l-.7 3.5c0 .2 0 .3.1.4l.2.2h8.4c.206214-.092343.355176-.278545.4-.5v-3.9c0-.276142-.223858-.5-.5-.5" fill="#a8b0b2"/><path d="m195.2 308h-6.7c-.242443-.031586-.479803.087094-.6.3v4c.044824.221455.193786.407657.4.5 0 .1.1.1.2.1h7.6l.4-.2c.079537-.117335.114964-.25904.1-.4l-.3-1.8-.3-2c-.1-.2-.1-.3-.3-.4h-.3" fill="#a8b0b2"/><path d="m176.7 298.2c-.220433-.032635-.443234.041632-.6.2-.2.4-.7.5-1.3.5-.770883-.020374-1.525511-.226181-2.2-.6h-.6c-.327429.011701-.614626.221871-.724823.530421-.110196.30855-.021114.653104.224823.869579l.2.2 1 .4c.6758.238555 1.383824.373417 2.1.4.592306.021753 1.179537-.11642 1.7-.4.323923-.109389.604288-.319663.8-.6.245937-.216475.335019-.561029.224823-.869579-.110197-.30855-.397394-.51872-.724823-.530421h-.1" fill="#a8b0b2"/><path d="m193.7 298.6-.5.2c-.580269.51177-1.326305.795974-2.1.8-.535715-.029536-1.053706-.2022-1.5-.5l-.4-.2h-.1c-.396338.044793-.715917.345108-.785234.7379-.069316.392792.128168.784353.485234.9621h.5c.520463.28358 1.107694.421753 1.7.4.677783-.001228 1.351686-.102313 2-.3l1.1-.7.3-.2c.6-.5 0-1.4-.7-1.4" fill="#a8b0b2"/><path d="m201.4 205.7h-35.5c.001887 4.957555.403185 9.906899 1.2 14.8.9 6.3 1.5 12.7 2.2 19 .333344 3.991872.366771 8.003127.1 12l13.1-9c.4-5.9-.1-11.8.1-17.8.1-2.9.2-5.9.2-8.9-.117339-2.375811.222127-4.752077 1-7v-.2h2c-.083107.562639-.11657 1.131497-.1 1.7v.3c-.8 10.1-1 20.2-.9 30.3l15.7-10.7c.088904-.381332.223195-.750632.4-1.1 1.811736-5.749238 2.952645-11.688677 3.4-17.7 0-1.3.1-2.7 0-4-.681235-.988419-1.799656-1.58491-3-1.6" fill="#b7b6af"/><path d="m198.7 236.5-13.7 9.9c.1 3.8.2 7.7.4 11.6l11.9-9.3v-.3c-.277241-4.019209.197543-8.054873 1.4-11.9" fill="#b7b6af"/><path d="m182.1 248.5-13.2 9.5v.7c-.3 3.1-.5 6.3-.6 9.4v3.2l13.1-10.2c.2-4.2.4-8.4.7-12.6" fill="#b7b6af"/><path d="m197.5 258.9-11.6 9.4c.2 3.9.4 7.7.4 11.6-.099931 1.09773-.099931 2.20227 0 3.3 2.006429.414924 4.05118.616047 6.1.6 1.515903.04219 3.030332-.12608 4.5-.5.8-4 .1-9 .3-12.9v-.6c0-2.5.1-5 .2-7.5s.1-2.3.1-3.4" fill="#b7b6af"/><path d="m180.6 272.5-11.6 9.3c2.091369 1.211719 4.48509 1.801476 6.9 1.7l3-.2c.612346-1.359016.984521-2.813879 1.1-4.3z" fill="#b7b6af"/><path d="m168.9 281.9-1.2 1c-.176861 1.339756-.074722 2.701613.3 4l3 .5 7 1.1 2.4.4s1.3 0 .7-5.9l-2.2.4-3 .2c-2.41491.101476-4.808631-.488281-6.9-1.7z" fill="#b2b1ac"/><path d="m198.3 282.8c-.428034.259666-.904312.429765-1.4.5-1.469668.37392-2.984097.54219-4.5.5-2.04882.016047-4.093571-.185076-6.1-.6l-1.2-.2c-.7 5.9.7 5.9.7 5.9h2.4l6.8-.2h3.3c.583437-1.855211.583437-3.844789 0-5.7" fill="#b2b1ac"/><path d="m249.1 205.7h-11.3l-22 15.9.5 9.8z" fill="#d9e6e7"/><path d="m231.7 205.7h-16.5v1.2l.2.3.3.3v.3l.4.7 1.5 2.9c.624414 1.217217.661213 2.652382.1 3.9-.1.1-.1.3-.2.4z" fill="#d9e6e7"/><path d="m211 205.7h-.5c-2.098682 0-3.8 1.701318-3.8 3.8v100.4l10.3-.4-2.3-59.8h.1l-.4-6.8-7.7 6.2v-10.2l7.3-5.7-.5-9.9-6.8 4.9v-4.7l6.6-4.7v-.5l-1.4-.6c-.6-.2-.5-1.1 0-1.1-.060882-.200391-.028838-.417515.087336-.591776s.304271-.287349.512664-.308224h.4c-.270019-.167639-.39321-.49615-.3-.8h.1c-.553441-.489248-1.025954-1.063014-1.4-1.7-.7-1.4-.3-2.8 0-4.3l.3-1.1-.6-2.2" fill="#d9e6e7"/><path d="m256.2 209.3-39.4 31.7.4 8.5 8.8-.6h8.2c4.853336.045594 8.836434 3.853611 9.1 8.7l2.2 43.6c.208112 2.964871-1.111737 5.830828-3.5 7.6l14.2-.3v-78.1h-14.3c-1.601626 0-2.9-1.298374-2.9-2.9-.000485-.760261.308201-1.488037.855135-2.01611.546933-.528074 1.285088-.811042 2.044865-.78389h14.3z" fill="#d9e6e7"/><path d="m256.2 308.3-14.2.3c-.885039.725447-1.904503 1.269161-3 1.6v.8c1.303007.360518 2.203889 1.548044 2.2 2.9-.26299 1.422385-1.503507 2.454564-2.95 2.454564s-2.68701-1.032179-2.95-2.454564c-.003889-1.351956.896993-2.539482 2.2-2.9v-.5h-16.6v.6c1.26896.326945 2.141442 1.490254 2.1 2.8 0 .769128-.305535 1.506754-.84939 2.05061-.543856.543855-1.281482.84939-2.05061.84939-1.618575.000899-2.946048-1.282325-3-2.9.042129-1.368513.977042-2.547316 2.3-2.9v-.5h-2.3v-1l-10.3.4v9.7c0 1.007823.400356 1.974368 1.112994 2.687006s1.679183 1.112994 2.687006 1.112994h41.9c2.098682 0 3.8-1.701318 3.8-3.8z" fill="#d7e3e4"/><path d="m220.9 310.5h-1.5v.5h1.5z" fill="#aeb6b9"/><path d="m239 310.2-1.5.3v.5h1.5z" fill="#aeb6b9"/><path d="m215.3 206.9c-.016322.502076.017175 1.004534.1 1.5.1 1.3.3 2.8-.7 3.5l-.3.2c.568154.05186 1.002362.529489 1 1.1l.2 3.9 2-1.4c.1-.1.1-.3.2-.4.561213-1.247618.524414-2.682783-.1-3.9l-1.5-2.9-.4-.7v-.3l-.3-.3c-.073125-.08202-.109288-.190509-.1-.3" fill="#d9d7d0"/><path d="m211.6 207.9-.3 1.1c-.3 1.5-.7 2.9 0 4.3.374046.636986.846559 1.210752 1.4 1.7h-.1c-.09321.30385.029981.632361.3.8h.2v-2.6c-.003588-.472505.270446-.903131.7-1.1-.9-.2-1.3-1.9-1.7-3-.087503-.44613-.221571-.881848-.4-1.3" fill="#d9d7d0"/><path d="m212.5 215.7c-.208393.020875-.39649.133963-.512664.308224s-.148218.391385-.087336.591776c-.5 0-.6.9.1 1.1l1.3.6-.2-2.3-.4-.2h-.2" fill="#d9d7d0"/><path d="m215.2 205.7h-4.2l.6 2.2c.178429.418152.312497.85387.4 1.3.4 1.1.8 2.8 1.7 3h.7l.3-.2c1-.7.8-2.2.7-3.5s-.1-1-.2-1.5v-1.2" fill="#d9d7d0"/><path d="m214.2 212.1h-.5c-.429554.196869-.703588.627495-.7 1.1v2.6l.2 2.3v.5l2.3-1.7-.2-3.9c.002362-.570511-.431846-1.04814-1-1.1h-.2" fill="#aeb6b9"/><path d="m215.8 221.6-2.3 1.7.4 9.9 2.4-1.8z" fill="#aeb6b9"/><path d="m216.7 241-2.3 1.9.3 6.8 2.4-.2z" fill="#aeb6b9"/><path d="m234.2 248.7h-1.9l3 61.8h-4l-3-61.7h-2.3l-8.8.6-2.4.2h-.1l2.3 59.8v1.1h20.4l1.5-.3c3.98871-1.256444 6.648244-5.020708 6.5-9.2l-2.2-43.6c-.263566-4.846389-4.246664-8.654406-9.1-8.7" fill="#b6cacf"/><path d="m219.7 273.2-.1-3.2 5.9-.1.1 3.2h-1.3l.5 15.3 1.1-.1.1 3.2-5.9.1v-3.1l1.2-.1-.4-15.2z" fill="#b6cacf"/><path d="m232.3 248.8-4 .1 3 61.6h3.9z" fill="#a0aeb4"/><path d="m225.5 269.9-5.9.1.1 3.2h1.2l-.1-1.8h3.5v1.7h1.3z" fill="#d6d8c6"/><path d="m225.9 288.3-1.1.1.1 1.6h-3.6v-1.6l-1.2.1v3.1l5.9-.1z" fill="#d6d8c6"/><path d="m224.3 271.4h-3.5l.1 1.8.4 15.2v1.6h3.6l-.1-1.6-.5-15.3z" fill="#d6c2bc"/><path d="m220.1 310.9h-.7c-1.322958.352684-2.257871 1.531487-2.3 2.9.053952 1.617675 1.381425 2.900899 3 2.9.769128 0 1.506754-.305535 2.05061-.84939.543855-.543856.84939-1.281482.84939-2.05061.031044-1.339488-.891196-2.513249-2.2-2.8l-.7-.2" fill="#aeb6b9"/><path d="m238.3 310.9h-.8c-1.303007.360518-2.203889 1.548044-2.2 2.9.26299 1.422385 1.503507 2.454564 2.95 2.454564s2.68701-1.032179 2.95-2.454564c-.040228-1.314695-.932149-2.449866-2.2-2.8h-.7" fill="#aeb6b9"/><path d="m171.4 230.4h-22.3v-5.7h22.3c.759777-.027152 1.497932.255816 2.044865.78389.546934.528073.85562 1.255849.855135 2.01611 0 1.601626-1.298374 2.9-2.9 2.9" fill="#19303b"/><path d="m171.4 304.7h-22.3v-5.7h22.3c1.145538-.215518 2.308783.275778 2.953016 1.247204.644232.971426.644232 2.234166 0 3.205592-.644233.971426-1.807478 1.462722-2.953016 1.247204" fill="#19303b"/><path d="m241.8 230.4h22.4v-5.7h-22.4c-1.546397 0-2.8 1.253603-2.8 2.8-.00093 1.563372 1.237557 2.846091 2.8 2.9" fill="#19303b"/><path d="m241.8 304.7h22.4v-5.7h-22.4c-1.370802.257899-2.36381 1.455148-2.36381 2.85s.993008 2.592101 2.36381 2.85" fill="#19303b"/><path d="m205.2 226.9-4.6 3.2c-.6 2-1.3 4.2-1.9 6.4l6.5-4.7z" fill="#e4f1f2"/><path d="m184.9 240.8-2.4 1.7v.2c-.2 1.9-.3 3.9-.4 5.8l2.9-2.1v-1.2c0-1.4 0-2.9-.1-4.4" fill="#e4f1f2"/><path d="m169.4 251.5-13.7 9.4v6.7l13.2-9.6c.2-2.2.4-4.3.5-6.5" fill="#e4f1f2"/><path d="m200.6 230.1-15.7 10.7c.1 1.5.1 3 .1 4.4v1.2l13.7-9.9c.6-2.2 1.3-4.4 1.9-6.4" fill="#dde7e7"/><path d="m182.5 242.5-13.1 9c-.1 2.2-.3 4.3-.5 6.5l13.2-9.5c.1-1.9.3-3.9.4-5.8z" fill="#dde7e7"/><path d="m237.8 205.7h-6.1l-14.1 10c-.317 1.112786-.983045 2.094327-1.9 2.8v3.1z" fill="#e4f1f2"/><path d="m213.2 218.8-6.5 4.7v4.7l6.8-4.9z" fill="#e4f1f2"/><path d="m217.6 215.7-2 1.4v1.4c.916955-.705673 1.583-1.687214 1.9-2.8" fill="#e4eeef"/><path d="m213.2 218.8.2 4.5 2.4-1.7-.2-3.1v-1.4z" fill="#dbe6e8"/><path d="m205.2 242.5-7.9 6.2c.26659 3.393138.333372 6.799019.2 10.2l7.7-6.1z" fill="#e4f1f2"/><path d="m185.4 258-4 3.1c-.083001.461786-.116524.931105-.1 1.4-.2 3.3-.4 6.7-.7 10l5.3-4.2-.3-5.5c-.1-1.6-.1-3.2-.2-4.8" fill="#e4f1f2"/><path d="m168.3 271.3-12.6 9.9v11.3l12-9.6c.002673-.579597.104126-1.154497.3-1.7l.9.7h.1c-.599179-2.008397-.802945-4.113979-.6-6.2 0-1.4 0-2.9-.1-4.3" fill="#e4f1f2"/><path d="m197.3 248.7-11.9 9.3c.1 1.6.1 3.2.2 4.8l.3 5.5 11.6-9.4c.133372-3.400981.06659-6.806862-.2-10.2" fill="#dde7e7"/><path d="m181.4 261.1-13.1 10.2c.1 1.4.1 2.9.1 4.3-.202945 2.086021.000821 4.191603.6 6.2l11.6-9.3c.3-3.3.5-6.7.7-10-.016524-.468895.016999-.938214.1-1.4" fill="#dde7e7"/><path d="m168 281.2c-.195874.545503-.297327 1.120403-.3 1.7l1.2-1z" fill="#dbe5e5"/><path d="m252.4 205.7h-3.3l-32.8 25.7.5 9.6 39.4-31.7c-.106472-2.020193-1.777005-3.602804-3.8-3.6" fill="#e4f1f2"/><path d="m213.9 233.2-7.2 5.7v10.2l7.7-6.2z" fill="#e4f1f2"/><path d="m213.9 233.2.5 9.7 2.3-1.9-.4-9.6z" fill="#dbe6e8"/><path d="m455.9 347.8h-38.3v-144.9c0-7.23493 5.86507-13.1 13.1-13.1h12.2c7.195847.054932 13.00021 5.903943 13 13.1z" fill="#5bc5f2"/><path d="m354.4 313.4-.2-.2c-.15011-.487274-.553262-.854412-1.052416-.958403-.499155-.10399-1.015377.071611-1.347584.458403-.784156-.269351-1.64097-.23365-2.4.1-2.4 1.2-3.8 4.5-4.7 6.9s-1.8 7.8-2.7 11.6c-.4 1.3-.7 2.9 0 4.1.731957 1.302416 2.267729 1.925026 3.7 1.5 2.073515-.514405 3.82354-1.899841 4.8-3.8 1.269844-2.057963 2.405538-4.19574 3.4-6.4.404153-.896591.706055-1.835842.9-2.8.59256-.967268 1.126844-1.96905 1.6-3 1.1-2.6-.5-5.4-2-7.5" fill="#55210e"/><path d="m368.5 313.4.2-.2c.15011-.487274.553262-.854412 1.052416-.958403.499155-.10399 1.015377.071611 1.347584.458403.751081-.263133 1.574592-.227329 2.3.1 2.5 1.2 3.9 4.5 4.8 6.9s1.8 7.8 2.7 11.6c.3 1.3.7 2.9 0 4.1-.731957 1.302416-2.267729 1.925026-3.7 1.5-2.073515-.514405-3.82354-1.899841-4.8-3.8-1.269844-2.057963-2.405538-4.19574-3.4-6.4-.404153-.896591-.706055-1.835842-.9-2.8-.59256-.967268-1.126844-1.96905-1.6-3-1.1-2.6.5-5.4 2-7.5" fill="#55210e"/><path d="m379.3 254.2c.7-9.6 1.4-19.1 1-28.8-.1-2.1 0-4.3 0-6.5.171498-2.6732.037296-5.35724-.4-8l-4.8.7-4.7.9c-3.3.5-6.6.9-10 1.1-6.659719.470826-13.351346-.171299-19.8-1.9l-.2.6c-.7 2.5 0 5.1 0 7.6s-.3 7.1-.5 10.7.2 10.1.3 15.2c.1 8.6 1.8 14.5 2.8 23.1s-.3 18.3-.1 26.2c.1 4.1.2 8.1.5 12.2s-.6 6.7 2.3 8.9c1.785822 1.123158 3.909451 1.583278 6 1.3 2.6-.3 6.7-1.1 7.6-4 .280357-1.111165.414821-2.254108.4-3.4.8-13.5-.9-27.3-1.4-40.8 1.6-17.7-.2-26.4 0-40.7 0 .3 2.7.3 3 .3 1.5 4.2.7 10.1.9 14.5 0 8.7 1.5 16.8 2.2 25.3.216868 2.805734.082495 5.627569-.4 8.4-.529841 2.705769-.864039 5.446197-1 8.2 0 2.8.1 5.6.2 8.4.2 4.8.5 9.6.7 14.4s2.7 12.7 10 10.9c4.7-1.2 5.3-5.5 5.4-9.6.4-13.4 2.2-27.9-1.1-41 .198525-.987684.299012-1.992562.3-3 .2-3.7.5-7.4.8-11.1" fill="#1c2b34"/><path d="m349.6 209.3-3.5 4.7s-1.6 4.6-5.7 5.8c.1002-1.865322.1002-3.734678 0-5.6-.1-1.6-.2-3.4 1.4-4.4s3.1-.8 5.8-.6h2" fill="#202529"/><path d="m380.3 218.9c-4.3-1.1-5.9-5.9-5.9-5.9l-1.6-2.1 1.4-.3v-.2c-.027574-.46793.139285-.926481.461134-1.267263.321849-.340781.770125-.533549 1.238866-.532737v-.5c.909578.026148 1.800244.265942 2.6.7.521585.302854.939773.755892 1.2 1.3.520558 2.902481.688441 5.857235.5 8.8" fill="#202529"/><path d="m355.5 215.8 2.7 8.2v-10.3z" fill="#202529"/><path d="m343.8 215.3s13.7 4.7 32.7.4l-2.6-1.7c-9.610698.933927-19.289302.933927-28.9 0-.210673.575996-.642671 1.043994-1.2 1.3" fill="#202529"/><path d="m373.5 111.6c.4-3.8-2-7.3-5.1-9.3-1.775961-1.118629-3.805007-1.77205-5.9-1.9-1.976971.148357-3.926465.551701-5.8 1.2l-1 .2h-2.8c-2.257462.073919-4.402375 1.003381-6 2.6-1.72374 2.051856-2.455448 4.759174-2 7.4-.255119 2.786599.263945 5.589544 1.5 8.1.272226 2.352839.808952 4.667468 1.6 6.9h.3c3.6 2.2 7.6 3.5 11.9 2.7 2.3-.5 4.6-1.4 6.8-1.9l.2-.4c4-.4 5.6-4.5 6.1-8.2 1.013668-2.419412 1.085015-5.130623.2-7.6" fill="#754130"/><path d="m368.1 149.8c-.081002-.760548-.48077-1.451057-1.1-1.9v-.5c-.504947-1.333738-.90614-2.70448-1.2-4.1v-.4c-.270542-1.62106-.437547-3.257707-.5-4.9-.3-.1-.8 0-.8.4v.7c-.79639-.350918-1.70361-.350918-2.5 0-1.06106.351015-2.127874.684394-3.2 1-.444346-.558021-1.09146-.917528-1.8-1-.940106-.812712-2.265723-1.007655-3.4-.5.013286.535227-.020174 1.070592-.1 1.6-.1.7-.3 1.4-.4 2.2-.399282 1.588404-1.040081 3.106087-1.9 4.5-.123544.354014-.191024.725155-.2 1.1-.655543.656266-.852706 1.642084-.5 2.5v.6c-.1 4.5 1.1 11.4 6.4 12.5s8.7-3.9 11.9-7.1c.90313-.909181 1.375786-2.16029 1.299414-3.439517-.076371-1.279227-.694526-2.465213-1.699414-3.260483" fill="#f6af8c"/><path d="m365.7 143.3c-2.150246.591884-4.369786.894549-6.6.9-2.15954-.214835-4.261159-.824982-6.2-1.8.1-.8.3-1.5.4-2.2.079826-.529408.113286-1.064773.1-1.6 1.134277-.507655 2.459894-.312712 3.4.5.70854.082472 1.355654.441979 1.8 1 1.072126-.315606 2.13894-.648985 3.2-1 .79639-.350918 1.70361-.350918 2.5 0v-.7c0-.4.5-.5.8-.4.062453 1.642293.229458 3.27894.5 4.9z" fill="#f6af8c"/><path d="m367.7 134.8c.684915-1.63242 1.155497-3.346682 1.4-5.1.082825-.495466.116322-.997924.1-1.5.2-3.1.5-6.2.5-9.3s0-5.3-2.4-6.7c-1.768263-.864175-3.775181-1.110639-5.7-.7-3 .3-6.3-.9-9.2.4s-4 4.4-3.8 7.6c.018123 1.545858.185567 3.086349.5 4.6.2 1.7-.1 3.3 0 5s2.3 8.5 3.8 10.3 5.1 2.7 8.1 2.6 4.4-2.1 5.5-4.3c.452962-.943892.85357-1.912026 1.2-2.9" fill="#f6af8c"/><path d="m350.5 128.8v-1.5c-.065139-.839748-.303476-1.656906-.7-2.4.4 0 .8-.4.5-.8s-1.3-2.1-2.4-1.6-.8 2.1-.7 3 .7 4.6 3 4.4c.242723-.047157.431661-.238383.475892-.481656.044232-.243273-.065303-.488767-.275892-.618344" fill="#f6ae86"/><path d="m370.3 123.1-.7-.3c-.7-.1-1.1.8-1.3 1.5-.107855.333326.013721.698052.3.9l-.5 2.5c-.107855.333326.013721.698052.3.9h.1l-.4.7c-.4.6.4 1.4.8.9.927238-1.172766 1.57682-2.540307 1.9-4v-.2c.2-.9.3-2.6-.6-3" fill="#f6ae86"/><path d="m379.9 210.9-1.9 1.9-.4.4c-2.6 2.2-6.1 2.9-9.4 3.2-2.125923.217879-4.264621.284713-6.4.2h-2.4c-6.011235-.37838-11.921306-1.729253-17.5-4l-.6-.2-.9-.5c0-5 .6-10 .8-15 .3-7-.6-14-1.5-20.9l-.2-.7c.393115-.910891.72714-1.846161 1-2.8-.127229-.211614-.196229-.453112-.2-.7 0-3.1-.3-6.2-.6-9.2-.551696-2.935798-.852781-5.913188-.9-8.9.027027-.465342.243943-.899173.6-1.2-.255874-.465707-.425275-.97391-.5-1.5-.4-3.2 5.8-4.4 11.9-4.9.231343.422454.49902.82397.8 1.2h.5l.2.7c.3.7 2.5 2.1 3 3 .968339 1.636932 1.740333 3.382309 2.3 5.2.2.8 1.9 5.5 1.5 6.2v-.2c1.7-2.4 1.1-7 2.2-9.9.2-.5 0-.8.2-1.3.337495-.546951.740474-1.050674 1.2-1.5.5-.3 2.3-.5 2.5-.8.562468-.775947 1.032322-1.614971 1.4-2.5 5.2.5 12.4 1.7 11.4 4.6-1.160945 3.169974-1.736946 6.524328-1.7 9.9.562302.251097.944843.786656 1 1.4.2 1.6 1.1 3 1.3 4.6-.023417 1.552447-.363706 3.083748-1 4.5-.156047.408496-.435722.758089-.8 1-.2 13.4 1.1 25.5 3 38.8" fill="#c18f00"/><path d="m351.6 143.8 4.3 7.5-4.9 3.6-1.2-8.9z" fill="#d5ae55"/><path d="m366.7 143.9-5.5 6.6 4.3 4.5 2.4-8.7z" fill="#d5ae55"/><path d="m330.8 232.8c-.348466-.247267-.652733-.551534-.9-.9h-.1v-.9h.8v.2c.173934.280259.308527.583092.4.9l.3 1.3z" fill="#f6ae86"/><path d="m333.9 235c.182656-.473718.017367-1.010905-.4-1.3.700246-1.291449.809581-2.822135.3-4.2l.2-.6c.053496-1.554193-.364859-3.088162-1.2-4.4-.267916-.572066-.727934-1.032084-1.3-1.3-.6-.4-1.3-.1-2-.4h-.6c-.470719-.45472-1.12653-.663978-1.773626-.565933s-1.211484.492182-1.526374 1.065933c-1.1 2-1.1 4.7-.9 6.9.079705 1.299719.530915 2.549224 1.3 3.6.423708 1.118293 1.241748 2.043034 2.3 2.6l.3.2c1.3 1.4 4.1.8 5.9.4s.8-2.4-.6-2.1" fill="#f6af8c"/><path d="m335.7 195.3c-.016427-.601732.017021-1.203791.1-1.8.1-1 .2-2 .4-3 .447526-2.075252 1.049194-4.11424 1.8-6.1 1.1-3.3 2.2-6.5 3.1-9.9-.1-8.8-.5-17.6-.7-26.5-2.7.3-4.5 2.4-5.7 4.9s-3.4 9.5-4.3 12.1c-1.393379 3.769464-2.300688 7.701136-2.7 11.7-.1 1.7-.1 3.3-.2 5-.4 4.7-1.8 9.2-2.6 13.9 3.6.3 7.2.6 10.8-.3" fill="#c18f00"/><path d="m324.3 201.6c-.1 7.4 1.3 14.3 1.3 21.7 1.5.3 1.6.9 3.2.7.48045-.174665 1.000616-.209343 1.5-.1l1.7-.2c.2-5.8 2.3-12.4 2.7-18.1.297507-1.350612.498019-2.720775.6-4.1-3.655149.38297-7.338493.416455-11 .1" fill="#f6af8c"/><path d="m387.5 233.2.3-1.3.4-.9v-.2h.8v.8l-.9.9z" fill="#f6ae86"/><path d="m384.4 237.1c1.7.4 4.5 1 5.8-.4l.3-.2c1.058252-.556966 1.876292-1.481707 2.3-2.6.769085-1.050776 1.220295-2.300281 1.3-3.6.2-2.2.2-4.9-.9-6.9-.291544-.570905-.83908-.967463-1.472434-1.066425-.633353-.098961-1.275762.111669-1.727566.566425h-.7c-.7.3-1.3 0-2 .4-.572066.267916-1.032084.727934-1.3 1.3-.788695 1.331943-1.203274 2.852066-1.2 4.4l.2.6c-.522064 1.386697-.374437 2.936779.4 4.2-.385694.313798-.576011.808623-.5 1.3-1.3-.3-1.9 1.8-.5 2.1" fill="#f6af8c"/><path d="m394.5 199.6c0 7.4-1.3 16.3-1.3 23.7-1.5.3-1.6.9-3.2.7-.48045-.174665-1.000616-.209343-1.5-.1l-1.6-.2c-.3-5.8-2.3-12.4-2.8-18.1-.297507-1.350612-.498019-2.720775-.6-4.1 3.7.5 7.3-1.6 11-1.9" fill="#f6af8c"/><path d="m370.1 109.9h-.3c.278363-.507912.239439-1.130701-.1-1.6v-.2c-.2-2.3-3.7-2.5-3.9-.3h-.4c-2.581828.151798-5.152759.452297-7.7.9-2.057502.103563-4.100258.404953-6.1.9-.42473-.272354-.953043-.328412-1.42547-.151252-.472426.17716-.833611.566779-.97453 1.051252-.078377.361169-.111963.730618-.1 1.1-.246321.248266-.41934.559701-.5.9v.7l-.6.6c-.8 1 3.2 3.3 3.7 3.5 2.226854.994817 4.669899 1.407727 7.1 1.2 2.173945-.13644 4.290974-.751061 6.2-1.8 1.7-1 3.1-3 5.2-2.8s2.5-3.8 0-3.9" fill="#754130"/><path d="m382.1 190.5c.2 1 .4 2 .5 3v1c3.488772-.113729 6.964631-.481368 10.4-1.1-.941517-3.85277-1.642866-7.76029-2.1-11.7-.1-1.7-.1-3.3-.2-5-.447832-3.990724-1.353802-7.916591-2.7-11.7-.9-2.6-2-8.4-4.3-12.1s-3.4-5-6.6-4.9c-.502963.041698-.951241.33353-1.192912.776593-.241671.443064-.244335.977959-.007088 1.423407-.864682.906048-1.424158 2.059969-1.6 3.3-.8 3.4-2.7 7.2-1.4 10.7.163169.629071.574477 1.165078 1.139894 1.485481s1.2366.397808 1.860106.214519h.2c.355627.447215.626727.955529.8 1.5.001259.842236.101956 1.681378.3 2.5-.590303.29858-.915318.948609-.8 1.6 1.1 4.4 2.6 8.7 4 13 .672069 2.002476 1.239503 4.038561 1.7 6.1" fill="#c18f00"/><path d="m360.9 170.6c.3 2.6.9 45 .9 46h-2.4c-1.1-21.7-2.7-44.2 2.1-65.6l2 2c.7.7-1.9 8.4-2.2 9.5-.584288 2.692616-.719444 5.4633-.4 8.2" fill="#d5ae55"/><path d="m324.3 194.5s10.3 1.4 12.2.7c1.7 4.1-1.3 9.6-1.3 9.6l-10.9-.8s-1.4-7.2 0-9.5" fill="#d5ae55"/><path d="m393.4 192.8s1.5 5.6 1.4 8c-5.1 0-12.1 2.2-12.1 2.2s-2.1-8.6-1.2-9.6 10.2.4 11.9-.6" fill="#d5ae55"/><path d="m448.1 347.8h-22.6v-158.4c0-1.325483 1.074517-2.4 2.4-2.4h17.8c1.325483 0 2.4 1.074517 2.4 2.4z" fill="#92d2f4"/><path d="m324.4 205.7h-13.5c-1 0-1.8 1.7-1.8 3.8v98.6l23.8.4v-55.7l-23.8 39.7v-11.3l23.8-38.7v-5.1l-1.7.2c-.656225.020718-1.307829-.116462-1.9-.4l-20.2 30.4v-6.7l17.9-25.5c-.445108-.454748-.786285-1.000631-1-1.6-.769085-1.050776-1.220295-2.300281-1.3-3.6-.2-2.2-.2-4.9.9-6.9 0-6-.9-11.7-1.2-17.6" fill="#d9e6e7"/><path d="m309.1 308.1v11.5c0 2.1.8 3.8 1.8 3.8h20.2c1 0 1.8-1.7 1.8-3.8v-11.1z" fill="#d7e3e4"/><path d="m332.9 216.6c-.440735 2.279445-.741298 4.583768-.9 6.9.319946.286975.590256.624863.8 1h.1z" fill="#d9e6e7"/><path d="m330.1 230.9h-.3v.1.4z" fill="#d9e6e7"/><path d="m325.6 223.3c-1.1 2-1.1 4.7-.9 6.9.079705 1.299719.530915 2.549224 1.3 3.6.213715.599369.554892 1.145252 1 1.6l2.8-4v-.4h.4l2.7-4v-2.3h-.1c-.209744-.375137-.480054-.713025-.8-1v.2l-1.3.2h-.8l-1.1.2h-.7c-1 0-1.2-.4-2.5-.7" fill="#d9d7d0"/><path d="m332.9 231.8-3.6 5.4c.592171.283538 1.243775.420718 1.9.4l1.7-.2z" fill="#d9d7d0"/><path d="m331.1 205.7h-6.7c.3 5.9 1.2 11.6 1.2 17.6 1.3.3 1.5.7 2.5.7h.7l1.1-.2h.8l1.3-.2v-.2c.158702-2.316232.459265-4.620555.9-6.9v-7.1c0-2.1-.8-3.8-1.8-3.8" fill="#d9d7d0"/><path d="m406.5 205.7h-4.9l-8.3 13.7c0 1.3-.1 2.6-.1 3.9.69341 1.360917 1.03708 2.873062 1 4.4z" fill="#d9e6e7"/><path d="m398.9 205.7h-4.6l-.6 8.5z" fill="#d9e6e7"/><path d="m409.6 209.3-21.6 39.8v-10.2l.8-1.4h-.8v73.1l21.6 1.4z" fill="#d9e6e7"/><path d="m388 310.7v8.9c0 2.1.7 3.8 1.6 3.8h18.4c.9 0 1.6-1.7 1.6-3.8v-7.5z" fill="#d7e3e4"/><path d="m388.2 230.8v.2c-.122444.138546-.193118.315229-.2.5v1.4h.1l.9-.9v-1h-.8z" fill="#d9e6e7"/><path d="m393.2 223.3c-1.2.3-1.5.7-2.4.7h-.3l-2.5 4.2v3.3c.006882-.184771.077556-.361454.2-.5v-.2h.8v.8l-.9.9h-.1v4.7h.8l5.4-9.8c.03708-1.526938-.30659-3.039083-1-4.4" fill="#d9d7d0"/><path d="m394.3 205.7h-4.7c-.9 0-1.6 1.7-1.6 3.8v14l5.7-9.3z" fill="#d9d7d0"/><path d="m393.3 219.4-2.8 4.6h.3c.9 0 1.2-.4 2.4-.7s.1-2.6.1-3.9" fill="#d9d7d0"/><path d="m324.9 230.4h-22.4v-5.7h22.4c1.546397 0 2.8 1.253603 2.8 2.8.00093 1.563372-1.237557 2.846091-2.8 2.9" fill="#19303b"/><path d="m324.9 304.7h-22.4v-5.7h22.4c1.370802.257899 2.36381 1.455148 2.36381 2.85s-.993008 2.592101-2.36381 2.85" fill="#19303b"/><path d="m395.3 304.7h22.3v-5.7h-22.3c-1.145538-.215518-2.308783.275778-2.953016 1.247204-.644232.971426-.644232 2.234166 0 3.205592.644233.971426 1.807478 1.462722 2.953016 1.247204" fill="#19303b"/><path d="m330.6 230.8h-.4l-.4.5v.4h.1c.247267.348466.551534.652733.9.9l.5.4-.3-1.3c-.091473-.316908-.226066-.619741-.4-.9z" fill="#e4f1f2"/><path d="m327 235.4-17.9 25.5v6.7l20.2-30.4c-.270315-.107642-.510507-.279208-.7-.5l-.3-.2c-.512849-.214737-.960899-.559391-1.3-1" fill="#e4f1f2"/><path d="m332.9 226.9-2.7 4h.4v.2c.173934.280259.308527.583092.4.9l.3 1.3-.5-.4c-.348466-.247267-.652733-.551534-.9-.9h-.1v-.4l-2.8 4c.339101.440609.787151.785263 1.3 1l.3.2c.189493.220792.429685.392358.7.5l3.6-5.4z" fill="#e4eeef"/><path d="m401.6 205.7h-2.7l-5.3 8.5-.3 5.2z" fill="#e4f1f2"/><path d="m388.9 223.8h-.9v4.3l2.5-4.2h-.5l-1.1-.2" fill="#e4eeef"/><path d="m393.7 214.2-5.7 9.3v.4h.9l1.1.2h.5l2.8-4.6c.1-1.7.2-3.4.4-5.2" fill="#e4eeef"/><path d="m332.9 242.5-23.8 38.7v11.3l23.8-39.7z" fill="#e4f1f2"/><path d="m408 205.7h-1.5l-12.3 22c.018615.834601-.014783 1.669552-.1 2.5-.079705 1.299719-.530915 2.549224-1.3 3.6-.423708 1.118293-1.241748 2.043034-2.3 2.6l-.3.2c-.390729.381797-.872697.657207-1.4.8l-.8 1.4v10.2l21.6-39.8c0-2-.7-3.6-1.6-3.6" fill="#e4f1f2"/><path d="m394.2 227.7-5.4 9.8c.527303-.142793 1.009271-.418203 1.4-.8l.3-.2c1.058252-.556966 1.876292-1.481707 2.3-2.6.769085-1.050776 1.220295-2.300281 1.3-3.6.134799-.826174.16838-1.665699.1-2.5" fill="#e4eeef"/><path d="m395.3 230.4h22.3v-5.7h-22.3c-.759777-.027152-1.497932.255816-2.044865.78389-.546934.528073-.85562 1.255849-.855135 2.01611 0 1.601626 1.298374 2.9 2.9 2.9" fill="#19303b"/><path d="m68.8 262.6c-3.4822012-.1754-6.4825732 2.427864-6.8 5.9-.197161 2.587244 1.1873338 5.037496 3.5052892 6.203594s5.1106003.817247 7.0704695-.883228 2.6990643-4.416014 1.8715075-6.875252c-.8275567-2.459238-3.0580747-4.175441-5.6472662-4.345114" fill="#87cac0"/><g fill="#87cac0" transform="translate(41 235)"><path d="m29 13.6c-7.1296025-.578772-14.0634955 2.5113325-18.4 8.2-.76482558.8289898-1.00004261 2.0169132-.6088328 3.074806.3912098 1.0578928 1.342728 1.8069603 2.4628977 1.9388769 1.1201698.1319167 2.219671-.3756128 2.8459351-1.3136829 3.1661981-4.0690197 8.158548-6.2836712 13.3-5.9 4.7366195.3477518 9.0336215 2.9037271 11.6 6.9.5422243.8601865 1.4832585 1.3871656 2.5 1.4.6009003-.013474 1.1874896-.1860003 1.7-.5 1.3784609-.9316489 1.7756765-2.7853217.9-4.2-3.6363584-5.5695367-9.6657692-9.1206007-16.3-9.6"/><path d="m30 .6c-9.9-.7-21.2 3.8-28.7 11.5-1.15979797 1.2150264-1.11502645 3.140202.1 4.3s3.14020203 1.1150264 4.3-.1c6.3-6.5 15.6-10.3 23.8-9.7s15.3 4.3 20.2 10.7c.6430781.8574374 1.6947441 1.3066642 2.7588457 1.178461 1.0641016-.1282033 1.9789765-.8143594 2.4-1.8.4210236-.9856407.2842324-2.1210236-.3588457-2.978461-5.9-7.9-14.2-12.3-24.5-13.1"/></g><path d="m670.4 332c7.007469 4.322858 15.066644 6.640303 23.3 6.7 13.3 0 24.6-6.6 25.9-6.9.923445 1.500502 1.725979 3.072132 2.4 4.7v.3l-21.4 25.3c-3.642055.570978-7.348166.60467-11 .1l-21.5-25.7c-.04305-.037967-.067712-.0926-.067712-.15s.024662-.112033.067712-.15c0 0 2.1-4.3 2.3-4.2" fill="#2f3145"/><path d="m669.1 337.7c.384188-.729255.818567-1.430944 1.3-2.1 6.990836 4.372283 15.054812 6.725718 23.3 6.8 13.3 0 24.6-6.7 25.9-6.9.525226.764373.99317 1.566563 1.4 2.4l1-1.1v-.3c-.674021-1.627868-1.476555-3.199498-2.4-4.7-1.3.3-12.6 6.9-25.9 6.9-8.233356-.059697-16.292531-2.377142-23.3-6.7-.2-.1-2.3 4.2-2.3 4.2-.04305.037967-.067712.0926-.067712.15s.024662.112033.067712.15z" fill="#352b2e"/><path d="m723.8 360.1c8.2-4 26.3-14.7 33.9-30.8 1.1-2.3-1.6-11.7-10.2-8.7-5.4 1.9-33.3 11.3-37.8 17.3-7.3 9.7-7.6 18.5-9.1 24.2 4.1 1.8 19 0 23.2-2" fill="#2f3145"/><g transform="translate(630 319)"><path d="m35.3 41.2c-8.2-4-32.2-21.3-33.3-30.9-.3-2.5-2.7-10 7.6-9.7 5.4 1.9 35.4 12.8 40.4 18.3s8.5 18.9 9.2 24.2c-4.1 1.8-19.7 0-23.9-1.9" fill="#2f3145"/><path d="m90.3 36.6c-6.6009559-.2692686-13.1796105-.9371523-19.7-2-9.4-3.8-60.5-33.6-60.5-33.6-8.3-2.2-11 6.3-8.5 10.8 6.6 11.5 12.8 18.2 36.1 21.2 6.9 1 20 4.9 27.1 7.5.5 1.6 2.2 3.5 6.1 3.9 2 .2 13.8 4.4 19.2 3.9 9.2-.8 9.1-4.9 9.2-6.7s-2.2-4.7-9-5" fill="#f5a26c"/><path d="m90.3 36.6c-6.6009559-.2692686-13.1796105-.9371523-19.7-2l-.8-.3-6.3 5.7 1.3.5c.5 1.6 2.2 3.5 6.1 3.9 2 .2 13.8 4.4 19.2 3.9 9.2-.8 9.1-4.9 9.2-6.7s-2.2-4.7-9-5" fill="#538fcc"/><path d="m90.1 48.3c9.2-.8 9.1-4.9 9.2-6.7s-1.8-4-6.9-4.8c-1.2 1.1-3.2 4.4-3.4 8.9-10.3.4-19.4-3.3-24.2-5.1.5 1.6 2.2 3.4 6.1 3.8 2 .2 13.8 4.4 19.2 3.9" fill="#d8eefc"/></g><path d="m710.9 354.4c-1.179578 1.778254-1.80593 3.866093-1.8 6v.5c0 .276142.223858.5.5.5s.5-.223858.5-.5v-.5c-.038781-1.953436.519405-3.872201 1.6-5.5.098678-.251743.01678-.538388-.2-.7-.102801-.068829-.231665-.086216-.349031-.047094-.117367.039122-.210026.13035-.250969.247094" fill="#e5e6ea"/><path d="m713.2 354.6c-1.103724 1.80733-1.691637 3.882318-1.7 6v.5c0 .2.3.4.5.4.24138.004868.451763-.163438.5-.4v-.5c-.014376-1.950127.541777-3.861902 1.6-5.5.084359-.222116.000756-.472923-.2-.6-.106087-.079565-.239435-.113728-.370711-.094975-.131275.018754-.249724.088888-.329289.194975" fill="#e5e6ea"/><path d="m693.7 350.2 1.6.9z" fill="#2e2f41"/><path d="m694.9 359.6c.054728.313239.155839.616572.3.9z" fill="#386b88"/><g transform="translate(628 319)"><path d="m66.9 40.6.3.9c.0265216 0 .051957.0105357.0707107.0292893.0187536.0187537.0292893.0441891.0292893.0707107l1-.5z" fill="#cdd6de"/><path d="m11.6.6s28.2 16.3 46.7 26.2c-.0038403 2.7149377-.2380135 5.4246552-.7 8.1-1.8899332 3.0147928-3.995425 5.8889564-6.3 8.6-6.7-4.3-9.8-6.3-13.9-7.5-27-8.2-29.4-12.1-36-23.6-2.5-4.4 1.9-14 10.2-11.8" fill="#363850"/></g><path d="m630.8 322.6c-.184531.118321-.325072.293997-.4.5l-.3.5h-.1c-.1.2-.2.3-.2.4v.2c-.1.1-.1.3-.2.4v.2c0 .1-.1.2-.1.4h-.1c0 .2-.1.3-.1.4v.2c0 .2 0 .3-.1.4v.2c.014964.14096-.020463.282665-.1.4v1.9c-.009288.109491.026875.21798.1.3v.8c-.009288.109491.026875.21798.1.3v.2c0 .1.1.2.1.3h.1c0 .1.1.2.1.3v.2c6.6 11.5 9 15.4 36 23.6l2.8 1c5.724339-.166713 11.434058-.667565 17.1-1.5l.3-.6c-8.1-2.7-46.8-16.3-54.3-30.4-.203821-.277799-.371812-.580183-.5-.9" fill="#34354b"/><g transform="translate(660 319)"><path d="m25.6 34.9c-.0021886-.1397804.0322898-.2776943.1-.4-4.2 1-10.6 2.4-16.1 2.4h-1.4c3.8548056 1.8907616 7.5648739 4.0633241 11.1 6.5 2.304575-2.7110436 4.4100668-5.5852072 6.3-8.6" fill="#373536"/><path d="m89.6 1s-52.4 31.9-61.2 33.9c-6.6687892 1.2220633-13.4224434 1.9241759-20.2 2.1-6.8.1-7.7 3.3-7.6 5.1s3.8 5.8 6.5 6.2c8.7 1.1 19-2.8 21.1-3 4.3-.5 6.6-3.6 6.8-5.3 6.6-2.7 21-5.9 27.1-6.6 23.4-2.9 29.4-10.8 36-22.3 2.5-4.5-.1-12.3-8.5-10.1" fill="#f5a26c"/><path d="m89.6 1s-28.2 16.4-46.7 26.2c-.0015724 2.7151723.2326407 5.4253527.7 8.1.7 1.5 4.7 6.6 6.4 8.7 6.6-4.4 9.8-6.3 13.8-7.6 27-8.2 29.5-12 36-23.6 2.5-4.4-1.8-14-10.2-11.8" fill="#363850"/></g><path d="m758.5 323-.6.9c-7.5 14.2-46.1 27.7-54.3 30.4h.1c.6 1.5 4.6 6.6 6.3 8.7 6.6-4.4 9.8-6.3 13.8-7.6 27-8.2 29.5-12 36-23.6.103337-.111609.172714-.250365.2-.4v-.2c0-.1.1-.2.1-.3v-.2c-.009288-.109491.026875-.21798.1-.3v-.2c-.009288-.109491.026875-.21798.1-.3v-1.9c.002189-.13978-.03229-.277694-.1-.4v-.2c.009288-.109491-.026875-.21798-.1-.3v-.2c0-.2-.1-.3-.1-.4v-.2c0-.2 0-.3-.1-.4v-.2c-.103337-.111609-.172714-.250365-.2-.4v-.2c0-.1-.1-.2-.2-.4l-.3-.5-.3-.4h-.1l-.3-.5" fill="#34354b"/><path d="m693.7 338.7c-1.46953.03543-2.939744-.031398-4.4-.2v3.6c0 .497056.402944.9.9.9h7.1c.497056 0 .9-.402944.9-.9v-3.6c-1.493718.168772-2.997199.235593-4.5.2" fill="#373536"/><g transform="translate(676 226)"><path d="m21.3 112.5v2.6c-.0493006.291842-.304052.504135-.6.5h-5.9c-.295948.004135-.5506994-.208158-.6-.5v-2.6h-.9v3.6c0 .497056.4029437.9.9.9h7.1c.4970563 0 .9-.402944.9-.9v-3.6z" fill="#d5dbd9"/><path d="m10 39c-2.7-1.3-7.3-6.6-8.7-17.8-1.1-8.3-2.1-17.7 8-19.5 6.3-2.1 21.7-3.8 24.5 6.9 1.4 12.6-2.8 30.9-9 30.3-.2 4-7 3-8.7 3.4-4.3 1.2-6.1-3.3-6.1-3.3" fill="#55210e"/></g><path d="m661.8 330.5 8.2 7.7h47l8.4-7.8c1.096873-.998106 1.715392-2.417061 1.700281-3.9h-67.100281c.022718 1.495772.676493 2.912285 1.8 3.9" fill="#d2d4d7"/><path d="m660 326.6 12.5 10.2h43.6l11-10.2z" fill="#94969c"/><path d="m740.2 309.4c-.9-5.5-6.7-31.1-15.2-37.4-11.9-9.1-36.1-12-61.4-.8-8.8 4.3-12.9 33-14.1 39.3-2.1 11.7 15.9 15.6 18.5 16.1 5.3 1 6.9-1.6 7.7-3.6s-9.7-9.4-10.4-13.2c2.9-14.2.8-13.6 0-19.6.9 4.1-.4 5.8 3.6 13.9.8 1.6 2.3 22.6 1.5 27.9-.4 2.1 49.7 1.9 49.2-.2-1.2-5.1-.2-27.3.3-28.7 2.4-5.8 2.6-11.7 2.9-13.4-.6 3.4-2.5 3.9 0 18.2-2.9 2.8-10.1 12.7-8.9 16.2s3 5 6.1 2.5 22.1-5.3 20.2-17.2" fill="#816394"/><path d="m703.5 272.8c.875386-.7754 1.290851-1.946257 1.1-3.1-.3-2.5-.9-7.3-.4-10.3s-20.4-1.7-20.4-1.7-.1 7.8-.7 11.7c-.180264.990572.074792 2.010796.7 2.8 1.7 2.1 5.2 4.1 9.8 4.4 3.694179.224134 7.304547-1.161664 9.9-3.8" fill="#e59767"/><path d="m707.6 249.5c-.6 0-1.2 1.1-1.4 2.4s.1 2.5.7 2.7l1.1-4.7c-.1-.2-.2-.4-.3-.4z" fill="#3f2e16"/><path d="m679.5 249.5h-.2l.9 5c.6-.2.9-1.3.7-2.7s-.8-2.4-1.4-2.4" fill="#3f2e16"/><path d="m708.5 247.9c.711206.021965 1.322453.510962 1.5 1.2.5 2.1-.4 6.4-1.5 7.4-.675592.532716-1.461237.908459-2.3 1.1z" fill="#f5a26c"/><path d="m679 247.9c-.746523.050511-1.402415.513494-1.7 1.2-.5 1.9 0 5.6 1.4 6.9.570779.518994 1.256037.895886 2 1.1z" fill="#f5a26c"/><path d="m705 244.3c1.5.7.9 8.2.9 10s.7.4 1.1.4c.009778 3.056024-.291779 6.105096-.9 9.1-.5 1.7-8 7.3-12.4 7.3s-12.4-6.6-12.8-8.3-.5-4.3-.8-8.1c.6 0 1.1.1 1.1-.5s-1.1-10.1 3.3-12.2c3 2.1 17.3 3.1 20.5 2.3" fill="#f5a26c"/><path d="m665.6 291.4v-.2" fill="#eeecec"/><path d="m668.9 304.2c.534755 2.704987.868998 5.445775 1 8.2-.131002-2.754225-.465245-5.495013-1-8.2" fill="#eeecec"/><path d="m665.4 289.7c.1.1 0 .3-.1.5.2 0 .2.4.3 1.2v.2c.176763 4.389091 1.3026 8.687743 3.3 12.6.534755 2.704987.868998 5.445775 1 8.2 2.3-4.5 6.3-6.4 12.1-7.1-3.5-.5-13.1-1.2-16.6-15.6" fill="#603a75"/><path d="m719.7 304.2c-.2 1.6-.3 4.5-.5 7.9.2-3.4.3-6.3.5-7.9" fill="#eeecec"/><path d="m722.8 289.7c-2.9 13.4-12.3 15.1-19.2 15.9 2.6.4 12.6 2.8 15.4 15.7 0-3.1.1-6.3.2-9.2s.3-6.3.5-7.9c.1-.6.2-.9.2-1.1 2.4-5.8 2.6-11.7 2.9-13.4" fill="#603a75"/><path d="m672.5 339.1h42.2c2.209139 0 4-1.790861 4-4h-50.2c0 2.209139 1.790861 4 4 4" fill="#d2d4d7"/><path d="m718.7 335.1h-50.2l-7.6-27.9c-.222055-.728225-.085423-1.518616.368212-2.130037.453634-.611421 1.170461-.971344 1.931788-.969963h60.8c.761327-.001381 1.478154.358542 1.931788.969963.453635.611421.590267 1.401812.368212 2.130037z" fill="#d2d4d7"/><g transform="translate(660 320)"><path d="m38 2.6c0 1.3-2.1 2.4-4.6 2.4s-4.7-1.1-4.7-2.4 2.1-2.5 4.7-2.5 4.6 1.1 4.6 2.5" fill="#e5e6ea"/><path d="m29.5 33.6-1.1.3c-6.6687892 1.2220633-13.4224434 1.9241759-20.2 2.1-6.8.1-7.7 3.3-7.6 5.1s3.8 5.8 6.5 6.2c8.7 1.1 19-2.8 21.1-3 4.3-.5 6.6-3.6 6.8-5.3 0 0-4.1 1.1-3.2-.9.3460648-.8729633.3038284-1.8520179-.1161301-2.691935-.4199585-.839917-1.1778604-1.4611389-2.0838699-1.708065h-.1" fill="#538fcc"/><path d="m9.9 45.4c.9668374-3.1381771.6054235-6.5354676-1-9.4h-.7c-6.8.1-7.7 3.3-7.6 5.1s3.8 5.8 6.5 6.2c8.7 1.1 19-2.8 21.1-3 1.7744635-.2025302 3.4469485-.9342424 4.8-2.1-5.8 1.6-23.2 5.9-23.1 3.2" fill="#d8eefc"/></g><path d="m739.5 259.4c-2.192932-.117296-4.088884 1.514104-4.3 3.7-.165685 2.209139 1.490861 4.134314 3.7 4.299999 2.209139.165686 4.134314-1.49086 4.3-3.699999.117296-2.192932-1.514104-4.088884-3.7-4.3" fill="#87cac0"/><path d="m740.2 250.6c-4.473878-.33303-8.82093 1.578173-11.6 5.1-.620346.840269-.489665 2.016399.3 2.7.840269.620346 2.016399.489665 2.7-.3 1.960524-2.570699 5.072948-3.995664 8.3-3.8 2.999549.289282 5.713248 1.902832 7.4 4.4.328781.569857.942269.914944 1.6.9.354807-.00466.70122-.108584 1-.3.877302-.556799 1.144595-1.715071.6-2.6-2.272516-3.550843-6.09393-5.81401-10.3-6.1" fill="#87cac0"/><path d="m740.9 242.4c-6.3-.5-13.4 2.4-18.1 7.2-.360311.356834-.563026.842896-.563026 1.35s.202715.993166.563026 1.35c.764218.699153 1.935782.699153 2.7 0 4-4.1 9.9-6.5 15.1-6.1 5.022581.220588 9.682403 2.678919 12.7 6.7.334645.500853.897638.801116 1.5.8.405705.021128.80263-.123208 1.1-.4.438827-.259173.738227-.701553.815723-1.205273.077495-.503721-.07509-1.015637-.415723-1.394727-3.616684-4.950128-9.276719-8.000667-15.4-8.3" fill="#87cac0"/><path d="m1020.7 110.2 35 34.5 51-41-33-23.5z" fill="#e17000"/></g></svg>