<svg height="20" viewBox="0 0 21 20" width="21" xmlns="http://www.w3.org/2000/svg"><path d="m.1198802 1.3386614h6.99696658v2.5974026c-1.74924165 0-5.24772494 0-6.99696658 0 0-.64935065 0-1.94805195 0-2.5974026zm0 2.2577422h2.62891812v13.8061938c-.65722953 0-1.97168859 0-2.62891812 0 0-3.4515485 0-10.35464535 0-13.8061938zm0 13.8061938h17.0475228v2.5974026c-4.2618807 0-12.78564209 0-17.0475228 0 0-.6493506 0-1.948052 0-2.5974026zm16.4610719-4.3156844h2.6086957v6.913087c-.652174 0-1.9565218 0-2.6086957 0 0-1.7282717 0-5.1848152 0-6.913087zm-8.71587472-1.7782216c2.26491412-2.5624376 6.79474222-7.6873128 9.05965632-10.2497504.4903943.42457545 1.4711829 1.27372635 1.9615772 1.6983018-2.2548028 2.56243755-6.7644084 7.6873126-9.01921124 10.2497502-.50050557-.4245754-1.50151671-1.2737262-2.00202228-1.6983016zm12.21435792-11.2487514v2.1578422c-2.4115267-.014985-7.2345803-.044955-9.6461071-.05994 0-.53946055 0-1.61838165 0-2.1578422 2.4115268.014985 7.2345804.044955 9.6461071.05994zm-.0202224 9.5104896c-.5460061 0-1.6380182 0-2.1840243 0 .0151669-2.3776224.0455006-7.1328672.0606675-9.5104896h2.1840241c-.0151668 2.3776224-.0455005 7.1328672-.0606673 9.5104896z" fill="#01689b"/></svg>