<svg height="26" viewBox="0 0 26 26" width="26" xmlns="http://www.w3.org/2000/svg"><g fill="none" fill-rule="evenodd"><path d="m-5-4.854913h36v36h-36z"/><path d="m25.231725 2.878425c-.1927687-1.15959375-1.0749938-2.04181875-2.23515-2.23515-3.3530062-.55895625-8.9417812-.55895625-10.059075-.55895625-1.1172937 0-6.70606875 0-10.059075.55895625-1.16015625.19333125-2.04238125 1.07555625-2.23515 2.23515-.558675 3.35300625-.558675 8.9415-.558675 10.059075s0 6.7060688.558675 10.059075c.19276875 1.1595938 1.07499375 2.0418188 2.23515 2.23515 3.35300625.5589563 8.9417813.5589563 10.059075.5589563 1.1172938 0 6.7060688 0 10.059075-.5589563 1.1601562-.1933312 2.0423813-1.0755562 2.23515-2.23515.5586187-3.3530062.5586187-8.9415.5586187-10.059075 0-3.35469375 0-6.70606875-.5586187-10.059075zm-3.6358875 2.99019375-1.1953125 10.15987505c-.0802125.6809062-.6311812 1.2096-1.3150687 1.260675-.0362813.0027562-.0719438.0041625-.108225.0041625-.6399563 0-1.2090375-.4279501-1.3804313-1.0541813l-.6522187-2.3841s1.4509125-2.961 1.5696-3.2027062c.1088437-.2216813-.0416813-.2612813-.0421876-.2613938l-7.1060625 7.1058938c-.8119124.8121375-1.7556187.3526312-2.54722495-.4397625-.79318125-.7923938-1.25240625-1.7366626-.44055-2.5485188l5.16223125-5.1622875-3.90481875-1.06835625c-.6613875-.18073125-1.101375-.80499375-1.0503-1.488375.0516375-.68360625.58005-1.2351375 1.260675-1.31506875l10.16015625-1.1953125c.436725-.0516375.8706938.09973125 1.1799563.4095.3103312.309825.4608562.7446375.4097812 1.17995625z" fill="#000" fill-rule="nonzero" transform="translate(.0625 .207587)"/></g></svg>