<svg height="16" viewBox="0 0 16 16" width="16" xmlns="http://www.w3.org/2000/svg"><path d="m4 7.98205386c0-.13559325.0221294-.25324031.06638821-.35294119.04425881-.09970087.11869406-.20538384.22330577-.31704889 1.6979289-1.67896312 3.82034003-3.777667 5.09378671-5.03688934.09656466-.09571284.19715286-.16550346.30176461-.20937185s.22531762-.06580259.3621176-.06580259c.144847 0 .2695763.0219342.3741881.06580259.1046117.04386839.2092234.11365901.3138351.20937185.1891059.1874377.4254882.42173483.5673176.5623131.0965646.09571285.1689881.20538382.2172704.32901293.0482824.12362911.0724235.24127619.0724235.35294125 0 .13559316-.0221294.25523422-.0663882.35892317s-.118694.20737788-.2233057.31106679c-1.2513173 1.26420739-2.8154639 2.84446663-3.75395186 3.79262218.93547031.92721834 2.80641096 2.78165504 3.74188126 3.70887334.0885176.0877368.1569176.1954138.2051999.3230309.0482823.1276172.0724235.2432702.0724235.3469592 0 .1355932-.0221294.2552342-.0663882.3589232-.0442588.1036889-.1146706.2113659-.2112352.3230309-.1891059.22333-.4254882.5024925-.5673175.6699901-.0965647.0957128-.1971529.1674974-.3017646.2153539-.1046118.0478564-.2293411.0717846-.3741881.0717846-.14484703 0-.26756466-.0219342-.36815288-.0658026-.10058823-.0438684-.20721172-.117647-.31987048-.2213359-1.68585833-1.6829512-3.79318124-3.78664011-5.05757498-5.04885347-.10461171-.10368899-.18105873-.20737794-.22934106-.31106685s-.0724235-.22731802-.0724235-.37088732z" fill="#fff" fill-rule="evenodd"/></svg>