<svg height="20" viewBox="0 0 14 20" width="14" xmlns="http://www.w3.org/2000/svg"><path d="m8.8111888 0c-2.2027972 0-6.6083916 0-8.8111888 0v20h13.6063936c0-3.5564435 0-10.66933065 0-14.2257742-1.1988012-1.44355645-3.5964036-4.33066935-4.7952048-5.7742258zm-7.1328672 18.1818182c0-4.0909091 0-12.2727273 0-16.3636364h6.0939062v4.4555444h4.095904v11.948052c0 .01332-1.6983017.01332-5.094905 0-1.69830173-.01332-3.8211789-.02997-5.0949052-.03996zm1.938062-8.971029h6.3736264v.919081c-1.5934066 0-4.7802198 0-6.3736264 0 0-.22977025 0-.68931075 0-.919081zm0 2.7172828h6.3736264v.9190808c-1.5934066 0-4.7802198 0-6.3736264 0 0-.2297702 0-.6893106 0-.9190808zm0 2.7572426h3.6963038v.899101c-.92407595 0-2.77222785 0-3.6963038 0 0-.2247753 0-.6743258 0-.899101z" fill="#01689b"/></svg>