<svg height="16" viewBox="0 0 19 16" width="19" xmlns="http://www.w3.org/2000/svg"><path d="m7.69442587 6.67048331v2.61105524h4.31638673c-.1733729 1.12094525-1.3032858 3.28362235-4.31638673 3.28362235-2.5961093 0-4.71693779-2.1537095-4.71693779-4.80661336s2.12082849-4.80661342 4.71693779-4.80661342c1.48114238 0 2.46607963.63071856 3.03103603 1.17176148l2.064034-1.98930424c-1.3271992-1.23752361-3.04448744-1.98930425-5.09507003-1.98930425-4.20877593.00448378-7.60897665 3.4046845-7.60897665 7.61346043 0 4.20877586 3.40020072 7.60897666 7.60897665 7.60897666 4.38962173 0 7.30557413-3.0878307 7.30557413-7.43560378 0-.49919431-.0553-.8833049-.1210621-1.26143711h-7.18301743zm10.43649443-3.84357247h-1.6818237v-1.68182373h-1.6818237v1.68182373h-1.6818237v1.68182373h1.6818237v1.68182374h1.6818237v-1.68182374h1.6818237z" fill-rule="evenodd"/></svg>