<svg height="16" viewBox="0 0 16 16" width="16" xmlns="http://www.w3.org/2000/svg"><path d="m4.20380118 7.77825268c0-.13559325.0221294-.25324031.06638821-.35294119.0442588-.09970087.11869406-.20538384.22330577-.31704889 1.6979289-1.67896311 3.82034003-3.777667 5.0937867-5.03688934.09656467-.09571284.19715287-.16550346.30176462-.20937185s.22531762-.06580259.36211762-.06580259c.1448469 0 .2695763.0219342.374188.06580259.1046118.04386839.2092235.11365901.3138352.20937185.1891059.1874377.4254882.42173483.5673175.5623131.0965647.09571285.1689882.20538382.2172705.32901293.0482824.12362911.0724235.24127619.0724235.35294125 0 .13559316-.0221294.25523422-.0663882.35892317s-.1186941.20737788-.2233058.31106679c-1.2513172 1.26420739-2.81546383 2.84446663-3.75395178 3.79262218.93547031.92721835 2.80641098 2.78165502 3.74188128 3.70887342.0885176.0877368.1569175.1954137.2051999.3230309.0482823.1276171.0724235.2432702.0724235.3469591 0 .1355932-.0221294.2552343-.0663882.3589232-.0442588.103689-.1146706.2113659-.2112352.3230309-.1891059.22333-.4254882.5024926-.5673176.6699901-.0965646.0957128-.1971528.1674975-.3017646.2153539-.1046117.0478564-.2293411.0717846-.374188.0717846-.1448471 0-.26756468-.0219342-.36815291-.0658026-.10058822-.0438684-.20721171-.117647-.31987047-.2213359-1.68585833-1.6829512-3.79318124-3.78664009-5.05757499-5.04885345-.1046117-.10368899-.18105872-.20737794-.22934106-.31106685-.04828233-.1036889-.07242349-.22731801-.07242349-.37088732z" fill-rule="evenodd" transform="matrix(0 1 -1 0 15.796199 -.203801)"/></svg>