<svg height="16" viewBox="0 0 16 16" width="16" xmlns="http://www.w3.org/2000/svg"><path d="m5 7.98205386c0-.13559325.0221294-.25324031.06638821-.35294119.04425881-.09970087.11869406-.20538384.22330577-.31704889l5.09378672-5.03688934c.0965646-.09571284.1971529-.16550346.3017646-.20937185.1046118-.04386839.2253176-.06580259.3621176-.06580259.144847 0 .2695763.0219342.3741881.06580259.1046117.04386839.2092234.11365901.3138351.20937185l.5673176.5623131c.0965646.09571285.1689881.20538382.2172704.32901293.0482824.12362911.0724235.24127619.0724235.35294125 0 .13559316-.0221294.25523422-.0663882.35892317s-.118694.20737788-.2233057.31106679l-3.75395186 3.79262218 3.74188126 3.70887334c.0885176.0877368.1569176.1954138.2051999.3230309.0482823.1276172.0724235.2432702.0724235.3469592 0 .1355932-.0221294.2552342-.0663882.3589232-.0442588.1036889-.1146706.2113659-.2112352.3230309l-.5673175.6699901c-.0965647.0957128-.1971529.1674974-.3017646.2153539-.1046118.0478564-.2293411.0717846-.3741881.0717846s-.2675647-.0219342-.3681529-.0658026-.2072117-.117647-.3198705-.2213359l-5.05757494-5.04885347c-.10461171-.10368899-.18105873-.20737794-.22934106-.31106685s-.0724235-.22731802-.0724235-.37088732z" fill-rule="evenodd" transform="matrix(-1 0 0 1 17.592398 0)"/></svg>