<?xml version="1.0" encoding="UTF-8"?>
<svg width="21px" height="20px" viewBox="0 0 21 20" version="1.1" xmlns="http://www.w3.org/2000/svg" xmlns:xlink="http://www.w3.org/1999/xlink">
    <!-- Generator: Sketch 46.2 (44496) - http://www.bohemiancoding.com/sketch -->
    <title>icon-external-link</title>
    <desc>Created with Sketch.</desc>
    <defs></defs>
    <g id="Page-1" stroke="none" stroke-width="1" fill="none" fill-rule="evenodd">
        <path d="M0.1198802,1.3386614 C1.86912184,1.3386614 5.36760513,1.3386614 7.11684678,1.3386614 C7.11684678,1.98801205 7.11684678,3.28671335 7.11684678,3.936064 C5.36760513,3.936064 1.86912184,3.936064 0.1198802,3.936064 C0.1198802,3.28671335 0.1198802,1.98801205 0.1198802,1.3386614 Z M0.1198802,3.5964036 C0.777109731,3.5964036 2.09156879,3.5964036 2.74879832,3.5964036 C2.74879832,7.04795205 2.74879832,13.9510489 2.74879832,17.4025974 C2.09156879,17.4025974 0.777109731,17.4025974 0.1198802,17.4025974 C0.1198802,13.9510489 0.1198802,7.04795205 0.1198802,3.5964036 Z M0.1198802,17.4025974 C4.38176091,17.4025974 12.9055223,17.4025974 17.167403,17.4025974 C17.167403,18.051948 17.167403,19.3506494 17.167403,20 C12.9055223,20 4.38176091,20 0.1198802,20 C0.1198802,19.3506494 0.1198802,18.051948 0.1198802,17.4025974 L0.1198802,17.4025974 Z M16.5809521,13.086913 C17.233126,13.086913 18.5374738,13.086913 19.1896478,13.086913 C19.1896478,14.8151848 19.1896478,18.2717283 19.1896478,20 C18.5374738,20 17.233126,20 16.5809521,20 C16.5809521,18.2717283 16.5809521,14.8151848 16.5809521,13.086913 L16.5809521,13.086913 Z M7.86507738,11.3086914 C10.1299915,8.7462538 14.6598196,3.6213786 16.9247337,1.058941 C17.415128,1.48351645 18.3959166,2.33266735 18.8863109,2.7572428 C16.6315081,5.31968035 12.1219025,10.4445554 9.86709966,13.006993 C9.36659409,12.5824176 8.36558295,11.7332668 7.86507738,11.3086914 L7.86507738,11.3086914 Z M20.0794353,0.05994 C20.0794353,0.59940055 20.0794353,1.67832165 20.0794353,2.2177822 C17.6679086,2.2027972 12.844855,2.1728272 10.4333282,2.1578422 C10.4333282,1.61838165 10.4333282,0.53946055 10.4333282,0 C12.844855,0.014985 17.6679086,0.044955 20.0794353,0.05994 L20.0794353,0.05994 Z M20.0592129,9.5704296 C19.5132068,9.5704296 18.4211947,9.5704296 17.8751886,9.5704296 C17.8903555,7.1928072 17.9206892,2.4375624 17.9358561,0.05994 C18.4818621,0.05994 19.5738742,0.05994 20.1198802,0.05994 C20.1047134,2.4375624 20.0743797,7.1928072 20.0592129,9.5704296 L20.0592129,9.5704296 Z" id="icon-external-link" fill="#01689B" fill-rule="nonzero"></path>
    </g>
</svg>