<svg height="19" viewBox="0 0 18 19" width="18" xmlns="http://www.w3.org/2000/svg"><path d="m16.8498403 13.5353871h-2.2715655v3.3694474c0 .6362032-.5149441 1.1519478-1.1501598 1.1519478h-8.913738c-.63521569 0-1.15015975-.5157446-1.15015975-1.1519478v-3.3694474h-2.21405751c-.63521568 0-1.15015974-.5157446-1.15015974-1.1519479v-6.68129741c0-.63620322.51494406-1.15194784 1.15015974-1.15194784h15.69968056c.6352156 0 1.1501597.51574462 1.1501597 1.15194784v6.68129741c0 .6362033-.5149441 1.1519479-1.1501597 1.1519479zm-1.1214058-7.8908427c-.6193353 0-1.1214057.502851-1.1214057 1.12314914s.5020704 1.12314914 1.1214057 1.12314914 1.1214058-.502851 1.1214058-1.12314914-.5020705-1.12314914-1.1214058-1.12314914zm-11.2428115 4.5213953h9.028754v6.7676935h-9.028754zm1.15015975 1.1519478h6.69968055v1.0943504h-6.69968055zm0 2.2462983h5.60702875v1.0943504h-5.60702875zm-1.09265176-13.5641858h8.91373801c.6352157 0 1.1501598.51574461 1.1501598 1.15194784v2.24629828h-1.0894026l-.0032492-2.24629828h-9.028754l.00186901 2.24629828h-1.09452076v-2.24629828c0-.63620323.51494405-1.15194784 1.15015974-1.15194784z" fill-rule="evenodd"/></svg>