<svg height="16" viewBox="0 0 18 16" width="18" xmlns="http://www.w3.org/2000/svg"><path d="m16.3929452.6689686h-14.78576712c-.4419863 0-.82035616.16684827-1.13510959.50067558-.31475342.33382731-.47206849.73512619-.47206849 1.20389662v11.5909864c0 .4687704.15731507.8698077.47206849 1.203635.31475343.3340889.69312329.5008064 1.13510959.5008064h14.78576712c.441863 0 .8202329-.1667175 1.1349863-.5008064.3148767-.3338273.4720685-.7349954.4720685-1.203635v-11.5909864c0-.46877043-.1571918-.87006931-.4720685-1.20389662-.3147534-.33382731-.6931233-.50067558-1.1349863-.50067558zm-.3930571 12.8158754c0 .0767897-.028863.1432464-.0865889.1993703-.057726.0561239-.1260798.084077-.2049496.084077h-13.41669925c-.07898164 0-.14733545-.0279531-.20506141-.084077s-.08658894-.1225806-.08658894-.1993703v-6.80567248c.19443357.21263988.40408173.40765947.62894449.58484124 1.62852097 1.21699621 2.92276835 2.21537034 3.88285401 2.99523114.30988549.2540802.56204502.4519277.75647859.5937602.19443357.1418324.45722094.28497.78836211.4297392.33114118.1447691.64259288.2169905.93424323.2169905h.00917351.00906163c.29153848 0 .60321392-.0722214.93424323-.2169905.331253-.1447692.5941523-.2879068.7885859-.4297392.1943216-.1418325.4465931-.33968.7564785-.5937602.9600857-.7798608 2.2542212-1.77823493 3.8827422-2.99523114.2248627-.17718177.4346228-.37220136.6288326-.58484124v6.80567248zm-.1403472-10.33965154v.096841c0 .34629305-.1402924.73236007-.4209883 1.15787684-.280696.42562484-.5842923.76467643-.9102331 1.01704667-1.1654719.89242874-2.3759663 1.82279407-3.632039 2.79142024-.0362404.02929008-.1419599.11597142-.3170475.25971978-.1749764.14385645-.3139348.25409955-.4166529.33029699-.102718.0764136-.23689625.16882326-.40297933.27733706-.16608307.1085138-.31849264.18935875-.45733988.24210251-.13884723.05274376-.26868995.07911564-.38941701.07911564h-.0090045-.00911567c-.12072706 0-.25045862-.02637188-.38941702-.07911564-.13884723-.05274376-.29136796-.13358871-.45733987-.24210251s-.30037248-.20092346-.40297936-.27733706c-.10260688-.07619744-.24156527-.18644054-.41665285-.33029699-.17508759-.14374836-.28080713-.2304297-.31704748-.25971978-1.25585042-.96862617-2.46645597-1.8989915-3.63181668-2.79142024-.88766624-.68091329-1.33144378-1.5145457-1.33144378-2.50078915 0-.07630552.02868102-.1423433.08604304-.19811334.05736203-.05577005.12528489-.08365507.2037686-.08365507h13.33211329c.0482464.02637188.0904897.03372142.1268412.02204862.0362404-.01188896.0633651.01015966.0813741.0659297.0181202.05577005.034684.08214192.0498027.07922372.0151186-.00291819.0242343.03372142.0272358.11013503.0027792.07630552.0043355.11467444.0043355.11467444z" fill-rule="evenodd"/></svg>