<svg enable-background="new 0 0 2021 21" height="21" viewBox="0 0 2021 21" width="2021" xmlns="http://www.w3.org/2000/svg"><path d="m4.5 2.1h12v15.4h-12z" fill="#fff"/><path d="m0 0v21h21v-21zm11.9 15.7h-3v-2h3.1v2zm0-3.8h-3v-6.6h3.1v6.6z" fill="#c03"/><path d="m861-49.7h1z" fill="#fff"/><path d="m985.5 2.1h12v15.4h-12z"/><path d="m981 0v21h21v-21zm11.9 15.7h-3.1v-2h3.1zm0-3.8h-3.1v-6.6h3.1z" fill="#fc3"/><path d="m2004.5 2.1h12v15.4h-12z" fill="#fff"/><path d="m2000 0v21h21v-21zm11.9 15.7h-3.1v-2h3.1zm0-3.8h-3.1v-6.6h3.1z" fill="#693"/></svg>