<?xml version="1.0" encoding="UTF-8" standalone="no"?>
<svg width="64px" height="64px" viewBox="0 0 64 64" version="1.1" xmlns="http://www.w3.org/2000/svg" xmlns:xlink="http://www.w3.org/1999/xlink">
    <!-- Generator: Sketch 41 (35326) - http://www.bohemiancoding.com/sketch -->
    <title>1001-pijl-links</title>
    <desc>Created with Sketch.</desc>
    <defs>
        <rect id="path-1" x="0" y="0" width="64" height="64"></rect>
        <mask id="mask-2" maskContentUnits="userSpaceOnUse" maskUnits="objectBoundingBox" x="0" y="0" width="64" height="64" fill="white">
            <use xlink:href="#path-1"></use>
        </mask>
    </defs>
    <g id="Page-1" stroke="none" stroke-width="1" fill="none" fill-rule="evenodd">
        <g id="rhs-icons" transform="translate(-699.000000, -115.000000)">
            <g id="1001-pijl-links" transform="translate(699.000000, 115.000000)">
                <g id="box" stroke="#FF0000" stroke-width="2">
                    <use id="Rectangle-path" mask="url(#mask-2)" xlink:href="#path-1"></use>
                </g>
                <g id="icon" transform="translate(11.000000, 13.000000)" fill="#000000">
                    <path d="M1.9004,16.3403 L20.9004,1.3403 C22.1719,0.3345 23.9805,0.3721 25.21,1.4312 C26.4395,2.4888 26.7471,4.27 25.9434,5.6792 L21.1975,14 L38.4736,14 C41.1904,14 42.001,16.3491 42,19.0015 C42.001,21.6519 41.1914,24 38.4736,24 L14.6934,24 C14.6934,24 14.5391,24.2578 15.015,24.3863 C15.6112,24.5473 22.5645,26.3967 22.5645,26.3967 L25.9434,32.3208 C26.7471,33.73 26.4395,35.5112 25.21,36.5688 C24.5762,37.1147 23.7881,37.3887 23,37.3887 C22.2588,37.3887 21.5166,37.147 20.9004,36.6597 L1.9004,21.6597 C1.0859,21.0171 0.6113,20.0371 0.6113,19 C0.6113,17.9629 1.0859,16.9829 1.9004,16.3403 Z" id="Shape"></path>
                </g>
            </g>
        </g>
    </g>
</svg>