<?xml version="1.0" encoding="UTF-8" standalone="no"?>
<svg width="64px" height="64px" viewBox="0 0 64 64" version="1.1" xmlns="http://www.w3.org/2000/svg" xmlns:xlink="http://www.w3.org/1999/xlink">
    <!-- Generator: Sketch 41 (35326) - http://www.bohemiancoding.com/sketch -->
    <title>1002-pijl-beneden</title>
    <desc>Created with Sketch.</desc>
    <defs>
        <rect id="path-1" x="0" y="0" width="64" height="64"></rect>
        <mask id="mask-2" maskContentUnits="userSpaceOnUse" maskUnits="objectBoundingBox" x="0" y="0" width="64" height="64" fill="white">
            <use xlink:href="#path-1"></use>
        </mask>
    </defs>
    <g id="Page-1" stroke="none" stroke-width="1" fill="none" fill-rule="evenodd">
        <g id="rhs-icons" transform="translate(-783.000000, -115.000000)">
            <g id="1002-pijl-beneden" transform="translate(783.000000, 115.000000)">
                <g id="box" stroke="#FF0000" stroke-width="2">
                    <use id="Rectangle-path" mask="url(#mask-2)" xlink:href="#path-1"></use>
                </g>
                <g id="icon" transform="translate(13.000000, 11.000000)" fill="#000000">
                    <path d="M16.3403,40.0996 L1.3403,21.0996 C0.3345,19.8281 0.3721,18.0195 1.4312,16.79 C2.4888,15.5605 4.27,15.2529 5.6792,16.0566 L14,20.8025 L14,3.5264 C14,0.8096 16.3491,-0.001 19.0015,5.28319013e-16 C21.6519,-0.001 24,0.8086 24,3.5264 L24,27.3066 C24,27.3066 24.2578,27.4609 24.3863,26.985 C24.5473,26.3888 26.3967,19.4355 26.3967,19.4355 L32.3208,16.0566 C33.73,15.2529 35.5112,15.5605 36.5688,16.79 C37.1147,17.4238 37.3887,18.2119 37.3887,19 C37.3887,19.7412 37.147,20.4834 36.6597,21.0996 L21.6597,40.0996 C21.0171,40.9141 20.0371,41.3887 19,41.3887 C17.9629,41.3887 16.9829,40.9141 16.3403,40.0996 Z" id="Shape"></path>
                </g>
            </g>
        </g>
    </g>
</svg>