<?xml version="1.0" encoding="UTF-8" standalone="no"?>
<svg width="64px" height="64px" viewBox="0 0 64 64" version="1.1" xmlns="http://www.w3.org/2000/svg" xmlns:xlink="http://www.w3.org/1999/xlink">
    <!-- Generator: Sketch 41 (35326) - http://www.bohemiancoding.com/sketch -->
    <title>1003-pijl-rechts</title>
    <desc>Created with Sketch.</desc>
    <defs>
        <rect id="path-1" x="0" y="0" width="64" height="64"></rect>
        <mask id="mask-2" maskContentUnits="userSpaceOnUse" maskUnits="objectBoundingBox" x="0" y="0" width="64" height="64" fill="white">
            <use xlink:href="#path-1"></use>
        </mask>
    </defs>
    <g id="Page-1" stroke="none" stroke-width="1" fill="none" fill-rule="evenodd">
        <g id="rhs-icons" transform="translate(-25.000000, -200.000000)">
            <g id="1003-pijl-rechts" transform="translate(25.000000, 200.000000)">
                <g id="box" stroke="#FF0000" stroke-width="2">
                    <use id="Rectangle-path" mask="url(#mask-2)" xlink:href="#path-1"></use>
                </g>
                <g id="icon" transform="translate(11.000000, 13.000000)" fill="#000000">
                    <path d="M40.0996,16.3403 L21.0996,1.3403 C19.8281,0.3345 18.0195,0.3721 16.79,1.4312 C15.5605,2.4888 15.2529,4.27 16.0566,5.6792 L20.8025,14 L3.5264,14 C0.8096,14 -0.001,16.3491 5.28319013e-16,19.0015 C-0.001,21.6519 0.8086,24 3.5264,24 L27.3066,24 C27.3066,24 27.4609,24.2578 26.985,24.3863 C26.3888,24.5473 19.4355,26.3967 19.4355,26.3967 L16.0566,32.3208 C15.2529,33.73 15.5605,35.5112 16.79,36.5688 C17.4238,37.1147 18.2119,37.3887 19,37.3887 C19.7412,37.3887 20.4834,37.147 21.0996,36.6597 L40.0996,21.6597 C40.9141,21.0171 41.3887,20.0371 41.3887,19 C41.3887,17.9629 40.9141,16.9829 40.0996,16.3403 Z" id="Shape"></path>
                </g>
            </g>
        </g>
    </g>
</svg>