<?xml version="1.0" encoding="UTF-8" standalone="no"?>
<svg width="64px" height="64px" viewBox="0 0 64 64" version="1.1" xmlns="http://www.w3.org/2000/svg" xmlns:xlink="http://www.w3.org/1999/xlink">
    <!-- Generator: Sketch 41 (35326) - http://www.bohemiancoding.com/sketch -->
    <title>1004-pijl-boven</title>
    <desc>Created with Sketch.</desc>
    <defs>
        <rect id="path-1" x="0" y="0" width="64" height="64"></rect>
        <mask id="mask-2" maskContentUnits="userSpaceOnUse" maskUnits="objectBoundingBox" x="0" y="0" width="64" height="64" fill="white">
            <use xlink:href="#path-1"></use>
        </mask>
    </defs>
    <g id="Page-1" stroke="none" stroke-width="1" fill="none" fill-rule="evenodd">
        <g id="rhs-icons" transform="translate(-109.000000, -200.000000)">
            <g id="1004-pijl-boven" transform="translate(109.000000, 200.000000)">
                <g id="box" stroke="#FF0000" stroke-width="2">
                    <use id="Rectangle-path" mask="url(#mask-2)" xlink:href="#path-1"></use>
                </g>
                <g id="icon" transform="translate(13.000000, 11.000000)" fill="#000000">
                    <path d="M16.3403,1.9004 L1.3403,20.9004 C0.3345,22.1719 0.3721,23.9805 1.4312,25.21 C2.4888,26.4395 4.27,26.7471 5.6792,25.9434 L14,21.1975 L14,38.4736 C14,41.1904 16.3491,42.001 19.0015,42 C21.6519,42.001 24,41.1914 24,38.4736 L24,14.6934 C24,14.6934 24.2578,14.5391 24.3863,15.015 C24.5473,15.6112 26.3967,22.5645 26.3967,22.5645 L32.3208,25.9434 C33.73,26.7471 35.5112,26.4395 36.5688,25.21 C37.1147,24.5762 37.3887,23.7881 37.3887,23 C37.3887,22.2588 37.147,21.5166 36.6597,20.9004 L21.6597,1.9004 C21.0171,1.0859 20.0371,0.6113 19,0.6113 C17.9629,0.6113 16.9829,1.0859 16.3403,1.9004 Z" id="Shape"></path>
                </g>
            </g>
        </g>
    </g>
</svg>