<?xml version="1.0" encoding="UTF-8" standalone="no"?>
<svg width="64px" height="64px" viewBox="0 0 64 64" version="1.1" xmlns="http://www.w3.org/2000/svg" xmlns:xlink="http://www.w3.org/1999/xlink">
    <!-- Generator: Sketch 41 (35326) - http://www.bohemiancoding.com/sketch -->
    <title>1005-kaart</title>
    <desc>Created with Sketch.</desc>
    <defs>
        <rect id="path-1" x="0" y="0" width="64" height="64"></rect>
        <mask id="mask-2" maskContentUnits="userSpaceOnUse" maskUnits="objectBoundingBox" x="0" y="0" width="64" height="64" fill="white">
            <use xlink:href="#path-1"></use>
        </mask>
    </defs>
    <g id="Page-1" stroke="none" stroke-width="1" fill="none" fill-rule="evenodd">
        <g id="rhs-icons" transform="translate(-193.000000, -200.000000)">
            <g id="1005-kaart" transform="translate(193.000000, 200.000000)">
                <g id="box" stroke="#FF0000" stroke-width="2">
                    <use id="Rectangle-path" mask="url(#mask-2)" xlink:href="#path-1"></use>
                </g>
                <g id="icon" transform="translate(3.000000, 6.000000)" fill="#000000">
                    <path d="M23,1 C23,1 20.4651,14.4348 20.3862,14.728 C20.2907,15.0821 20.0002,14.9889 20.0002,14.9889 L20,0 L1.1704,8.5838 C0.4575,8.9088 0,9.6201 0,10.4036 L0,49.9989 C0,50.7267 0.7526,51.2107 1.4148,50.9088 L19.9625,41.8998 L37.143,50.5676 C37.6848,50.8409 38.3213,50.8535 38.8735,50.6018 L56.8297,42.4162 C57.5425,42.0912 58,41.3799 58,40.5964 L58,1.0012 C58,0.2734 57.2474,-0.2106 56.5852,0.0913 L38,9.0833 L23,1 Z" id="Shape"></path>
                </g>
            </g>
        </g>
    </g>
</svg>