<?xml version="1.0" encoding="UTF-8" standalone="no"?>
<svg width="64px" height="64px" viewBox="0 0 64 64" version="1.1" xmlns="http://www.w3.org/2000/svg" xmlns:xlink="http://www.w3.org/1999/xlink">
    <!-- Generator: Sketch 41 (35326) - http://www.bohemiancoding.com/sketch -->
    <title>1016-actueel</title>
    <desc>Created with Sketch.</desc>
    <defs>
        <rect id="path-1" x="0" y="0" width="64" height="64"></rect>
        <mask id="mask-2" maskContentUnits="userSpaceOnUse" maskUnits="objectBoundingBox" x="0" y="0" width="64" height="64" fill="white">
            <use xlink:href="#path-1"></use>
        </mask>
    </defs>
    <g id="Page-1" stroke="none" stroke-width="1" fill="none" fill-rule="evenodd">
        <g id="rhs-icons" transform="translate(-193.000000, -284.000000)">
            <g id="1016-actueel" transform="translate(193.000000, 284.000000)">
                <g id="Box" stroke="#FF0000" stroke-width="2">
                    <use id="Rectangle-path" mask="url(#mask-2)" xlink:href="#path-1"></use>
                </g>
                <g id="Icon" transform="translate(12.000000, 7.000000)" fill="#000000">
                    <g id="Group">
                        <rect id="Rectangle-path" x="8" y="8" width="24" height="5"></rect>
                        <rect id="Rectangle-path" x="8" y="34" width="24" height="3"></rect>
                        <rect id="Rectangle-path" x="8" y="39" width="18" height="3"></rect>
                        <rect id="Rectangle-path" x="8" y="17" width="10" height="3"></rect>
                        <rect id="Rectangle-path" x="8" y="22" width="10" height="3"></rect>
                        <rect id="Rectangle-path" x="8" y="27" width="10" height="3"></rect>
                        <rect id="Rectangle-path" x="21" y="17" width="11" height="13"></rect>
                        <path d="M38,0 L2,0 C0.8955,0 0,0.8955 0,2 L0,48 C0,49.1045 0.8955,50 2,50 L38,50 C39.1045,50 40,49.1045 40,48 L40,2 C40,0.8955 39.1045,0 38,0 Z M35,45 L5,45 L5,5 L35,5 L35,45 Z" id="Shape"></path>
                    </g>
                </g>
            </g>
        </g>
    </g>
</svg>