<?xml version="1.0" encoding="UTF-8" standalone="no"?>
<svg width="64px" height="64px" viewBox="0 0 64 64" version="1.1" xmlns="http://www.w3.org/2000/svg" xmlns:xlink="http://www.w3.org/1999/xlink">
    <!-- Generator: Sketch 41 (35326) - http://www.bohemiancoding.com/sketch -->
    <title>1045-ketting</title>
    <desc>Created with Sketch.</desc>
    <defs>
        <rect id="path-1" x="0" y="0" width="64" height="64"></rect>
        <mask id="mask-2" maskContentUnits="userSpaceOnUse" maskUnits="objectBoundingBox" x="0" y="0" width="64" height="64" fill="white">
            <use xlink:href="#path-1"></use>
        </mask>
    </defs>
    <g id="Page-1" stroke="none" stroke-width="1" fill="none" fill-rule="evenodd">
        <g id="rhs-icons" transform="translate(-361.000000, -200.000000)">
            <g id="1045-ketting" transform="translate(361.000000, 200.000000)">
                <g id="box" stroke="#FF0000" stroke-width="2">
                    <use id="Rectangle-path" mask="url(#mask-2)" xlink:href="#path-1"></use>
                </g>
                <g id="Icon" transform="translate(6.000000, 6.000000)" fill="#000000">
                    <path d="M47.9092,4.0908 C42.4547,-1.3637 33.5808,-1.3637 28.1273,4.0908 L21.7678,10.4498 C16.3143,15.9043 16.3143,24.7778 21.7683,30.2322 C23.5622,32.0264 25.7299,33.2087 28.0209,33.818 C27.6544,35.1218 26.9718,36.3333 25.9929,37.3122 L19.6344,43.6712 C16.5174,46.7868 11.4459,46.7887 8.3298,43.6712 C5.2132,40.5546 5.2132,35.4827 8.3293,32.3661 L14.6883,26.0071 C15.1056,25.5898 15.5599,25.2329 16.0379,24.9274 C15.4334,22.8555 15.2543,20.6877 15.4874,18.556 C13.6497,19.2334 11.9229,20.2949 10.4496,21.7684 L4.0901,28.1274 C-1.3634,33.582 -1.3634,42.4555 4.0905,47.91 C6.8172,50.6372 10.3997,52.0004 13.9817,52.0004 C17.5637,52.0004 21.1462,50.6373 23.8734,47.91 L30.2319,41.551 L30.2314,41.551 C33.3919,38.3915 34.8579,33.8669 34.1534,29.4478 C33.687,26.5235 32.3312,23.8684 30.2314,21.7686 C28.9048,20.442 27.3739,19.4481 25.7403,18.7721 C24.8915,20.2606 25.0634,22.3488 25.4568,23.8715 C25.7204,24.8919 26.0862,25.4322 26.1273,25.7543 C26.151,25.9393 26.0072,25.9933 26.0072,25.9933 C24.1579,24.1186 23.5846,21.8532 23.6718,19.9466 C23.7631,17.9525 24.6902,16.0053 26.0068,14.6886 L32.3658,8.3296 C33.9246,6.7713 35.9707,5.9927 38.0179,5.9927 C40.0645,5.9927 42.1122,6.7723 43.6704,8.3296 C46.787,11.4462 46.787,16.5181 43.6704,19.6347 L37.3119,25.9937 C36.889,26.4164 36.4279,26.7766 35.9429,27.0847 C36.5426,29.139 36.735,31.3018 36.4985,33.4495 C38.3416,32.7726 40.0738,31.7097 41.5511,30.2324 L47.9096,23.8734 L47.9091,23.8734 C53.3636,18.4198 53.3636,9.5443 47.9092,4.0908 Z" id="Shape"></path>
                </g>
            </g>
        </g>
    </g>
</svg>