<?xml version="1.0" encoding="UTF-8" standalone="no"?>
<svg width="64px" height="64px" viewBox="0 0 64 64" version="1.1" xmlns="http://www.w3.org/2000/svg" xmlns:xlink="http://www.w3.org/1999/xlink">
    <!-- Generator: Sketch 41 (35326) - http://www.bohemiancoding.com/sketch -->
    <title>2002-info</title>
    <desc>Created with Sketch.</desc>
    <defs>
        <rect id="path-1" x="0" y="0" width="64" height="64"></rect>
        <mask id="mask-2" maskContentUnits="userSpaceOnUse" maskUnits="objectBoundingBox" x="0" y="0" width="64" height="64" fill="white">
            <use xlink:href="#path-1"></use>
        </mask>
    </defs>
    <g id="Page-1" stroke="none" stroke-width="1" fill="none" fill-rule="evenodd">
        <g id="rhs-icons" transform="translate(-109.000000, -284.000000)">
            <g id="2002-info" transform="translate(109.000000, 284.000000)">
                <g id="box" stroke="#FF0000" stroke-width="2">
                    <use id="Rectangle-path" mask="url(#mask-2)" xlink:href="#path-1"></use>
                </g>
                <g id="icon" transform="translate(9.000000, 9.000000)" fill="#000000">
                    <path d="M44.8564,5.1172 C44.5132,3.0557 42.9448,1.4873 40.8828,1.1436 C34.9219,0.1499 24.9868,0.1499 23,0.1499 C21.0132,0.1499 11.0781,0.1499 5.1172,1.1436 C3.0552,1.4873 1.4868,3.0557 1.1436,5.1172 C0.1499,11.0781 0.1499,21.0132 0.1499,23 C0.1499,24.9868 0.1499,34.9219 1.1436,40.8828 C1.4868,42.9443 3.0552,44.5127 5.1172,44.8564 C11.0781,45.8501 21.0132,45.8501 23,45.8501 C24.9868,45.8501 34.9219,45.8501 40.8828,44.8564 C42.9448,44.5127 44.5132,42.9443 44.8564,40.8828 C45.8501,34.9219 45.8501,24.9868 45.8501,23 C45.8501,17.0361 45.8501,11.0781 44.8564,5.1172 Z M26,39 L19.4355,39 L20,25 L20,17 L26,17 L26,39 Z M23.0229,13 C20.7813,13 19.5,11.7466 19.5,9.457 C19.5,7.5122 20.6895,6 22.9771,6 C25.2188,6 26.5,7.2095 26.5,9.457 C26.5,11.4443 25.3105,13 23.0229,13 Z" id="Shape"></path>
                </g>
            </g>
        </g>
    </g>
</svg>