<?xml version="1.0" encoding="UTF-8" standalone="no"?>
<svg width="64px" height="64px" viewBox="0 0 64 64" version="1.1" xmlns="http://www.w3.org/2000/svg" xmlns:xlink="http://www.w3.org/1999/xlink">
    <!-- Generator: Sketch 41 (35326) - http://www.bohemiancoding.com/sketch -->
    <title>2003-hulp</title>
    <desc>Created with Sketch.</desc>
    <defs>
        <rect id="path-1" x="0" y="0" width="64" height="64"></rect>
        <mask id="mask-2" maskContentUnits="userSpaceOnUse" maskUnits="objectBoundingBox" x="0" y="0" width="64" height="64" fill="white">
            <use xlink:href="#path-1"></use>
        </mask>
    </defs>
    <g id="Page-1" stroke="none" stroke-width="1" fill="none" fill-rule="evenodd">
        <g id="rhs-icons" transform="translate(-25.000000, -284.000000)">
            <g id="2003-hulp" transform="translate(25.000000, 284.000000)">
                <g id="box" stroke="#FF0000" stroke-width="2">
                    <use id="Rectangle-path" mask="url(#mask-2)" xlink:href="#path-1"></use>
                </g>
                <g id="icon" transform="translate(8.000000, 8.000000)" fill="#000000">
                    <path d="M44.8564,5.1172 C44.5132,3.0557 42.9448,1.4873 40.8828,1.1436 C34.9219,0.1499 24.9868,0.1499 23,0.1499 C21.0132,0.1499 11.0781,0.1499 5.1172,1.1436 C3.0552,1.4873 1.4868,3.0557 1.1436,5.1172 C0.1499,11.0781 0.1499,21.0132 0.1499,23 C0.1499,24.9868 0.1499,34.9219 1.1436,40.8828 C1.4868,42.9443 3.0552,44.5127 5.1172,44.8564 C11.0781,45.8501 21.0132,45.8501 23,45.8501 C24.9868,45.8501 34.9219,45.8501 40.8828,44.8564 C42.9448,44.5127 44.5132,42.9443 44.8564,40.8828 C45.8501,34.9219 45.8501,24.9868 45.8501,23 C45.8501,17.0361 45.8501,11.0781 44.8564,5.1172 Z M23.0225,39 C20.7803,39 19.5,37.7905 19.5,35.543 C19.5,33.5557 20.6895,32 22.9775,32 C25.2197,32 26.5,33.2529 26.5,35.543 C26.5,37.4883 25.3105,39 23.0225,39 Z M28.0913,21.8569 L25.6729,23.1904 C24.2705,23.9521 23.6421,24.9043 23.6421,25.9521 C23.6421,26.6003 23.8312,27.2938 24.1284,28 L19.0807,28 C18.642,27.2289 18.418,26.3414 18.418,25.333 C18.418,23.1426 19.4336,21.5713 22.0454,19.9995 L24.6084,18.4761 C26.6401,17.2856 27.3169,16.333 27.3169,14.8091 C27.3169,13.1904 25.7695,12 22.7222,12 C20.4971,12 18.3691,12.4287 16,13.333 L16,8.5234 C18.6592,7.4761 21.126,7 24.1255,7 C29.6382,7 33.2173,9.8569 33.2173,14.1426 C33.2173,17.8569 31.8154,19.8096 28.0913,21.8569 Z" id="Shape"></path>
                </g>
            </g>
        </g>
    </g>
</svg>