<?xml version="1.0" encoding="UTF-8" standalone="no"?>
<svg width="64px" height="64px" viewBox="0 0 64 64" version="1.1" xmlns="http://www.w3.org/2000/svg" xmlns:xlink="http://www.w3.org/1999/xlink">
    <!-- Generator: Sketch 41 (35326) - http://www.bohemiancoding.com/sketch -->
    <title>2004-home</title>
    <desc>Created with Sketch.</desc>
    <defs>
        <rect id="path-1" x="0" y="0" width="64" height="64"></rect>
        <mask id="mask-2" maskContentUnits="userSpaceOnUse" maskUnits="objectBoundingBox" x="0" y="0" width="64" height="64" fill="white">
            <use xlink:href="#path-1"></use>
        </mask>
    </defs>
    <g id="Page-1" stroke="none" stroke-width="1" fill="none" fill-rule="evenodd">
        <g id="rhs-icons" transform="translate(-782.000000, -200.000000)">
            <g id="2004-home" transform="translate(782.000000, 200.000000)">
                <g id="box" stroke="#FF0000" stroke-width="2">
                    <use id="Rectangle-path" mask="url(#mask-2)" xlink:href="#path-1"></use>
                </g>
                <g id="icon" transform="translate(7.000000, 8.000000)" fill="#000000">
                    <path d="M49.354,22.0468 L25.6772,0.264 C25.2944,-0.088 24.7056,-0.088 24.3228,0.264 L0.646,22.0468 C0.2344,22.4257 0,22.9594 0,23.5184 L0,25 C0,25.5522 0.4478,26 1,26 L5,26 L5,47 L20,47 L20,32 L30,32 L30,47 L45,47 L45,26 L49,26 C49.5522,26 50,25.5522 50,25 L50,23.5184 C50,22.9594 49.7656,22.4257 49.354,22.0468 Z" id="Shape"></path>
                </g>
            </g>
        </g>
    </g>
</svg>