<?xml version="1.0" encoding="UTF-8" standalone="no"?>
<svg width="64px" height="64px" viewBox="0 0 64 64" version="1.1" xmlns="http://www.w3.org/2000/svg" xmlns:xlink="http://www.w3.org/1999/xlink">
    <!-- Generator: Sketch 41 (35326) - http://www.bohemiancoding.com/sketch -->
    <title>2005-contact</title>
    <desc>Created with Sketch.</desc>
    <defs>
        <rect id="path-1" x="0" y="0" width="64" height="64"></rect>
        <mask id="mask-2" maskContentUnits="userSpaceOnUse" maskUnits="objectBoundingBox" x="0" y="0" width="64" height="64" fill="white">
            <use xlink:href="#path-1"></use>
        </mask>
    </defs>
    <g id="Page-1" stroke="none" stroke-width="1" fill="none" fill-rule="evenodd">
        <g id="rhs-icons" transform="translate(-697.000000, -200.000000)">
            <g id="2005-contact" transform="translate(697.000000, 200.000000)">
                <g id="box" stroke="#FF0000" stroke-width="2">
                    <use id="Rectangle-path" mask="url(#mask-2)" xlink:href="#path-1"></use>
                </g>
                <g id="icon" transform="translate(5.000000, 9.000000)" fill="#000000">
                    <g id="Group">
                        <path d="M54.2432,4.0314 C53.9818,2.4205 52.7871,1.1948 51.2163,0.9263 C46.6758,0.15 39.1079,0.15 37.5947,0.15 C36.0811,0.15 28.5132,0.15 23.9727,0.9264 C22.4022,1.1949 21.2075,2.4206 20.9458,4.0315 C20.7266,5.3805 20.5723,6.6861 20.4617,7.9023 C24.4471,7.9201 30.9148,8.0719 35.1611,8.798 C37.8809,9.2629 39.9282,11.3507 40.377,14.1169 C41.25,19.4884 41.25,20.88 41.25,26.0558 C41.25,26.6598 41.249,27.6064 41.2158,28.7933 L48.6934,34.8517 C49.229,35.2091 49.7407,35.0373 50.0249,34.6877 C50.228,34.4377 50.2437,34.1252 50.0874,33.7345 L48.0991,28.2929 C49.2129,28.1921 50.2803,28.0665 51.2163,27.9065 C52.7871,27.6379 53.9818,26.4123 54.2432,24.8019 C55,20.1436 55,15.9689 55,14.4166 C55,9.7563 55,8.6885 54.2432,4.0314 Z" id="Shape"></path>
                        <path d="M34.7816,11.0156 C29.7191,10.15 21.2816,10.15 19.5947,10.15 C17.9072,10.15 9.4697,10.15 4.4077,11.0156 C2.6561,11.3149 1.3242,12.6813 1.0327,14.4772 C0.189,19.6699 0.189,24.3253 0.189,26.0557 C0.189,27.7861 0.189,32.4415 1.0327,37.6339 C1.3242,39.4297 2.6561,40.796 4.4077,41.0958 C5.0703,41.209 5.7935,41.3062 6.5494,41.3913 L10.3117,36.171 C10.5083,35.8847 10.6978,36.094 10.6978,36.094 L7.4399,47.5911 L7.4303,47.5865 L7.3782,47.7715 C7.3352,48.0195 7.3821,48.2783 7.5256,48.5079 C7.8362,49.0021 8.4856,49.1484 8.9788,48.835 L20.2302,41.9601 C22.8026,41.9536 30.1787,41.8824 34.7816,41.0958 C36.5327,40.796 37.8646,39.4297 38.1561,37.6339 C39,32.4415 39,27.7861 39,26.0557 C39,20.8605 39,19.6699 38.1561,14.4772 C37.8646,12.6813 36.5327,11.3149 34.7816,11.0156 Z M10.5,29.075 C9.0776,29.075 7.925,27.9222 7.925,26.5 C7.925,25.0776 9.0776,23.925 10.5,23.925 C11.9224,23.925 13.075,25.0776 13.075,26.5 C13.075,27.9222 11.9224,29.075 10.5,29.075 Z M19.5,29.075 C18.0776,29.075 16.925,27.9222 16.925,26.5 C16.925,25.0776 18.0776,23.925 19.5,23.925 C20.9224,23.925 22.075,25.0776 22.075,26.5 C22.075,27.9222 20.9224,29.075 19.5,29.075 Z M28.5,29.075 C27.0776,29.075 25.925,27.9222 25.925,26.5 C25.925,25.0776 27.0776,23.925 28.5,23.925 C29.9224,23.925 31.075,25.0776 31.075,26.5 C31.075,27.9222 29.9224,29.075 28.5,29.075 Z" id="Shape"></path>
                    </g>
                </g>
            </g>
        </g>
    </g>
</svg>