<?xml version="1.0" encoding="UTF-8" standalone="no"?>
<svg width="64px" height="64px" viewBox="0 0 64 64" version="1.1" xmlns="http://www.w3.org/2000/svg" xmlns:xlink="http://www.w3.org/1999/xlink">
    <!-- Generator: Sketch 41 (35326) - http://www.bohemiancoding.com/sketch -->
    <title>2007-printer</title>
    <desc>Created with Sketch.</desc>
    <defs>
        <rect id="path-1" x="0" y="0" width="64" height="64"></rect>
        <mask id="mask-2" maskContentUnits="userSpaceOnUse" maskUnits="objectBoundingBox" x="0" y="0" width="64" height="64" fill="white">
            <use xlink:href="#path-1"></use>
        </mask>
    </defs>
    <g id="Page-1" stroke="none" stroke-width="1" fill="none" fill-rule="evenodd">
        <g id="rhs-icons" transform="translate(-613.000000, -200.000000)">
            <g id="2007-printer" transform="translate(613.000000, 200.000000)">
                <g id="box" stroke="#FF0000" stroke-width="2">
                    <use id="Rectangle-path" mask="url(#mask-2)" xlink:href="#path-1"></use>
                </g>
                <g id="icon" transform="translate(7.000000, 11.000000)" fill="#000000">
                    <g id="Group">
                        <path d="M13,4 L36,4 L36.1539,6 L40,6 L39.7147,1.6089 C39.7147,0.7207 39.162,0 38.2752,0 L10.8996,0 C10.0158,0 9.2853,0.7246 9.2853,1.6089 L9,6 L12.8461,6 L13,4 Z" id="Shape"></path>
                        <path d="M48,8 L2,8 C0.8955,8 0,8.8955 0,10 L0,27 C0,28.1045 0.8955,29 2,29 L6.4839,29 L18.4756,41.3774 C18.8455,41.7665 19.3508,42 20,42 L42.3926,42 C43.2803,42 44,41.2793 44,40.3926 L42.6541,29 L48,29 C49.1045,29 50,28.1045 50,27 L50,10 C50,8.8955 49.1045,8 48,8 Z M21.1895,38 C21.1895,38 20.5198,40.072 20.4083,40.4227 C20.2969,40.7734 20.0937,40.7734 20,40.7343 L20,38 L20,35.8696 L20,30 C20,29.4478 19.5527,29 19,29 L10.4863,29 L11.6211,20 L37.3721,20 L39.5107,38 L21.1895,38 Z M44.9989,15.16 C43.806,15.16 42.84,14.1929 42.84,13 C42.84,11.8066 43.806,10.84 44.9989,10.84 C46.1929,10.84 47.16,11.8066 47.16,13 C47.16,14.1929 46.1929,15.16 44.9989,15.16 Z" id="Shape"></path>
                    </g>
                </g>
            </g>
        </g>
    </g>
</svg>