<?xml version="1.0" encoding="UTF-8" standalone="no"?>
<svg width="64px" height="64px" viewBox="0 0 64 64" version="1.1" xmlns="http://www.w3.org/2000/svg" xmlns:xlink="http://www.w3.org/1999/xlink">
    <!-- Generator: Sketch 41 (35326) - http://www.bohemiancoding.com/sketch -->
    <title>2014-nieuws</title>
    <desc>Created with Sketch.</desc>
    <defs>
        <rect id="path-1" x="0" y="0" width="64" height="64"></rect>
        <mask id="mask-2" maskContentUnits="userSpaceOnUse" maskUnits="objectBoundingBox" x="0" y="0" width="64" height="64" fill="white">
            <use xlink:href="#path-1"></use>
        </mask>
    </defs>
    <g id="Page-1" stroke="none" stroke-width="1" fill="none" fill-rule="evenodd">
        <g id="rhs-icons" transform="translate(-529.000000, -200.000000)">
            <g id="2014-nieuws" transform="translate(529.000000, 200.000000)">
                <g id="box" stroke="#FF0000" stroke-width="2">
                    <use id="Rectangle-path" mask="url(#mask-2)" xlink:href="#path-1"></use>
                </g>
                <g id="icon" transform="translate(5.000000, 11.000000)" fill="#000000">
                    <g id="Group" transform="translate(18.000000, 18.000000)">
                        <path d="M10.4469,13 C10.6768,12.0897 10.8333,11.0785 10.9197,10 L0.9377,10 C0.8708,11.0474 0.7458,12.0491 0.5662,13 L10.4469,13 Z" id="Shape"></path>
                        <rect id="Rectangle-path" x="1" y="5" width="10" height="3"></rect>
                        <rect id="Rectangle-path" x="1" y="0" width="10" height="3"></rect>
                    </g>
                    <g id="Group">
                        <path d="M52,0 L11,0 C9.8954,0 9,0.8954 9,2 L9,26.1665 C9,27.7899 8.8403,29.3013 8.5447,30.6282 C8.5447,30.6282 8.2488,30.7291 8.1997,30.3268 C7.7711,26.8118 5.854,10 5.854,10 L1.7742,10 C0.7432,10 0.0633,10.8115 0.1764,11.7191 C0.7431,16.2657 1.9846,24.2852 2.5732,28.3574 C3.5146,34.8589 4.4033,41 12,41 L44.166,41 C50.1396,41 54,35.1777 54,26.1665 L54,2 C54,0.8954 53.1046,0 52,0 Z M49,26.1665 C49,30.9028 47.4873,36 44.166,36 L11.8633,36 C13.2437,33.4529 14,30 14,25 L14,5 L49,5 L49,26.1665 Z" id="Shape"></path>
                        <rect id="Rectangle-path" x="19" y="10" width="25" height="5"></rect>
                        <path d="M32,24 L32,26.1665 C32,27.892 31.8384,29.5035 31.5547,31 L43.3985,31 C43.9,29.85 44,27.7811 44,26 L44,18 L32,18 L32,24 Z" id="Shape"></path>
                        <path d="M28.9197,28 L18.9378,28 C18.8709,29.0474 18.7459,30.0491 18.5662,31 L28.4469,31 C28.6768,30.0897 28.8333,29.0785 28.9197,28 Z" id="Shape"></path>
                        <rect id="Rectangle-path" x="19" y="23" width="10" height="3"></rect>
                        <rect id="Rectangle-path" x="19" y="18" width="10" height="3"></rect>
                    </g>
                </g>
            </g>
        </g>
    </g>
</svg>