<?xml version="1.0" encoding="UTF-8" standalone="no"?>
<svg width="64px" height="64px" viewBox="0 0 64 64" version="1.1" xmlns="http://www.w3.org/2000/svg" xmlns:xlink="http://www.w3.org/1999/xlink">
    <!-- Generator: Sketch 41 (35326) - http://www.bohemiancoding.com/sketch -->
    <title>2015-rss</title>
    <desc>Created with Sketch.</desc>
    <defs>
        <rect id="path-1" x="0" y="0" width="64" height="64"></rect>
        <mask id="mask-2" maskContentUnits="userSpaceOnUse" maskUnits="objectBoundingBox" x="0" y="0" width="64" height="64" fill="white">
            <use xlink:href="#path-1"></use>
        </mask>
    </defs>
    <g id="Page-1" stroke="none" stroke-width="1" fill="none" fill-rule="evenodd">
        <g id="rhs-icons" transform="translate(-363.000000, -115.000000)">
            <g id="2015-rss" transform="translate(363.000000, 115.000000)">
                <g id="box" stroke="#FF0000" stroke-width="2">
                    <use id="Rectangle-path" mask="url(#mask-2)" xlink:href="#path-1"></use>
                </g>
                <g id="icon" transform="translate(9.000000, 9.000000)" fill="#000000">
                    <path d="M44.8564,5.1172 C44.5137,3.0557 42.9453,1.4873 40.8828,1.1436 C34.9219,0.1504 24.9863,0.1504 23,0.1504 C21.0137,0.1504 11.0781,0.1504 5.1172,1.1436 C3.0547,1.4873 1.4863,3.0557 1.1436,5.1172 C0.1504,11.0781 0.1504,21.0137 0.1504,23 C0.1504,24.9863 0.1504,34.9219 1.1436,40.8828 C1.4863,42.9443 3.0547,44.5127 5.1172,44.8564 C11.0781,45.8496 21.0137,45.8496 23,45.8496 C24.9863,45.8496 34.9219,45.8496 40.8828,44.8564 C42.9453,44.5127 44.5137,42.9443 44.8564,40.8828 C45.8496,34.9219 45.8496,24.9863 45.8496,23 C45.8496,17.0361 45.8496,11.0781 44.8564,5.1172 Z M11.502,39.5435 C8.2499,39.5435 6.457,37.7524 6.457,34.4995 C6.457,31.2476 8.2499,29.4575 11.502,29.4575 C14.752,29.4575 16.543,31.2476 16.543,34.4995 C16.543,37.7524 14.752,39.5435 11.502,39.5435 Z M26.1288,39.9911 C25.0841,40.006 24.0205,40.0163 22.92,40.0163 C21.9695,40.0163 21.0437,40.0092 20.1342,39.9981 C20.9819,38.4893 21.4555,36.6811 21.4555,34.6386 C21.4555,28.6013 17.3996,24.5449 11.3628,24.5449 C9.3197,24.5449 7.5111,25.0187 6.0019,25.8669 C5.9908,24.957 5.9837,24.0309 5.9837,23.08 C5.9837,21.9798 5.994,20.9165 6.0089,19.8721 C7.6604,19.3251 9.4517,19.0166 11.3628,19.0166 C20.4142,19.0166 26.9838,25.5866 26.9838,34.6386 C26.9838,36.5492 26.6756,38.34 26.1288,39.9911 Z M38.1657,39.3384 C36.4409,39.5441 34.3269,39.7079 31.8989,39.8221 C32.2856,38.1708 32.5121,36.4434 32.5121,34.6386 C32.5121,22.581 23.4199,13.4883 11.3629,13.4883 C9.5576,13.4883 7.8297,13.7149 6.1779,14.1019 C6.2921,11.6742 6.4559,9.5603 6.6616,7.835 C8.1825,7.5909 9.7506,7.4575 11.3628,7.4575 C26.858,7.4575 38.543,19.1428 38.543,34.6386 C38.543,36.2504 38.4096,37.8179 38.1657,39.3384 Z" id="Shape"></path>
                </g>
            </g>
        </g>
    </g>
</svg>