<?xml version="1.0" encoding="UTF-8" standalone="no"?>
<svg width="64px" height="64px" viewBox="0 0 64 64" version="1.1" xmlns="http://www.w3.org/2000/svg" xmlns:xlink="http://www.w3.org/1999/xlink">
    <!-- Generator: Sketch 41 (35326) - http://www.bohemiancoding.com/sketch -->
    <title>2016-vraag-en-antwoord</title>
    <desc>Created with Sketch.</desc>
    <defs>
        <rect id="path-1" x="0" y="0" width="64" height="64"></rect>
        <mask id="mask-2" maskContentUnits="userSpaceOnUse" maskUnits="objectBoundingBox" x="0" y="0" width="64" height="64" fill="white">
            <use xlink:href="#path-1"></use>
        </mask>
    </defs>
    <g id="Page-1" stroke="none" stroke-width="1" fill="none" fill-rule="evenodd">
        <g id="rhs-icons" transform="translate(-445.000000, -201.000000)">
            <g id="2016-vraag-en-antwoord" transform="translate(445.000000, 201.000000)">
                <g id="box" stroke="#FF0000" stroke-width="2">
                    <use id="Rectangle-path" mask="url(#mask-2)" xlink:href="#path-1"></use>
                </g>
                <g id="icon" transform="translate(4.000000, 7.000000)" fill="#000000">
                    <path d="M54.0933,4.0313 C53.832,2.4204 52.6372,1.1948 51.0664,0.9263 C46.5259,0.1499 38.958,0.1499 37.4448,0.1499 C35.9312,0.1499 28.3633,0.1499 23.8228,0.9263 C22.2524,1.1948 21.0576,2.4204 20.7959,4.0313 C20.5767,5.3803 20.4224,6.686 20.3118,7.9021 C24.2973,7.9199 30.765,8.0718 35.0112,8.7979 C37.731,9.2627 39.7783,11.3506 40.2271,14.1167 C41.1001,19.4883 41.1001,20.8799 41.1001,26.0557 C41.1001,26.6597 41.0992,27.6063 41.066,28.7932 L48.5435,34.8516 C49.0791,35.209 49.5908,35.0371 49.875,34.6875 C50.0781,34.4375 50.0938,34.125 49.9375,33.7344 L47.9493,28.2927 C49.063,28.1919 50.1304,28.0663 51.0664,27.9063 C52.6372,27.6377 53.832,26.4121 54.0933,24.8018 C54.8501,20.1436 54.8501,15.9688 54.8501,14.4165 C54.8501,9.7563 54.8501,8.6885 54.0933,4.0313 Z" id="Shape"></path>
                    <path d="M34.6318,11.0156 C29.5693,10.1499 21.1318,10.1499 19.4448,10.1499 C17.7573,10.1499 9.3198,10.1499 4.2578,11.0156 C2.5063,11.3149 1.1743,12.6812 0.8828,14.4771 C0.0391,19.6699 0.0391,24.3252 0.0391,26.0557 C0.0391,27.7861 0.0391,32.4414 0.8828,37.6338 C1.1743,39.4297 2.5063,40.7959 4.2578,41.0957 C4.9204,41.2089 5.6437,41.3061 6.3996,41.3912 L10.148,36.1943 C10.3446,35.908 10.5479,36.0939 10.5479,36.0939 L7.29,47.5911 L7.2805,47.5865 L7.2283,47.7715 C7.1854,48.0195 7.2322,48.2783 7.3758,48.5078 C7.6863,49.002 8.3358,49.1484 8.8289,48.835 L20.0804,41.96 C22.6528,41.9536 30.0289,41.8823 34.6318,41.0957 C36.3828,40.7959 37.7148,39.4297 38.0063,37.6338 C38.8501,32.4414 38.8501,27.7861 38.8501,26.0557 C38.8501,20.8604 38.8501,19.6699 38.0063,14.4771 C37.7148,12.6812 36.3828,11.3149 34.6318,11.0156 Z M18.5193,36.9761 C16.9158,36.9761 15.9998,36.1129 15.9998,34.5046 C15.9998,33.0845 16.8508,31.9701 18.4874,31.9701 C20.0911,31.9701 21.0075,32.8663 21.0075,34.5046 C21.0075,35.8969 20.1565,36.9761 18.5193,36.9761 Z M21.9346,25.3901 L20.3477,26.2519 C19.4272,26.7422 19.0151,27.3563 19.0151,28.0328 C19.0151,28.6479 19.2686,29.3245 19.6489,30 L16.5107,30 C15.876,29.3858 15.5869,28.5855 15.5869,27.6346 C15.5869,26.2192 16.2529,25.2058 17.9668,24.1906 L19.6489,23.208 C20.9824,22.4404 21.4263,21.8252 21.4263,20.8417 C21.4263,19.7966 20.4111,19.028 18.4116,19.028 C16.9512,19.028 15.5547,19.3044 14,19.8889 L14,16.7841 C15.7446,16.107 17.3638,15.8 19.3325,15.8 C22.9497,15.8 25.2983,17.6443 25.2983,20.4108 C25.2983,22.8079 24.3784,24.0687 21.9346,25.3901 Z" id="Shape"></path>
                </g>
            </g>
        </g>
    </g>
</svg>