<?xml version="1.0" encoding="UTF-8" standalone="no"?>
<svg width="64px" height="64px" viewBox="0 0 64 64" version="1.1" xmlns="http://www.w3.org/2000/svg" xmlns:xlink="http://www.w3.org/1999/xlink">
    <!-- Generator: Sketch 41 (35326) - http://www.bohemiancoding.com/sketch -->
    <title>2053-fysiek-archief</title>
    <desc>Created with Sketch.</desc>
    <defs>
        <rect id="path-1" x="0" y="0" width="64" height="64"></rect>
        <mask id="mask-2" maskContentUnits="userSpaceOnUse" maskUnits="objectBoundingBox" x="0" y="0" width="64" height="64" fill="white">
            <use xlink:href="#path-1"></use>
        </mask>
    </defs>
    <g id="Page-1" stroke="none" stroke-width="1" fill="none" fill-rule="evenodd">
        <g id="rhs-icons" transform="translate(-615.000000, -115.000000)">
            <g id="2053-fysiek-archief" transform="translate(615.000000, 115.000000)">
                <g id="box" stroke="#FF0000" stroke-width="2">
                    <use id="Rectangle-path" mask="url(#mask-2)" xlink:href="#path-1"></use>
                </g>
                <g id="Icon" transform="translate(7.000000, 10.000000)" fill="#000000">
                    <g id="Group">
                        <path d="M0,13 L0,46 C0,46.5523 0.4477,47 1,47 L49,47 C49.5523,47 50,46.5523 50,46 L50,13 C50,12.4477 49.5523,12 49,12 L1,12 C0.4477,12 0,12.4477 0,13 Z M18,20 L32,20 L32,27 L18,27 L18,20 Z M35,40.5 C35,41.3286 34.3281,42 33.5,42 L16.5,42 C15.6719,42 15,41.3286 15,40.5 L15,37 C15,36.1714 15.6719,35.5 16.5,35.5 C17.3281,35.5 18,36.1714 18,37 L18,39 L32,39 L32,37 C32,36.1714 32.6719,35.5 33.5,35.5 C34.3281,35.5 35,36.1714 35,37 L35,40.5 Z" id="Shape"></path>
                        <path d="M44,6 L6,6 C5.4477,6 5,6.4477 5,7 L5,10 L45,10 L45,7 C45,6.4477 44.5523,6 44,6 Z" id="Shape"></path>
                        <path d="M39,0 L11,0 C10.4477,0 10,0.4477 10,1 L10,4 L40,4 L40,1 C40,0.4477 39.5523,0 39,0 Z" id="Shape"></path>
                    </g>
                </g>
            </g>
        </g>
    </g>
</svg>