<?xml version="1.0" encoding="UTF-8" standalone="no"?>
<svg width="65px" height="64px" viewBox="0 0 65 64" version="1.1" xmlns="http://www.w3.org/2000/svg" xmlns:xlink="http://www.w3.org/1999/xlink">
    <!-- Generator: Sketch 41 (35326) - http://www.bohemiancoding.com/sketch -->
    <title>icon-arrow-fat-right</title>
    <desc>Created with Sketch.</desc>
    <defs>
        <rect id="path-1" x="0" y="0" width="64" height="64"></rect>
        <mask id="mask-2" maskContentUnits="userSpaceOnUse" maskUnits="objectBoundingBox" x="0" y="0" width="64" height="64" fill="white">
            <use xlink:href="#path-1"></use>
        </mask>
    </defs>
    <g id="Page-1" stroke="none" stroke-width="1" fill="none" fill-rule="evenodd">
        <g id="rhs-icons" transform="translate(-284.000000, -26.000000)">
            <g id="icon-arrow-fat-right" transform="translate(284.000000, 26.000000)">
                <g id="Box" transform="translate(0.039604, 0.000000)" stroke="#FF0000" stroke-width="2">
                    <use id="Rectangle-path" mask="url(#mask-2)" xlink:href="#path-1"></use>
                </g>
                <path d="M47.5933569,31.9752723 C47.5933569,32.5687383 47.5026885,33.0715358 47.3213517,33.4836649 C47.1400149,33.8957939 46.8350394,34.3326508 46.4064252,34.7942356 C39.4496856,41.7344901 30.7537611,50.4098082 25.5362064,55.614999 C25.1405625,56.0106429 24.7284334,56.2991333 24.2998191,56.48047 C23.8712047,56.6618068 23.3601645,56.7524752 22.7666985,56.7524752 C22.2062031,56.7524752 21.7116483,56.6618068 21.2830339,56.48047 C20.8544196,56.2991333 20.4258053,56.0106429 19.9971911,55.614999 C19.2223883,54.8401962 18.2538848,53.8716927 17.6727827,53.2905906 C17.2771388,52.8949467 16.9804059,52.4416047 16.7825839,51.9305646 C16.584762,51.4195245 16.485851,50.933212 16.485851,50.4716272 C16.485851,49.9111318 16.5765194,49.416577 16.7578562,48.9879626 C16.939193,48.5593483 17.2441685,48.130734 17.6727827,47.7021198 C22.799669,42.4598373 29.2082769,35.9069842 33.0534416,31.9752723 C29.2206407,28.1671991 21.555039,20.5510528 17.7222381,16.7429797 C17.3595645,16.3803061 17.0793167,15.9434493 16.8814948,15.4324092 C16.6836729,14.9213691 16.5847619,14.4350568 16.5847619,13.9734723 C16.5847619,13.4129766 16.6754303,12.9184215 16.8567671,12.4898072 C17.0381039,12.0611928 17.3265942,11.6325785 17.7222381,11.2039644 C18.4970409,10.2643099 19.4655444,9.08974183 20.0466465,8.38500099 C20.4422904,7.9893571 20.8544196,7.70086675 21.2830339,7.51952995 C21.7116483,7.33819315 22.2226883,7.24752475 22.816154,7.24752475 C23.40962,7.24752475 23.9124176,7.33819315 24.3245468,7.51952995 C24.736676,7.70086675 25.1735328,7.9893571 25.6351173,8.38500099 C32.5424015,15.3582259 41.1765067,24.0747571 46.3569698,29.3046757 C46.785584,29.7003196 47.0988021,30.1042061 47.296624,30.5163351 C47.494446,30.9284642 47.5933569,31.4147766 47.5933569,31.9752723 L47.5933569,31.9752723 L47.5933569,31.9752723 Z" id="path" fill="#000000"></path>
            </g>
        </g>
    </g>
</svg>