<?xml version="1.0" encoding="UTF-8" standalone="no"?>
<svg width="64px" height="64px" viewBox="0 0 64 64" version="1.1" xmlns="http://www.w3.org/2000/svg" xmlns:xlink="http://www.w3.org/1999/xlink">
    <!-- Generator: Sketch 41 (35326) - http://www.bohemiancoding.com/sketch -->
    <title>icon-external-link</title>
    <desc>Created with Sketch.</desc>
    <defs>
        <rect id="path-1" x="0" y="0" width="64" height="64"></rect>
        <mask id="mask-2" maskContentUnits="userSpaceOnUse" maskUnits="objectBoundingBox" x="0" y="0" width="64" height="64" fill="white">
            <use xlink:href="#path-1"></use>
        </mask>
    </defs>
    <g id="Page-1" stroke="none" stroke-width="1" fill="none" fill-rule="evenodd">
        <g id="rhs-icons" transform="translate(-109.000000, -115.000000)">
            <g id="icon-external-link" transform="translate(109.000000, 115.000000)">
                <g id="Box" stroke="#FF0000" stroke-width="2">
                    <use id="Rectangle-path" mask="url(#mask-2)" xlink:href="#path-1"></use>
                </g>
                <g id="Group-3" transform="translate(7.000000, 7.000000)" fill="#000000">
                    <path d="M40.5535059,32.393349 C42.1484457,32.393349 45.3383251,32.393349 46.9332649,32.393349 L46.9332649,49.5049505 L40.5535059,49.5049505 L40.5535059,32.393349 L40.5535059,32.393349 Z" id="right"></path>
                    <path d="M0.296733168,43.0757361 C10.7194787,43.0757361 31.5649698,43.0757361 41.9877153,43.0757361 L41.9877153,49.5049505 L0.296733168,49.5049505 L0.296733168,43.0757361 L0.296733168,43.0757361 Z" id="bottom"></path>
                    <path d="M0.296733168,8.90198911 C1.90403676,8.90198911 5.11864394,8.90198911 6.72594752,8.90198911 L6.72594752,43.0757361 L0.296733168,43.0757361 C0.296733168,34.5322994 0.296733168,17.4454259 0.296733168,8.90198911 L0.296733168,8.90198911 Z" id="left"></path>
                    <path d="M0.296733168,3.31351832 L17.4083342,3.31351832 L17.4083342,9.74273267 L0.296733168,9.74273267 L0.296733168,3.31351832 L0.296733168,3.31351832 Z" id="top"></path>
                    <path d="M19.2381876,27.9918104 C24.7772031,21.6491431 35.855234,8.96380842 41.3942495,2.62114109 C42.5935452,3.67207042 44.9921365,5.77392908 46.1914322,6.82485842 C40.6771446,13.1675256 29.6485693,25.85286 24.1342817,32.1955272 C22.9102582,31.144598 20.4622111,29.0427396 19.2381876,27.9918104 L19.2381876,27.9918104 Z" id="pijl_3"></path>
                    <path d="M49.1093064,0.148366337 C49.1093064,1.48366473 49.1093064,4.15426151 49.1093064,5.4895599 C43.2117387,5.45246832 31.4166033,5.37828515 25.5190356,5.34119356 L25.5190356,0 C31.4166033,0.0370915842 43.2117387,0.111274752 49.1093064,0.148366337 L49.1093064,0.148366337 Z" id="pijl_2"></path>
                    <path d="M49.059851,23.6891822 L43.7186574,23.6891822 C43.7557491,17.8039782 43.8299325,6.0335703 43.8670243,0.148366337 L49.2082173,0.148366337 C49.1711257,6.0335703 49.0969426,17.8039782 49.059851,23.6891822 L49.059851,23.6891822 Z" id="path"></path>
                </g>
            </g>
        </g>
    </g>
</svg>