<?xml version="1.0" encoding="UTF-8" standalone="no"?>
<svg width="65px" height="64px" viewBox="0 0 65 64" version="1.1" xmlns="http://www.w3.org/2000/svg" xmlns:xlink="http://www.w3.org/1999/xlink">
    <!-- Generator: Sketch 41 (35326) - http://www.bohemiancoding.com/sketch -->
    <title>icon-download</title>
    <desc>Created with Sketch.</desc>
    <defs>
        <rect id="path-1" x="0" y="0" width="64" height="64"></rect>
        <mask id="mask-2" maskContentUnits="userSpaceOnUse" maskUnits="objectBoundingBox" x="0" y="0" width="64" height="64" fill="white">
            <use xlink:href="#path-1"></use>
        </mask>
    </defs>
    <g id="Page-1" stroke="none" stroke-width="1" fill="none" fill-rule="evenodd">
        <g id="rhs-icons" transform="translate(-193.000000, -115.000000)">
            <g id="icon-download" transform="translate(193.000000, 115.000000)">
                <g id="Box" transform="translate(0.465347, 0.000000)" stroke="#FF0000" stroke-width="2">
                    <use id="Rectangle-path" mask="url(#mask-2)" xlink:href="#path-1"></use>
                </g>
                <path d="M49.848953,20.8477856 C49.5192497,20.3532309 49.0411799,19.9905573 48.4147436,19.7597649 C47.9531591,19.5619431 47.4091487,19.446547 46.7827124,19.4135767 C46.3211279,19.4135767 45.8595432,19.446547 45.3979584,19.5124876 C45.2166216,19.5454579 44.9899506,19.5866708 44.853948,19.6113985 C42.9746392,20.8725136 39.2160217,23.3947438 37.3367129,24.6558589 L37.3367129,8.48391188 C37.324349,8.40972871 37.2996213,8.26136238 37.2872574,8.18717921 C37.2542871,7.9234165 37.1553761,7.70910941 36.9905243,7.54425792 C36.7927025,7.34643581 36.4959695,7.24752475 36.1003252,7.24752475 L28.5830901,7.24752475 C28.1874462,7.24752475 27.8907132,7.34643581 27.6928911,7.54425792 C27.5280396,7.70910941 27.4291287,7.9234165 27.3961584,8.18717921 C27.3796733,8.2860901 27.3590668,8.40972871 27.346703,8.48391188 L27.346703,24.6558589 C25.479758,23.3947438 21.7458682,20.8725136 19.8789233,19.6113985 C19.7305567,19.5866708 19.4338235,19.5372153 19.2854569,19.5124876 C18.8238724,19.446547 18.362288,19.4135767 17.9007035,19.4135767 C17.3072375,19.446547 16.7632269,19.5619431 16.2686718,19.7597649 C15.6752058,19.9905573 15.197136,20.3532309 14.8344624,20.8477856 C14.3069373,21.6061035 14.0266896,22.3973914 13.9937193,23.2216495 C13.960749,23.8480858 14.0596599,24.458037 14.290452,25.051503 C14.4882741,25.4801172 14.6696109,25.760365 14.8344624,25.8922465 C14.8674327,25.9252168 15.7246614,26.947297 17.4061485,28.9584871 C19.5821901,31.5961135 21.3955583,33.7721553 22.846253,35.4866124 C25.2201167,38.2890906 27.1323957,40.4816175 28.5830901,42.0641931 C29.1765561,42.6906294 29.8029924,43.2181548 30.462399,43.6467693 C30.9239835,43.9764726 31.369083,44.22375 31.7976975,44.3886015 C31.9625492,44.4380569 32.1686137,44.4998762 32.2922525,44.5369678 C32.4282551,44.4998762 32.7002603,44.4256931 32.8362629,44.3886015 C33.2648771,44.22375 33.7099764,43.9764726 34.1715609,43.6467693 C34.7979972,43.2181548 35.4079483,42.6906294 36.0014144,42.0641931 C37.4850794,40.4816175 39.3973586,38.2890906 41.738252,35.4866124 C42.9251837,34.1018586 44.7385518,31.9258168 47.1783564,28.9584871 C48.8598432,26.947297 49.7335569,25.9252168 49.7994975,25.8922465 C49.9643493,25.7933353 50.1456861,25.5130875 50.3435079,25.051503 C50.6072706,24.458037 50.7226668,23.8480858 50.6896965,23.2216495 C50.6567262,22.3973914 50.3764784,21.6061035 49.848953,20.8477856 L49.848953,20.8477856 Z M54.349403,54.2797005 C54.349403,51.8563812 54.349403,47.0097426 54.349403,44.5864233 L48.2663772,44.5864233 L48.2663772,48.2461302 C48.2663772,48.6088038 48.150981,48.9055368 47.9201886,49.1363292 C47.7553371,49.2682104 47.5575152,49.3671213 47.3267228,49.4330619 C47.2278117,49.449547 47.1041729,49.4701535 47.0299896,49.4825173 L17.8512475,49.4825173 C17.7647005,49.4701535 17.5916064,49.4454257 17.5050594,49.4330619 C17.274267,49.3671213 17.076445,49.2682104 16.9115936,49.1363292 C16.7137715,48.9055368 16.6148604,48.6088038 16.6148604,48.2461302 L16.6148604,44.5864233 L10.5812901,44.5864233 L10.5812901,54.2797005 L10.5812901,54.6753446 C10.6142604,54.9720776 10.6966861,55.2523254 10.8285673,55.5160881 C10.9934191,55.8787617 11.2406967,56.1590094 11.5704,56.3568312 C11.9660439,56.6205939 12.4605988,56.7524752 13.0540649,56.7524752 L52.024995,56.7524752 C52.6184607,56.7524752 53.0965304,56.6205939 53.459204,56.3568312 C53.755937,56.1590094 53.9867294,55.8787617 54.1515812,55.5160881 C54.2504921,55.2523254 54.3164327,54.9720776 54.349403,54.6753446 L54.349403,54.2797005 L54.349403,54.2797005 Z" id="path" fill="#000000"></path>
            </g>
        </g>
    </g>
</svg>