<?xml version="1.0" encoding="UTF-8" standalone="no"?>
<svg width="65px" height="64px" viewBox="0 0 65 64" version="1.1" xmlns="http://www.w3.org/2000/svg" xmlns:xlink="http://www.w3.org/1999/xlink">
    <!-- Generator: Sketch 41 (35326) - http://www.bohemiancoding.com/sketch -->
    <title>icon-arrow-fat-left</title>
    <desc>Created with Sketch.</desc>
    <defs>
        <rect id="path-1" x="0" y="0" width="64" height="64"></rect>
        <mask id="mask-2" maskContentUnits="userSpaceOnUse" maskUnits="objectBoundingBox" x="0" y="0" width="64" height="64" fill="white">
            <use xlink:href="#path-1"></use>
        </mask>
    </defs>
    <g id="Page-1" stroke="none" stroke-width="1" fill="none" fill-rule="evenodd">
        <g id="rhs-icons" transform="translate(-369.000000, -26.000000)">
            <g id="icon-arrow-fat-left" transform="translate(369.000000, 26.000000)">
                <g id="Box" transform="translate(0.316832, 0.000000)" stroke="#FF0000" stroke-width="2">
                    <use id="Rectangle-path" mask="url(#mask-2)" xlink:href="#path-1"></use>
                </g>
                <path d="M16.7630787,31.9258168 C16.7630787,31.3653211 16.8537471,30.8790087 17.0350839,30.4668797 C17.2164207,30.0547507 17.5213962,29.6178937 17.9500104,29.1563089 C24.90675,22.2160545 33.6026745,13.5407364 38.8202292,8.33554554 C39.2158731,7.93990165 39.6280022,7.6514113 40.0566166,7.4700745 C40.4852309,7.28873771 40.979786,7.19806931 41.5402817,7.19806931 C42.1337474,7.19806931 42.6447874,7.28873771 43.0734017,7.4700745 C43.5020161,7.6514113 43.9306304,7.93990165 44.3592446,8.33554554 C45.1340474,9.11034835 46.1025509,10.0788519 46.683653,10.659954 C47.0792969,11.0555979 47.3760298,11.5089399 47.5738517,12.01998 C47.7716737,12.53102 47.8705847,13.0173325 47.8705847,13.4789173 C47.8705847,14.0394127 47.7799163,14.5339676 47.5985795,14.9625819 C47.4172427,15.3911963 47.1122672,15.8198106 46.683653,16.2484248 C41.5567667,21.4742221 35.1481588,28.0064688 31.3029941,31.9258168 C35.1357949,35.7586177 42.8013967,43.4242194 46.6341975,47.2570203 C46.9968711,47.6196939 47.2771189,48.0647933 47.4749408,48.5923186 C47.6727628,49.1198438 47.7716738,49.5979137 47.7716738,50.0265282 C47.7716738,50.5870236 47.6810054,51.0815785 47.4996686,51.5101928 C47.3183318,51.9388072 47.0298414,52.3839066 46.6341975,52.8454911 C45.8593947,53.7686604 44.8908912,54.922622 44.3097891,55.614999 C43.9141452,56.0106429 43.5020161,56.3073758 43.0734017,56.5051978 C42.6447874,56.7030197 42.1337474,56.8019307 41.5402817,56.8019307 C40.9468157,56.8019307 40.4440181,56.7112623 40.0318889,56.5299255 C39.6197597,56.3485887 39.1829028,56.0436132 38.7213183,55.614999 C31.8140342,48.6582594 23.179929,39.9623349 17.9994658,34.7447802 C17.5708517,34.3161657 17.2576336,33.8875513 17.0598116,33.4589371 C16.8619897,33.0303229 16.7630787,32.5192828 16.7630787,31.9258168 L16.7630787,31.9258168 L16.7630787,31.9258168 Z" id="path" fill="#000000"></path>
            </g>
        </g>
    </g>
</svg>