<?xml version="1.0" encoding="UTF-8"?>
<svg width="24px" height="24px" viewBox="0 0 24 24" version="1.1" xmlns="http://www.w3.org/2000/svg" xmlns:xlink="http://www.w3.org/1999/xlink">
    <!-- Generator: Sketch 49 (51002) - http://www.bohemiancoding.com/sketch -->
    <title>icon-list-external-link</title>
    <desc>Created with Sketch.</desc>
    <defs></defs>
    <g id="icon-list-external-link" stroke="none" stroke-width="1" fill="none" fill-rule="evenodd">
        <g fill="#00586F" fill-rule="nonzero" id="2013-externe-link">
            <path d="M23.3248696,2.59163478 C23.1460696,1.51606957 22.3277739,0.697773913 21.251687,0.518452174 C18.1416522,0 12.9578609,0 11.9215304,0 C10.8852,0 5.7014087,0 2.59137391,0.518452174 C1.51528696,0.697773913 0.696991304,1.51606957 0.518191304,2.59163478 C0,5.70166957 0,10.8852 0,11.9217913 C0,12.9583826 0,18.141913 0.518191304,21.2519478 C0.696991304,22.327513 1.51528696,23.1458087 2.59137391,23.3251304 C5.7014087,23.8435826 10.8852,23.8435826 11.9215304,23.8435826 C12.9578609,23.8435826 18.1416522,23.8435826 21.251687,23.3251304 C22.3277739,23.1458087 23.1460696,22.327513 23.3248696,21.2519478 C23.8430087,18.141913 23.8430087,12.9583826 23.8430087,11.9217913 C23.8430087,8.8101913 23.8430087,5.70166957 23.3248696,2.59163478 Z M19.9524522,5.36514783 L18.8437565,14.7888 C18.7693565,15.4203652 18.258313,15.9107478 17.6239826,15.9581217 C17.5903304,15.9606783 17.5572522,15.9619826 17.5236,15.9619826 C16.9300174,15.9619826 16.4021739,15.5650435 16.2432,14.9841913 L15.6382435,12.7728522 C15.6382435,12.7728522 16.9840174,10.0264174 17.0941043,9.80222609 C17.1950609,9.5966087 17.0554435,9.55987826 17.0549739,9.55977391 L10.4638435,16.1507478 C9.71076522,16.9040348 8.83544348,16.4778261 8.1012,15.7428522 C7.36549565,15.0078783 6.93954783,14.1320348 7.69257391,13.3790087 L12.4807304,8.5908 L8.85886957,7.59986087 C8.2454087,7.43222609 7.83730435,6.8532 7.88467826,6.21933913 C7.93257391,5.58526957 8.42269565,5.07370435 9.054,4.99956522 L18.477913,3.89086957 C18.8829913,3.84297391 19.285513,3.98337391 19.5723652,4.27069565 C19.8602087,4.55806957 19.9998261,4.96137391 19.9524522,5.36514783 Z"></path>
        </g>
    </g>
</svg>