<?xml version="1.0" encoding="UTF-8" standalone="no"?>
<svg width="64px" height="64px" viewBox="0 0 64 64" version="1.1" xmlns="http://www.w3.org/2000/svg" xmlns:xlink="http://www.w3.org/1999/xlink">
    <!-- Generator: Sketch 41 (35326) - http://www.bohemiancoding.com/sketch -->
    <title>icon-rss</title>
    <desc>Created with Sketch.</desc>
    <defs>
        <rect id="path-1" x="0" y="0" width="64" height="64"></rect>
        <mask id="mask-2" maskContentUnits="userSpaceOnUse" maskUnits="objectBoundingBox" x="0" y="0" width="64" height="64" fill="white">
            <use xlink:href="#path-1"></use>
        </mask>
    </defs>
    <g id="Page-1" stroke="none" stroke-width="1" fill="none" fill-rule="evenodd">
        <g id="rhs-icons" transform="translate(-539.000000, -26.000000)">
            <g id="icon-rss" transform="translate(539.000000, 26.000000)">
                <g id="Box" stroke="#FF0000" stroke-width="2">
                    <use id="Rectangle-path" mask="url(#mask-2)" xlink:href="#path-1"></use>
                </g>
                <path d="M13.5104894,42.9300698 C12.3356644,42.9300698 11.2505829,43.2156176 10.2552449,43.7867133 C9.25990695,44.3578089 8.46853163,45.1491842 7.88111898,46.1608392 C7.29370633,47.1398602 7,48.2249417 7,49.4160839 C7,50.607226 7.29370633,51.7086246 7.88111898,52.7202796 C8.46853163,53.6993006 9.25990695,54.4743589 10.2552449,55.0454545 C11.2505829,55.6165502 12.3356644,55.902098 13.5104894,55.902098 C14.6853147,55.902098 15.7703963,55.6165502 16.7657343,55.0454545 C17.7610723,54.4743589 18.5524476,53.6993006 19.1398602,52.7202796 C19.7272729,51.7086246 20.0209792,50.6153845 20.0209792,49.4405594 C20.0209792,48.2657342 19.7272729,47.1888112 19.1398602,46.2097902 C18.5524476,45.1981352 17.7610723,44.3986014 16.7657343,43.8111888 C15.7703963,43.2237761 14.6853147,42.9300698 13.5104894,42.9300698 L13.5104894,42.9300698 Z M7,23.5944057 L7,33.041958 C10.0675989,33.041958 12.9965033,33.621212 15.7867131,34.7797202 C18.5769229,35.9382283 21.0489509,37.5944055 23.2027972,39.7482518 C25.3566435,41.9020978 27.0209792,44.3822842 28.1958043,47.1888112 C29.3706295,49.9953381 29.958042,52.9324011 29.958042,56 L39.4055943,56 C39.4055943,51.6270398 38.5407925,47.4335665 36.8111889,43.4195803 C35.1794873,39.5361303 32.8706295,36.1013984 29.8846155,33.1153845 C26.8986016,30.1293705 23.4638697,27.8205127 19.5804197,26.1888111 C15.5664335,24.4592075 11.3729602,23.5944057 7,23.5944057 L7,23.5944057 Z M7,7 L7,16.3986013 C12.3519812,16.3986013 17.4755243,17.4428905 22.3706292,19.5314687 C27.1025641,21.5547787 31.2960373,24.3939395 34.9510489,28.0489511 C38.6060605,31.7039627 41.4452213,35.8974359 43.4685313,40.6293708 C45.5571095,45.5244757 46.6013987,50.6480188 46.6013987,56 L56,56 C56,49.3752915 54.7109557,43.0279721 52.1328671,36.9580419 C49.6526808,31.083916 46.1526809,25.8869463 41.6328673,21.3671327 C37.1130537,16.8473191 31.916084,13.3473192 26.0419581,10.8671329 C19.9720279,8.28904431 13.6247085,7 7,7 Z" id="rss" fill="#000000"></path>
            </g>
        </g>
    </g>
</svg>