<?xml version="1.0" encoding="UTF-8" standalone="no"?>
<svg width="65px" height="65px" viewBox="0 0 65 65" version="1.1" xmlns="http://www.w3.org/2000/svg" xmlns:xlink="http://www.w3.org/1999/xlink">
    <!-- Generator: Sketch 41 (35326) - http://www.bohemiancoding.com/sketch -->
    <title>icon-close</title>
    <desc>Created with Sketch.</desc>
    <defs>
        <rect id="path-1" x="0" y="0" width="64" height="64"></rect>
        <mask id="mask-2" maskContentUnits="userSpaceOnUse" maskUnits="objectBoundingBox" x="0" y="0" width="64" height="64" fill="white">
            <use xlink:href="#path-1"></use>
        </mask>
    </defs>
    <g id="Page-1" stroke="none" stroke-width="1" fill="none" fill-rule="evenodd">
        <g id="rhs-icons" transform="translate(-278.000000, -115.000000)">
            <g id="icon-close" transform="translate(278.000000, 115.000000)">
                <path d="M8,15.1710465 C9.79276163,13.3782849 13.3782849,9.79276163 15.1710465,8 C19.5725856,12.3891751 28.3756639,21.1675254 32.777203,25.5567005 C37.1663782,21.1675254 45.9447287,12.3891751 50.333904,8 C52.1266656,9.79276163 55.7121889,13.3782849 57.5049505,15.1710465 C53.1157754,19.5602218 44.3374251,28.3385723 39.94825,32.7277475 C44.3374251,37.1292866 53.1157754,45.9323649 57.5049505,50.333904 C55.7121889,52.1266656 52.1266656,55.7121889 50.333904,57.5049505 C45.9447287,53.1157754 37.1663782,44.3374251 32.777203,39.94825 C28.3756639,44.3374251 19.5725856,53.1157754 15.1710465,57.5049505 C13.3782849,55.7121889 9.79276163,52.1266656 8,50.333904 C12.3891751,45.9323649 21.1675254,37.1292866 25.5567005,32.7277475 C21.1675254,28.3385723 12.3891751,19.5602218 8,15.1710465 L8,15.1710465 Z" id="path" fill="#000000"></path>
                <g id="Box" transform="translate(0.752475, 0.752475)" stroke="#FF0000" stroke-width="2">
                    <use id="Rectangle-path" mask="url(#mask-2)" xlink:href="#path-1"></use>
                </g>
            </g>
        </g>
    </g>
</svg>