<?xml version="1.0" encoding="UTF-8" standalone="no"?>
<svg width="65px" height="65px" viewBox="0 0 65 65" version="1.1" xmlns="http://www.w3.org/2000/svg" xmlns:xlink="http://www.w3.org/1999/xlink">
    <!-- Generator: Sketch 41 (35326) - http://www.bohemiancoding.com/sketch -->
    <title>icon-search</title>
    <desc>Created with Sketch.</desc>
    <defs>
        <rect id="path-1" x="0" y="0" width="64" height="64"></rect>
        <mask id="mask-2" maskContentUnits="userSpaceOnUse" maskUnits="objectBoundingBox" x="0" y="0" width="64" height="64" fill="white">
            <use xlink:href="#path-1"></use>
        </mask>
    </defs>
    <g id="Page-1" stroke="none" stroke-width="1" fill="none" fill-rule="evenodd">
        <g id="rhs-icons" transform="translate(-454.000000, -26.000000)">
            <g id="icon-search" transform="translate(454.000000, 26.000000)">
                <g id="Box" transform="translate(0.500000, 0.401782)" stroke="#FF0000" stroke-width="2">
                    <use id="Rectangle-path" mask="url(#mask-2)" xlink:href="#path-1"></use>
                </g>
                <path d="M53.8770668,48.5090526 C51.4889991,46.1292582 46.7128636,41.3696694 44.3247958,38.989875 C44.2917811,38.9789585 44.2257517,38.9571256 44.1927369,38.9462091 C44.1633902,38.9170985 44.1487168,38.8879879 44.1487168,38.8588773 C45.11715,37.4324562 45.8581481,35.8823148 46.3717109,34.2084533 C46.8852738,32.5345917 47.1420553,30.780676 47.1420553,28.9467061 C47.1420553,25.7154257 46.3056814,22.702475 44.6329337,19.907854 C43.048225,17.2005651 40.8912606,15.0463782 38.1620405,13.4452935 C35.3447807,11.8150978 32.3000861,11 29.0279565,11 C25.7558269,11 22.7111322,11.8150978 19.8938725,13.4452935 C17.1646524,15.0463782 14.9930149,17.2005651 13.37896,19.907854 C11.7355585,22.702475 10.9138577,25.7227034 10.9138577,28.9685391 C10.9138577,32.2143748 11.7355585,35.2346031 13.37896,38.0292241 C14.9930149,40.7365131 17.1646524,42.8761447 19.8938725,44.4481192 C22.7111322,46.1074251 25.7484903,46.9370781 29.0059467,46.9370781 C30.7960803,46.9370781 32.5568676,46.6750824 34.2883084,46.1510909 C35.9610564,45.6562103 37.5310917,44.9284445 38.9984144,43.9677933 C39.0277609,44.0114594 39.0644439,44.0660419 39.0864537,44.0987915 C39.0864537,44.1279021 39.1011269,44.1424574 39.1304734,44.1424574 C42.3292369,47.3009613 46.3276913,51.2490911 48.726764,53.617969 C49.4310787,54.3457347 50.2967991,54.7096176 51.323925,54.7096176 C52.3510509,54.7096176 53.2167714,54.3457347 53.9210864,53.617969 C54.6547476,52.890203 55.0142416,52.0314392 54.9995684,51.0416776 C54.9848952,50.051916 54.610728,49.2077077 53.8770668,48.5090526 L53.8770668,48.5090526 Z M29.0059467,40.6928472 C26.8636556,40.6928472 24.8901065,40.1688557 23.0852995,39.1208729 C21.2804925,38.0728901 19.8351797,36.6464691 18.7493611,34.8416098 C17.6928886,33.0367502 17.1646524,31.0717823 17.1646524,28.9467061 C17.1646524,26.8216299 17.6928886,24.8712174 18.7493611,23.0954688 C19.8351797,21.2906092 21.2804925,19.8569103 23.0852995,18.7943722 C24.8901065,17.7318341 26.8636556,17.2005651 29.0059467,17.2005651 C31.1482377,17.2005651 33.1291234,17.7318341 34.9486036,18.7943722 C36.7680839,19.8569103 38.2060601,21.2906092 39.2625323,23.0954688 C40.3190047,24.8712174 40.847241,26.8216299 40.847241,28.9467061 C40.847241,31.0717823 40.3190047,33.0367502 39.2625323,34.8416098 C38.2060601,36.6464691 36.7680839,38.0728901 34.9486036,39.1208729 C33.1291234,40.1688557 31.1482377,40.6928472 29.0059467,40.6928472 L29.0059467,40.6928472 Z" id="looking-glass" fill="#000000"></path>
            </g>
        </g>
    </g>
</svg>