<?xml version="1.0" encoding="UTF-8"?>
<svg width="8px" height="12px" viewBox="0 0 8 12" version="1.1" xmlns="http://www.w3.org/2000/svg" xmlns:xlink="http://www.w3.org/1999/xlink">
    <title>list-arrow</title>
    <g id="Page-1" stroke="none" stroke-width="1" fill="none" fill-rule="evenodd">
        <g id="list-arrow" fill="#00586F" fill-rule="nonzero">
            <path d="M7.46640015,5.93465941 C7.46640015,6.07709125 7.44463799,6.19776265 7.40111366,6.29667364 C7.35758934,6.3955846 7.28438935,6.50043025 7.18151369,6.6112106 C5.51176229,8.27687168 3.42457304,10.358948 2.17225949,11.6081938 C2.07729734,11.7031484 1.97837842,11.7723861 1.87550274,11.8159069 C1.77262703,11.8594277 1.64996755,11.8811881 1.50752429,11.8811881 C1.3729946,11.8811881 1.25429193,11.8594277 1.15141623,11.8159069 C1.04854055,11.7723861 0.945664865,11.7031484 0.842789207,11.6081938 C0.656821623,11.4222411 0.424362142,11.1898003 0.284886453,11.0503358 C0.189924302,10.9553813 0.118702695,10.8465792 0.0712216073,10.7239296 C0.0237405438,10.6012799 0,10.4845649 0,10.3737846 C0,10.2392657 0.0217621611,10.1205725 0.0652864833,10.0177051 C0.108810806,9.91483765 0.182010795,9.81197022 0.284886453,9.70910281 C1.51543784,8.45095501 3.05362709,6.87827027 3.97654062,5.93465941 C3.05659464,5.02072184 1.21670269,3.19284673 0.296756701,2.27890919 C0.209708056,2.19186752 0.142443191,2.08702189 0.094962127,1.96437227 C0.0474810635,1.84172264 0.0237405198,1.72500769 0.0237405198,1.61422741 C0.0237405198,1.47970844 0.0455026809,1.36101522 0.0890270031,1.25814779 C0.132551325,1.15528033 0.20179455,1.0524129 0.296756701,0.949545516 C0.482724286,0.724028436 0.715183767,0.442132099 0.854659455,0.272994298 C0.949621606,0.178039764 1.04854055,0.10880208 1.15141623,0.065281248 C1.25429193,0.021760416 1.37695137,0 1.51939456,0 C1.66183782,0 1.78251892,0.021760416 1.88143786,0.065281248 C1.9803568,0.10880208 2.08521085,0.178039764 2.19600001,0.272994298 C3.85388116,1.94656828 5.92623259,4.03853576 7.16964345,5.29371623 C7.2725191,5.38867076 7.34769748,5.48560352 7.39517854,5.58451448 C7.44265963,5.68342547 7.46640015,5.80014044 7.46640015,5.93465941 Z" id="path"></path>
        </g>
    </g>
</svg>