<svg xmlns="http://www.w3.org/2000/svg" width="44" height="77" viewBox="0 0 44 77" version="1.1"><title>Logo Digitale Overheid</title><desc>With love from Rotterdam</desc><g id="Page-1" stroke="none" stroke-width="1" fill="none" fill-rule="evenodd"><g id="logo-digitaleoverheid"><g id="Group"><rect id="Rectangle-path" fill="#154273" x="0" y="0" width="44" height="77"/><path d="M22.76 57.01L22 57.01 22 54.89 22.76 54.89 22.76 57.01 22.76 57.01ZM26.21 47.66L25.45 47.66 25.45 45.54 26.21 45.54 26.21 47.66 26.21 47.66ZM12.05 44C11.99 44 11.6 44 11.6 44.08 11.6 44.16 11.78 44.12 12.05 44.17 12.66 44.27 12.9 44.58 13.33 44.58 13.72 44.58 14.12 44.32 13.96 43.75 13.93 43.66 13.88 43.68 13.87 43.74 13.81 43.99 13.5 44.14 13.17 44.14 12.77 44.14 12.68 44 12.05 44L12.05 44ZM7.84 46.12C7.91 46.21 8.63 47.15 7.52 47.51 7.47 47.53 7.45 47.57 7.53 47.61 8.35 47.95 8.75 47.32 8.75 47.32 9.16 48.26 8.53 48.78 8.53 48.78 8.62 48.95 9.01 49.23 9.6 49.37 9.82 49.25 10.14 49.02 10.27 48.66 10.27 48.66 10.43 49.07 10.28 49.46 11.95 49.61 12.54 48.28 13.83 48.52 13.87 48.53 13.88 48.5 13.88 48.46 13.88 47.64 13.38 46.13 11.78 45.82 10.19 45.51 10.62 44.86 10.62 44.86 11.29 44.83 11.68 45.12 11.68 45.12 11.8 44.92 11.63 44.7 11.63 44.7 11.69 44.62 11.73 44.35 11.73 44.35 10.98 44.35 10.78 44.19 10.78 44.19 10.66 43.74 10.98 43.11 12.1 43.79 12.38 43.54 12.36 43.16 12.36 43.16 12.44 43.12 12.5 42.99 12.5 42.93 12.5 42.74 11.6 42.24 11.37 42.18 11.31 41.91 10.97 41.52 9.91 41.66 9.41 41.72 9.05 41.59 9.22 41.3 9.25 41.25 9.16 41.24 9.11 41.29 8.99 41.41 8.84 41.73 9.27 41.95 9.75 42.19 9.78 42.68 9.79 42.75 9.8 42.85 9.67 42.86 9.65 42.76 9.43 41.94 8.31 41.77 7.65 42.2 7.69 42.64 8.16 42.93 8.42 42.93 8.57 42.93 8.77 42.78 8.77 42.58 8.77 42.48 8.82 42.49 8.85 42.57 8.96 42.86 8.53 43.46 7.89 43.1 7.24 43.75 7.5 44.56 7.56 44.85 7.68 45.38 7.42 45.9 6.94 45.66 6.92 45.65 6.89 45.64 6.89 45.7 6.89 46.03 7.32 46.41 7.84 46.12L7.84 46.12ZM11.42 42.84C11.12 43.18 10.62 43.1 10.5 42.54 11.13 42.51 11.4 42.57 11.42 42.84L11.42 42.84ZM30.82 44.14C30.49 44.14 30.18 44 30.12 43.74 30.11 43.68 30.05 43.65 30.03 43.75 29.87 44.31 30.27 44.58 30.66 44.58 31.09 44.58 31.33 44.27 31.94 44.17 32.21 44.12 32.39 44.17 32.39 44.08 32.39 44 31.99 44 31.94 44 31.31 44 31.23 44.14 30.82 44.14L30.82 44.14ZM37.11 45.7C37.11 45.64 37.09 45.65 37.06 45.66 36.58 45.9 36.32 45.38 36.44 44.85 36.51 44.55 36.77 43.75 36.11 43.1 35.47 43.47 35.04 42.86 35.15 42.57 35.18 42.49 35.23 42.48 35.23 42.58 35.23 42.78 35.44 42.93 35.58 42.93 35.84 42.93 36.31 42.64 36.35 42.2 35.69 41.77 34.57 41.94 34.35 42.76 34.32 42.86 34.2 42.85 34.21 42.75 34.21 42.68 34.24 42.19 34.73 41.95 35.17 41.73 35.01 41.41 34.89 41.29 34.84 41.24 34.75 41.25 34.78 41.3 34.95 41.59 34.59 41.72 34.09 41.66 33.04 41.52 32.69 41.91 32.63 42.18 32.4 42.24 31.5 42.74 31.5 42.93 31.5 42.99 31.55 43.12 31.64 43.16 31.64 43.16 31.62 43.54 31.9 43.79 33.02 43.11 33.33 43.75 33.22 44.19 33.22 44.19 33.02 44.35 32.27 44.35 32.27 44.35 32.31 44.62 32.37 44.7 32.37 44.7 32.2 44.92 32.32 45.12 32.32 45.12 32.71 44.83 33.38 44.86 33.38 44.86 33.81 45.51 32.22 45.82 30.63 46.13 30.12 47.63 30.12 48.46 30.12 48.5 30.14 48.52 30.17 48.52 31.46 48.28 32.05 49.62 33.72 49.46 33.57 49.07 33.73 48.66 33.73 48.66 33.86 49.01 34.18 49.25 34.4 49.37 34.99 49.24 35.38 48.95 35.47 48.78 35.47 48.78 34.84 48.26 35.25 47.32 35.25 47.32 35.65 47.95 36.47 47.61 36.54 47.58 36.53 47.53 36.48 47.51 35.37 47.15 36.09 46.22 36.16 46.12 36.68 46.41 37.11 46.03 37.11 45.7L37.11 45.7ZM33.49 42.54C33.37 43.1 32.87 43.18 32.57 42.84 32.6 42.57 32.87 42.51 33.49 42.54L33.49 42.54ZM21.71 33.15C21.71 33.29 21.77 33.41 21.82 33.48 21.92 33.62 21.9 33.7 21.86 33.74 21.81 33.79 21.74 33.8 21.6 33.7 21.53 33.65 21.41 33.59 21.27 33.59 21.03 33.59 20.91 33.75 20.91 33.88 20.91 34.02 21.03 34.17 21.27 34.17 21.41 34.17 21.53 34.11 21.6 34.06 21.74 33.96 21.82 33.98 21.86 34.02 21.91 34.07 21.84 34.55 21.78 34.93 21.38 35.01 21.19 35.33 21.19 35.52 21.19 36 21.7 36.28 22.01 36.44 22.31 36.28 22.83 36 22.83 35.52 22.83 35.33 22.64 35.01 22.24 34.93 22.19 34.55 22.12 34.06 22.16 34.02 22.21 33.97 22.28 33.96 22.42 34.06 22.49 34.11 22.61 34.17 22.75 34.17 22.99 34.17 23.11 34.01 23.11 33.88 23.11 33.74 22.99 33.59 22.75 33.59 22.61 33.59 22.49 33.65 22.42 33.7 22.28 33.8 22.2 33.78 22.16 33.74 22.11 33.69 22.1 33.62 22.2 33.48 22.25 33.41 22.31 33.29 22.31 33.15 22.31 32.91 22.15 32.79 22.02 32.79 21.86 32.79 21.71 32.91 21.71 33.15L21.71 33.15ZM22 36.72C21.68 36.72 21.41 36.98 21.41 37.31 21.41 37.63 21.67 37.9 22 37.9 22.32 37.9 22.59 37.64 22.59 37.31 22.59 36.98 22.32 36.72 22 36.72L22 36.72ZM22 42.35C24.35 42.35 25.67 42.8 25.67 42.8 25.68 41.62 25.67 40.95 26.35 41.05 25.98 40.05 27.58 39.66 27.58 38.37 27.58 37.52 26.98 37.42 26.8 37.42 26.27 37.42 26.35 37.77 25.9 37.77 25.84 37.77 25.79 37.76 25.79 37.8 25.79 37.95 25.92 38.2 26.12 38.2 26.4 38.2 26.4 37.92 26.61 37.92 26.7 37.92 26.83 37.99 26.83 38.28 26.83 38.83 26.47 39.44 26.04 39.92 25.94 39.78 25.81 39.7 25.65 39.7 25.4 39.7 25.18 39.96 25.18 40.29 25.18 40.41 25.2 40.5 25.24 40.6 25.1 40.68 24.97 40.72 24.88 40.72 24.69 40.72 24.4 40.64 24.4 40.22 24.4 39.28 25.66 38.45 25.66 37.26 25.66 36.69 25.28 36.12 24.49 36.12 23.64 36.12 23.8 36.9 23.06 36.9 23.03 36.9 23 36.91 23 36.94 23 36.99 23.13 37.42 23.51 37.42 23.92 37.42 24.03 36.71 24.39 36.71 24.53 36.71 24.73 36.79 24.73 37.27 24.73 37.64 24.55 38.24 24.28 38.82 24.18 38.72 24.05 38.65 23.91 38.65 23.59 38.65 23.37 38.96 23.37 39.32 23.37 39.55 23.46 39.77 23.62 39.92 23.43 40.16 23.24 40.35 22.99 40.35 22.48 40.35 22.26 40.06 22.26 39.75 22.26 39.41 22.88 39.29 22.88 38.75 22.88 38.39 22.65 38.18 22.42 38.18 22.18 38.18 22.05 38.34 22.03 38.34 22 38.34 21.88 38.18 21.64 38.18 21.41 38.18 21.18 38.38 21.18 38.75 21.18 39.28 21.8 39.41 21.8 39.75 21.8 40.06 21.58 40.35 21.07 40.35 20.81 40.35 20.62 40.16 20.44 39.92 20.6 39.77 20.69 39.55 20.69 39.32 20.69 38.95 20.46 38.65 20.15 38.65 20 38.65 19.87 38.72 19.78 38.82 19.52 38.24 19.33 37.64 19.33 37.27 19.33 36.79 19.53 36.71 19.67 36.71 20.03 36.71 20.15 37.42 20.55 37.42 20.93 37.42 21.06 36.99 21.06 36.94 21.06 36.91 21.03 36.9 21 36.9 20.26 36.9 20.42 36.12 19.57 36.12 18.78 36.12 18.4 36.69 18.4 37.26 18.4 38.45 19.66 39.28 19.66 40.22 19.66 40.64 19.37 40.72 19.18 40.72 19.08 40.72 18.96 40.67 18.82 40.6 18.86 40.5 18.88 40.41 18.88 40.29 18.88 39.96 18.66 39.7 18.41 39.7 18.25 39.7 18.12 39.78 18.02 39.92 17.59 39.45 17.23 38.83 17.23 38.28 17.23 38 17.36 37.92 17.45 37.92 17.66 37.92 17.66 38.2 17.94 38.2 18.15 38.2 18.27 37.94 18.27 37.8 18.27 37.76 18.21 37.77 18.16 37.77 17.71 37.77 17.79 37.42 17.26 37.42 17.08 37.42 16.48 37.52 16.48 38.37 16.48 39.67 18.08 40.06 17.71 41.05 18.39 40.95 18.38 41.61 18.39 42.8 18.33 42.8 19.65 42.35 22 42.35L22 42.35ZM17.7 44.1C17.06 44.24 16.6 44.37 16.4 44.43 16.41 44.15 16.52 43.89 16.77 43.83 16.8 43.82 16.81 43.78 16.78 43.76 16.21 43.38 15.91 44.11 15.9 44.13 15.7 44.11 15.39 44.18 15.39 44.45 15.39 45.27 13.53 45.72 13.09 45.78 13.85 46.07 14.17 47.03 14.17 47.03 14.72 46.48 15.37 45.99 15.51 45.99 15.66 45.99 15.71 46.17 15.72 46.28 15.72 46.32 15.76 46.33 15.78 46.3 16.07 45.87 15.93 45.77 15.91 45.64 15.89 45.54 15.92 45.16 16.34 45.21L16.34 50.65 16.12 50.69C16.02 50.71 15.23 50.03 14.31 49.4 13.4 48.77 12.91 49.15 11.87 49.71 10.51 50.45 9.14 49.78 9.14 49.78 7.97 50.62 7.57 53.04 7.57 53.04 7.34 53.14 6.95 53.25 6.58 53.25 5.69 53.25 5.52 52.71 5.52 52.38 5.52 51 7.25 50.41 7.25 49.05 7.25 48.72 7.1 47.38 5.44 47.38L3.95 47.38C3.33 47.38 3.17 46.93 3.09 46.76 3.06 46.7 3 46.74 3.02 46.79 3.07 46.9 2.95 47.08 2.95 47.42 2.95 47.97 3.27 48.3 3.88 48.3 4.16 48.3 4.41 48.22 4.5 48.17 4.56 48.14 4.59 48.19 4.56 48.22 4.3 48.53 4.28 49.1 4.38 49.24 4.41 49.27 4.44 49.26 4.44 49.24 4.59 48.66 5.13 48.1 5.87 48.1 6.77 48.1 6.77 48.87 6.77 49.05 6.77 50.16 4.82 50.97 4.82 52.49 4.82 54.04 6.45 54.37 7.4 54.12 7.34 55.67 5.57 56.19 5.52 55.09 5.52 55.04 5.48 55.02 5.45 55.09 5.23 55.64 5.31 56.12 6 56.27 6.05 56.28 6.02 56.31 5.98 56.34 5.31 56.79 5.68 58.5 5.71 59 5.76 59.72 5.04 59.64 4.98 59.62 4.95 59.61 4.92 59.62 4.97 59.68 5.48 60.3 6.11 59.73 6.11 59.73 6.59 59.88 6.29 60.29 5.97 60.5 5.92 60.53 5.92 60.57 5.98 60.57 6.05 60.57 6.79 60.64 6.92 60.05 7.25 60.44 7.73 60.3 7.83 60.25 7.97 60.18 8.66 59.93 8.73 60.7 8.73 60.76 8.77 60.72 8.79 60.69 9.31 60.03 8.75 59.63 8.44 59.58 8.47 59.54 8.88 59.2 9.26 59.68 9.29 59.71 9.31 59.72 9.31 59.65 9.35 58.82 8.68 58.74 8.24 59.1 8.22 59.01 8.07 58.55 8.73 58.56 8.75 58.56 8.78 58.54 8.74 58.5 8.23 57.96 7.8 58.45 7.71 58.57 7.48 58.84 6.91 58.73 6.86 58.73 7.04 55.84 9.58 56.86 9.93 55.46 9.95 55.39 9.98 55.41 9.99 55.44 10.09 55.78 10.95 55.83 11.11 55.16 11.12 55.12 11.11 55.09 11.08 55.12 10.34 55.86 8.68 53.56 10.95 51.69 12.88 50.1 14.62 50.98 15.27 51.51 15.3 51.74 15.17 51.82 15.08 51.84 15.05 51.85 15.04 51.88 15.09 51.9 15.27 51.97 15.53 51.95 15.66 51.78 16.08 52.07 15.72 52.44 15.55 52.54 15.51 52.57 15.53 52.59 15.56 52.6 15.94 52.67 16.25 52.28 16.27 52.06L16.33 52.1 16.33 53.74C16.33 56.08 19.03 56.4 21.99 58.38 24.95 56.4 27.65 56.07 27.65 53.74L27.65 52.1 27.71 52.06C27.73 52.28 28.04 52.67 28.42 52.6 28.46 52.59 28.47 52.57 28.43 52.54 28.26 52.44 27.91 52.07 28.32 51.78 28.44 51.95 28.7 51.97 28.89 51.9 28.94 51.88 28.93 51.85 28.9 51.84 28.81 51.81 28.67 51.74 28.71 51.51 29.37 50.99 31.1 50.1 33.03 51.69 35.29 53.56 33.63 55.86 32.9 55.12 32.87 55.09 32.86 55.12 32.87 55.16 33.03 55.84 33.89 55.79 33.99 55.44 34 55.41 34.03 55.39 34.05 55.46 34.4 56.86 36.95 55.84 37.12 58.73 37.07 58.74 36.5 58.84 36.27 58.57 36.17 58.45 35.75 57.96 35.24 58.5 35.21 58.53 35.24 58.56 35.25 58.56 35.91 58.54 35.77 59.01 35.74 59.1 35.3 58.74 34.63 58.81 34.67 59.65 34.67 59.72 34.7 59.71 34.72 59.68 35.1 59.2 35.51 59.55 35.54 59.58 35.23 59.63 34.67 60.03 35.19 60.69 35.21 60.72 35.24 60.76 35.25 60.7 35.32 59.92 36.01 60.18 36.15 60.25 36.25 60.3 36.73 60.44 37.06 60.05 37.19 60.64 37.93 60.57 38 60.57 38.05 60.57 38.06 60.53 38.01 60.5 37.69 60.29 37.4 59.88 37.87 59.73 37.87 59.73 38.5 60.3 39.01 59.68 39.05 59.62 39.03 59.61 39 59.62 38.94 59.64 38.22 59.73 38.27 59 38.3 58.5 38.67 56.79 37.99 56.36 37.95 56.33 37.92 56.31 37.97 56.29 38.66 56.14 38.75 55.66 38.52 55.11 38.49 55.04 38.45 55.05 38.45 55.11 38.4 56.22 36.63 55.69 36.57 54.14 37.52 54.38 39.15 54.05 39.15 52.51 39.15 50.99 37.2 50.17 37.2 49.07 37.2 48.88 37.2 48.12 38.1 48.12 38.84 48.12 39.38 48.67 39.53 49.26 39.54 49.29 39.57 49.3 39.59 49.26 39.7 49.12 39.68 48.54 39.41 48.24 39.38 48.21 39.41 48.16 39.47 48.19 39.55 48.24 39.81 48.32 40.09 48.32 40.69 48.32 41.02 47.99 41.02 47.44 41.02 47.09 40.9 46.92 40.95 46.81 40.97 46.76 40.91 46.72 40.88 46.79 40.79 46.96 40.64 47.41 40.02 47.41L38.53 47.41C36.87 47.41 36.72 48.75 36.72 49.08 36.72 50.44 38.45 51.03 38.45 52.41 38.45 52.73 38.29 53.28 37.39 53.28 37.02 53.28 36.64 53.18 36.4 53.07 36.4 53.07 36 50.65 34.83 49.81 34.83 49.81 33.46 50.48 32.1 49.74 31.06 49.18 30.57 48.8 29.66 49.43 28.75 50.06 27.95 50.74 27.86 50.72L27.64 50.68 27.64 45.24C28.06 45.2 28.09 45.57 28.07 45.67 28.05 45.8 27.91 45.9 28.2 46.33 28.22 46.36 28.26 46.35 28.26 46.31 28.27 46.2 28.33 46.02 28.47 46.02 28.61 46.02 29.26 46.51 29.81 47.06 29.81 47.06 30.13 46.1 30.89 45.81 30.46 45.74 28.59 45.29 28.59 44.48 28.59 44.21 28.28 44.14 28.08 44.16 28.07 44.14 27.77 43.41 27.2 43.79 27.17 43.81 27.18 43.85 27.21 43.86 27.46 43.92 27.57 44.18 27.58 44.46 27.04 44.29 24.72 43.64 21.98 43.64 20.65 43.64 19.42 43.79 18.44 43.97L18.44 45.86 17.7 45.86 17.7 44.1 17.7 44.1 17.7 44.1ZM12.64 63.42C12.44 63.34 12.3 63.21 12.3 62.94L12.3 61.77C11.96 61.65 11.05 61.3 9.22 61.3 7.7 61.3 7.22 61.64 7.2 61.76L6.8 63.99C6.8 63.99 7.42 63.43 9.62 63.57 12.28 63.74 15.03 65.31 15.03 63.64L15.03 62.66C12.94 62.66 12.64 63.32 12.64 63.42L12.64 63.42ZM28.98 62.66L28.98 63.64C28.98 65.31 31.73 63.74 34.39 63.57 36.59 63.43 37.21 63.99 37.21 63.99L36.81 61.76C36.79 61.64 36.31 61.3 34.79 61.3 32.96 61.3 32.04 61.65 31.71 61.77L31.71 62.94C31.71 63.21 31.58 63.34 31.37 63.42 31.36 63.32 31.06 62.66 28.98 62.66L28.98 62.66ZM22 61.65C26.28 61.65 30.62 61.87 31.19 62.52 31.24 62.57 31.25 62.52 31.25 62.48L31.25 60.21C31.25 59.55 26.77 59.16 22 59.16 17.23 59.16 12.75 59.54 12.75 60.21L12.75 62.48C12.75 62.52 12.77 62.57 12.81 62.52 13.38 61.87 17.72 61.65 22 61.65L22 61.65ZM18.19 50.96L17.76 50.85 17.72 50.9 17.22 50.68 17.67 50.68C17.71 50.68 17.71 50.65 17.69 50.63 17.49 50.43 17.31 50.25 17.31 50.25 17.31 50.25 17.51 50.33 17.81 50.43 17.84 50.44 17.86 50.42 17.84 50.4 17.7 50.19 17.51 49.92 17.51 49.92 17.51 49.92 17.91 50.19 18 50.25 18.03 50.27 18.05 50.25 18.04 50.22 17.93 49.95 17.81 49.65 17.81 49.65L18.25 50.07C18.27 50.09 18.29 50.08 18.29 50.05 18.25 49.85 18.17 49.48 18.17 49.48L18.5 49.96C18.52 49.99 18.54 49.98 18.54 49.95 18.54 49.86 18.55 49.43 18.55 49.43 18.55 49.43 18.69 49.74 18.76 49.91 18.77 49.94 18.8 49.94 18.82 49.9 18.84 49.85 18.99 49.5 18.99 49.5L19.01 50.04 18.94 50.05 18.85 50.7C19.5 50.55 20.3 49.44 20.92 49.44 21.65 49.44 21.92 50.3 23.28 49.86 23.62 50.37 23.74 50.81 23.87 51.42 24.39 51.91 25.13 51.75 25.13 51.23 25.13 50.53 24.36 50.39 24.36 49.66 24.36 49.33 24.59 48.86 25.22 48.86 25.55 48.86 26.04 49 26.32 49 26.65 49 26.72 48.76 26.76 48.66 26.79 48.59 26.88 48.61 26.87 48.67 26.86 48.74 26.91 48.83 26.91 48.99 26.91 49.45 26.23 49.51 26.15 49.46 26.12 49.44 26.09 49.47 26.12 49.49 26.22 49.57 26.2 49.85 26.08 50.02 26.07 50.04 26.05 50.04 26.04 50.02 25.97 49.69 25.58 49.28 25.23 49.28 25.1 49.28 24.85 49.35 24.85 49.65 24.85 50.07 25.69 50.45 25.69 51.31 25.69 52.21 24.8 52.42 23.9 52.2 23.93 53.05 25.2 53.56 25.23 52.95 25.23 52.91 25.25 52.93 25.27 52.95 25.46 53.21 25.37 53.41 25.13 53.51 25.35 53.61 25.39 54.06 25.46 54.32 25.56 54.72 25.98 54.5 26 54.49 26.02 54.48 26.03 54.49 26.02 54.51 25.86 54.93 25.43 54.77 25.43 54.77 25.21 54.93 25.48 55.07 25.68 55.13 25.71 55.14 25.71 55.16 25.68 55.17 25.53 55.22 25.21 55.32 25.06 55.06 24.95 55.34 24.71 55.33 24.62 55.33 24.46 55.33 24.35 55.5 24.39 55.72 24.39 55.74 24.38 55.75 24.36 55.73 23.97 55.47 24.19 55.17 24.35 55.09 24.32 55.07 24.05 54.96 23.94 55.28 23.93 55.3 23.92 55.31 23.91 55.28 23.74 54.83 24.11 54.69 24.38 54.81 24.36 54.75 24.22 54.52 23.87 54.6 23.85 54.6 23.84 54.6 23.85 54.58 23.91 54.44 24.08 54.24 24.4 54.44 24.56 54.54 24.85 54.39 24.87 54.38 24.3 53.25 23.2 54.2 22.95 53.31 22.95 53.29 22.92 53.28 22.91 53.32 22.85 53.51 22.37 53.52 22.28 53.15 22.27 53.12 22.28 53.12 22.3 53.14 22.37 53.21 22.52 53.28 22.72 52.99 22.85 52.8 22.87 52.55 22.87 52.37 22.87 51.68 22.18 50.53 21.11 50.53 20.43 50.53 19.7 50.79 19.16 51.19L19.66 51.31C19.61 51.82 19.12 52.12 18.67 51.99L18.75 51.41C18.67 51.43 18.47 51.5 18.37 51.65 18.36 51.66 18.35 51.66 18.34 51.65 18.25 51.32 18.52 51.15 18.61 51.11 18.62 51.1 18.62 51.1 18.6 51.1 18.36 51.09 18.22 51.27 18.18 51.33 18.17 51.34 18.16 51.34 18.16 51.33 18.11 51.25 18.07 51.08 18.19 50.96L18.19 50.96ZM19.68 54.89C19.49 55.13 19.32 54.9 19.06 54.9 18.82 54.9 18.78 55.1 18.78 55.18 18.78 55.19 18.77 55.2 18.76 55.18 18.49 54.81 18.79 54.61 18.97 54.58 18.94 54.55 18.68 54.38 18.51 54.62 18.5 54.64 18.48 54.63 18.48 54.61 18.47 54.15 18.83 54.12 19.07 54.32 19.11 54.15 19 54.03 18.81 54.02 18.79 54.02 18.78 54 18.79 53.99 18.87 53.9 18.95 53.86 19.03 53.86 19.28 53.86 19.32 54.18 19.48 54.18 19.73 54.18 20.08 53.84 20.12 53.81 20.11 53.79 19.87 53.15 19.92 52.76 19.92 52.74 19.91 52.74 19.9 52.75 19.78 52.82 19.47 52.82 19.47 52.44 19.47 52.41 19.48 52.41 19.5 52.43 19.63 52.62 19.85 52.41 19.96 52.28 20.08 52.15 20.71 51.24 21.54 51.24 21.72 51.24 21.96 51.34 22.15 51.47 21.86 51.82 22.15 52.16 22.36 52.12 22.39 52.12 22.39 52.14 22.37 52.15 21.26 52.57 20.77 52.73 20.77 53.66 20.77 54.14 20.94 54.41 21.22 54.35 21.24 54.34 21.25 54.35 21.23 54.37 21.13 54.49 21.01 54.53 20.91 54.53 20.68 54.53 20.64 54.4 20.52 54.4 20.39 54.4 19.98 54.64 19.98 54.85 19.98 54.93 20.03 55.03 20.17 55.13 20.18 55.14 20.17 55.14 20.17 55.15 20.08 55.18 19.76 55.2 19.68 54.89L19.68 54.89ZM22.6 45.88C22.25 45.86 22.03 45.94 22.04 46.05 22.21 46.23 22.43 46.21 22.6 45.88L22.6 45.88ZM21.32 46.74C21.56 46.68 21.83 46.71 21.86 46.72 21.9 46.73 21.9 46.79 21.85 46.8 21.34 46.87 21.32 47.1 20.99 47.1 20.78 47.1 20.54 46.88 20.63 46.57 20.64 46.53 20.67 46.53 20.68 46.57 20.72 46.69 20.92 46.84 21.32 46.74L21.32 46.74ZM14.7 58.04C15.04 58.47 15.36 58.07 15.8 58.07 16.02 58.07 16.28 58.14 16.33 58.58 16.33 58.6 16.35 58.61 16.37 58.58 16.85 57.92 16.3 57.55 15.99 57.5 16.06 57.44 16.53 57.15 16.83 57.58 16.85 57.6 16.88 57.6 16.88 57.56 16.88 56.73 16.25 56.67 15.8 57.03 15.71 56.7 15.96 56.49 16.28 56.49 16.32 56.49 16.33 56.46 16.31 56.44 15.75 55.84 15.33 56.59 15.24 56.71 15.02 57.01 14.22 56.45 13.9 56.12 13.9 56.12 14.61 55.38 14.61 54.7L14.61 54.58C14.61 54.56 14.62 54.55 14.64 54.56 14.71 54.6 14.81 54.63 14.9 54.63 15.06 54.63 15.37 54.58 15.37 54.01 15.37 53.97 15.35 53.97 15.33 53.99 15.25 54.11 15.15 54.14 15.08 54.14 14.51 54.14 13.32 52.24 11.92 52.24 11.55 52.24 10.86 52.5 10.51 52.88 10.68 52.98 10.71 53.19 10.69 53.34 10.66 53.58 10.47 53.7 10.28 53.76 10.25 53.77 10.24 53.79 10.28 53.81 10.99 54.08 12.28 54.57 12.57 54.82 12.92 55.12 12.85 55.69 12.65 56.47 12.46 57.22 12.04 57.12 11.89 57.09 11.87 57.09 11.86 57.1 11.87 57.12 12.05 57.35 12.28 57.43 12.47 57.43 12.84 57.43 12.98 57.2 13.17 57.2 13.49 57.2 14.16 57.66 14.16 58.01 14.16 58.21 14.01 58.38 13.81 58.51 13.8 58.52 13.8 58.53 13.82 58.54 13.95 58.55 14.58 58.6 14.7 58.04L14.7 58.04ZM30.2 58.53C30.22 58.53 30.22 58.51 30.21 58.5 30.01 58.37 29.86 58.19 29.86 58 29.86 57.65 30.53 57.19 30.85 57.19 31.04 57.19 31.18 57.42 31.55 57.42 31.74 57.42 31.96 57.34 32.15 57.11 32.16 57.09 32.16 57.08 32.13 57.08 31.98 57.1 31.56 57.21 31.37 56.46 31.17 55.68 31.1 55.11 31.45 54.81 31.74 54.56 33.03 54.07 33.74 53.8 33.78 53.78 33.77 53.76 33.74 53.75 33.54 53.7 33.35 53.58 33.33 53.33 33.31 53.18 33.34 52.97 33.51 52.87 33.16 52.49 32.47 52.23 32.1 52.23 30.7 52.23 29.51 54.13 28.94 54.13 28.87 54.13 28.78 54.1 28.69 53.98 28.67 53.95 28.65 53.95 28.65 54 28.65 54.57 28.95 54.62 29.12 54.62 29.21 54.62 29.31 54.59 29.38 54.55 29.4 54.54 29.41 54.55 29.41 54.57L29.41 54.69C29.41 55.37 30.12 56.11 30.12 56.11 29.8 56.44 29 57 28.78 56.7 28.68 56.58 28.27 55.83 27.71 56.43 27.69 56.45 27.7 56.48 27.74 56.48 28.05 56.48 28.3 56.69 28.22 57.02 27.77 56.66 27.14 56.72 27.14 57.55 27.14 57.58 27.17 57.59 27.19 57.57 27.49 57.14 27.96 57.43 28.03 57.49 27.71 57.54 27.16 57.91 27.65 58.57 27.67 58.6 27.69 58.59 27.69 58.57 27.74 58.14 28 58.06 28.22 58.06 28.66 58.06 28.99 58.47 29.32 58.03 29.42 58.6 30.05 58.55 30.2 58.53L30.2 58.53ZM18.85 47.56C18.81 47.62 18.66 47.56 18.6 47.53 18.59 47.52 18.58 47.53 18.59 47.54 18.63 47.62 18.77 47.86 18.98 47.86 19.08 47.86 19.21 47.8 19.25 47.74 19.25 47.74 20.08 48.01 20.48 48.12 20.32 48.33 20.22 48.59 20.2 48.86 19.87 48.66 18.55 47.95 18.55 47.95L18.14 48.51C18.07 48.6 17.75 48.36 17.81 48.27L18.12 47.84C18.02 47.73 17.77 47.8 17.7 47.82 17.69 47.82 17.68 47.82 17.69 47.8 17.73 47.72 17.88 47.46 18.27 47.57 18.27 47.33 17.92 47.41 17.83 47.43 17.82 47.43 17.82 47.43 17.83 47.42 17.93 47.32 18.21 47.09 18.53 47.28L18.67 47.09 18.39 46.79 18.57 46.55 18.77 46.82 20.29 44.74C20.33 44.69 20.63 44.6 20.74 44.58 20.75 44.7 20.76 45.01 20.73 45.06L19.23 47.16 19.55 47.26 19.38 47.5 19.01 47.33 18.85 47.56 18.85 47.56ZM24.18 47.22C24.18 47.41 24.3 47.69 24.55 47.61 24.56 47.6 24.57 47.61 24.57 47.62 24.53 47.83 24.15 48.03 23.98 47.78 23.83 48.11 23.86 48.41 24.19 48.59 24.21 48.6 24.21 48.62 24.19 48.64 23.99 48.78 23.68 48.75 23.54 48.47 23.27 48.68 23.31 49.11 23.47 49.26 23.47 49.26 22.71 49.71 22.03 49.39 21.58 49.17 21.21 48.89 20.62 48.94 20.7 48.12 21.11 47.9 21.87 47.78 22.47 47.68 22.55 47.4 22.46 47.19 22.25 47.14 21.88 47.32 21.88 47.32 21.81 47.21 21.91 47.09 21.91 47.09 21.87 47.04 21.85 46.89 21.85 46.89 22.27 46.89 22.35 46.8 22.35 46.8 22.43 46.36 21.98 46.31 21.64 46.55 21.48 46.41 21.51 46.22 21.51 46.22 21.46 46.2 21.43 46.12 21.43 46.09 21.43 45.99 21.93 45.7 22.06 45.67 22.09 45.52 22.27 45.32 22.81 45.37 22.87 45.23 22.77 44.71 22.71 44.58 22.69 44.54 22.72 44.51 22.77 44.54 22.96 44.66 23.14 45.09 23.27 45.1 23.27 45.1 23.87 44.79 23.9 44.8 23.93 44.82 24.01 45.48 24.01 45.48 24.09 45.58 24.55 45.48 24.75 45.57 24.8 45.59 24.8 45.63 24.75 45.64 24.6 45.67 24.12 45.87 24.04 46.01 24.31 46.44 24.18 47.05 24.18 47.22L24.18 47.22Z" id="Shape" fill="#FFFFFF"/></g></g></g></svg>
