<?xml version="1.0" encoding="UTF-8" standalone="no"?>
<svg width="56px" height="55px" viewBox="0 0 56 55" version="1.1" xmlns="http://www.w3.org/2000/svg" xmlns:xlink="http://www.w3.org/1999/xlink">
    <!-- Generator: Sketch 40.2 (33826) - http://www.bohemiancoding.com/sketch -->
    <title>looking-glass</title>
    <desc>Created with Sketch.</desc>
    <defs></defs>
    <g id="Page-1" stroke="none" stroke-width="1" fill="none" fill-rule="evenodd">
        <g id="icon-search" transform="translate(-4.000000, -5.000000)" fill="#000000">
            <g transform="translate(4.000000, 5.000000)" id="looking-glass">
                <path d="M54.060791,47.1978023 C51.055875,44.2032968 45.0460432,38.2142857 42.0411273,35.2197802 C41.9995847,35.206044 41.9164996,35.1785715 41.874957,35.1648352 C41.8380299,35.1282052 41.8195663,35.0915752 41.8195663,35.0549452 C43.03815,33.2600734 43.970551,31.3095239 44.6167694,29.2032967 C45.2629878,27.0970695 45.586097,24.8901098 45.586097,22.5824176 C45.586097,18.5164835 44.5336841,14.7252747 42.4288585,11.208791 C40.4348128,7.8021977 37.7206951,5.09157513 34.2865057,3.0769233 C30.7415356,1.0256411 26.9103832,0 22.7930485,0 C18.6757137,0 14.8445613,1.0256411 11.2995913,3.0769233 C7.86540182,5.09157513 5.13282102,7.8021977 3.10184887,11.208791 C1.03394962,14.7252747 0,18.525641 0,22.60989 C0,26.6941391 1.03394962,30.4945054 3.10184887,34.0109891 C5.13282102,37.4175824 7.86540182,40.1098902 11.2995913,42.0879124 C14.8445613,44.1758242 18.666482,45.2197801 22.7653534,45.2197801 C25.0178863,45.2197801 27.2334925,44.8901097 29.412172,44.230769 C31.5169979,43.6080586 33.4925802,42.6923077 35.3389187,41.4835163 C35.3758454,41.5384614 35.4220038,41.6071429 35.4496989,41.6483518 C35.4496989,41.6849818 35.4681622,41.7032968 35.505089,41.7032968 C39.5301069,45.6776558 44.5613793,50.6456046 47.5801427,53.6263739 C48.4663851,54.5421246 49.5557247,55 50.8481616,55 C52.1405986,55 53.2299384,54.5421246 54.1161811,53.6263739 C55.0393501,52.7106228 55.491703,51.6300366 55.4732396,50.3846153 C55.4547762,49.139194 54.98396,48.076923 54.060791,47.1978023 L54.060791,47.1978023 Z M22.7653534,37.3626374 C20.0696994,37.3626374 17.5863741,36.7032968 15.3153776,35.3846155 C13.0443812,34.0659342 11.2257378,32.2710625 9.8594476,30.0000002 C8.53008375,27.7289377 7.86540182,25.2564101 7.86540182,22.5824175 C7.86540182,19.908425 8.53008375,17.4542126 9.8594476,15.2197804 C11.2257378,12.9487178 13.0443812,11.1446884 15.3153776,9.80769212 C17.5863741,8.47069584 20.0696994,7.8021977 22.7653534,7.8021977 C25.4610075,7.8021977 27.9535644,8.47069584 30.2430243,9.80769212 C32.5324841,11.1446884 34.3418958,12.9487178 35.6712592,15.2197804 C37.0006231,17.4542126 37.665305,19.908425 37.665305,22.5824175 C37.665305,25.2564101 37.0006231,27.7289377 35.6712592,30.0000002 C34.3418958,32.2710625 32.5324841,34.0659342 30.2430243,35.3846155 C27.9535644,36.7032968 25.4610075,37.3626374 22.7653534,37.3626374 L22.7653534,37.3626374 Z"></path>
            </g>
        </g>
    </g>
</svg>