<?xml version="1.0" encoding="UTF-8" standalone="no"?>
<svg width="1174px" height="506px" viewBox="0 0 1174 506" version="1.1" xmlns="http://www.w3.org/2000/svg" xmlns:xlink="http://www.w3.org/1999/xlink">
    <!-- Generator: Sketch 41 (35326) - http://www.bohemiancoding.com/sketch -->
    <title>rhs-icons</title>
    <desc>Created with Sketch.</desc>
    <defs>
        <rect id="path-1" x="0" y="0" width="64" height="64"></rect>
        <mask id="mask-2" maskContentUnits="userSpaceOnUse" maskUnits="objectBoundingBox" x="0" y="0" width="64" height="64" fill="white">
            <use xlink:href="#path-1"></use>
        </mask>
        <rect id="path-3" x="0" y="0" width="64" height="64"></rect>
        <mask id="mask-4" maskContentUnits="userSpaceOnUse" maskUnits="objectBoundingBox" x="0" y="0" width="64" height="64" fill="white">
            <use xlink:href="#path-3"></use>
        </mask>
        <rect id="path-5" x="0" y="0" width="64" height="64"></rect>
        <mask id="mask-6" maskContentUnits="userSpaceOnUse" maskUnits="objectBoundingBox" x="0" y="0" width="64" height="64" fill="white">
            <use xlink:href="#path-5"></use>
        </mask>
        <rect id="path-7" x="0" y="0" width="64" height="64"></rect>
        <mask id="mask-8" maskContentUnits="userSpaceOnUse" maskUnits="objectBoundingBox" x="0" y="0" width="64" height="64" fill="white">
            <use xlink:href="#path-7"></use>
        </mask>
        <rect id="path-9" x="0" y="0" width="64" height="64"></rect>
        <mask id="mask-10" maskContentUnits="userSpaceOnUse" maskUnits="objectBoundingBox" x="0" y="0" width="64" height="64" fill="white">
            <use xlink:href="#path-9"></use>
        </mask>
        <rect id="path-11" x="0" y="0" width="64" height="64"></rect>
        <mask id="mask-12" maskContentUnits="userSpaceOnUse" maskUnits="objectBoundingBox" x="0" y="0" width="64" height="64" fill="white">
            <use xlink:href="#path-11"></use>
        </mask>
        <rect id="path-13" x="0" y="0" width="64" height="64"></rect>
        <mask id="mask-14" maskContentUnits="userSpaceOnUse" maskUnits="objectBoundingBox" x="0" y="0" width="64" height="64" fill="white">
            <use xlink:href="#path-13"></use>
        </mask>
        <rect id="path-15" x="0" y="0" width="64" height="64"></rect>
        <mask id="mask-16" maskContentUnits="userSpaceOnUse" maskUnits="objectBoundingBox" x="0" y="0" width="64" height="64" fill="white">
            <use xlink:href="#path-15"></use>
        </mask>
        <rect id="path-17" x="0" y="0" width="64" height="64"></rect>
        <mask id="mask-18" maskContentUnits="userSpaceOnUse" maskUnits="objectBoundingBox" x="0" y="0" width="64" height="64" fill="white">
            <use xlink:href="#path-17"></use>
        </mask>
        <rect id="path-19" x="0" y="0" width="64" height="64"></rect>
        <mask id="mask-20" maskContentUnits="userSpaceOnUse" maskUnits="objectBoundingBox" x="0" y="0" width="64" height="64" fill="white">
            <use xlink:href="#path-19"></use>
        </mask>
        <rect id="path-21" x="0" y="0" width="64" height="64"></rect>
        <mask id="mask-22" maskContentUnits="userSpaceOnUse" maskUnits="objectBoundingBox" x="0" y="0" width="64" height="64" fill="white">
            <use xlink:href="#path-21"></use>
        </mask>
        <rect id="path-23" x="0" y="0" width="64" height="64"></rect>
        <mask id="mask-24" maskContentUnits="userSpaceOnUse" maskUnits="objectBoundingBox" x="0" y="0" width="64" height="64" fill="white">
            <use xlink:href="#path-23"></use>
        </mask>
        <rect id="path-25" x="0" y="0" width="64" height="64"></rect>
        <mask id="mask-26" maskContentUnits="userSpaceOnUse" maskUnits="objectBoundingBox" x="0" y="0" width="64" height="64" fill="white">
            <use xlink:href="#path-25"></use>
        </mask>
        <rect id="path-27" x="0" y="0" width="64" height="64"></rect>
        <mask id="mask-28" maskContentUnits="userSpaceOnUse" maskUnits="objectBoundingBox" x="0" y="0" width="64" height="64" fill="white">
            <use xlink:href="#path-27"></use>
        </mask>
        <rect id="path-29" x="0" y="0" width="64" height="64"></rect>
        <mask id="mask-30" maskContentUnits="userSpaceOnUse" maskUnits="objectBoundingBox" x="0" y="0" width="64" height="64" fill="white">
            <use xlink:href="#path-29"></use>
        </mask>
        <rect id="path-31" x="0" y="0" width="64" height="64"></rect>
        <mask id="mask-32" maskContentUnits="userSpaceOnUse" maskUnits="objectBoundingBox" x="0" y="0" width="64" height="64" fill="white">
            <use xlink:href="#path-31"></use>
        </mask>
        <rect id="path-33" x="0" y="0" width="64" height="64"></rect>
        <mask id="mask-34" maskContentUnits="userSpaceOnUse" maskUnits="objectBoundingBox" x="0" y="0" width="64" height="64" fill="white">
            <use xlink:href="#path-33"></use>
        </mask>
        <rect id="path-35" x="0" y="0" width="64" height="64"></rect>
        <mask id="mask-36" maskContentUnits="userSpaceOnUse" maskUnits="objectBoundingBox" x="0" y="0" width="64" height="64" fill="white">
            <use xlink:href="#path-35"></use>
        </mask>
        <rect id="path-37" x="0" y="0" width="64" height="64"></rect>
        <mask id="mask-38" maskContentUnits="userSpaceOnUse" maskUnits="objectBoundingBox" x="0" y="0" width="64" height="64" fill="white">
            <use xlink:href="#path-37"></use>
        </mask>
        <rect id="path-39" x="0" y="0" width="64" height="64"></rect>
        <mask id="mask-40" maskContentUnits="userSpaceOnUse" maskUnits="objectBoundingBox" x="0" y="0" width="64" height="64" fill="white">
            <use xlink:href="#path-39"></use>
        </mask>
        <rect id="path-41" x="0" y="0" width="64" height="64"></rect>
        <mask id="mask-42" maskContentUnits="userSpaceOnUse" maskUnits="objectBoundingBox" x="0" y="0" width="64" height="64" fill="white">
            <use xlink:href="#path-41"></use>
        </mask>
        <rect id="path-43" x="0" y="0" width="64" height="64"></rect>
        <mask id="mask-44" maskContentUnits="userSpaceOnUse" maskUnits="objectBoundingBox" x="0" y="0" width="64" height="64" fill="white">
            <use xlink:href="#path-43"></use>
        </mask>
        <rect id="path-45" x="0" y="0" width="64" height="64"></rect>
        <mask id="mask-46" maskContentUnits="userSpaceOnUse" maskUnits="objectBoundingBox" x="0" y="0" width="64" height="64" fill="white">
            <use xlink:href="#path-45"></use>
        </mask>
        <rect id="path-47" x="0" y="0" width="64" height="64"></rect>
        <mask id="mask-48" maskContentUnits="userSpaceOnUse" maskUnits="objectBoundingBox" x="0" y="0" width="64" height="64" fill="white">
            <use xlink:href="#path-47"></use>
        </mask>
        <rect id="path-49" x="0" y="0" width="64" height="64"></rect>
        <mask id="mask-50" maskContentUnits="userSpaceOnUse" maskUnits="objectBoundingBox" x="0" y="0" width="64" height="64" fill="white">
            <use xlink:href="#path-49"></use>
        </mask>
        <rect id="path-51" x="0" y="0" width="64" height="64"></rect>
        <mask id="mask-52" maskContentUnits="userSpaceOnUse" maskUnits="objectBoundingBox" x="0" y="0" width="64" height="64" fill="white">
            <use xlink:href="#path-51"></use>
        </mask>
        <rect id="path-53" x="0" y="0" width="64" height="64"></rect>
        <mask id="mask-54" maskContentUnits="userSpaceOnUse" maskUnits="objectBoundingBox" x="0" y="0" width="64" height="64" fill="white">
            <use xlink:href="#path-53"></use>
        </mask>
        <rect id="path-55" x="0" y="0" width="64" height="64"></rect>
        <mask id="mask-56" maskContentUnits="userSpaceOnUse" maskUnits="objectBoundingBox" x="0" y="0" width="64" height="64" fill="white">
            <use xlink:href="#path-55"></use>
        </mask>
        <rect id="path-57" x="0" y="0" width="64" height="64"></rect>
        <mask id="mask-58" maskContentUnits="userSpaceOnUse" maskUnits="objectBoundingBox" x="0" y="0" width="64" height="64" fill="white">
            <use xlink:href="#path-57"></use>
        </mask>
        <rect id="path-59" x="0" y="0" width="64" height="64"></rect>
        <mask id="mask-60" maskContentUnits="userSpaceOnUse" maskUnits="objectBoundingBox" x="0" y="0" width="64" height="64" fill="white">
            <use xlink:href="#path-59"></use>
        </mask>
        <rect id="path-61" x="0" y="0" width="64" height="64"></rect>
        <mask id="mask-62" maskContentUnits="userSpaceOnUse" maskUnits="objectBoundingBox" x="0" y="0" width="64" height="64" fill="white">
            <use xlink:href="#path-61"></use>
        </mask>
        <rect id="path-63" x="0" y="0" width="64" height="64"></rect>
        <mask id="mask-64" maskContentUnits="userSpaceOnUse" maskUnits="objectBoundingBox" x="0" y="0" width="64" height="64" fill="white">
            <use xlink:href="#path-63"></use>
        </mask>
        <rect id="path-65" x="0" y="0" width="64" height="64"></rect>
        <mask id="mask-66" maskContentUnits="userSpaceOnUse" maskUnits="objectBoundingBox" x="0" y="0" width="64" height="64" fill="white">
            <use xlink:href="#path-65"></use>
        </mask>
    </defs>
    <g id="Page-1" stroke="none" stroke-width="1" fill="none" fill-rule="evenodd">
        <g id="rhs-icons">
            <g id="icon-warning" transform="translate(25.000000, 26.000000)">
                <g id="Box" transform="translate(0.882439, 0.315100)" stroke="#FF0000" stroke-width="2">
                    <use id="Rectangle-path" mask="url(#mask-2)" xlink:href="#path-1"></use>
                </g>
                <g id="Group-2" transform="translate(10.382439, 9.815100)">
                    <rect id="background" fill="#D0011B" x="0" y="7.10542736e-15" width="44.6849004" height="44.6849004"></rect>
                    <path d="M17.8138373,7.0280776 L26.7777272,7.0280776 L26.7777272,13.9106965 L25.0467691,27.7377543 L19.503582,27.7377543 L17.8138373,13.9106965 L17.8138373,7.0280776 Z M18.1229369,29.839632 L26.4892342,29.839632 L26.4892342,37.237417 L18.1229369,37.237417 L18.1229369,29.839632 Z" id="exclamation" fill="#FFFFFF"></path>
                </g>
            </g>
            <g id="icon-arrow-fat-up" transform="translate(114.000000, 26.000000)">
                <g id="Box" transform="translate(0.882439, 0.315100)" stroke="#FF0000" stroke-width="2">
                    <use id="Rectangle-path" mask="url(#mask-4)" xlink:href="#path-3"></use>
                </g>
                <path d="M48.4361919,32.2903719 C48.4361919,32.8838379 48.3455235,33.3866354 48.1641867,33.7987644 C47.9828499,34.2108935 47.6778744,34.6477504 47.2492602,35.1093352 C40.2925206,42.0495897 31.5965961,50.7249078 26.3790414,55.9300986 C25.9833975,56.3257425 25.5712684,56.6142328 25.1426541,56.7955696 C24.7140397,56.9769064 24.2029995,57.0675748 23.6095335,57.0675748 C23.0490381,57.0675748 22.5544833,56.9769064 22.1258689,56.7955696 C21.6972545,56.6142328 21.2686403,56.3257425 20.8400261,55.9300986 C20.0652233,55.1552958 19.0967198,54.1867923 18.5156177,53.6056902 C18.1199738,53.2100463 17.8232409,52.7567043 17.6254189,52.2456642 C17.427597,51.7346241 17.328686,51.2483116 17.328686,50.7867268 C17.328686,50.2262314 17.4193544,49.7316766 17.6006912,49.3030622 C17.782028,48.8744479 18.0870035,48.4458336 18.5156177,48.0172194 C23.642504,42.7749369 30.0511119,36.2220837 33.8962766,32.2903719 C30.0634757,28.4822987 22.397874,20.8661524 18.5650731,17.0580793 C18.2023995,16.6954057 17.9221517,16.2585488 17.7243298,15.7475087 C17.5265078,15.2364686 17.4275969,14.7501564 17.4275969,14.2885719 C17.4275969,13.7280762 17.5182653,13.2335211 17.6996021,12.8049068 C17.8809389,12.3762924 18.1694292,11.9476781 18.5650731,11.5190639 C19.3398759,10.5794095 20.3083794,9.40484142 20.8894815,8.70010058 C21.2851254,8.30445668 21.6972545,8.01596634 22.1258689,7.83462954 C22.5544833,7.65329274 23.0655233,7.56262434 23.658989,7.56262434 C24.252455,7.56262434 24.7552526,7.65329274 25.1673818,7.83462954 C25.579511,8.01596634 26.0163678,8.30445668 26.4779523,8.70010058 C33.3852365,15.6733255 42.0193417,24.3898566 47.1998048,29.6197753 C47.628419,30.0154192 47.9416371,30.4193057 48.139459,30.8314347 C48.337281,31.2435638 48.4361919,31.7298762 48.4361919,32.2903719 L48.4361919,32.2903719 L48.4361919,32.2903719 Z" id="path" fill="#000000" transform="translate(32.882439, 32.315100) rotate(270.000000) translate(-32.882439, -32.315100) "></path>
            </g>
            <g id="icon-arrow-fat-downd" transform="translate(199.000000, 26.000000)">
                <g id="Box" transform="translate(0.882439, 0.315100)" stroke="#FF0000" stroke-width="2">
                    <use id="Rectangle-path" mask="url(#mask-6)" xlink:href="#path-5"></use>
                </g>
                <path d="M48.4361919,32.2903719 C48.4361919,32.8838379 48.3455235,33.3866354 48.1641867,33.7987644 C47.9828499,34.2108935 47.6778744,34.6477504 47.2492602,35.1093352 C40.2925206,42.0495897 31.5965961,50.7249078 26.3790414,55.9300986 C25.9833975,56.3257425 25.5712684,56.6142328 25.1426541,56.7955696 C24.7140397,56.9769064 24.2029995,57.0675748 23.6095335,57.0675748 C23.0490381,57.0675748 22.5544833,56.9769064 22.1258689,56.7955696 C21.6972545,56.6142328 21.2686403,56.3257425 20.8400261,55.9300986 C20.0652233,55.1552958 19.0967198,54.1867923 18.5156177,53.6056902 C18.1199738,53.2100463 17.8232409,52.7567043 17.6254189,52.2456642 C17.427597,51.7346241 17.328686,51.2483116 17.328686,50.7867268 C17.328686,50.2262314 17.4193544,49.7316766 17.6006912,49.3030622 C17.782028,48.8744479 18.0870035,48.4458336 18.5156177,48.0172194 C23.642504,42.7749369 30.0511119,36.2220837 33.8962766,32.2903719 C30.0634757,28.4822987 22.397874,20.8661524 18.5650731,17.0580793 C18.2023995,16.6954057 17.9221517,16.2585488 17.7243298,15.7475087 C17.5265078,15.2364686 17.4275969,14.7501564 17.4275969,14.2885719 C17.4275969,13.7280762 17.5182653,13.2335211 17.6996021,12.8049068 C17.8809389,12.3762924 18.1694292,11.9476781 18.5650731,11.5190639 C19.3398759,10.5794095 20.3083794,9.40484142 20.8894815,8.70010058 C21.2851254,8.30445668 21.6972545,8.01596634 22.1258689,7.83462954 C22.5544833,7.65329274 23.0655233,7.56262434 23.658989,7.56262434 C24.252455,7.56262434 24.7552526,7.65329274 25.1673818,7.83462954 C25.579511,8.01596634 26.0163678,8.30445668 26.4779523,8.70010058 C33.3852365,15.6733255 42.0193417,24.3898566 47.1998048,29.6197753 C47.628419,30.0154192 47.9416371,30.4193057 48.139459,30.8314347 C48.337281,31.2435638 48.4361919,31.7298762 48.4361919,32.2903719 L48.4361919,32.2903719 L48.4361919,32.2903719 Z" id="path" fill="#000000" transform="translate(32.882439, 32.315100) rotate(90.000000) translate(-32.882439, -32.315100) "></path>
            </g>
            <g id="icon-arrow-fat-right" transform="translate(284.000000, 26.000000)">
                <g id="Box" transform="translate(0.039604, 0.000000)" stroke="#FF0000" stroke-width="2">
                    <use id="Rectangle-path" mask="url(#mask-8)" xlink:href="#path-7"></use>
                </g>
                <path d="M47.5933569,31.9752723 C47.5933569,32.5687383 47.5026885,33.0715358 47.3213517,33.4836649 C47.1400149,33.8957939 46.8350394,34.3326508 46.4064252,34.7942356 C39.4496856,41.7344901 30.7537611,50.4098082 25.5362064,55.614999 C25.1405625,56.0106429 24.7284334,56.2991333 24.2998191,56.48047 C23.8712047,56.6618068 23.3601645,56.7524752 22.7666985,56.7524752 C22.2062031,56.7524752 21.7116483,56.6618068 21.2830339,56.48047 C20.8544196,56.2991333 20.4258053,56.0106429 19.9971911,55.614999 C19.2223883,54.8401962 18.2538848,53.8716927 17.6727827,53.2905906 C17.2771388,52.8949467 16.9804059,52.4416047 16.7825839,51.9305646 C16.584762,51.4195245 16.485851,50.933212 16.485851,50.4716272 C16.485851,49.9111318 16.5765194,49.416577 16.7578562,48.9879626 C16.939193,48.5593483 17.2441685,48.130734 17.6727827,47.7021198 C22.799669,42.4598373 29.2082769,35.9069842 33.0534416,31.9752723 C29.2206407,28.1671991 21.555039,20.5510528 17.7222381,16.7429797 C17.3595645,16.3803061 17.0793167,15.9434493 16.8814948,15.4324092 C16.6836729,14.9213691 16.5847619,14.4350568 16.5847619,13.9734723 C16.5847619,13.4129766 16.6754303,12.9184215 16.8567671,12.4898072 C17.0381039,12.0611928 17.3265942,11.6325785 17.7222381,11.2039644 C18.4970409,10.2643099 19.4655444,9.08974183 20.0466465,8.38500099 C20.4422904,7.9893571 20.8544196,7.70086675 21.2830339,7.51952995 C21.7116483,7.33819315 22.2226883,7.24752475 22.816154,7.24752475 C23.40962,7.24752475 23.9124176,7.33819315 24.3245468,7.51952995 C24.736676,7.70086675 25.1735328,7.9893571 25.6351173,8.38500099 C32.5424015,15.3582259 41.1765067,24.0747571 46.3569698,29.3046757 C46.785584,29.7003196 47.0988021,30.1042061 47.296624,30.5163351 C47.494446,30.9284642 47.5933569,31.4147766 47.5933569,31.9752723 L47.5933569,31.9752723 L47.5933569,31.9752723 Z" id="path" fill="#000000"></path>
            </g>
            <g id="icon-arrow-fat-left" transform="translate(369.000000, 26.000000)">
                <g id="Box" transform="translate(0.316832, 0.000000)" stroke="#FF0000" stroke-width="2">
                    <use id="Rectangle-path" mask="url(#mask-10)" xlink:href="#path-9"></use>
                </g>
                <path d="M16.7630787,31.9258168 C16.7630787,31.3653211 16.8537471,30.8790087 17.0350839,30.4668797 C17.2164207,30.0547507 17.5213962,29.6178937 17.9500104,29.1563089 C24.90675,22.2160545 33.6026745,13.5407364 38.8202292,8.33554554 C39.2158731,7.93990165 39.6280022,7.6514113 40.0566166,7.4700745 C40.4852309,7.28873771 40.979786,7.19806931 41.5402817,7.19806931 C42.1337474,7.19806931 42.6447874,7.28873771 43.0734017,7.4700745 C43.5020161,7.6514113 43.9306304,7.93990165 44.3592446,8.33554554 C45.1340474,9.11034835 46.1025509,10.0788519 46.683653,10.659954 C47.0792969,11.0555979 47.3760298,11.5089399 47.5738517,12.01998 C47.7716737,12.53102 47.8705847,13.0173325 47.8705847,13.4789173 C47.8705847,14.0394127 47.7799163,14.5339676 47.5985795,14.9625819 C47.4172427,15.3911963 47.1122672,15.8198106 46.683653,16.2484248 C41.5567667,21.4742221 35.1481588,28.0064688 31.3029941,31.9258168 C35.1357949,35.7586177 42.8013967,43.4242194 46.6341975,47.2570203 C46.9968711,47.6196939 47.2771189,48.0647933 47.4749408,48.5923186 C47.6727628,49.1198438 47.7716738,49.5979137 47.7716738,50.0265282 C47.7716738,50.5870236 47.6810054,51.0815785 47.4996686,51.5101928 C47.3183318,51.9388072 47.0298414,52.3839066 46.6341975,52.8454911 C45.8593947,53.7686604 44.8908912,54.922622 44.3097891,55.614999 C43.9141452,56.0106429 43.5020161,56.3073758 43.0734017,56.5051978 C42.6447874,56.7030197 42.1337474,56.8019307 41.5402817,56.8019307 C40.9468157,56.8019307 40.4440181,56.7112623 40.0318889,56.5299255 C39.6197597,56.3485887 39.1829028,56.0436132 38.7213183,55.614999 C31.8140342,48.6582594 23.179929,39.9623349 17.9994658,34.7447802 C17.5708517,34.3161657 17.2576336,33.8875513 17.0598116,33.4589371 C16.8619897,33.0303229 16.7630787,32.5192828 16.7630787,31.9258168 L16.7630787,31.9258168 L16.7630787,31.9258168 Z" id="path" fill="#000000"></path>
            </g>
            <g id="icon-search" transform="translate(454.000000, 26.000000)">
                <g id="Box" transform="translate(0.500000, 0.401782)" stroke="#FF0000" stroke-width="2">
                    <use id="Rectangle-path" mask="url(#mask-12)" xlink:href="#path-11"></use>
                </g>
                <path d="M53.8770668,48.5090526 C51.4889991,46.1292582 46.7128636,41.3696694 44.3247958,38.989875 C44.2917811,38.9789585 44.2257517,38.9571256 44.1927369,38.9462091 C44.1633902,38.9170985 44.1487168,38.8879879 44.1487168,38.8588773 C45.11715,37.4324562 45.8581481,35.8823148 46.3717109,34.2084533 C46.8852738,32.5345917 47.1420553,30.780676 47.1420553,28.9467061 C47.1420553,25.7154257 46.3056814,22.702475 44.6329337,19.907854 C43.048225,17.2005651 40.8912606,15.0463782 38.1620405,13.4452935 C35.3447807,11.8150978 32.3000861,11 29.0279565,11 C25.7558269,11 22.7111322,11.8150978 19.8938725,13.4452935 C17.1646524,15.0463782 14.9930149,17.2005651 13.37896,19.907854 C11.7355585,22.702475 10.9138577,25.7227034 10.9138577,28.9685391 C10.9138577,32.2143748 11.7355585,35.2346031 13.37896,38.0292241 C14.9930149,40.7365131 17.1646524,42.8761447 19.8938725,44.4481192 C22.7111322,46.1074251 25.7484903,46.9370781 29.0059467,46.9370781 C30.7960803,46.9370781 32.5568676,46.6750824 34.2883084,46.1510909 C35.9610564,45.6562103 37.5310917,44.9284445 38.9984144,43.9677933 C39.0277609,44.0114594 39.0644439,44.0660419 39.0864537,44.0987915 C39.0864537,44.1279021 39.1011269,44.1424574 39.1304734,44.1424574 C42.3292369,47.3009613 46.3276913,51.2490911 48.726764,53.617969 C49.4310787,54.3457347 50.2967991,54.7096176 51.323925,54.7096176 C52.3510509,54.7096176 53.2167714,54.3457347 53.9210864,53.617969 C54.6547476,52.890203 55.0142416,52.0314392 54.9995684,51.0416776 C54.9848952,50.051916 54.610728,49.2077077 53.8770668,48.5090526 L53.8770668,48.5090526 Z M29.0059467,40.6928472 C26.8636556,40.6928472 24.8901065,40.1688557 23.0852995,39.1208729 C21.2804925,38.0728901 19.8351797,36.6464691 18.7493611,34.8416098 C17.6928886,33.0367502 17.1646524,31.0717823 17.1646524,28.9467061 C17.1646524,26.8216299 17.6928886,24.8712174 18.7493611,23.0954688 C19.8351797,21.2906092 21.2804925,19.8569103 23.0852995,18.7943722 C24.8901065,17.7318341 26.8636556,17.2005651 29.0059467,17.2005651 C31.1482377,17.2005651 33.1291234,17.7318341 34.9486036,18.7943722 C36.7680839,19.8569103 38.2060601,21.2906092 39.2625323,23.0954688 C40.3190047,24.8712174 40.847241,26.8216299 40.847241,28.9467061 C40.847241,31.0717823 40.3190047,33.0367502 39.2625323,34.8416098 C38.2060601,36.6464691 36.7680839,38.0728901 34.9486036,39.1208729 C33.1291234,40.1688557 31.1482377,40.6928472 29.0059467,40.6928472 L29.0059467,40.6928472 Z" id="looking-glass" fill="#000000"></path>
            </g>
            <g id="icon-rss" transform="translate(539.000000, 26.000000)">
                <g id="Box" stroke="#FF0000" stroke-width="2">
                    <use id="Rectangle-path" mask="url(#mask-14)" xlink:href="#path-13"></use>
                </g>
                <path d="M13.5104894,42.9300698 C12.3356644,42.9300698 11.2505829,43.2156176 10.2552449,43.7867133 C9.25990695,44.3578089 8.46853163,45.1491842 7.88111898,46.1608392 C7.29370633,47.1398602 7,48.2249417 7,49.4160839 C7,50.607226 7.29370633,51.7086246 7.88111898,52.7202796 C8.46853163,53.6993006 9.25990695,54.4743589 10.2552449,55.0454545 C11.2505829,55.6165502 12.3356644,55.902098 13.5104894,55.902098 C14.6853147,55.902098 15.7703963,55.6165502 16.7657343,55.0454545 C17.7610723,54.4743589 18.5524476,53.6993006 19.1398602,52.7202796 C19.7272729,51.7086246 20.0209792,50.6153845 20.0209792,49.4405594 C20.0209792,48.2657342 19.7272729,47.1888112 19.1398602,46.2097902 C18.5524476,45.1981352 17.7610723,44.3986014 16.7657343,43.8111888 C15.7703963,43.2237761 14.6853147,42.9300698 13.5104894,42.9300698 L13.5104894,42.9300698 Z M7,23.5944057 L7,33.041958 C10.0675989,33.041958 12.9965033,33.621212 15.7867131,34.7797202 C18.5769229,35.9382283 21.0489509,37.5944055 23.2027972,39.7482518 C25.3566435,41.9020978 27.0209792,44.3822842 28.1958043,47.1888112 C29.3706295,49.9953381 29.958042,52.9324011 29.958042,56 L39.4055943,56 C39.4055943,51.6270398 38.5407925,47.4335665 36.8111889,43.4195803 C35.1794873,39.5361303 32.8706295,36.1013984 29.8846155,33.1153845 C26.8986016,30.1293705 23.4638697,27.8205127 19.5804197,26.1888111 C15.5664335,24.4592075 11.3729602,23.5944057 7,23.5944057 L7,23.5944057 Z M7,7 L7,16.3986013 C12.3519812,16.3986013 17.4755243,17.4428905 22.3706292,19.5314687 C27.1025641,21.5547787 31.2960373,24.3939395 34.9510489,28.0489511 C38.6060605,31.7039627 41.4452213,35.8974359 43.4685313,40.6293708 C45.5571095,45.5244757 46.6013987,50.6480188 46.6013987,56 L56,56 C56,49.3752915 54.7109557,43.0279721 52.1328671,36.9580419 C49.6526808,31.083916 46.1526809,25.8869463 41.6328673,21.3671327 C37.1130537,16.8473191 31.916084,13.3473192 26.0419581,10.8671329 C19.9720279,8.28904431 13.6247085,7 7,7 Z" id="rss" fill="#000000"></path>
            </g>
            <g id="icon-arrow-thin-right" transform="translate(623.000000, 26.000000)">
                <g id="Box" transform="translate(0.000000, 0.500000)" stroke="#FF0000" stroke-width="2">
                    <use id="Rectangle-path" mask="url(#mask-16)" xlink:href="#path-15"></use>
                </g>
                <g id="icon" transform="translate(7.000000, 11.000000)" fill="#000000">
                    <polygon id="pijl" points="38.6248784 18.1961604 0 18.1961604 0 24.6253748 37.3222149 24.6253748 24.777203 37.6816252 29.3271084 42.0831644 49.5049505 21.262401 29.3271084 0.491093069 24.777203 5.28827624 37.9021346 18.5777836"></polygon>
                </g>
            </g>
            <g id="icon-arrow-thin-left" transform="translate(707.000000, 26.000000)">
                <g id="Box" stroke="#FF0000" stroke-width="2">
                    <use id="Rectangle-path" mask="url(#mask-18)" xlink:href="#path-17"></use>
                </g>
                <g id="icon" transform="translate(7.000000, 10.500000)" fill="#000000">
                    <polygon id="pijl" transform="translate(24.752475, 21.287129) rotate(180.000000) translate(-24.752475, -21.287129) " points="38.6248784 18.1961604 0 18.1961604 0 24.6253748 37.3222149 24.6253748 24.777203 37.6816252 29.3271084 42.0831644 49.5049505 21.262401 29.3271084 0.491093069 24.777203 5.28827624 37.9021346 18.5777836"></polygon>
                </g>
            </g>
            <g id="icon-arrow-thin-bottom" transform="translate(791.000000, 26.000000)">
                <g id="Box" stroke="#FF0000" stroke-width="2">
                    <use id="Rectangle-path" mask="url(#mask-20)" xlink:href="#path-19"></use>
                </g>
                <g id="icon" transform="translate(10.500000, 6.500000)" fill="#000000">
                    <polygon id="pijl" transform="translate(21.752475, 25.287129) rotate(90.000000) translate(-21.752475, -25.287129) " points="35.6248784 22.1961604 -3 22.1961604 -3 28.6253748 34.3222149 28.6253748 21.777203 41.6816252 26.3271084 46.0831644 46.5049505 25.262401 26.3271084 4.49109307 21.777203 9.28827624 34.9021346 22.5777836"></polygon>
                </g>
            </g>
            <g id="icon-arrow-thin-top" transform="translate(25.000000, 115.000000)">
                <g id="Box" stroke="#FF0000" stroke-width="2">
                    <use id="Rectangle-path" mask="url(#mask-22)" xlink:href="#path-21"></use>
                </g>
                <g id="icon" transform="translate(10.500000, 6.500000)" fill="#000000">
                    <polygon id="pijl" transform="translate(21.752475, 25.287129) rotate(270.000000) translate(-21.752475, -25.287129) " points="35.6248784 22.1961604 -3 22.1961604 -3 28.6253748 34.3222149 28.6253748 21.777203 41.6816252 26.3271084 46.0831644 46.5049505 25.262401 26.3271084 4.49109307 21.777203 9.28827624 34.9021346 22.5777836"></polygon>
                </g>
            </g>
            <g id="icon-external-link" transform="translate(109.000000, 115.000000)">
                <g id="Box" stroke="#FF0000" stroke-width="2">
                    <use id="Rectangle-path" mask="url(#mask-24)" xlink:href="#path-23"></use>
                </g>
                <g id="Group-3" transform="translate(7.000000, 7.000000)" fill="#000000">
                    <path d="M40.5535059,32.393349 C42.1484457,32.393349 45.3383251,32.393349 46.9332649,32.393349 L46.9332649,49.5049505 L40.5535059,49.5049505 L40.5535059,32.393349 L40.5535059,32.393349 Z" id="right"></path>
                    <path d="M0.296733168,43.0757361 C10.7194787,43.0757361 31.5649698,43.0757361 41.9877153,43.0757361 L41.9877153,49.5049505 L0.296733168,49.5049505 L0.296733168,43.0757361 L0.296733168,43.0757361 Z" id="bottom"></path>
                    <path d="M0.296733168,8.90198911 C1.90403676,8.90198911 5.11864394,8.90198911 6.72594752,8.90198911 L6.72594752,43.0757361 L0.296733168,43.0757361 C0.296733168,34.5322994 0.296733168,17.4454259 0.296733168,8.90198911 L0.296733168,8.90198911 Z" id="left"></path>
                    <path d="M0.296733168,3.31351832 L17.4083342,3.31351832 L17.4083342,9.74273267 L0.296733168,9.74273267 L0.296733168,3.31351832 L0.296733168,3.31351832 Z" id="top"></path>
                    <path d="M19.2381876,27.9918104 C24.7772031,21.6491431 35.855234,8.96380842 41.3942495,2.62114109 C42.5935452,3.67207042 44.9921365,5.77392908 46.1914322,6.82485842 C40.6771446,13.1675256 29.6485693,25.85286 24.1342817,32.1955272 C22.9102582,31.144598 20.4622111,29.0427396 19.2381876,27.9918104 L19.2381876,27.9918104 Z" id="pijl_3"></path>
                    <path d="M49.1093064,0.148366337 C49.1093064,1.48366473 49.1093064,4.15426151 49.1093064,5.4895599 C43.2117387,5.45246832 31.4166033,5.37828515 25.5190356,5.34119356 L25.5190356,0 C31.4166033,0.0370915842 43.2117387,0.111274752 49.1093064,0.148366337 L49.1093064,0.148366337 Z" id="pijl_2"></path>
                    <path d="M49.059851,23.6891822 L43.7186574,23.6891822 C43.7557491,17.8039782 43.8299325,6.0335703 43.8670243,0.148366337 L49.2082173,0.148366337 C49.1711257,6.0335703 49.0969426,17.8039782 49.059851,23.6891822 L49.059851,23.6891822 Z" id="path"></path>
                </g>
            </g>
            <g id="icon-download" transform="translate(193.000000, 115.000000)">
                <g id="Box" transform="translate(0.465347, 0.000000)" stroke="#FF0000" stroke-width="2">
                    <use id="Rectangle-path" mask="url(#mask-26)" xlink:href="#path-25"></use>
                </g>
                <path d="M49.848953,20.8477856 C49.5192497,20.3532309 49.0411799,19.9905573 48.4147436,19.7597649 C47.9531591,19.5619431 47.4091487,19.446547 46.7827124,19.4135767 C46.3211279,19.4135767 45.8595432,19.446547 45.3979584,19.5124876 C45.2166216,19.5454579 44.9899506,19.5866708 44.853948,19.6113985 C42.9746392,20.8725136 39.2160217,23.3947438 37.3367129,24.6558589 L37.3367129,8.48391188 C37.324349,8.40972871 37.2996213,8.26136238 37.2872574,8.18717921 C37.2542871,7.9234165 37.1553761,7.70910941 36.9905243,7.54425792 C36.7927025,7.34643581 36.4959695,7.24752475 36.1003252,7.24752475 L28.5830901,7.24752475 C28.1874462,7.24752475 27.8907132,7.34643581 27.6928911,7.54425792 C27.5280396,7.70910941 27.4291287,7.9234165 27.3961584,8.18717921 C27.3796733,8.2860901 27.3590668,8.40972871 27.346703,8.48391188 L27.346703,24.6558589 C25.479758,23.3947438 21.7458682,20.8725136 19.8789233,19.6113985 C19.7305567,19.5866708 19.4338235,19.5372153 19.2854569,19.5124876 C18.8238724,19.446547 18.362288,19.4135767 17.9007035,19.4135767 C17.3072375,19.446547 16.7632269,19.5619431 16.2686718,19.7597649 C15.6752058,19.9905573 15.197136,20.3532309 14.8344624,20.8477856 C14.3069373,21.6061035 14.0266896,22.3973914 13.9937193,23.2216495 C13.960749,23.8480858 14.0596599,24.458037 14.290452,25.051503 C14.4882741,25.4801172 14.6696109,25.760365 14.8344624,25.8922465 C14.8674327,25.9252168 15.7246614,26.947297 17.4061485,28.9584871 C19.5821901,31.5961135 21.3955583,33.7721553 22.846253,35.4866124 C25.2201167,38.2890906 27.1323957,40.4816175 28.5830901,42.0641931 C29.1765561,42.6906294 29.8029924,43.2181548 30.462399,43.6467693 C30.9239835,43.9764726 31.369083,44.22375 31.7976975,44.3886015 C31.9625492,44.4380569 32.1686137,44.4998762 32.2922525,44.5369678 C32.4282551,44.4998762 32.7002603,44.4256931 32.8362629,44.3886015 C33.2648771,44.22375 33.7099764,43.9764726 34.1715609,43.6467693 C34.7979972,43.2181548 35.4079483,42.6906294 36.0014144,42.0641931 C37.4850794,40.4816175 39.3973586,38.2890906 41.738252,35.4866124 C42.9251837,34.1018586 44.7385518,31.9258168 47.1783564,28.9584871 C48.8598432,26.947297 49.7335569,25.9252168 49.7994975,25.8922465 C49.9643493,25.7933353 50.1456861,25.5130875 50.3435079,25.051503 C50.6072706,24.458037 50.7226668,23.8480858 50.6896965,23.2216495 C50.6567262,22.3973914 50.3764784,21.6061035 49.848953,20.8477856 L49.848953,20.8477856 Z M54.349403,54.2797005 C54.349403,51.8563812 54.349403,47.0097426 54.349403,44.5864233 L48.2663772,44.5864233 L48.2663772,48.2461302 C48.2663772,48.6088038 48.150981,48.9055368 47.9201886,49.1363292 C47.7553371,49.2682104 47.5575152,49.3671213 47.3267228,49.4330619 C47.2278117,49.449547 47.1041729,49.4701535 47.0299896,49.4825173 L17.8512475,49.4825173 C17.7647005,49.4701535 17.5916064,49.4454257 17.5050594,49.4330619 C17.274267,49.3671213 17.076445,49.2682104 16.9115936,49.1363292 C16.7137715,48.9055368 16.6148604,48.6088038 16.6148604,48.2461302 L16.6148604,44.5864233 L10.5812901,44.5864233 L10.5812901,54.2797005 L10.5812901,54.6753446 C10.6142604,54.9720776 10.6966861,55.2523254 10.8285673,55.5160881 C10.9934191,55.8787617 11.2406967,56.1590094 11.5704,56.3568312 C11.9660439,56.6205939 12.4605988,56.7524752 13.0540649,56.7524752 L52.024995,56.7524752 C52.6184607,56.7524752 53.0965304,56.6205939 53.459204,56.3568312 C53.755937,56.1590094 53.9867294,55.8787617 54.1515812,55.5160881 C54.2504921,55.2523254 54.3164327,54.9720776 54.349403,54.6753446 L54.349403,54.2797005 L54.349403,54.2797005 Z" id="path" fill="#000000"></path>
            </g>
            <g id="icon-close" transform="translate(278.000000, 115.000000)">
                <path d="M8,15.1710465 C9.79276163,13.3782849 13.3782849,9.79276163 15.1710465,8 C19.5725856,12.3891751 28.3756639,21.1675254 32.777203,25.5567005 C37.1663782,21.1675254 45.9447287,12.3891751 50.333904,8 C52.1266656,9.79276163 55.7121889,13.3782849 57.5049505,15.1710465 C53.1157754,19.5602218 44.3374251,28.3385723 39.94825,32.7277475 C44.3374251,37.1292866 53.1157754,45.9323649 57.5049505,50.333904 C55.7121889,52.1266656 52.1266656,55.7121889 50.333904,57.5049505 C45.9447287,53.1157754 37.1663782,44.3374251 32.777203,39.94825 C28.3756639,44.3374251 19.5725856,53.1157754 15.1710465,57.5049505 C13.3782849,55.7121889 9.79276163,52.1266656 8,50.333904 C12.3891751,45.9323649 21.1675254,37.1292866 25.5567005,32.7277475 C21.1675254,28.3385723 12.3891751,19.5602218 8,15.1710465 L8,15.1710465 Z" id="path" fill="#000000"></path>
                <g id="Box" transform="translate(0.752475, 0.752475)" stroke="#FF0000" stroke-width="2">
                    <use id="Rectangle-path" mask="url(#mask-28)" xlink:href="#path-27"></use>
                </g>
            </g>
            <g id="2015-rss" transform="translate(363.000000, 115.000000)">
                <g id="box" stroke="#FF0000" stroke-width="2">
                    <use id="Rectangle-path" mask="url(#mask-30)" xlink:href="#path-29"></use>
                </g>
                <g id="icon" transform="translate(9.000000, 9.000000)" fill="#000000">
                    <path d="M44.8564,5.1172 C44.5137,3.0557 42.9453,1.4873 40.8828,1.1436 C34.9219,0.1504 24.9863,0.1504 23,0.1504 C21.0137,0.1504 11.0781,0.1504 5.1172,1.1436 C3.0547,1.4873 1.4863,3.0557 1.1436,5.1172 C0.1504,11.0781 0.1504,21.0137 0.1504,23 C0.1504,24.9863 0.1504,34.9219 1.1436,40.8828 C1.4863,42.9443 3.0547,44.5127 5.1172,44.8564 C11.0781,45.8496 21.0137,45.8496 23,45.8496 C24.9863,45.8496 34.9219,45.8496 40.8828,44.8564 C42.9453,44.5127 44.5137,42.9443 44.8564,40.8828 C45.8496,34.9219 45.8496,24.9863 45.8496,23 C45.8496,17.0361 45.8496,11.0781 44.8564,5.1172 Z M11.502,39.5435 C8.2499,39.5435 6.457,37.7524 6.457,34.4995 C6.457,31.2476 8.2499,29.4575 11.502,29.4575 C14.752,29.4575 16.543,31.2476 16.543,34.4995 C16.543,37.7524 14.752,39.5435 11.502,39.5435 Z M26.1288,39.9911 C25.0841,40.006 24.0205,40.0163 22.92,40.0163 C21.9695,40.0163 21.0437,40.0092 20.1342,39.9981 C20.9819,38.4893 21.4555,36.6811 21.4555,34.6386 C21.4555,28.6013 17.3996,24.5449 11.3628,24.5449 C9.3197,24.5449 7.5111,25.0187 6.0019,25.8669 C5.9908,24.957 5.9837,24.0309 5.9837,23.08 C5.9837,21.9798 5.994,20.9165 6.0089,19.8721 C7.6604,19.3251 9.4517,19.0166 11.3628,19.0166 C20.4142,19.0166 26.9838,25.5866 26.9838,34.6386 C26.9838,36.5492 26.6756,38.34 26.1288,39.9911 Z M38.1657,39.3384 C36.4409,39.5441 34.3269,39.7079 31.8989,39.8221 C32.2856,38.1708 32.5121,36.4434 32.5121,34.6386 C32.5121,22.581 23.4199,13.4883 11.3629,13.4883 C9.5576,13.4883 7.8297,13.7149 6.1779,14.1019 C6.2921,11.6742 6.4559,9.5603 6.6616,7.835 C8.1825,7.5909 9.7506,7.4575 11.3628,7.4575 C26.858,7.4575 38.543,19.1428 38.543,34.6386 C38.543,36.2504 38.4096,37.8179 38.1657,39.3384 Z" id="Shape"></path>
                </g>
            </g>
            <g id="2028-delen" transform="translate(447.000000, 115.000000)">
                <g id="Box" stroke="#FF0000" stroke-width="2">
                    <use id="Rectangle-path" mask="url(#mask-32)" xlink:href="#path-31"></use>
                </g>
                <g id="Icon" transform="translate(6.000000, 4.000000)" fill="#000000">
                    <path d="M42,38 C39.9547,38 38.075,38.6902 36.5635,39.8396 L17.9216,29.1293 C17.9681,28.7585 18,28.3834 18,28 C18,25.8735 17.2583,23.9226 16.0251,22.3824 C16.1131,22.3023 16.3342,22.2875 16.5429,22.4196 C16.9206,22.6586 18.3223,23.6932 19.866,25.8205 L36.5785,16.1716 C38.0875,17.3142 39.9614,18 42,18 C46.9706,18 51,13.9705 51,9 C51,4.0294 46.9706,0 42,0 C37.0295,0 33,4.0294 33,9 C33,9.377 33.0306,9.7462 33.0756,10.111 L14.4613,20.8581 C12.9457,19.6974 11.0565,19 9,19 C4.0295,19 0,23.0294 0,28 C0,32.9705 4.0295,37 9,37 C11.0319,37 12.9001,36.3186 14.4066,35.1829 L33.0727,45.9078 C33.0292,46.2665 33,46.6295 33,47 C33,51.9705 37.0295,56 42,56 C46.9706,56 51,51.9705 51,47 C51,42.0294 46.9706,38 42,38 Z" id="Shape"></path>
                </g>
            </g>
            <g id="2012-email" transform="translate(531.000000, 115.000000)">
                <g id="box" stroke="#FF0000" stroke-width="2">
                    <use id="Rectangle-path" mask="url(#mask-34)" xlink:href="#path-33"></use>
                </g>
                <g id="Production" transform="translate(7.000000, 15.000000)" fill="#000000">
                    <path d="M48,0 L2,0 C0.8955,0 0,0.8955 0,2 L0,32 C0,33.1045 0.8955,34 2,34 L48,34 C49.1045,34 50,33.1045 50,32 L50,2 C50,0.8955 49.1045,0 48,0 Z M44.0419,5 L25,17.6016 L5.9581,5 L44.0419,5 Z M5,9.1625 L23.8965,21.668 C24.2305,21.8892 24.6152,22 25,22 C25.3848,22 25.7695,21.8892 26.1035,21.668 L45,9.1625 L45,28.9351 L33.165,20.3242 C33.165,20.3242 32.9238,20.4775 33.1406,20.7422 C33.3574,21.0069 39.9511,29 39.9511,29 L10.1689,29 C10.1689,29 16.753,21.0225 16.9688,20.7578 C17.1846,20.4931 16.9561,20.3242 16.9561,20.3242 L5.0318,29 L5,29 L5,9.1625 Z" id="Shape"></path>
                </g>
            </g>
            <g id="2053-fysiek-archief" transform="translate(615.000000, 115.000000)">
                <g id="box" stroke="#FF0000" stroke-width="2">
                    <use id="Rectangle-path" mask="url(#mask-36)" xlink:href="#path-35"></use>
                </g>
                <g id="Icon" transform="translate(7.000000, 10.000000)" fill="#000000">
                    <g id="Group">
                        <path d="M0,13 L0,46 C0,46.5523 0.4477,47 1,47 L49,47 C49.5523,47 50,46.5523 50,46 L50,13 C50,12.4477 49.5523,12 49,12 L1,12 C0.4477,12 0,12.4477 0,13 Z M18,20 L32,20 L32,27 L18,27 L18,20 Z M35,40.5 C35,41.3286 34.3281,42 33.5,42 L16.5,42 C15.6719,42 15,41.3286 15,40.5 L15,37 C15,36.1714 15.6719,35.5 16.5,35.5 C17.3281,35.5 18,36.1714 18,37 L18,39 L32,39 L32,37 C32,36.1714 32.6719,35.5 33.5,35.5 C34.3281,35.5 35,36.1714 35,37 L35,40.5 Z" id="Shape"></path>
                        <path d="M44,6 L6,6 C5.4477,6 5,6.4477 5,7 L5,10 L45,10 L45,7 C45,6.4477 44.5523,6 44,6 Z" id="Shape"></path>
                        <path d="M39,0 L11,0 C10.4477,0 10,0.4477 10,1 L10,4 L40,4 L40,1 C40,0.4477 39.5523,0 39,0 Z" id="Shape"></path>
                    </g>
                </g>
            </g>
            <g id="1001-pijl-links" transform="translate(699.000000, 115.000000)">
                <g id="box" stroke="#FF0000" stroke-width="2">
                    <use id="Rectangle-path" mask="url(#mask-38)" xlink:href="#path-37"></use>
                </g>
                <g id="icon" transform="translate(11.000000, 13.000000)" fill="#000000">
                    <path d="M1.9004,16.3403 L20.9004,1.3403 C22.1719,0.3345 23.9805,0.3721 25.21,1.4312 C26.4395,2.4888 26.7471,4.27 25.9434,5.6792 L21.1975,14 L38.4736,14 C41.1904,14 42.001,16.3491 42,19.0015 C42.001,21.6519 41.1914,24 38.4736,24 L14.6934,24 C14.6934,24 14.5391,24.2578 15.015,24.3863 C15.6112,24.5473 22.5645,26.3967 22.5645,26.3967 L25.9434,32.3208 C26.7471,33.73 26.4395,35.5112 25.21,36.5688 C24.5762,37.1147 23.7881,37.3887 23,37.3887 C22.2588,37.3887 21.5166,37.147 20.9004,36.6597 L1.9004,21.6597 C1.0859,21.0171 0.6113,20.0371 0.6113,19 C0.6113,17.9629 1.0859,16.9829 1.9004,16.3403 Z" id="Shape"></path>
                </g>
            </g>
            <g id="1002-pijl-beneden" transform="translate(783.000000, 115.000000)">
                <g id="box" stroke="#FF0000" stroke-width="2">
                    <use id="Rectangle-path" mask="url(#mask-40)" xlink:href="#path-39"></use>
                </g>
                <g id="icon" transform="translate(13.000000, 11.000000)" fill="#000000">
                    <path d="M16.3403,40.0996 L1.3403,21.0996 C0.3345,19.8281 0.3721,18.0195 1.4312,16.79 C2.4888,15.5605 4.27,15.2529 5.6792,16.0566 L14,20.8025 L14,3.5264 C14,0.8096 16.3491,-0.001 19.0015,5.28319013e-16 C21.6519,-0.001 24,0.8086 24,3.5264 L24,27.3066 C24,27.3066 24.2578,27.4609 24.3863,26.985 C24.5473,26.3888 26.3967,19.4355 26.3967,19.4355 L32.3208,16.0566 C33.73,15.2529 35.5112,15.5605 36.5688,16.79 C37.1147,17.4238 37.3887,18.2119 37.3887,19 C37.3887,19.7412 37.147,20.4834 36.6597,21.0996 L21.6597,40.0996 C21.0171,40.9141 20.0371,41.3887 19,41.3887 C17.9629,41.3887 16.9829,40.9141 16.3403,40.0996 Z" id="Shape"></path>
                </g>
            </g>
            <g id="1003-pijl-rechts" transform="translate(25.000000, 200.000000)">
                <g id="box" stroke="#FF0000" stroke-width="2">
                    <use id="Rectangle-path" mask="url(#mask-42)" xlink:href="#path-41"></use>
                </g>
                <g id="icon" transform="translate(11.000000, 13.000000)" fill="#000000">
                    <path d="M40.0996,16.3403 L21.0996,1.3403 C19.8281,0.3345 18.0195,0.3721 16.79,1.4312 C15.5605,2.4888 15.2529,4.27 16.0566,5.6792 L20.8025,14 L3.5264,14 C0.8096,14 -0.001,16.3491 5.28319013e-16,19.0015 C-0.001,21.6519 0.8086,24 3.5264,24 L27.3066,24 C27.3066,24 27.4609,24.2578 26.985,24.3863 C26.3888,24.5473 19.4355,26.3967 19.4355,26.3967 L16.0566,32.3208 C15.2529,33.73 15.5605,35.5112 16.79,36.5688 C17.4238,37.1147 18.2119,37.3887 19,37.3887 C19.7412,37.3887 20.4834,37.147 21.0996,36.6597 L40.0996,21.6597 C40.9141,21.0171 41.3887,20.0371 41.3887,19 C41.3887,17.9629 40.9141,16.9829 40.0996,16.3403 Z" id="Shape"></path>
                </g>
            </g>
            <g id="1004-pijl-boven" transform="translate(109.000000, 200.000000)">
                <g id="box" stroke="#FF0000" stroke-width="2">
                    <use id="Rectangle-path" mask="url(#mask-44)" xlink:href="#path-43"></use>
                </g>
                <g id="icon" transform="translate(13.000000, 11.000000)" fill="#000000">
                    <path d="M16.3403,1.9004 L1.3403,20.9004 C0.3345,22.1719 0.3721,23.9805 1.4312,25.21 C2.4888,26.4395 4.27,26.7471 5.6792,25.9434 L14,21.1975 L14,38.4736 C14,41.1904 16.3491,42.001 19.0015,42 C21.6519,42.001 24,41.1914 24,38.4736 L24,14.6934 C24,14.6934 24.2578,14.5391 24.3863,15.015 C24.5473,15.6112 26.3967,22.5645 26.3967,22.5645 L32.3208,25.9434 C33.73,26.7471 35.5112,26.4395 36.5688,25.21 C37.1147,24.5762 37.3887,23.7881 37.3887,23 C37.3887,22.2588 37.147,21.5166 36.6597,20.9004 L21.6597,1.9004 C21.0171,1.0859 20.0371,0.6113 19,0.6113 C17.9629,0.6113 16.9829,1.0859 16.3403,1.9004 Z" id="Shape"></path>
                </g>
            </g>
            <g id="1005-kaart" transform="translate(193.000000, 200.000000)">
                <g id="box" stroke="#FF0000" stroke-width="2">
                    <use id="Rectangle-path" mask="url(#mask-46)" xlink:href="#path-45"></use>
                </g>
                <g id="icon" transform="translate(3.000000, 6.000000)" fill="#000000">
                    <path d="M23,1 C23,1 20.4651,14.4348 20.3862,14.728 C20.2907,15.0821 20.0002,14.9889 20.0002,14.9889 L20,0 L1.1704,8.5838 C0.4575,8.9088 0,9.6201 0,10.4036 L0,49.9989 C0,50.7267 0.7526,51.2107 1.4148,50.9088 L19.9625,41.8998 L37.143,50.5676 C37.6848,50.8409 38.3213,50.8535 38.8735,50.6018 L56.8297,42.4162 C57.5425,42.0912 58,41.3799 58,40.5964 L58,1.0012 C58,0.2734 57.2474,-0.2106 56.5852,0.0913 L38,9.0833 L23,1 Z" id="Shape"></path>
                </g>
            </g>
            <g id="1035-sturing" transform="translate(277.000000, 200.000000)">
                <g id="box" stroke="#FF0000" stroke-width="2">
                    <use id="Rectangle-path" mask="url(#mask-48)" xlink:href="#path-47"></use>
                </g>
                <g id="Icon" transform="translate(4.000000, 3.000000)" fill="#000000">
                    <g id="Group">
                        <path d="M54.7165,11.5748 L51.5759,6.8638 C51.2197,6.3297 50.5571,6 49.8394,6 L25.5152,6 C25.4943,5.9438 25.4479,5.7377 25.7651,5.6359 C25.9622,5.5727 28.2742,5.1183 30,4.7827 L30,1.6564 C30,0.4926 28.433,0.2028 26.5,0.2028 C24.567,0.2028 23,0.4926 23,1.6564 L23,6 L18,6 C17.4477,6 17,6.4477 17,7 L17,17 C17,17.5523 17.4477,18 18,18 L49.8394,18 C50.5571,18 51.2198,17.6703 51.5759,17.1362 L54.7165,12.4252 C54.8882,12.1677 54.8882,11.8323 54.7165,11.5748 Z" id="Shape"></path>
                        <path d="M37,20 L5.1606,20 C4.4429,20 3.7802,20.3297 3.4241,20.8638 L0.2835,25.5748 C0.1118,25.8323 0.1118,26.1678 0.2835,26.4253 L3.4241,31.1363 C3.7803,31.6703 4.4429,32 5.1606,32 L23,32 L27.4848,32 C27.5057,32.0562 27.5521,32.2623 27.2349,32.3641 C27.0378,32.4273 24.7257,32.8817 23,33.2173 L23,60 L30,60 L30,32 L37,32 C37.5523,32 38,31.5523 38,31 L38,21 C38,20.4477 37.5523,20 37,20 Z" id="Shape"></path>
                    </g>
                </g>
            </g>
            <g id="1045-ketting" transform="translate(361.000000, 200.000000)">
                <g id="box" stroke="#FF0000" stroke-width="2">
                    <use id="Rectangle-path" mask="url(#mask-50)" xlink:href="#path-49"></use>
                </g>
                <g id="Icon" transform="translate(6.000000, 6.000000)" fill="#000000">
                    <path d="M47.9092,4.0908 C42.4547,-1.3637 33.5808,-1.3637 28.1273,4.0908 L21.7678,10.4498 C16.3143,15.9043 16.3143,24.7778 21.7683,30.2322 C23.5622,32.0264 25.7299,33.2087 28.0209,33.818 C27.6544,35.1218 26.9718,36.3333 25.9929,37.3122 L19.6344,43.6712 C16.5174,46.7868 11.4459,46.7887 8.3298,43.6712 C5.2132,40.5546 5.2132,35.4827 8.3293,32.3661 L14.6883,26.0071 C15.1056,25.5898 15.5599,25.2329 16.0379,24.9274 C15.4334,22.8555 15.2543,20.6877 15.4874,18.556 C13.6497,19.2334 11.9229,20.2949 10.4496,21.7684 L4.0901,28.1274 C-1.3634,33.582 -1.3634,42.4555 4.0905,47.91 C6.8172,50.6372 10.3997,52.0004 13.9817,52.0004 C17.5637,52.0004 21.1462,50.6373 23.8734,47.91 L30.2319,41.551 L30.2314,41.551 C33.3919,38.3915 34.8579,33.8669 34.1534,29.4478 C33.687,26.5235 32.3312,23.8684 30.2314,21.7686 C28.9048,20.442 27.3739,19.4481 25.7403,18.7721 C24.8915,20.2606 25.0634,22.3488 25.4568,23.8715 C25.7204,24.8919 26.0862,25.4322 26.1273,25.7543 C26.151,25.9393 26.0072,25.9933 26.0072,25.9933 C24.1579,24.1186 23.5846,21.8532 23.6718,19.9466 C23.7631,17.9525 24.6902,16.0053 26.0068,14.6886 L32.3658,8.3296 C33.9246,6.7713 35.9707,5.9927 38.0179,5.9927 C40.0645,5.9927 42.1122,6.7723 43.6704,8.3296 C46.787,11.4462 46.787,16.5181 43.6704,19.6347 L37.3119,25.9937 C36.889,26.4164 36.4279,26.7766 35.9429,27.0847 C36.5426,29.139 36.735,31.3018 36.4985,33.4495 C38.3416,32.7726 40.0738,31.7097 41.5511,30.2324 L47.9096,23.8734 L47.9091,23.8734 C53.3636,18.4198 53.3636,9.5443 47.9092,4.0908 Z" id="Shape"></path>
                </g>
            </g>
            <g id="2016-vraag-en-antwoord" transform="translate(445.000000, 201.000000)">
                <g id="box" stroke="#FF0000" stroke-width="2">
                    <use id="Rectangle-path" mask="url(#mask-52)" xlink:href="#path-51"></use>
                </g>
                <g id="icon" transform="translate(4.000000, 7.000000)" fill="#000000">
                    <path d="M54.0933,4.0313 C53.832,2.4204 52.6372,1.1948 51.0664,0.9263 C46.5259,0.1499 38.958,0.1499 37.4448,0.1499 C35.9312,0.1499 28.3633,0.1499 23.8228,0.9263 C22.2524,1.1948 21.0576,2.4204 20.7959,4.0313 C20.5767,5.3803 20.4224,6.686 20.3118,7.9021 C24.2973,7.9199 30.765,8.0718 35.0112,8.7979 C37.731,9.2627 39.7783,11.3506 40.2271,14.1167 C41.1001,19.4883 41.1001,20.8799 41.1001,26.0557 C41.1001,26.6597 41.0992,27.6063 41.066,28.7932 L48.5435,34.8516 C49.0791,35.209 49.5908,35.0371 49.875,34.6875 C50.0781,34.4375 50.0938,34.125 49.9375,33.7344 L47.9493,28.2927 C49.063,28.1919 50.1304,28.0663 51.0664,27.9063 C52.6372,27.6377 53.832,26.4121 54.0933,24.8018 C54.8501,20.1436 54.8501,15.9688 54.8501,14.4165 C54.8501,9.7563 54.8501,8.6885 54.0933,4.0313 Z" id="Shape"></path>
                    <path d="M34.6318,11.0156 C29.5693,10.1499 21.1318,10.1499 19.4448,10.1499 C17.7573,10.1499 9.3198,10.1499 4.2578,11.0156 C2.5063,11.3149 1.1743,12.6812 0.8828,14.4771 C0.0391,19.6699 0.0391,24.3252 0.0391,26.0557 C0.0391,27.7861 0.0391,32.4414 0.8828,37.6338 C1.1743,39.4297 2.5063,40.7959 4.2578,41.0957 C4.9204,41.2089 5.6437,41.3061 6.3996,41.3912 L10.148,36.1943 C10.3446,35.908 10.5479,36.0939 10.5479,36.0939 L7.29,47.5911 L7.2805,47.5865 L7.2283,47.7715 C7.1854,48.0195 7.2322,48.2783 7.3758,48.5078 C7.6863,49.002 8.3358,49.1484 8.8289,48.835 L20.0804,41.96 C22.6528,41.9536 30.0289,41.8823 34.6318,41.0957 C36.3828,40.7959 37.7148,39.4297 38.0063,37.6338 C38.8501,32.4414 38.8501,27.7861 38.8501,26.0557 C38.8501,20.8604 38.8501,19.6699 38.0063,14.4771 C37.7148,12.6812 36.3828,11.3149 34.6318,11.0156 Z M18.5193,36.9761 C16.9158,36.9761 15.9998,36.1129 15.9998,34.5046 C15.9998,33.0845 16.8508,31.9701 18.4874,31.9701 C20.0911,31.9701 21.0075,32.8663 21.0075,34.5046 C21.0075,35.8969 20.1565,36.9761 18.5193,36.9761 Z M21.9346,25.3901 L20.3477,26.2519 C19.4272,26.7422 19.0151,27.3563 19.0151,28.0328 C19.0151,28.6479 19.2686,29.3245 19.6489,30 L16.5107,30 C15.876,29.3858 15.5869,28.5855 15.5869,27.6346 C15.5869,26.2192 16.2529,25.2058 17.9668,24.1906 L19.6489,23.208 C20.9824,22.4404 21.4263,21.8252 21.4263,20.8417 C21.4263,19.7966 20.4111,19.028 18.4116,19.028 C16.9512,19.028 15.5547,19.3044 14,19.8889 L14,16.7841 C15.7446,16.107 17.3638,15.8 19.3325,15.8 C22.9497,15.8 25.2983,17.6443 25.2983,20.4108 C25.2983,22.8079 24.3784,24.0687 21.9346,25.3901 Z" id="Shape"></path>
                </g>
            </g>
            <g id="2014-nieuws" transform="translate(529.000000, 200.000000)">
                <g id="box" stroke="#FF0000" stroke-width="2">
                    <use id="Rectangle-path" mask="url(#mask-54)" xlink:href="#path-53"></use>
                </g>
                <g id="icon" transform="translate(5.000000, 11.000000)" fill="#000000">
                    <g id="Group" transform="translate(18.000000, 18.000000)">
                        <path d="M10.4469,13 C10.6768,12.0897 10.8333,11.0785 10.9197,10 L0.9377,10 C0.8708,11.0474 0.7458,12.0491 0.5662,13 L10.4469,13 Z" id="Shape"></path>
                        <rect id="Rectangle-path" x="1" y="5" width="10" height="3"></rect>
                        <rect id="Rectangle-path" x="1" y="0" width="10" height="3"></rect>
                    </g>
                    <g id="Group">
                        <path d="M52,0 L11,0 C9.8954,0 9,0.8954 9,2 L9,26.1665 C9,27.7899 8.8403,29.3013 8.5447,30.6282 C8.5447,30.6282 8.2488,30.7291 8.1997,30.3268 C7.7711,26.8118 5.854,10 5.854,10 L1.7742,10 C0.7432,10 0.0633,10.8115 0.1764,11.7191 C0.7431,16.2657 1.9846,24.2852 2.5732,28.3574 C3.5146,34.8589 4.4033,41 12,41 L44.166,41 C50.1396,41 54,35.1777 54,26.1665 L54,2 C54,0.8954 53.1046,0 52,0 Z M49,26.1665 C49,30.9028 47.4873,36 44.166,36 L11.8633,36 C13.2437,33.4529 14,30 14,25 L14,5 L49,5 L49,26.1665 Z" id="Shape"></path>
                        <rect id="Rectangle-path" x="19" y="10" width="25" height="5"></rect>
                        <path d="M32,24 L32,26.1665 C32,27.892 31.8384,29.5035 31.5547,31 L43.3985,31 C43.9,29.85 44,27.7811 44,26 L44,18 L32,18 L32,24 Z" id="Shape"></path>
                        <path d="M28.9197,28 L18.9378,28 C18.8709,29.0474 18.7459,30.0491 18.5662,31 L28.4469,31 C28.6768,30.0897 28.8333,29.0785 28.9197,28 Z" id="Shape"></path>
                        <rect id="Rectangle-path" x="19" y="23" width="10" height="3"></rect>
                        <rect id="Rectangle-path" x="19" y="18" width="10" height="3"></rect>
                    </g>
                </g>
            </g>
            <g id="2007-printer" transform="translate(613.000000, 200.000000)">
                <g id="box" stroke="#FF0000" stroke-width="2">
                    <use id="Rectangle-path" mask="url(#mask-56)" xlink:href="#path-55"></use>
                </g>
                <g id="icon" transform="translate(7.000000, 11.000000)" fill="#000000">
                    <g id="Group">
                        <path d="M13,4 L36,4 L36.1539,6 L40,6 L39.7147,1.6089 C39.7147,0.7207 39.162,0 38.2752,0 L10.8996,0 C10.0158,0 9.2853,0.7246 9.2853,1.6089 L9,6 L12.8461,6 L13,4 Z" id="Shape"></path>
                        <path d="M48,8 L2,8 C0.8955,8 0,8.8955 0,10 L0,27 C0,28.1045 0.8955,29 2,29 L6.4839,29 L18.4756,41.3774 C18.8455,41.7665 19.3508,42 20,42 L42.3926,42 C43.2803,42 44,41.2793 44,40.3926 L42.6541,29 L48,29 C49.1045,29 50,28.1045 50,27 L50,10 C50,8.8955 49.1045,8 48,8 Z M21.1895,38 C21.1895,38 20.5198,40.072 20.4083,40.4227 C20.2969,40.7734 20.0937,40.7734 20,40.7343 L20,38 L20,35.8696 L20,30 C20,29.4478 19.5527,29 19,29 L10.4863,29 L11.6211,20 L37.3721,20 L39.5107,38 L21.1895,38 Z M44.9989,15.16 C43.806,15.16 42.84,14.1929 42.84,13 C42.84,11.8066 43.806,10.84 44.9989,10.84 C46.1929,10.84 47.16,11.8066 47.16,13 C47.16,14.1929 46.1929,15.16 44.9989,15.16 Z" id="Shape"></path>
                    </g>
                </g>
            </g>
            <g id="2005-contact" transform="translate(697.000000, 200.000000)">
                <g id="box" stroke="#FF0000" stroke-width="2">
                    <use id="Rectangle-path" mask="url(#mask-58)" xlink:href="#path-57"></use>
                </g>
                <g id="icon" transform="translate(5.000000, 9.000000)" fill="#000000">
                    <g id="Group">
                        <path d="M54.2432,4.0314 C53.9818,2.4205 52.7871,1.1948 51.2163,0.9263 C46.6758,0.15 39.1079,0.15 37.5947,0.15 C36.0811,0.15 28.5132,0.15 23.9727,0.9264 C22.4022,1.1949 21.2075,2.4206 20.9458,4.0315 C20.7266,5.3805 20.5723,6.6861 20.4617,7.9023 C24.4471,7.9201 30.9148,8.0719 35.1611,8.798 C37.8809,9.2629 39.9282,11.3507 40.377,14.1169 C41.25,19.4884 41.25,20.88 41.25,26.0558 C41.25,26.6598 41.249,27.6064 41.2158,28.7933 L48.6934,34.8517 C49.229,35.2091 49.7407,35.0373 50.0249,34.6877 C50.228,34.4377 50.2437,34.1252 50.0874,33.7345 L48.0991,28.2929 C49.2129,28.1921 50.2803,28.0665 51.2163,27.9065 C52.7871,27.6379 53.9818,26.4123 54.2432,24.8019 C55,20.1436 55,15.9689 55,14.4166 C55,9.7563 55,8.6885 54.2432,4.0314 Z" id="Shape"></path>
                        <path d="M34.7816,11.0156 C29.7191,10.15 21.2816,10.15 19.5947,10.15 C17.9072,10.15 9.4697,10.15 4.4077,11.0156 C2.6561,11.3149 1.3242,12.6813 1.0327,14.4772 C0.189,19.6699 0.189,24.3253 0.189,26.0557 C0.189,27.7861 0.189,32.4415 1.0327,37.6339 C1.3242,39.4297 2.6561,40.796 4.4077,41.0958 C5.0703,41.209 5.7935,41.3062 6.5494,41.3913 L10.3117,36.171 C10.5083,35.8847 10.6978,36.094 10.6978,36.094 L7.4399,47.5911 L7.4303,47.5865 L7.3782,47.7715 C7.3352,48.0195 7.3821,48.2783 7.5256,48.5079 C7.8362,49.0021 8.4856,49.1484 8.9788,48.835 L20.2302,41.9601 C22.8026,41.9536 30.1787,41.8824 34.7816,41.0958 C36.5327,40.796 37.8646,39.4297 38.1561,37.6339 C39,32.4415 39,27.7861 39,26.0557 C39,20.8605 39,19.6699 38.1561,14.4772 C37.8646,12.6813 36.5327,11.3149 34.7816,11.0156 Z M10.5,29.075 C9.0776,29.075 7.925,27.9222 7.925,26.5 C7.925,25.0776 9.0776,23.925 10.5,23.925 C11.9224,23.925 13.075,25.0776 13.075,26.5 C13.075,27.9222 11.9224,29.075 10.5,29.075 Z M19.5,29.075 C18.0776,29.075 16.925,27.9222 16.925,26.5 C16.925,25.0776 18.0776,23.925 19.5,23.925 C20.9224,23.925 22.075,25.0776 22.075,26.5 C22.075,27.9222 20.9224,29.075 19.5,29.075 Z M28.5,29.075 C27.0776,29.075 25.925,27.9222 25.925,26.5 C25.925,25.0776 27.0776,23.925 28.5,23.925 C29.9224,23.925 31.075,25.0776 31.075,26.5 C31.075,27.9222 29.9224,29.075 28.5,29.075 Z" id="Shape"></path>
                    </g>
                </g>
            </g>
            <g id="2004-home" transform="translate(782.000000, 200.000000)">
                <g id="box" stroke="#FF0000" stroke-width="2">
                    <use id="Rectangle-path" mask="url(#mask-60)" xlink:href="#path-59"></use>
                </g>
                <g id="icon" transform="translate(7.000000, 8.000000)" fill="#000000">
                    <path d="M49.354,22.0468 L25.6772,0.264 C25.2944,-0.088 24.7056,-0.088 24.3228,0.264 L0.646,22.0468 C0.2344,22.4257 0,22.9594 0,23.5184 L0,25 C0,25.5522 0.4478,26 1,26 L5,26 L5,47 L20,47 L20,32 L30,32 L30,47 L45,47 L45,26 L49,26 C49.5522,26 50,25.5522 50,25 L50,23.5184 C50,22.9594 49.7656,22.4257 49.354,22.0468 Z" id="Shape"></path>
                </g>
            </g>
            <g id="2003-hulp" transform="translate(25.000000, 284.000000)">
                <g id="box" stroke="#FF0000" stroke-width="2">
                    <use id="Rectangle-path" mask="url(#mask-62)" xlink:href="#path-61"></use>
                </g>
                <g id="icon" transform="translate(8.000000, 8.000000)" fill="#000000">
                    <path d="M44.8564,5.1172 C44.5132,3.0557 42.9448,1.4873 40.8828,1.1436 C34.9219,0.1499 24.9868,0.1499 23,0.1499 C21.0132,0.1499 11.0781,0.1499 5.1172,1.1436 C3.0552,1.4873 1.4868,3.0557 1.1436,5.1172 C0.1499,11.0781 0.1499,21.0132 0.1499,23 C0.1499,24.9868 0.1499,34.9219 1.1436,40.8828 C1.4868,42.9443 3.0552,44.5127 5.1172,44.8564 C11.0781,45.8501 21.0132,45.8501 23,45.8501 C24.9868,45.8501 34.9219,45.8501 40.8828,44.8564 C42.9448,44.5127 44.5132,42.9443 44.8564,40.8828 C45.8501,34.9219 45.8501,24.9868 45.8501,23 C45.8501,17.0361 45.8501,11.0781 44.8564,5.1172 Z M23.0225,39 C20.7803,39 19.5,37.7905 19.5,35.543 C19.5,33.5557 20.6895,32 22.9775,32 C25.2197,32 26.5,33.2529 26.5,35.543 C26.5,37.4883 25.3105,39 23.0225,39 Z M28.0913,21.8569 L25.6729,23.1904 C24.2705,23.9521 23.6421,24.9043 23.6421,25.9521 C23.6421,26.6003 23.8312,27.2938 24.1284,28 L19.0807,28 C18.642,27.2289 18.418,26.3414 18.418,25.333 C18.418,23.1426 19.4336,21.5713 22.0454,19.9995 L24.6084,18.4761 C26.6401,17.2856 27.3169,16.333 27.3169,14.8091 C27.3169,13.1904 25.7695,12 22.7222,12 C20.4971,12 18.3691,12.4287 16,13.333 L16,8.5234 C18.6592,7.4761 21.126,7 24.1255,7 C29.6382,7 33.2173,9.8569 33.2173,14.1426 C33.2173,17.8569 31.8154,19.8096 28.0913,21.8569 Z" id="Shape"></path>
                </g>
            </g>
            <g id="2002-info" transform="translate(109.000000, 284.000000)">
                <g id="box" stroke="#FF0000" stroke-width="2">
                    <use id="Rectangle-path" mask="url(#mask-64)" xlink:href="#path-63"></use>
                </g>
                <g id="icon" transform="translate(9.000000, 9.000000)" fill="#000000">
                    <path d="M44.8564,5.1172 C44.5132,3.0557 42.9448,1.4873 40.8828,1.1436 C34.9219,0.1499 24.9868,0.1499 23,0.1499 C21.0132,0.1499 11.0781,0.1499 5.1172,1.1436 C3.0552,1.4873 1.4868,3.0557 1.1436,5.1172 C0.1499,11.0781 0.1499,21.0132 0.1499,23 C0.1499,24.9868 0.1499,34.9219 1.1436,40.8828 C1.4868,42.9443 3.0552,44.5127 5.1172,44.8564 C11.0781,45.8501 21.0132,45.8501 23,45.8501 C24.9868,45.8501 34.9219,45.8501 40.8828,44.8564 C42.9448,44.5127 44.5132,42.9443 44.8564,40.8828 C45.8501,34.9219 45.8501,24.9868 45.8501,23 C45.8501,17.0361 45.8501,11.0781 44.8564,5.1172 Z M26,39 L19.4355,39 L20,25 L20,17 L26,17 L26,39 Z M23.0229,13 C20.7813,13 19.5,11.7466 19.5,9.457 C19.5,7.5122 20.6895,6 22.9771,6 C25.2188,6 26.5,7.2095 26.5,9.457 C26.5,11.4443 25.3105,13 23.0229,13 Z" id="Shape"></path>
                </g>
            </g>
            <g id="1016-actueel" transform="translate(193.000000, 284.000000)">
                <g id="Box" stroke="#FF0000" stroke-width="2">
                    <use id="Rectangle-path" mask="url(#mask-66)" xlink:href="#path-65"></use>
                </g>
                <g id="Icon" transform="translate(12.000000, 7.000000)" fill="#000000">
                    <g id="Group">
                        <rect id="Rectangle-path" x="8" y="8" width="24" height="5"></rect>
                        <rect id="Rectangle-path" x="8" y="34" width="24" height="3"></rect>
                        <rect id="Rectangle-path" x="8" y="39" width="18" height="3"></rect>
                        <rect id="Rectangle-path" x="8" y="17" width="10" height="3"></rect>
                        <rect id="Rectangle-path" x="8" y="22" width="10" height="3"></rect>
                        <rect id="Rectangle-path" x="8" y="27" width="10" height="3"></rect>
                        <rect id="Rectangle-path" x="21" y="17" width="11" height="13"></rect>
                        <path d="M38,0 L2,0 C0.8955,0 0,0.8955 0,2 L0,48 C0,49.1045 0.8955,50 2,50 L38,50 C39.1045,50 40,49.1045 40,48 L40,2 C40,0.8955 39.1045,0 38,0 Z M35,45 L5,45 L5,5 L35,5 L35,45 Z" id="Shape"></path>
                    </g>
                </g>
            </g>
        </g>
    </g>
</svg>